<?xml version="1.0" encoding="UTF-8" standalone="no"?>
<!-- Created with Inkscape (http://www.inkscape.org/) -->

<svg
   xmlns:dc="http://purl.org/dc/elements/1.1/"
   xmlns:cc="http://creativecommons.org/ns#"
   xmlns:rdf="http://www.w3.org/1999/02/22-rdf-syntax-ns#"
   xmlns:svg="http://www.w3.org/2000/svg"
   xmlns="http://www.w3.org/2000/svg"
   xmlns:sodipodi="http://sodipodi.sourceforge.net/DTD/sodipodi-0.dtd"
   xmlns:inkscape="http://www.inkscape.org/namespaces/inkscape"
   width="50"
   height="30"
   id="svg4873"
   version="1.1"
   inkscape:version="0.47 r22583"
   sodipodi:docname="body-mouth2.svg"
   inkscape:export-filename="/Users/aaxe/Documents/moralife/img/ml-graphics-mouthh.png"
   inkscape:export-xdpi="90"
   inkscape:export-ydpi="90"
   style="display:inline">
  <defs
     id="defs4875">
    <inkscape:perspective
       sodipodi:type="inkscape:persp3d"
       inkscape:vp_x="0 : 15 : 1"
       inkscape:vp_y="0 : 1000 : 0"
       inkscape:vp_z="50 : 15 : 1"
       inkscape:persp3d-origin="25 : 10 : 1"
       id="perspective3166" />
    <linearGradient
       y2="18.757723"
       x2="36.511288"
       y1="10.132723"
       x1="30.761288"
       gradientUnits="userSpaceOnUse"
       id="linearGradientTongueHappyLeft"
       inkscape:collect="always">
      <stop
         style="stop-color:#000000;stop-opacity:1;"
         offset="0"
         id="stop9585-9" />
      <stop
         style="stop-color:#000000;stop-opacity:0;"
         offset="1"
         id="stop9587-7" />
    </linearGradient>
    <linearGradient
       x1="18.937498"
       y1="10.968749"
       x2="15.613257"
       y2="21.241713"
       gradientUnits="userSpaceOnUse"
       id="linearGradientTongueHappyRight-0"
       inkscape:collect="always">
      <stop
         style="stop-color:#000000;stop-opacity:1;"
         offset="0"
         id="stop8" />
      <stop
         style="stop-color:#000000;stop-opacity:0;"
         offset="1"
         id="stop10" />
    </linearGradient>
    <linearGradient
       inkscape:collect="always"
       id="linearGradientTongueHappyCenter-0"
       x1="24.051834"
       y1="11.148165"
       x2="25.138954"
       y2="20.64147"
       gradientUnits="userSpaceOnUse">
      <stop
         style="stop-color:#000000;stop-opacity:1;"
         offset="0"
         id="stop4558" />
      <stop
         style="stop-color:#000000;stop-opacity:0;"
         offset="1"
         id="stop4560" />
    </linearGradient>
    <linearGradient
       inkscape:collect="always"
       id="linearGradientLipsHappyOpen-0"
       x1="27.491484"
       y1="2.7956614"
       x2="25.723717"
       y2="23.154022"
       gradientUnits="userSpaceOnUse">
      <stop
         style="stop-color:#000000;stop-opacity:1;"
         offset="0"
         id="stop4807-3" />
      <stop
         style="stop-color:#000000;stop-opacity:0;"
         offset="1"
         id="stop4809-3" />
    </linearGradient>
    <linearGradient
       inkscape:collect="always"
       id="linearGradientLipsHappyOpenAlt1-0"
       x1="26.456665"
       y1="3.2747874"
       x2="27.845037"
       y2="17.850721"
       gradientUnits="userSpaceOnUse">
      <stop
         style="stop-color:#000000;stop-opacity:1;"
         offset="0"
         id="stop4807" />
      <stop
         style="stop-color:#000000;stop-opacity:0;"
         offset="1"
         id="stop4809" />
    </linearGradient>
    <linearGradient
       inkscape:collect="always"
       id="linearGradientTongueSadCenter-0"
       x1="25.158436"
       y1="10.526844"
       x2="26.313576"
       y2="19.545275"
       gradientUnits="userSpaceOnUse">
      <stop
         style="stop-color:#000000;stop-opacity:1;"
         offset="0"
         id="stop4558-4" />
      <stop
         style="stop-color:#000000;stop-opacity:0;"
         offset="1"
         id="stop4560-0" />
    </linearGradient>
    <linearGradient
       y2="20.152191"
       x2="13.727324"
       y1="11.924466"
       x1="15.528294"
       gradientUnits="userSpaceOnUse"
       id="linearGradientTongueSadRight-0"
       inkscape:collect="always">
      <stop
         style="stop-color:#000000;stop-opacity:1;"
         offset="0"
         id="stop9585-9-0" />
      <stop
         style="stop-color:#000000;stop-opacity:0;"
         offset="1"
         id="stop9587-7-9" />
    </linearGradient>
    <linearGradient
       y2="20.016153"
       x2="36.488255"
       y1="11.387197"
       x1="30.004742"
       gradientUnits="userSpaceOnUse"
       id="linearGradientTongueSadLeft-0"
       inkscape:collect="always">
      <stop
         style="stop-color:#000000;stop-opacity:1;"
         offset="0"
         id="stop9585-9-1" />
      <stop
         style="stop-color:#000000;stop-opacity:0;"
         offset="1"
         id="stop9587-7-6" />
    </linearGradient>
    <linearGradient
       inkscape:collect="always"
       id="linearGradientLipsSadOpen-0"
       x1="25.294991"
       y1="4.3182235"
       x2="25.294991"
       y2="19.882614"
       gradientUnits="userSpaceOnUse">
      <stop
         style="stop-color:#000000;stop-opacity:1;"
         offset="0"
         id="stop29" />
      <stop
         style="stop-color:#000000;stop-opacity:0;"
         offset="1"
         id="stop31" />
    </linearGradient>
    <linearGradient
       inkscape:collect="always"
       id="linearGradientLipsSadOpenAlt1-0"
       x1="25.677391"
       y1="5.8580418"
       x2="25.294991"
       y2="19.882614"
       gradientUnits="userSpaceOnUse">
      <stop
         style="stop-color:#000000;stop-opacity:1;"
         offset="0"
         id="stop4485-4" />
      <stop
         style="stop-color:#000000;stop-opacity:0;"
         offset="1"
         id="stop4487-2" />
    </linearGradient>
    <linearGradient
       inkscape:collect="always"
       id="linearGradientLipsSadShock-0"
       x1="25.596035"
       y1="5.3565574"
       x2="25.294991"
       y2="19.882614"
       gradientUnits="userSpaceOnUse">
      <stop
         style="stop-color:#000000;stop-opacity:1;"
         offset="0"
         id="stop4485-4-1-0" />
      <stop
         style="stop-color:#000000;stop-opacity:0;"
         offset="1"
         id="stop4487-2-9-2" />
    </linearGradient>
    <linearGradient
       y2="19.882614"
       x2="25.294991"
       y1="6.1135707"
       x1="25.398832"
       gradientUnits="userSpaceOnUse"
       id="linearGradientLipsHappyShock-0"
       inkscape:collect="always">
      <stop
         style="stop-color:#000000;stop-opacity:1;"
         offset="0"
         id="stop4485-4-1-0-7" />
      <stop
         style="stop-color:#000000;stop-opacity:0;"
         offset="1"
         id="stop4487-2-9-2-4" />
    </linearGradient>
  </defs>
  <sodipodi:namedview
     id="base"
     pagecolor="#ffffff"
     bordercolor="#666666"
     borderopacity="1.0"
     inkscape:pageopacity="0.0"
     inkscape:pageshadow="2"
     inkscape:zoom="11.423423"
     inkscape:cx="17.427073"
     inkscape:cy="19.833633"
     inkscape:document-units="px"
     inkscape:current-layer="layerLipsHappyAlt1"
     showgrid="false"
     inkscape:window-width="1024"
     inkscape:window-height="708"
     inkscape:window-x="-4"
     inkscape:window-y="-4"
     inkscape:window-maximized="1" />
  <metadata
     id="metadata4878">
    <rdf:RDF>
      <cc:Work
         rdf:about="">
        <dc:format>image/svg+xml</dc:format>
        <dc:type
           rdf:resource="http://purl.org/dc/dcmitype/StillImage" />
        <dc:title />
      </cc:Work>
    </rdf:RDF>
  </metadata>
  <g
     inkscape:groupmode="layer"
     id="layerTotal"
     inkscape:label="Total"
     style="display:inline">
    <g
       inkscape:groupmode="layer"
       id="layerLips"
       inkscape:label="Lips"
       style="display:inline">
      <g
         style="display:none"
         inkscape:label="LipsHappyShock"
         id="layerLipsHappyShock"
         inkscape:groupmode="layer">
        <path
           style="fill:#b30d19;fill-opacity:1;stroke:#000000;stroke-width:1.07725465;stroke-miterlimit:4;stroke-opacity:1;stroke-dasharray:none;display:inline"
           d="M 34.283412,23.766514 C 32.580918,22.191272 27.904961,21.625905 25.16727,21.513832 22.936078,21.422492 17.156019,21.554892 15.395755,23.798183 14.895707,24.435447 16.194105,23.534954 17.025049,24.82025 18.573509,27.215389 22.492726,27.912373 25.133856,27.935515 27.960539,27.960285 32.174834,27.644042 33.178018,25.508734 33.937181,23.892833 35.985907,25.341753 34.283412,23.766514 z M 12.713929,8.9522791 C 17.027991,9.508384 23.14622,11.434721 25.460656,11.386598 27.775092,11.338475 29.265826,10.807077 31.822279,10.485865 35.309227,10.047739 39.185104,9.7327408 42.351194,8.9476778 39.704833,9.3721149 38.302265,8.0392672 36.090311,6.5556387 34.602418,5.2895002 33.49413,4.2626365 30.799334,4.1026189 28.104537,3.9426013 25.153189,5.9275222 25.153189,5.9275222 25.153189,5.9275222 22.672491,4.2450213 20.170311,4.2400747 17.668129,4.2351347 16.93158,5.1665051 14.545417,6.4064336 12.78734,7.4702844 9.8284242,8.3938919 7.5041868,8.0914405 9.5917124,9.0063551 10.777529,8.8985372 12.713929,8.9522791 z"
           id="path3096"
           sodipodi:nodetypes="cssssszczscczczccc"
           inkscape:connector-curvature="0" />
        <path
           sodipodi:nodetypes="czc"
           id="path3098"
           d="M 41.841671,9.1842917 C 39.24447,11.556424 38.25341,12.644771 36.823665,15.433541 35.411861,18.187318 34.460739,24.378707 34.460739,24.378707"
           style="fill:none;stroke:#000000;stroke-width:1.13898873px;stroke-linecap:butt;stroke-linejoin:miter;stroke-opacity:1;display:inline"
           inkscape:connector-curvature="0" />
        <path
           sodipodi:nodetypes="csccccszccccc"
           id="path3102"
           d="M 32.111008,22.405095 C 30.041347,21.557254 28.861401,21.317206 24.845037,21.234977 20.789513,21.151947 18.720934,21.78212 16.611098,22.614891 L 15.391139,23.354767 C 15.101494,18.022615 14.043421,12.633884 8.4471783,8.3476157 L 10.848064,9.1844614 C 11.913585,9.1426634 15.907709,10.070321 18.704581,10.614359 20.721105,11.006607 22.055584,11.668281 25.045234,11.829618 27.946756,11.986199 32.241674,10.594176 36.119365,10.325727 40.49701,10.069201 41.110905,9.3361427 41.312214,9.5522437 37.556557,12.898946 36.074305,16.45538 34.629646,23.756209 34.285942,23.859313 34.798396,23.502929 33.62291,23.021388 L 32.111008,22.405095 z"
           style="fill:url(#linearGradientLipsHappyShock-0);fill-opacity:1;stroke:none;display:inline"
           inkscape:connector-curvature="0" />
        <path
           sodipodi:nodetypes="ccscsssccsccccccsccscsscccsc"
           id="path3104"
           d="M 23.848285,12.952703 C 22.391388,13.31384 19.218093,14.166746 18.640134,15.224829 18.356772,15.712457 18.25061,16.246308 18.284293,16.756045 18.355733,17.837323 19.514609,18.761044 20.621694,19.504915 21.375585,20.038627 22.194817,19.575415 23.174809,19.431915 23.59928,19.369795 24.371396,19.726277 25.209748,19.807744 25.51085,19.837014 26.471914,19.564093 26.908814,19.571506 27.439539,19.580506 29.006426,19.887292 29.193038,19.829209 30.544603,19.242079 32.646392,18.265089 32.674966,16.706651 32.701226,16.036696 32.176296,15.598897 31.4547,15.076647 30.643974,14.489861 28.293416,13.329178 27.134104,13.002097 25.741597,13.847884 25.807116,14.396156 25.785209,14.829677 25.662064,14.889867 25.638473,14.864937 25.345377,15.175435 25.121571,14.918324 25.098309,14.911607 25.014829,14.879071 25.060449,14.273882 25.223885,13.732048 23.848285,12.952703 z M 24.15721,14.977859 C 24.291886,15.031399 24.396956,15.124492 24.658552,15.274224 24.957199,15.445176 25.048141,15.555245 25.234256,15.866952 L 25.354992,16.064528 C 25.533364,15.736988 25.687957,15.47094 25.982149,15.274224 26.239381,15.10227 26.372415,15.042917 26.505538,14.977859 26.927169,15.027099 27.329964,15.22922 27.550907,15.570588 27.652474,15.728411 27.711202,15.926089 27.70148,16.113922 27.68753,16.422855 27.459416,16.712469 27.202414,16.904228 L 25.259437,18.633019 23.48779,16.904228 C 23.126276,16.607959 22.945484,16.11519 23.149457,15.669375 23.338665,15.291088 23.732176,15.060272 24.15721,14.977859 z"
           style="fill:#000000;fill-opacity:1;stroke:#000000;stroke-width:0;stroke-linejoin:miter;stroke-miterlimit:4;stroke-opacity:0;stroke-dasharray:none;display:inline"
           inkscape:connector-curvature="0" />
        <path
           sodipodi:nodetypes="czc"
           id="path3098-1"
           d="M 8.7267959,8.3856563 C 12.207881,11.641673 12.772164,12.053244 14.201909,14.842014 15.613713,17.595791 15.76934,23.433626 15.76934,23.433626"
           style="fill:none;stroke:#000000;stroke-width:1.13898873px;stroke-linecap:butt;stroke-linejoin:miter;stroke-opacity:1;display:inline"
           inkscape:connector-curvature="0" />
      </g>
      <g
         style="display:none"
         inkscape:label="LipsHappyOpenAlt1"
         id="layerLipsHappyOpenAlt1"
         inkscape:groupmode="layer">
        <path
           style="fill:#b30d19;fill-opacity:1;stroke:#000000;stroke-width:0.80454051;stroke-miterlimit:4;stroke-opacity:1;stroke-dasharray:none;display:inline"
           d="M 16.213774,19.244243 C 17.442998,20.892837 18.121889,22.371942 19.49952,24.223267 21.059412,26.319522 24.418398,27.353515 27.283183,27.179325 29.639105,27.036076 29.769726,26.872475 31.333372,25.963831 32.910937,25.047098 34.845869,21.732628 34.819526,18.964019 30.312943,22.897322 29.862262,24.408368 27.118032,24.630367 23.855784,24.89427 20.909132,22.445084 16.213774,19.244243 z"
           id="path2970-4-2-7-8-2"
           sodipodi:nodetypes="cssscsc"
           inkscape:connector-curvature="0" />
        <path
           style="fill:#000000;fill-opacity:1;display:inline"
           d="M 39.179899,11.112043 C 36.870974,14.3162 35.253473,18.882835 30.886445,21.697931 28.95093,23.301106 28.166074,23.6869 26.575783,23.75144 24.42182,23.83886 21.90376,22.296653 20.531037,21.452345 15.534684,18.379285 13.028039,16.441994 8.658389,10.717459 L 6.6962261,10.113455 C 7.358787,10.840211 7.9835195,11.237596 8.2787407,11.838391 10.426564,14.519655 12.683514,17.047216 15.588191,19.34502 19.472944,22.418132 23.558856,24.864567 26.648242,24.922196 32.855455,24.45262 36.682553,17.504136 40.472336,10.837191 L 39.179899,11.112043 z"
           id="seg-1-6-1-7"
           sodipodi:nodetypes="ccascccsccc"
           inkscape:connector-curvature="0" />
        <path
           style="fill:url(#linearGradientLipsHappyOpenAlt1-0);fill-opacity:1;stroke:none;display:inline"
           d="M 41.105093,10.237021 C 38.431247,13.242262 36.300097,17.064579 31.344006,19.704909 29.151055,20.765426 28.060682,20.845645 26.292398,20.845619 24.302302,20.845589 20.924956,20.903689 19.387116,20.157795 13.832223,17.463517 12.151403,15.872339 7.5330091,10.503187 L 41.105093,10.237021 z"
           id="path2970-4-2-7-9-4"
           sodipodi:nodetypes="ccsscc"
           inkscape:connector-curvature="0" />
        <path
           style="fill:#b30d19;fill-opacity:1;stroke:#000000;stroke-width:1.06853592;stroke-miterlimit:4;stroke-opacity:1;stroke-dasharray:none;display:inline"
           d="M 24.565398,8.5388322 C 24.565398,8.5388322 22.658137,6.8748147 20.156526,6.8699489 17.654911,6.8650989 16.588627,7.7745842 13.778891,8.9939822 11.65752,10.040217 7.6111623,10.283712 5.9996543,8.9560522 6.1835584,11.256731 13.503005,11.646033 17.379282,11.362011 21.255559,11.077989 21.494862,10.601859 24.539138,10.633342 27.583414,10.664822 27.379789,11.072842 31.676525,11.200346 35.973261,11.32785 42.143297,10.936887 43.446465,8.8038808 41.607248,9.4732796 38.090222,9.9585892 36.311126,8.9939822 34.825678,8.6003282 33.466228,6.9135292 30.824756,6.7561614 28.66887,6.6374999 26.516962,7.5661251 24.565398,8.5388322 z"
           id="path2970-4-2-7-9"
           sodipodi:nodetypes="cscczzzcccc"
           inkscape:connector-curvature="0" />
        <path
           style="fill:#000000;fill-opacity:1;stroke:#000000;stroke-width:0;stroke-linejoin:miter;stroke-miterlimit:4;stroke-opacity:0;stroke-dasharray:none;display:inline"
           d="M 22.875,12.21875 C 20.845234,12.664945 19.163621,13.723983 18.40625,15.03125 17.242232,16.911716 18.43338,19.116441 20.78125,20.46875 21.869275,21.128169 22.379459,20.614736 23.75,20.4375 24.343642,20.36079 25.035614,20.555653 26.21875,20.65625 26.643671,20.69241 27.416518,20.365856 28.03125,20.375 28.778036,20.38624 29.365632,20.728021 29.625,20.65625 31.494834,19.930847 32.3226,18.800459 32.28125,16.875 32.28245,16.047261 31.97806,15.230042 31.375,14.5 30.561516,13.481155 29.147324,12.685353 27.5,12.28125 25.586134,13.326213 25.726861,14.026887 25.71875,14.5625 25.548722,14.63686 25.520898,14.5851 25.125,14.96875 24.796835,14.651089 24.71285,14.633933 24.59375,14.59375 24.62627,13.846025 24.850109,13.181632 22.875,12.21875 z M 23.6875,14.762949 C 23.853883,14.820779 23.987244,14.882454 24.3125,15.044199 24.683802,15.228886 24.759323,15.363676 25,15.700449 L 25.15625,15.950449 C 25.358558,15.596587 25.557017,15.319235 25.90625,15.106699 26.211606,14.920916 26.34089,14.833219 26.5,14.762949 27.01551,14.816149 27.528073,15.019136 27.8125,15.387949 27.943301,15.558459 28.0034,15.747506 28,15.950449 L 28,15.981699 C 27.997,16.315473 27.804198,16.587018 27.5,16.794199 L 25.1875,18.731699 22.90625,16.794199 C 22.452654,16.474134 22.240632,15.994591 22.46875,15.512949 22.681951,15.104263 23.173811,14.852009 23.6875,14.762949 z"
           id="path3236-6-2-7-23"
           sodipodi:nodetypes="cccssscccccccccsccscscccccsc"
           inkscape:connector-curvature="0" />
      </g>
      <g
         inkscape:groupmode="layer"
         id="layerLipsHappyOpen"
         inkscape:label="LipsHappyOpen"
         style="display:none">
        <path
           style="fill:#b30d19;fill-opacity:1;stroke:#000000;stroke-width:0.82348812;stroke-miterlimit:4;stroke-opacity:1;stroke-dasharray:none;display:inline"
           d="M 14.491765,18.251656 C 15.587893,20.309087 16.635857,22.548933 18.142628,23.874774 20.073515,25.573806 22.045885,26.447782 24.64505,26.47506 27.68201,26.50768 29.576531,26.065279 31.438348,24.208855 33.238045,22.41437 33.801235,21.405291 34.625512,18.316666 24.926977,25.569466 23.474283,23.816515 14.491765,18.251656 z"
           id="path2970-4-2-7-8-2-4"
           sodipodi:nodetypes="cssscc"
           inkscape:connector-curvature="0" />
        <path
           style="fill:#000000;fill-opacity:1;display:inline"
           d="M 38.317548,13.278081 C 35.759295,15.747959 33.536054,18.903892 29.150685,21.073867 27.223376,21.94546 26.319263,22.001263 24.869219,22.001241 23.237285,22.001217 21.221045,21.570417 20.050718,20.957399 15.823323,18.743089 13.878005,17.901639 10.743996,13.488964 L 9.3446769,12.997628 C 11.958573,17.862051 20.604533,23.185483 24.925516,23.486406 30.665543,23.12444 34.746475,17.69029 39.537441,13.066215 L 38.317548,13.278081 z"
           id="seg-1-6-1-7-1"
           sodipodi:nodetypes="ccasccccc"
           inkscape:connector-curvature="0" />
        <path
           style="fill:url(#linearGradientLipsHappyOpen-0);fill-opacity:1;stroke:none;display:inline"
           d="M 38.199451,13.431361 C 35.641198,15.901239 33.42857,19.042635 29.043201,21.21261 27.115892,22.084203 26.211995,22.150132 24.761951,22.15011 23.130017,22.150086 21.119778,21.731878 19.949451,21.11886 15.722056,18.90455 13.770959,18.062786 10.63695,13.650111 L 38.199451,13.431361 z"
           id="path2970-4-2-7-9-4-1"
           sodipodi:nodetypes="ccsscc"
           inkscape:connector-curvature="0" />
        <path
           style="fill:#b30d19;fill-opacity:1;stroke:#000000;stroke-width:0.97115272;stroke-miterlimit:4;stroke-opacity:1;stroke-dasharray:none;display:inline"
           d="M 28.658882,8.8584691 C 26.281491,9.0794491 24.615408,9.8895218 24.002632,10.327219 23.214777,9.8019824 21.512392,8.9562281 19.002632,8.9522191 16.49287,8.9482191 15.739775,9.6975521 13.346382,10.702219 11.582979,11.564216 7.6107593,11.764833 5.5338823,10.670969 6.4914263,12.504714 11.747207,13.484694 17.818014,14.143141 19.89226,14.368116 21.305926,15.167793 24.369,15.193732 27.432074,15.219672 28.939354,14.380572 31.24786,14.162518 37.12812,13.607086 42.108,12.521457 43.413198,10.836888 40.653252,11.606879 37.090161,11.496962 34.971382,10.702219 33.345349,10.377886 32.361842,8.9881251 29.658882,8.8584691 29.321012,8.8422591 28.998509,8.8268991 28.658882,8.8584691 z"
           id="path2970-4-2-7-9-3"
           sodipodi:nodetypes="ccsccszsccsc"
           inkscape:connector-curvature="0" />
        <path
           style="fill:#000000;fill-opacity:1;stroke:#000000;stroke-width:0;stroke-linejoin:miter;stroke-miterlimit:4;stroke-opacity:0;stroke-dasharray:none;display:inline"
           d="M 23.323327,16.005362 C 22.080198,16.223559 21.047537,16.772335 20.583687,17.411612 19.870785,18.331195 20.593832,19.406559 22.031782,20.067862 22.698142,20.39033 23.031867,20.123292 23.871254,20.036612 24.234829,19.999092 24.633875,20.112412 25.358487,20.161612 25.61873,20.179302 26.07785,20.00089 26.454343,20.005362 26.91171,20.010862 27.273935,20.19671 27.432785,20.161612 28.577965,19.806877 29.101895,19.259446 29.076568,18.317862 29.077304,17.913082 28.897984,17.487366 28.52864,17.130362 28.030422,16.632128 27.150143,16.234225 26.141241,16.036612 24.969093,16.547617 25.050353,16.899688 25.045386,17.161612 24.941248,17.197972 24.935612,17.192752 24.693146,17.380362 24.492163,17.225019 24.452987,17.212512 24.380044,17.192862 24.399958,16.827211 24.532982,16.476229 23.323327,16.005362 z M 23.792979,17.382583 C 23.894874,17.410863 23.985152,17.459733 24.184356,17.538833 24.411759,17.629153 24.467468,17.686645 24.61487,17.851333 L 24.693146,17.976333 C 24.817046,17.803288 24.94891,17.642767 25.162798,17.538833 25.349813,17.447983 25.456725,17.416943 25.554175,17.382583 25.869898,17.408603 26.162732,17.514728 26.336929,17.695083 26.417033,17.778463 26.456472,17.877093 26.454343,17.976333 26.452464,18.139555 26.327545,18.281267 26.141241,18.382583 L 24.732283,19.320083 23.323327,18.382583 C 23.045531,18.226066 22.909652,17.993115 23.049362,17.757583 23.179937,17.557729 23.47837,17.426133 23.792979,17.382583 z"
           id="path3236-6-2-7-27"
           sodipodi:nodetypes="cccsssccsccccccsccscsscccsc"
           inkscape:connector-curvature="0" />
      </g>
      <g
         inkscape:groupmode="layer"
         id="layerLipsHappyAlt1"
         inkscape:label="LipsHappyAlt1"
         style="display:inline">
        <path
           sodipodi:nodetypes="czczccssscc"
           id="path2970"
           d="M 32.894202,10.601976 C 31.618786,10.24383 30.851659,8.6979108 28.73153,8.5547381 26.611402,8.411565 24.341839,9.7448492 24.341839,9.7448492 24.341839,9.7448492 22.337745,8.6821506 20.369156,8.6777239 18.400568,8.6732972 17.821089,9.5066334 15.943776,10.616041 14.560611,11.567906 11.13902,13.20386 9.5885866,13.434705 14.479633,16.870577 14.841551,16.464162 18.126823,19.02038 19.305286,19.937323 21.769769,23.067549 24.718925,23.096509 28.164826,23.131148 30.697558,19.72183 31.712601,18.635305 34.539448,15.609378 35.590834,15.652205 39.358494,12.647935 37.141257,12.465251 34.556115,11.479576 32.894202,10.601976 z"
           style="fill:#b30d19;fill-opacity:1;stroke:#000000;stroke-width:1;stroke-miterlimit:4;stroke-opacity:1;stroke-dasharray:none;display:inline"
           inkscape:connector-curvature="0" />
        <path
           style="fill:#000000;fill-opacity:1;display:inline"
           id="seg-17"
           d="M 27.939286,14.383416 C 28.878471,14.450868 29.360452,14.75226 31.194569,13.931559 L 31.120079,15.05177 C 27.738122,17.316342 25.343969,14.855455 24.311181,13.567048 L 24.801946,12.094078 C 25.697444,13.388286 26.79981,13.868169 27.939276,14.383416 z"
           sodipodi:nodetypes="cccccc"
           inkscape:connector-curvature="0" />
        <path
           style="fill:#000000;fill-opacity:1;display:inline"
           id="seg-17-4"
           d="M 21.612365,14.523349 C 20.63602,14.557723 20.121841,14.867445 18.26204,13.891167 L 17.67649,15.013465 C 21.068795,17.636556 24.18073,15.04194 25.314164,13.674194 L 24.97547,12.147934 C 23.977656,13.541814 22.806383,14.012082 21.612365,14.523349 z"
           sodipodi:nodetypes="cccccc"
           inkscape:connector-curvature="0" />
        <path
           style="fill:#000000;fill-opacity:1;display:inline"
           id="seg-17-1"
           d="M 26.680382,17.565538 C 27.3595,17.059371 28.432992,16.017641 30.28684,15.387896 L 29.155716,14.576695 C 25.321203,15.454923 24.85798,17.607354 24.783819,18.621308 L 25.240685,20.074789 C 25.206898,19.12893 26.096535,18.342883 26.680382,17.565538 z"
           sodipodi:nodetypes="cccccc"
           inkscape:connector-curvature="0" />
        <path
           style="fill:#000000;fill-opacity:1;display:inline"
           id="seg-17-4-7"
           d="M 22.323237,16.56144 C 21.541352,16.242001 21.186905,16.224564 19.492763,16.028423 L 19.68149,14.951972 C 22.937197,14.002996 24.940867,16.886733 25.587556,18.254412 L 25.240252,20.173144 C 24.708247,18.826638 23.187208,17.304357 22.323237,16.56144 z"
           sodipodi:nodetypes="cccccc"
           inkscape:connector-curvature="0" />
        <path
           style="fill:#ffffff;fill-opacity:1;display:inline"
           d="M 24.803131,13.944613 C 25.31986,14.52912 25.978359,15.179043 26.799077,15.590602 25.834822,16.251798 25.337535,17.015478 25.066747,17.718343 24.586523,16.927797 23.87903,16.04878 22.957823,15.430017 23.708806,14.98909 24.325228,14.458808 24.803131,13.944613 z"
           id="seg-17-42"
           sodipodi:nodetypes="ccccc"
           inkscape:connector-curvature="0" />
      </g>
      <g
         style="display:none"
         inkscape:label="LipsHappySilly"
         id="layerLipsHappySilly"
         inkscape:groupmode="layer">
        <path
           sodipodi:nodetypes="czczccsscccz"
           id="path2970-4-2-7"
           d="M 35.455443,11.145345 C 33.583037,10.585807 32.586232,9.9513743 29.883272,9.8217183 27.180311,9.6920625 24.220022,10.49857 24.220022,10.49857 24.220022,10.49857 21.531361,6.9971877 19.021601,6.9931787 16.511839,6.9891787 15.706243,8.8128876 13.312851,9.8175544 11.549448,10.679552 7.7885921,11.050069 5.6783071,9.9227968 6.4910572,11.701437 9.0988598,12.562176 10.36955,13.60274 12.839064,15.625017 17.343401,19.123648 21.531764,20.168032 24.348232,20.870329 28.707052,20.589928 30.048314,20.44516 34.285932,19.623627 38.647311,18.355712 38.486066,13.412906 38.279136,11.734258 39.431405,13.093991 40.141788,11.716839 37.310825,11.736579 37.327849,11.704883 35.455443,11.145345 z"
           style="fill:#b30d19;fill-opacity:1;stroke:#000000;stroke-width:0.97115272;stroke-miterlimit:4;stroke-opacity:1;stroke-dasharray:none;display:inline"
           inkscape:connector-curvature="0" />
        <path
           style="fill:#000000;fill-opacity:1;display:inline"
           d="M 38.578105,12.155155 C 34.778457,12.837839 34.644209,13.321596 29.457555,14.409072 27.215544,15.22465 26.161879,15.436299 24.46219,15.432286 22.609992,15.427886 20.493832,14.561967 19.023929,14.291567 13.89289,13.347673 11.182115,13.107791 6.9600063,10.327484 L 5.5578949,9.5376768 6.1032721,10.700008 C 11.200404,14.262546 14.761915,14.700995 18.713405,15.426802 20.423988,15.741001 22.533406,16.900217 24.529631,16.901979 26.613623,16.903818 28.025051,16.153523 30.624828,15.32932 34.076369,14.235083 35.087938,13.747982 39.556757,12.877488 40.573223,12.612323 40.330068,11.625984 40.330068,11.625984 L 38.578105,12.155155 z"
           id="seg-1-9"
           sodipodi:nodetypes="ccascccsssccc"
           inkscape:connector-curvature="0" />
      </g>
      <g
         inkscape:groupmode="layer"
         id="layerLipsHappy"
         inkscape:label="LipsHappy"
         style="display:none">
        <path
           sodipodi:nodetypes="czczccccccc"
           id="path2970-4-2"
           d="M 35.114583,9.9491471 C 33.48855,9.6248141 32.510537,8.2248463 29.807577,8.0951903 27.104616,7.9655345 24.144327,9.5738371 24.144327,9.5738371 24.144327,9.5738371 21.656114,8.2105743 19.146354,8.2065653 16.636592,8.2025653 15.897812,8.9572143 13.504419,9.9618811 11.741016,10.823878 7.7797124,11.060763 5.6694274,9.9334911 6.4821775,11.712131 9.333431,12.331949 10.36067,13.613435 13.677507,18.814487 18.442104,20.890508 24.491443,21.197223 30.774639,21.485 35.248978,18.500804 38.477187,13.423601 39.10528,12.455001 42.779183,11.794132 43.489566,10.41698 40.128273,11.320603 37.233362,10.74389 35.114583,9.9491471 z"
           style="fill:#b30d19;fill-opacity:1;stroke:#000000;stroke-width:0.97115272;stroke-miterlimit:4;stroke-opacity:1;stroke-dasharray:none;display:inline"
           inkscape:connector-curvature="0" />
        <path
           style="fill:#000000;fill-opacity:1;display:inline"
           d="M 41.884838,10.943685 C 38.285639,12.094083 34.63533,13.332291 29.448676,14.419767 27.206665,15.235345 26.153,15.446994 24.453311,15.442981 22.601113,15.438608 20.484953,14.572662 19.01505,14.302262 13.88401,13.358368 11.836148,13.118486 7.3488742,10.956896 L 6.1677337,10.078701 6.7131109,11.241032 C 11.942825,14.538406 14.753035,14.755884 18.704526,15.79105 20.386953,16.231793 21.642556,16.668197 24.520752,16.780091 26.560255,16.85938 28.156108,16.239162 30.83692,15.737763 34.486684,15.055138 37.996923,13.111038 42.465742,11.57763 L 42.8855,10.414514 41.884838,10.943685 z"
           id="seg-1"
           sodipodi:nodetypes="ccascccsssccc"
           inkscape:connector-curvature="0" />
      </g>
      <g
         style="display:none"
         inkscape:label="LipsHappySmirk"
         id="layerLipsHappySmirk"
         inkscape:groupmode="layer">
        <path
           style="fill:#b30d19;fill-opacity:1;stroke:#000000;stroke-width:0.91787279;stroke-miterlimit:4;stroke-opacity:1;stroke-dasharray:none;display:inline"
           d="M 11.419387,20.90425 C 15.916816,23.229589 22.317522,24.823193 27.406222,24.160986 32.695665,23.567256 36.915184,19.495559 39.645912,15.393728 34.376543,17.781433 29.646587,19.178827 26.348267,19.792818 23.009217,20.414391 17.825278,20.944595 11.419387,20.90425 z"
           id="path2970-4-2-7-8-2-5"
           sodipodi:nodetypes="cccsc"
           inkscape:connector-curvature="0" />
        <path
           style="fill:#b30d19;fill-opacity:1;stroke:#000000;stroke-width:0.97115272;stroke-miterlimit:4;stroke-opacity:1;stroke-dasharray:none;display:inline"
           d="M 28.573573,13.5375 C 26.291071,14.238215 24.314232,15.92411 24.314232,15.92411 24.314232,15.92411 21.596899,15.089237 19.138964,15.596652 16.68103,16.104075 15.321419,17.336232 13.9579,18.462352 12.594381,19.588472 11.167157,20.463295 9.8441621,21.092537 12.474602,21.290888 13.668236,21.671664 19.768166,20.956496 21.840383,20.713545 23.391681,21.249027 26.395792,20.650351 29.399903,20.051675 29.665192,19.395544 31.880851,18.711728 33.620895,18.1747 38.761415,16.737378 40.182807,15.825563 41.123843,15.221894 41.231556,15.257577 41.705239,14.719165 40.640308,14.788398 40.340357,14.793067 39.085176,14.795809 37.728037,14.798774 36.564051,14.395702 35.129315,14.056467 33.694579,13.717232 32.22528,12.909994 29.552598,13.333759 29.218513,13.386729 28.899645,13.437396 28.573573,13.5375 z"
           id="path2970-4-2-7-9-9"
           sodipodi:nodetypes="ccszcszsscszsc"
           inkscape:connector-curvature="0" />
      </g>
      <g
         style="display:none"
         inkscape:label="LipsNormalHappy"
         id="layerLipsNormalHappy"
         inkscape:groupmode="layer">
        <path
           inkscape:connector-curvature="0"
           style="fill:#b30d19;fill-opacity:1;stroke:#000000;stroke-width:0.97115272;stroke-miterlimit:4;stroke-opacity:1;stroke-dasharray:none;display:inline"
           d="M 35.424135,9.7060989 C 33.672926,8.7888755 32.34373,7.8395227 29.716232,7.7853286 27.088734,7.7311346 24.052982,9.2639761 24.052982,9.2639761 24.052982,9.2639761 21.564769,7.9007121 19.055009,7.8967034 16.545247,7.8926934 15.806467,8.6473535 13.413074,9.6520196 11.649671,10.514017 9.3228587,11.062466 7.3462061,11.771516 9.1157234,12.65448 9.6332671,12.990278 10.34735,13.655067 11.967863,15.163714 12.536843,14.961619 14.549466,16.379398 16.562089,17.797177 20.840655,19.376156 24.600546,19.402381 28.993739,19.433751 32.269182,18.055372 33.77782,16.826198 35.239117,15.635596 36.871771,14.866224 38.205613,13.733041 39.049263,13.016307 39.344568,12.477191 40.861976,11.617737 38.535212,11.690077 37.342466,10.634475 35.424135,9.7060989 z"
           id="path2998"
           sodipodi:nodetypes="czczccszszscc" />
        <path
           inkscape:connector-curvature="0"
           sodipodi:nodetypes="ccccscccz"
           d="M 24.279858,14.306186 C 20.666905,14.279247 17.328989,12.821277 15.574439,12.656265 L 6.6301835,11.627369 C 9.4163885,12.70075 12.524317,13.253523 15.449503,13.550496 18.328585,14.019134 21.1011,15.262353 24.251128,15.295885 27.267478,15.327995 30.28091,14.170435 33.294122,13.719608 L 40.898897,11.487635 C 38.215043,12.035711 35.499513,12.3915 32.788274,12.77067 30.319515,13.119359 27.892886,14.333126 24.279858,14.306186 z"
           id="path3000"
           style="fill:#000000;fill-opacity:1;stroke:none;display:inline" />
      </g>
      <g
         inkscape:groupmode="layer"
         id="layerLipsNormal"
         inkscape:label="LipsNormal"
         style="display:none">
        <path
           sodipodi:nodetypes="czczccszszscc"
           id="path2970-4"
           d="M 35.424135,9.7060989 C 33.672926,8.7888755 32.34373,7.8395227 29.716232,7.7853286 27.088734,7.7311346 24.052982,9.2639761 24.052982,9.2639761 24.052982,9.2639761 21.564769,7.9007121 19.055009,7.8967034 16.545247,7.8926934 15.806467,8.6473535 13.413074,9.6520196 11.649671,10.514017 9.4103981,12.112939 7.4337455,12.821989 9.2032628,13.267256 9.7040886,13.374781 11.222744,14.092764 12.764649,14.821739 14.287632,16.012092 15.5124,16.642016 16.737168,17.27194 20.840655,19.376156 24.600546,19.402381 28.993739,19.433751 32.269182,18.055372 33.77782,16.826198 35.239117,15.635596 36.664483,14.562593 38.205613,13.733041 39.049263,13.278925 39.169489,13.352586 40.686897,12.493132 38.360133,11.602538 37.342466,10.634475 35.424135,9.7060989 z"
           style="fill:#b30d19;fill-opacity:1;stroke:#000000;stroke-width:0.97115272;stroke-miterlimit:4;stroke-opacity:1;stroke-dasharray:none;display:inline"
           inkscape:connector-curvature="0" />
        <path
           style="fill:#000000;fill-opacity:1;stroke:none;display:inline"
           id="seg-17-4-9"
           d="M 24.279858,14.306186 C 20.666905,14.279247 17.15391,12.733738 15.39936,12.568726 13.648571,12.656265 6.7177229,12.765382 6.7177229,12.765382 9.6063098,13.27134 12.5396,13.255074 15.449503,13.550496 18.328585,14.019134 21.1011,15.262353 24.251128,15.295885 27.267478,15.327995 30.28091,14.170435 33.294122,13.719608 L 40.811358,12.538108 C 38.131968,11.66132 35.50206,12.391144 32.788274,12.77067 30.319515,13.119359 27.892886,14.333126 24.279858,14.306186 z"
           sodipodi:nodetypes="ccccscccz"
           inkscape:connector-curvature="0" />
      </g>
      <g
         inkscape:groupmode="layer"
         id="layerLipsNormalSad"
         inkscape:label="LipsNormalSad"
         style="display:none">
        <path
           sodipodi:nodetypes="csccccccc"
           id="path3004"
           d="M 35.424135,17.480733 C 31.99433,19.790841 27.891494,19.893852 23.965443,19.936262 20.217227,19.976751 16.872759,19.090386 13.413074,17.534812 11.649671,16.672814 9.4103981,15.42405 7.4337455,14.715 9.956648,13.791767 12.497112,12.57657 14.549466,10.807433 16.290011,9.0359531 18.923454,4.9068782 24.513007,7.2592138 29.606515,4.9518184 32.269182,9.1314594 33.77782,10.360633 36.104304,11.895541 38.258005,13.67531 40.686897,15.043857 38.360133,15.584293 37.342466,16.552356 35.424135,17.480733 z"
           style="fill:#b30d19;fill-opacity:1;stroke:#000000;stroke-width:0.97115272;stroke-miterlimit:4;stroke-opacity:1;stroke-dasharray:none;display:inline"
           inkscape:connector-curvature="0" />
        <path
           style="fill:#000000;fill-opacity:1;stroke:none;display:inline"
           id="path3006"
           d="M 24.279858,12.880645 C 20.666905,12.907584 17.328989,14.365554 15.574439,14.530566 13.603375,14.715939 10.652531,14.846492 9.3313195,14.94352 L 6.7177229,14.771607 8.75659,14.146657 C 10.860935,13.784822 12.312384,14.037688 15.449503,13.636335 18.328585,13.167697 21.1011,11.924478 24.251128,11.890946 27.267478,11.858836 30.28091,13.016396 33.294122,13.467223 35.45773,13.723066 35.76129,13.722721 38.509994,14.226575 L 40.811358,15.08642 38.147224,15.190929 C 36.329611,14.896089 35.166661,14.752087 32.788274,14.416161 30.319515,14.067472 27.892886,12.853705 24.279858,12.880645 z"
           sodipodi:nodetypes="csccccsccccsz"
           inkscape:connector-curvature="0" />
      </g>
      <g
         inkscape:groupmode="layer"
         id="layerLipsSadSilly"
         inkscape:label="LipsSadSilly"
         style="display:none">
        <path
           sodipodi:nodetypes="czczccszszccc"
           id="path2970-4-3-7-0"
           d="M 36.730128,11.373444 C 34.588746,10.652232 34.019277,7.8023472 30.634254,8.1326333 27.249231,8.4629192 24.041531,10.481888 24.041531,10.481888 24.041531,10.481888 20.570397,9.608163 17.460544,10.025033 14.35069,10.441913 11.655868,12.633713 8.9780592,13.986123 7.0398621,15.097854 6.076653,15.862216 5.4606528,16.816643 5.4989148,17.458151 7.8467669,16.719653 8.9752088,16.803043 11.786488,17.010801 13.164237,18.516954 16.061844,19.522009 18.95945,20.527064 23.391834,22.064114 28.0565,21.458742 33.507072,20.752093 36.941907,18.138836 38.459735,16.722152 39.929935,15.349925 40.043799,14.96881 41.226245,13.591005 43.05564,13.06323 44.854361,13.718237 44.148417,12.980258 41.993232,12.137453 38.473346,11.892879 36.730128,11.373444 z"
           style="fill:#b30d19;fill-opacity:1;stroke:#000000;stroke-width:1.07295012;stroke-miterlimit:4;stroke-opacity:1;stroke-dasharray:none;display:inline"
           inkscape:connector-curvature="0" />
        <path
           style="fill:#000000;fill-opacity:1;stroke:none;display:inline"
           id="seg-17-4-9-8-4-9"
           d="M 15.982171,14.408783 C 13.696533,13.96301 10.822659,14.448823 9.6604763,14.927274 8.6044149,15.32925 7.5919327,16.087106 6.4467143,17.024987 L 5.5073801,16.366829 C 6.6833023,15.579785 8.7503332,13.946112 10.427525,13.351297 11.31943,13.034984 13.881378,12.70255 16.204958,12.838108 18.528537,12.973666 22.345656,15.820205 25.930334,14.50363 29.459605,13.207407 31.164685,13.459628 34.394289,13.779314 37.623893,14.099 39.456349,11.634969 43.013504,12.488245 L 42.974474,13.304173 C 40.860346,13.52957 38.152094,15.029715 35.110225,15.110296 33.873156,15.287434 32.033102,14.589203 30.44462,14.802922 28.109661,15.117076 25.955557,16.313526 24.086404,16.238794 20.724551,16.104382 18.267809,14.854556 15.982171,14.408783 z"
           sodipodi:nodetypes="ccccszszcccssz"
           inkscape:connector-curvature="0" />
      </g>
      <g
         inkscape:groupmode="layer"
         id="layerLipsSadSmirk"
         inkscape:label="LipsSadSmirk"
         style="display:none">
        <path
           style="fill:#b30d19;fill-opacity:1;stroke:#000000;stroke-width:0.97115272;stroke-miterlimit:4;stroke-opacity:1;stroke-dasharray:none;display:inline"
           d="M 13.571121,13.743024 C 11.724766,12.026673 10.899348,10.702853 9.8375029,10.524332 7.3724373,9.9256563 13.256806,9.6416606 19.232732,10.897271 21.274559,11.326283 22.49626,11.343544 25.416529,12.268273 28.336798,13.193004 28.898686,13.534891 31.025921,14.457722 32.09135,14.635304 40.826461,18.95667 37.070768,18.274378 35.388263,18.154023 35.665937,19.210789 32.805598,19.966553 24.760711,21.318439 19.655039,18.983822 13.571121,13.743024 z"
           id="path2970-4-2-7-9-9-8"
           sodipodi:nodetypes="ccszcccc"
           inkscape:connector-curvature="0" />
        <path
           style="fill:#b30d19;fill-opacity:1;stroke:#000000;stroke-width:0.91787279;stroke-miterlimit:4;stroke-opacity:1;stroke-dasharray:none;display:inline"
           d="M 12.148136,10.024732 C 14.924876,9.2373991 17.544693,7.0887059 19.583453,7.3691468 22.168403,7.7247184 24.223796,8.9640094 25.675074,10.47193 28.007135,9.798608 31.827772,9.8501116 33.949462,11.20294 36.071153,12.555769 35.871365,14.510313 36.761847,17.099089 27.420015,12.104898 24.809682,11.380219 12.148136,10.024732 z"
           id="path2970-4-2-7-8-2-5-2"
           sodipodi:nodetypes="csczcc"
           inkscape:connector-curvature="0" />
      </g>
      <g
         style="display:none"
         inkscape:label="LipsSad"
         id="layerLipsSad"
         inkscape:groupmode="layer">
        <path
           sodipodi:nodetypes="czczccszszscsc"
           id="path2970-4-3"
           d="M 36.568525,10.472301 C 35.076124,9.4463981 33.964479,8.6143711 31.261519,8.4847151 28.558558,8.3550591 25.598269,9.9633621 25.598269,9.9633621 25.598269,9.9633621 23.110056,8.6000981 20.600296,8.5960901 18.090534,8.5920901 17.351754,9.3467401 14.958361,10.351406 13.194958,11.213402 10.319623,12.081396 8.34297,13.626771 10.112487,13.574311 11.178554,13.689663 11.892637,14.354453 13.51315,15.8631 14.08213,16.411005 16.094753,17.828784 18.107376,19.246563 22.185493,20.758726 25.945384,20.784951 30.338577,20.816321 33.814469,19.504758 35.323107,18.275584 36.784404,17.084982 37.681162,15.863445 38.920556,14.62767 39.576706,13.973436 39.771761,14.046733 41.936083,14.182112 40.828569,13.401413 41.367469,13.767514 40.477122,13.182157 38.913902,12.154421 37.799256,11.238774 36.568525,10.472301 z"
           style="fill:#b30d19;fill-opacity:1;stroke:#000000;stroke-width:0.97115272;stroke-miterlimit:4;stroke-opacity:1;stroke-dasharray:none;display:inline"
           inkscape:connector-curvature="0" />
        <path
           style="fill:#000000;fill-opacity:1;stroke:none;display:inline"
           id="seg-17-4-9-8"
           d="M 25.825145,15.005573 C 23.462192,14.978633 18.249276,13.520662 16.494726,13.35565 14.523662,13.170277 11.33145,13.181989 10.010239,13.084961 L 8.3320698,13.724588 9.4355095,13.881824 C 11.539854,14.243659 13.482671,14.348528 16.61979,14.749881 19.498872,15.218519 22.646387,15.961738 25.796415,15.99527 28.812765,16.02738 31.826197,15.36982 34.839409,14.918993 37.003017,14.66315 37.671823,14.920093 40.420527,14.416201 L 42.187361,14.224518 40.057757,13.451847 C 38.365144,13.371687 37.461948,13.134129 35.083561,13.470057 32.614802,13.818746 28.1881,15.03251 25.825145,15.005573 z"
           sodipodi:nodetypes="csccccsccccsz"
           inkscape:connector-curvature="0" />
      </g>
      <g
         inkscape:groupmode="layer"
         id="layerLipsSadAlt1"
         inkscape:label="LipsSadAlt1"
         style="display:none">
        <path
           sodipodi:nodetypes="czczccszszccc"
           id="path2970-4-3-7"
           d="M 34.428212,12.440431 C 32.935811,11.414528 33.160491,8.4443796 30.457531,8.3147236 27.75457,8.1850676 24.794281,9.7933706 24.794281,9.7933706 24.794281,9.7933706 22.306068,8.4301066 19.796308,8.4260986 17.286546,8.4220986 15.737865,11.660413 13.344472,12.665079 11.581069,13.527075 9.7384364,14.507164 9.0374306,15.391092 8.9171,16.047325 10.610798,15.267781 11.466619,15.507358 13.598718,16.10421 13.278142,16.241016 15.290765,17.658795 17.303388,19.076574 21.581954,21.457348 25.341845,21.483573 29.735038,21.514943 33.010481,19.334769 34.519119,18.105595 35.980416,16.914993 36.157859,16.543888 37.397253,15.308113 38.939709,15.023753 40.181791,15.935424 39.806766,15.089611 38.332091,13.938424 35.658943,13.206904 34.428212,12.440431 z"
           style="fill:#b30d19;fill-opacity:1;stroke:#000000;stroke-width:0.97115272;stroke-miterlimit:4;stroke-opacity:1;stroke-dasharray:none;display:inline"
           inkscape:connector-curvature="0" />
        <path
           style="fill:#000000;fill-opacity:1;stroke:none;display:inline"
           id="seg-17-4-9-8-4"
           d="M 25.249281,12.805706 C 22.886328,12.832646 17.626166,13.77091 15.871616,13.935921 15.028084,14.015251 13.397904,14.261006 12.384529,14.586936 11.471356,14.849831 11.345208,14.829523 10.237561,15.623993 L 9.6628324,14.827133 C 10.759023,14.189944 11.907974,13.466313 13.348044,13.093023 14.113851,12.894513 14.86033,12.964504 15.949434,12.825167 18.828516,12.356529 21.976031,11.61331 25.126059,11.579778 28.142409,11.547668 31.155841,12.205228 34.169053,12.656055 36.332661,12.911898 36.481758,13.080171 39.041477,14.434495 L 38.820446,15.25711 C 37.127833,15.19553 36.791592,14.440919 34.413205,14.104991 31.944446,13.756302 27.612236,12.778769 25.249281,12.805706 z"
           sodipodi:nodetypes="cscccscscccsz"
           inkscape:connector-curvature="0" />
      </g>
      <g
         style="display:none"
         inkscape:label="LipsSadOpen"
         id="layerLipsSadOpen"
         inkscape:groupmode="layer">
        <path
           sodipodi:nodetypes="cssssszcszsscsczczccs"
           id="path2970-4-3-4"
           d="M 33.934589,22.768229 C 32.226937,21.491874 27.536815,21.033779 24.79083,20.942971 22.552879,20.868961 16.75531,20.976241 14.989712,22.79389 14.488149,23.310239 15.790481,22.580606 16.623943,23.62203 18.177094,25.562717 22.108184,26.127456 24.757315,26.146207 27.592561,26.166277 31.819623,25.910037 32.825846,24.179882 33.587309,22.870581 35.642241,24.044584 33.934589,22.768229 z M 12.204983,11.760166 C 12.935297,11.776536 13.833385,12.032843 16.321326,12.366659 19.131713,12.743744 21.207545,13.725763 24.990327,13.732599 28.773109,13.739399 30.468186,13.069075 33.108736,12.635072 35.39449,12.259384 36.743871,12.290743 38.041125,12.31686 38.96752,12.33551 40.129963,12.848872 41.849499,13.267728 40.741985,12.487029 41.045906,12.618151 39.655559,11.532794 38.180884,10.381607 36.977693,9.5894111 35.746962,8.8229378 34.254561,7.7970358 33.142916,6.9650088 30.439956,6.8353528 27.736995,6.7056968 24.776706,8.3139998 24.776706,8.3139998 24.776706,8.3139998 22.288493,6.9507358 19.778733,6.9467278 17.268971,6.9427278 16.530191,7.6973778 14.136798,8.7020428 12.373395,9.5640391 8.6962659,11.100195 6.7196119,12.64557 9.4340542,12.026155 10.262717,11.716621 12.204983,11.760166 z"
           style="fill:#b30d19;fill-opacity:1;stroke:#000000;stroke-width:0.97115272;stroke-miterlimit:4;stroke-opacity:1;stroke-dasharray:none;display:inline"
           inkscape:connector-curvature="0" />
        <path
           style="fill:none;stroke:#000000;stroke-width:1px;stroke-linecap:butt;stroke-linejoin:miter;stroke-opacity:1;display:inline"
           d="M 40.48467,13.038255 C 40.48467,13.038255 37.362505,14.545847 36.327002,15.495058 35.193093,16.534474 34.757694,17.406768 34.248169,19.652724 33.738644,21.89868 34.413531,23.408799 34.413531,23.408799"
           id="path4457"
           sodipodi:nodetypes="czzc"
           inkscape:connector-curvature="0" />
        <path
           style="fill:none;stroke:#000000;stroke-width:1.01999211px;stroke-linecap:butt;stroke-linejoin:miter;stroke-opacity:1;display:inline"
           d="M 8.9335284,11.926153 C 8.9335284,11.926153 12.045981,13.499522 13.078263,14.490147 14.208644,15.574914 14.642689,16.485265 15.150629,18.829213 15.658569,21.173161 14.985781,22.749167 14.985781,22.749167"
           id="path4457-3"
           sodipodi:nodetypes="czzc"
           inkscape:connector-curvature="0" />
        <path
           style="fill:#000000;fill-opacity:1;stroke:#000000;stroke-width:0;stroke-linejoin:miter;stroke-miterlimit:4;stroke-opacity:0;stroke-dasharray:none;display:inline"
           d="M 23.8125,14.8125 C 22.756023,15.060647 20.456699,15.6467 20.0625,16.373735 19.868382,16.708796 19.805218,17.075618 19.84375,17.425871 19.92548,18.168844 21.169465,18.883252 22,19.394384 22.566308,19.761111 23.000942,19.492994 23.714295,19.394384 24.023275,19.351704 24.379734,19.440224 24.995545,19.496204 25.21672,19.516314 25.613076,19.355351 25.933045,19.360444 26.321731,19.366644 27.299733,19.698487 27.930818,19.587707 28.904048,19.184275 30.23116,18.533642 30.209638,17.4628 30.210609,17.002458 29.979859,16.630765 29.4375,16.271915 28.828149,15.86872 27.076162,15.071185 26.21875,14.84644 25.222597,15.427601 25.28548,15.804333 25.28125,16.102216 25.19276,16.143576 25.174813,16.126446 24.96875,16.339795 24.797945,16.163127 24.780736,16.158512 24.71875,16.136155 24.73567,15.720315 24.840527,15.348008 23.8125,14.8125 z M 24.09375,16.204035 C 24.193781,16.240825 24.273209,16.30479 24.46875,16.407674 24.691986,16.52514 24.761544,16.600772 24.90625,16.814953 L 25,16.950713 C 25.121632,16.725652 25.227535,16.542843 25.4375,16.407674 25.621087,16.289521 25.71684,16.248738 25.8125,16.204035 26.122436,16.237865 26.422745,16.376752 26.59375,16.611314 26.67239,16.719758 26.72075,16.855588 26.71875,16.984652 26.71695,17.196928 26.557879,17.395929 26.375,17.527691 L 25,18.715586 23.65625,17.527691 C 23.383589,17.324118 23.23785,16.985524 23.375,16.679194 23.503182,16.419263 23.784909,16.260663 24.09375,16.204035 z"
           id="path3236-6-2-7-2-7"
           sodipodi:nodetypes="csscsssccsccccccsccscsscccsc"
           inkscape:connector-curvature="0" />
        <path
           style="fill:url(#linearGradientLipsSadOpen-0);fill-opacity:1;stroke:none;display:inline"
           d="M 32.497088,22.027609 C 30.53888,21.347323 28.170819,20.851441 24.370738,20.785462 20.533607,20.718842 18.665825,20.921202 16.669605,21.589397 L 15.157726,22.031418 15.339511,20.519539 C 15.331511,19.262476 15.148417,17.986229 14.628376,16.635703 14.080941,15.214038 13.14172,14.08211 11.471876,13.054638 L 9.9835106,12.298698 11.753336,11.798796 C 12.76148,11.765256 16.49738,12.430949 19.103148,13.01703 21.763739,13.615443 22.469661,13.860573 24.767839,13.921204 27.361105,13.989624 27.447048,13.626557 30.654507,13.00974 31.953778,12.759882 34.017547,12.503785 34.547716,12.440633 36.275715,12.234803 39.86752,12.66389 39.86752,12.900863 39.86752,12.939853 38.739516,13.650467 38.284771,13.902565 36.556392,14.860727 35.917347,15.303975 35.345641,16.240724 34.648861,17.38241 34.043209,22.043329 34.254267,22.884254 34.324947,23.165867 33.609295,21.847026 32.49711,21.46065 L 32.49711,21.46065 32.497088,22.027609 z"
           id="path4481-09"
           sodipodi:nodetypes="cscccscccssssssssccc"
           inkscape:connector-curvature="0" />
      </g>
      <g
         inkscape:groupmode="layer"
         id="layerLipsSadOpenAlt1"
         inkscape:label="LipsSadOpenAlt1"
         style="display:none">
        <path
           sodipodi:nodetypes="cssssszcszsscsczczccs"
           id="path2970-4-3-4-8"
           d="M 33.716458,23.43579 C 32.013964,21.860548 27.338007,21.295181 24.600316,21.183108 22.369124,21.091768 16.589065,21.224168 14.828801,23.467459 14.328753,24.104723 15.627151,23.20423 16.458095,24.489526 18.006555,26.884665 21.925772,27.581649 24.566902,27.604791 27.393585,27.629561 31.60788,27.313318 32.611064,25.17801 33.370227,23.562109 35.418953,25.011029 33.716458,23.43579 z M 12.146975,8.6215554 C 12.875083,8.6417594 13.770458,8.9580853 16.250884,9.3700713 19.052783,9.8354583 21.122345,11.047438 24.893702,11.055874 28.665059,11.064274 30.355017,10.236973 32.987592,9.7013383 35.266442,9.2376753 36.611747,9.2763783 37.905083,9.3086113 38.82868,9.3316213 39.893121,11.193606 41.607463,11.710546 40.503294,10.747031 40.806297,10.908858 39.420149,9.5693412 37.949928,8.1485796 36.750371,7.1708741 35.523357,6.224915 34.035464,4.9587765 32.927176,3.9319128 30.23238,3.7718952 27.537583,3.6118776 24.586235,5.5967985 24.586235,5.5967985 24.586235,5.5967985 22.105537,3.9142976 19.603357,3.909351 17.101175,3.904407 16.364626,4.8357814 13.978463,6.0757099 12.220386,7.1395607 8.554363,9.03544 6.5836785,10.942697 9.2899227,10.178233 10.210575,8.5678135 12.146975,8.6215554 z"
           style="fill:#b30d19;fill-opacity:1;stroke:#000000;stroke-width:1.07725465;stroke-miterlimit:4;stroke-opacity:1;stroke-dasharray:none;display:inline"
           inkscape:connector-curvature="0" />
        <path
           style="fill:none;stroke:#000000;stroke-width:1.13898873px;stroke-linecap:butt;stroke-linejoin:miter;stroke-opacity:1;display:inline"
           d="M 40.415175,11.123409 C 40.415175,11.123409 37.268722,13.064103 36.225164,14.286005 35.082433,15.624026 34.643648,16.746914 34.130159,19.63809 33.61667,22.529267 34.296807,24.473215 34.296807,24.473215"
           id="path4457-6"
           sodipodi:nodetypes="czzc"
           inkscape:connector-curvature="0" />
        <path
           style="fill:none;stroke:#000000;stroke-width:1.18175471px;stroke-linecap:butt;stroke-linejoin:miter;stroke-opacity:1;display:inline"
           d="M 7.9749934,10.495155 C 7.9749934,10.495155 11.422004,12.402161 12.565246,13.60285 13.817131,14.917643 14.297833,16.021036 14.860371,18.862023 15.42291,21.703009 14.766191,23.61321 14.766191,23.61321"
           id="path4457-3-5"
           sodipodi:nodetypes="czzc"
           inkscape:connector-curvature="0" />
        <path
           style="fill:url(#linearGradientLipsSadOpenAlt1-0);fill-opacity:1;stroke:none;display:inline"
           d="M 31.544054,22.074371 C 29.474393,21.22653 28.294447,20.986482 24.278083,20.904253 20.222559,20.821223 18.15398,21.451396 16.044144,22.284167 L 14.824185,23.024043 14.921825,19.722401 C 14.913325,18.155723 14.311366,16.918689 13.761727,15.235528 13.183134,13.463707 11.843006,12.549864 10.078123,11.269326 L 8.4105536,10.138212 10.28111,8.8537377 C 11.346631,8.8119397 15.427745,9.3764249 18.181822,10.106858 20.993841,10.852659 21.607358,11.42333 24.036338,11.498894 26.777202,11.584174 26.868036,11.131676 30.258049,10.362937 31.631268,10.051539 34.280429,9.4977746 34.845304,9.4646734 39.222949,9.2081475 40.455563,10.861574 40.656872,11.077675 41.318319,11.787722 39.55916,11.917414 39.078533,12.231604 37.251782,13.425761 36.576365,13.978182 35.97212,15.145652 35.235682,16.568535 33.83962,22.37744 34.062692,23.425485 34.137392,23.776459 34.231442,23.172205 33.055956,22.690664 L 31.544054,22.074371 z"
           id="path4481-0"
           sodipodi:nodetypes="cscccscccsssssssscc"
           inkscape:connector-curvature="0" />
        <path
           style="fill:#000000;fill-opacity:1;stroke:#000000;stroke-width:0;stroke-linejoin:miter;stroke-miterlimit:4;stroke-opacity:0;stroke-dasharray:none;display:inline"
           d="M 23.281331,12.621979 C 21.824434,12.983116 18.651139,13.836022 18.07318,14.894105 17.789818,15.381733 17.683656,15.915584 17.717339,16.425321 17.788779,17.506599 18.947655,18.43032 20.05474,19.174191 20.808631,19.707903 21.627863,19.244691 22.607855,19.101191 23.032326,19.039071 23.804442,19.395553 24.642794,19.47702 24.943896,19.50629 25.90496,19.233369 26.34186,19.240782 26.872585,19.249782 28.439472,19.556568 28.626084,19.498485 29.977649,18.911355 32.079438,17.934365 32.108012,16.375927 32.134272,15.705972 31.609342,15.268173 30.887746,14.745923 30.07702,14.159137 27.726462,12.998454 26.56715,12.671373 25.174643,13.51716 25.240162,14.065432 25.218255,14.498953 25.09511,14.559143 25.071519,14.534213 24.778423,14.844711 24.554617,14.5876 24.531355,14.580883 24.447875,14.548347 24.493495,13.943158 24.656931,13.401324 23.281331,12.621979 z M 23.590256,14.647135 C 23.724932,14.700675 23.830002,14.793768 24.091598,14.9435 24.390245,15.114452 24.481187,15.224521 24.667302,15.536228 L 24.788038,15.733804 C 24.96641,15.406264 25.121003,15.140216 25.415195,14.9435 25.672427,14.771546 25.805461,14.712193 25.938584,14.647135 26.360215,14.696375 26.76301,14.898496 26.983953,15.239864 27.08552,15.397687 27.144248,15.595365 27.134526,15.783198 27.120576,16.092131 26.892462,16.381745 26.63546,16.573504 L 24.692483,18.302295 22.920836,16.573504 C 22.559322,16.277235 22.37853,15.784466 22.582503,15.338651 22.771711,14.960364 23.165222,14.729548 23.590256,14.647135 z"
           id="path3236-6-2-7-2-7-2"
           sodipodi:nodetypes="ccscsssccsccccccsccscsscccsc"
           inkscape:connector-curvature="0" />
      </g>
      <g
         inkscape:groupmode="layer"
         id="layerLipsSadShock"
         inkscape:label="LipsSadShock"
         style="display:none">
        <path
           sodipodi:nodetypes="cssssszcszsscsczczccs"
           id="path2970-4-3-4-8-4"
           d="M 34.283412,23.766514 C 32.580918,22.191272 27.904961,21.625905 25.16727,21.513832 22.936078,21.422492 17.156019,21.554892 15.395755,23.798183 14.895707,24.435447 16.194105,23.534954 17.025049,24.82025 18.573509,27.215389 22.492726,27.912373 25.133856,27.935515 27.960539,27.960285 32.174834,27.644042 33.178018,25.508734 33.937181,23.892833 35.985907,25.341753 34.283412,23.766514 z M 12.713929,8.9522791 C 13.442037,8.9724831 14.337412,9.288809 16.817838,9.700795 19.619737,10.166182 21.689299,11.378162 25.460656,11.386598 29.232013,11.394998 30.921971,10.567697 33.554546,10.032062 35.833396,9.568399 37.178701,9.607102 38.472037,9.639335 39.395634,9.662345 40.460075,11.52433 42.174417,12.04127 41.070248,11.077755 41.373251,11.239582 39.987103,9.9000649 38.516882,8.4793033 37.317325,7.5015978 36.090311,6.5556387 34.602418,5.2895002 33.49413,4.2626365 30.799334,4.1026189 28.104537,3.9426013 25.153189,5.9275222 25.153189,5.9275222 25.153189,5.9275222 22.672491,4.2450213 20.170311,4.2400747 17.668129,4.2351347 16.93158,5.1665051 14.545417,6.4064336 12.78734,7.4702844 9.1213174,9.3661637 7.1506334,11.273421 9.8568774,10.508957 10.777529,8.8985372 12.713929,8.9522791 z"
           style="fill:#b30d19;fill-opacity:1;stroke:#000000;stroke-width:1.07725465;stroke-miterlimit:4;stroke-opacity:1;stroke-dasharray:none;display:inline"
           inkscape:connector-curvature="0" />
        <path
           style="fill:none;stroke:#000000;stroke-width:1.13898873px;stroke-linecap:butt;stroke-linejoin:miter;stroke-opacity:1;display:inline"
           d="M 40.604235,11.040447 C 40.604235,11.040447 41.181352,14.691939 40.934021,16.279669 40.663187,18.018284 40.097035,19.082653 38.237879,21.355561 36.378723,23.628469 34.460739,24.378707 34.460739,24.378707"
           id="path4457-6-8"
           sodipodi:nodetypes="czzc"
           inkscape:connector-curvature="0" />
        <path
           style="fill:none;stroke:#000000;stroke-width:1.18175471px;stroke-linecap:butt;stroke-linejoin:miter;stroke-opacity:1;display:inline"
           d="M 8.5560536,10.964493 C 8.5560536,10.964493 8.3138429,14.896398 8.7128496,16.505575 9.1497756,18.267674 9.822471,19.265688 11.917053,21.265783 14.011634,23.265878 16.02318,23.663037 16.02318,23.663037"
           id="path4457-3-5-6"
           sodipodi:nodetypes="czzc"
           inkscape:connector-curvature="0" />
        <path
           style="fill:url(#linearGradientLipsSadShock-0);fill-opacity:1;stroke:none;display:inline"
           d="M 32.111008,22.228318 C 30.041347,21.380477 28.861401,21.140429 24.845037,21.0582 20.789513,20.97517 18.720934,21.605343 16.611098,22.438114 L 15.391139,23.17799 C 12.837656,21.636345 11.213582,21.029531 10.107042,19.099097 8.6351803,16.153365 8.6079196,12.524655 8.9775084,10.292159 L 10.848064,9.0076847 C 11.913585,8.9658867 15.862116,9.7955369 18.616193,10.52597 21.428212,11.271771 22.174312,11.577277 24.603292,11.652841 27.344156,11.738121 27.43499,11.285623 30.825003,10.516884 32.198222,10.205486 34.847383,9.6517216 35.412258,9.6186204 39.789903,9.3620945 41.022517,11.015521 41.223826,11.231622 41.885273,11.941669 40.438698,13.137093 40.495919,13.708445 40.748001,16.225496 40.167077,17.533857 39.562832,18.701327 38.826394,20.12421 36.863377,22.909357 34.629646,23.579432 34.285942,23.682536 34.798396,23.326152 33.62291,22.844611 L 32.111008,22.228318 z"
           id="path4481-0-5"
           sodipodi:nodetypes="cscccccsssssssscc"
           inkscape:connector-curvature="0" />
        <path
           style="fill:#000000;fill-opacity:1;stroke:#000000;stroke-width:0;stroke-linejoin:miter;stroke-miterlimit:4;stroke-opacity:0;stroke-dasharray:none;display:inline"
           d="M 23.848285,12.952703 C 22.391388,13.31384 19.218093,14.166746 18.640134,15.224829 18.356772,15.712457 18.25061,16.246308 18.284293,16.756045 18.355733,17.837323 19.514609,18.761044 20.621694,19.504915 21.375585,20.038627 22.194817,19.575415 23.174809,19.431915 23.59928,19.369795 24.371396,19.726277 25.209748,19.807744 25.51085,19.837014 26.471914,19.564093 26.908814,19.571506 27.439539,19.580506 29.006426,19.887292 29.193038,19.829209 30.544603,19.242079 32.646392,18.265089 32.674966,16.706651 32.701226,16.036696 32.176296,15.598897 31.4547,15.076647 30.643974,14.489861 28.293416,13.329178 27.134104,13.002097 25.741597,13.847884 25.807116,14.396156 25.785209,14.829677 25.662064,14.889867 25.638473,14.864937 25.345377,15.175435 25.121571,14.918324 25.098309,14.911607 25.014829,14.879071 25.060449,14.273882 25.223885,13.732048 23.848285,12.952703 z M 24.15721,14.977859 C 24.291886,15.031399 24.396956,15.124492 24.658552,15.274224 24.957199,15.445176 25.048141,15.555245 25.234256,15.866952 L 25.354992,16.064528 C 25.533364,15.736988 25.687957,15.47094 25.982149,15.274224 26.239381,15.10227 26.372415,15.042917 26.505538,14.977859 26.927169,15.027099 27.329964,15.22922 27.550907,15.570588 27.652474,15.728411 27.711202,15.926089 27.70148,16.113922 27.68753,16.422855 27.459416,16.712469 27.202414,16.904228 L 25.259437,18.633019 23.48779,16.904228 C 23.126276,16.607959 22.945484,16.11519 23.149457,15.669375 23.338665,15.291088 23.732176,15.060272 24.15721,14.977859 z"
           id="path3236-6-2-7-2-7-2-0"
           sodipodi:nodetypes="ccscsssccsccccccsccscsscccsc"
           inkscape:connector-curvature="0" />
      </g>
    </g>
    <g
       inkscape:groupmode="layer"
       id="layerTongue"
       inkscape:label="Tongue"
       style="display:inline">
      <g
         style="display:none"
         inkscape:label="TongueHappyLeft"
         id="layerTongueHappyLeft"
         inkscape:groupmode="layer">
        <path
           sodipodi:nodetypes="cccsccssscc"
           id="path4892"
           d="M 36.697658,13.439626 C 38.587638,14.792981 39.391195,15.70605 39.678325,16.598092 39.926973,19.830476 35.397709,25.131446 33.650332,25.038973 31.75779,24.841606 33.605362,23.738382 31.494305,18.055629 31.07052,16.91487 31.254868,16.138337 28.600531,15.663607 L 26.672148,16.186154 C 29.468123,16.805792 29.574824,16.959629 30.094813,18.476146 31.87936,23.680681 30.156583,25.696748 32.918803,26.205083 35.893552,26.752517 41.912925,19.249185 41.105508,15.884779 40.876057,14.92866 39.289118,13.255323 38.127682,12.491896 L 36.697658,13.439626 z"
           style="fill:#000000;fill-opacity:1;display:inline" />
        <path
           style="fill:#b4626f;fill-opacity:1;display:inline"
           d="M 36.806807,13.184838 C 38.28021,14.493595 39.612326,15.420586 39.782279,16.876141 39.693589,20.358839 35.189783,25.473774 33.588107,25.213928 31.862929,24.845563 32.270011,24.342233 31.827818,19.235437 31.752458,18.365131 30.819667,16.423482 29.208444,15.641379 33.269989,14.549032 34.192948,14.198094 36.806807,13.184838 z"
           id="path4892-1-8"
           sodipodi:nodetypes="cccscc" />
        <path
           sodipodi:nodetypes="ccczcczc"
           id="path4894"
           d="M 34.015545,17.004454 C 35.075348,17.30055 35.642405,17.671909 35.549471,18.565924 35.456651,19.45585 35.574341,19.977387 34.642517,21.945283 34.642517,21.945283 34.859258,22.38399 35.066402,22.396522 35.273547,22.409052 35.546909,21.995238 35.546909,21.995238 37.254342,18.24133 37.37916,17.294459 34.850345,16.672871 34.850345,16.672871 34.350383,16.474593 34.185672,16.569285 34.020962,16.663975 34.015545,17.004454 34.015545,17.004454 z"
           style="fill:#000000;fill-opacity:1;display:inline" />
        <path
           style="fill:url(#linearGradientTongueHappyLeft);fill-opacity:1;display:inline"
           d="M 36.664104,12.816555 C 38.851188,13.765843 39.867137,14.506018 40.31562,15.305011 41.09754,18.458188 36.704395,24.475309 34.681665,24.690027 32.475978,24.826442 34.449714,23.42103 31.150972,18.170823 30.624573,17.333043 29.058431,16.443769 26.86479,16.101533 30.286275,15.35993 33.679302,14.278068 36.664104,12.816555 z"
           id="path4892-1"
           sodipodi:nodetypes="cccscc" />
      </g>
      <g
         inkscape:groupmode="layer"
         id="layerTongueHappyRight"
         inkscape:label="TongueHappyRight"
         style="display:none">
        <path
           sodipodi:nodetypes="cccsccssscc"
           id="path4892-4"
           d="M 12.273331,13.98245 C 10.383351,15.335805 9.5797943,16.248874 9.2926643,17.140916 9.0440163,20.3733 13.57328,25.67427 15.320657,25.581797 17.213199,25.38443 15.365627,24.281206 17.476684,18.598453 17.900469,17.457694 19.720608,15.946182 22.374945,15.471452 L 24.303328,15.993999 C 21.507353,16.613637 19.396165,17.502453 18.876176,19.01897 17.091629,24.223505 18.814406,26.239572 16.052186,26.747907 13.077437,27.295341 7.0580643,19.792009 7.8654813,16.427603 8.0949323,15.471484 9.6818713,13.798147 10.843307,13.03472 L 12.273331,13.98245 z"
           style="fill:#000000;fill-opacity:1;display:inline" />
        <path
           style="fill:#b4626f;fill-opacity:1;display:inline"
           d="M 11.976682,13.643581 C 10.503279,14.952338 9.3586633,15.96341 9.1887103,17.418965 9.2774003,20.901663 13.781206,26.016598 15.382882,25.756752 17.10806,25.388387 16.700978,24.885057 17.143171,19.778261 17.218531,18.907955 19.210825,16.675244 20.822048,15.893141 17.361849,15.134874 14.456909,14.723653 11.976682,13.643581 z"
           id="path4892-1-8-8"
           sodipodi:nodetypes="cccscc" />
        <path
           sodipodi:nodetypes="ccczcczc"
           id="path4894-8"
           d="M 14.955444,17.547278 C 13.895641,17.843374 13.328584,18.214733 13.421518,19.108748 13.514338,19.998674 13.396648,20.520211 14.328472,22.488107 14.328472,22.488107 14.111731,22.926814 13.904587,22.939346 13.697442,22.951876 13.42408,22.538062 13.42408,22.538062 11.716647,18.784154 11.591829,17.837283 14.120644,17.215695 14.120644,17.215695 14.620606,17.017417 14.785317,17.112109 14.950027,17.206799 14.955444,17.547278 14.955444,17.547278 z"
           style="fill:#000000;fill-opacity:1;display:inline" />
        <path
           style="fill:url(#linearGradientTongueHappyRight-0);fill-opacity:1;display:inline"
           d="M 12.306885,13.359379 C 10.119801,14.308667 9.1038523,15.048842 8.6553693,15.847835 7.8734493,19.001012 12.266594,25.018133 14.289324,25.232851 16.495011,25.369266 14.521275,23.963854 17.820017,18.713647 18.346416,17.875867 19.129185,16.785095 21.101855,15.868334 17.68037,15.126731 15.291687,14.820892 12.306885,13.359379 z"
           id="path4892-1-2"
           sodipodi:nodetypes="cccscc" />
      </g>
      <g
         inkscape:groupmode="layer"
         id="layerTongueHappyCenter"
         inkscape:label="TongueHappyCenter"
         style="display:none">
        <path
           style="fill:#000000;fill-opacity:1;display:inline"
           d="M 29.039355,15.210768 C 29.518317,16.609401 29.475744,16.429735 29.389989,17.130154 29.56397,19.992079 25.412326,24.513683 23.522783,24.368863 21.47909,24.126211 24.161502,23.241012 22.042881,18.148993 21.6176,17.126821 21.311952,15.877125 19.680745,15.066914 L 17.708448,15.194514 C 19.485527,16.233713 20.127923,17.069342 20.646328,18.426642 22.425459,23.084761 19.719881,24.823051 22.69621,25.371624 25.901518,25.962391 31.098634,20.070495 31.13474,17.054511 31.14529,16.176077 31.315318,16.367573 30.794078,14.92834 L 29.039355,15.210768 z"
           id="path4912"
           sodipodi:nodetypes="cccsccssscc" />
        <path
           style="fill:#b4626f;fill-opacity:1;display:inline"
           d="M 29.314699,15.718305 C 29.409719,16.066896 29.518932,16.60999 29.464747,17.052563 29.642603,19.978231 25.395494,24.607566 23.463866,24.459521 21.374656,24.211465 24.116699,23.28558 21.950892,18.080151 21.669738,17.404391 21.417299,16.651251 20.838865,15.965361 22.937445,16.670991 24.227388,16.717782 25.914834,16.709567 27.003323,16.704267 28.22113,15.857236 29.314699,15.718305 z"
           id="path4912-4"
           sodipodi:nodetypes="cccscsc" />
        <path
           style="fill:url(#linearGradientTongueHappyCenter-0);fill-opacity:1;display:inline"
           d="M 29.505164,15.65289 C 29.607472,16.028208 29.629892,16.279869 29.571554,16.756377 29.763047,19.906374 25.190285,24.890669 23.110547,24.731272 20.861145,24.464196 23.813438,23.467318 21.481564,17.862757 21.178853,17.135183 20.907057,16.324294 20.284272,15.585813 22.23855,15.836859 24.136089,15.887238 25.952923,15.878393 27.124872,15.872693 28.327746,15.802483 29.505166,15.652892 z"
           id="path4912-4-5"
           sodipodi:nodetypes="cccscsc" />
        <path
           style="fill:#000000;fill-opacity:1;display:inline"
           d="M 25.182303,18.072268 C 25.471685,18.460232 25.569873,18.510387 25.545743,18.965412 25.439153,19.496859 25.503423,19.660931 24.781304,21.166814 24.781304,21.166814 24.530677,21.42716 24.833044,21.561281 25.135418,21.695405 25.195985,21.468621 25.195985,21.468621 26.246204,19.107264 26.379614,19.167848 25.825487,18.008021 25.825487,18.008021 25.680448,17.84307 25.401954,17.859589 25.101271,17.877439 25.182297,18.072265 25.182297,18.072265 z"
           id="path4914"
           sodipodi:nodetypes="ccczcczc" />
      </g>
      <g
         inkscape:groupmode="layer"
         id="layerTongueNormal"
         inkscape:label="TongueNormal"
         style="display:none">
        <path
           style="fill:none;stroke:#000000;stroke-width:0;stroke-linecap:butt;stroke-linejoin:miter;stroke-opacity:1;display:inline"
           d="M 0.1,0.1 0.1,0.1"
           id="path2937-2-4-7-0" />
      </g>
      <g
         inkscape:groupmode="layer"
         id="layerTongueSadLeft"
         inkscape:label="TongueSadLeft"
         style="display:none">
        <path
           sodipodi:nodetypes="cccsccssscc"
           id="path4892-8"
           d="M 37.685305,14.751581 C 39.21809,16.499197 39.793008,17.57105 39.869805,18.505011 39.377029,21.709275 33.761157,25.841648 32.080567,25.354314 30.282462,24.731829 32.332476,24.07756 31.568732,18.063665 31.415407,16.85643 31.771479,16.142147 29.294591,15.076362 L 27.297905,15.146792 C 29.879775,16.385893 29.948706,16.55996 30.110283,18.154986 30.664795,23.628952 28.528765,25.200531 31.10307,26.323569 33.875449,27.533003 41.443132,21.594736 41.421789,18.134867 41.415689,17.15162 40.2508,15.161301 39.293353,14.153804 L 37.685305,14.751585 z"
           style="fill:#000000;fill-opacity:1;display:inline" />
        <path
           style="fill:#b4626f;fill-opacity:1;display:inline"
           d="M 37.975273,14.814364 C 39.112531,16.423837 40.073251,17.343338 39.907819,18.799413 39.029629,22.170739 33.480845,26.127737 31.980194,25.51054 30.383948,24.759587 30.894806,24.361993 31.62527,19.288402 31.749756,18.423755 31.043291,16.25676 29.652082,15.128813 34.044599,14.421548 35.105004,14.734337 37.975273,14.814364 z"
           id="path4892-1-8-5"
           sodipodi:nodetypes="cccscc" />
        <path
           sodipodi:nodetypes="ccczcczc"
           id="path4894-7"
           d="M 34.262937,17.613246 C 35.227665,18.142544 35.695439,18.633103 35.401677,19.482575 35.108955,20.328091 35.104986,20.862728 33.750147,22.567227 33.750147,22.567227 33.861467,23.043723 34.060337,23.103023 34.259208,23.162323 34.619496,22.821496 34.619496,22.821496 37.135698,19.5541 37.472527,18.660405 35.151263,17.480146 35.151263,17.480146 34.709475,17.17339 34.527548,17.228154 34.345623,17.282914 34.262937,17.613246 34.262937,17.613246 z"
           style="fill:#000000;fill-opacity:1;display:inline" />
        <path
           style="fill:url(#linearGradientTongueSadLeft-0);fill-opacity:1;display:inline"
           d="M 37.79429,14.137198 C 39.708267,15.558879 40.529324,16.510655 40.784403,17.39069 40.828943,20.639065 34.033752,25.897529 32.015178,25.646738 29.83624,25.278097 31.768459,23.20919 31.2082,18.097782 31.099466,17.114345 29.563122,15.9402 27.504741,15.108182 31.093619,14.412611 34.555369,14.881814 37.79429,14.137198 z"
           id="path4892-1-6"
           sodipodi:nodetypes="cccscc" />
      </g>
      <g
         style="display:none"
         inkscape:label="TongueSadRight"
         id="layerTongueSadRight"
         inkscape:groupmode="layer">
        <path
           sodipodi:nodetypes="cccsccssscc"
           id="path4892-4-1"
           d="M 12.291256,14.586658 C 10.658651,16.241407 10.021884,17.277712 9.8904667,18.205565 10.194543,21.433206 15.558492,25.887705 17.264763,25.499736 19.09627,24.983736 17.08814,24.210409 18.203135,18.251632 18.426972,17.055462 18.867485,15.810688 21.402596,14.891944 L 23.391719,15.079306 C 20.741646,16.164912 19.908532,16.845485 19.653724,18.428294 18.779251,23.860337 20.819473,25.554439 18.183755,26.524625 15.345241,27.569447 8.1387089,21.197734 8.3628517,17.745067 8.4265417,16.763866 9.7061537,14.845265 10.721017,13.895632 L 12.291256,14.586658 z"
           style="fill:#000000;fill-opacity:1;display:inline" />
        <path
           style="fill:#b4626f;fill-opacity:1;display:inline"
           d="M 11.941352,14.303108 C 10.711694,15.843141 9.7554737,17.033962 9.8352577,18.497232 10.514292,21.914243 15.82155,26.189735 17.355804,25.661577 18.993331,25.005496 18.506662,24.578636 18.074894,19.470948 18.001364,18.600487 19.064233,16.420694 20.519176,15.376247 16.791472,14.744352 15.451428,13.943353 11.941352,14.303108 z"
           id="path4892-1-8-8-7"
           sodipodi:nodetypes="cccscc" />
        <path
           sodipodi:nodetypes="ccczcczc"
           id="path4894-8-1"
           d="M 15.53997,17.644039 C 14.545872,18.115868 14.050142,18.57816 14.293599,19.443393 14.536249,20.304616 14.508867,20.838565 15.76145,22.619562 15.76145,22.619562 15.622385,23.088713 15.420382,23.136251 15.218376,23.183791 14.878688,22.822427 14.878688,22.822427 12.558367,19.413137 12.274511,18.501232 14.660975,17.45909 14.660975,17.45909 15.119988,17.178761 15.298391,17.244096 15.476792,17.309426 15.53997,17.644039 15.53997,17.644039 z"
           style="fill:#000000;fill-opacity:1;display:inline" />
        <path
           style="fill:url(#linearGradientTongueSadRight-0);fill-opacity:1;display:inline"
           d="M 11.704402,14.152057 C 9.6781717,15.461442 9.3551787,16.175522 9.0432527,17.039506 8.8010797,20.280215 14.22916,25.457972 16.29039,25.323652 18.521312,25.080892 16.30505,24.033575 18.706764,18.296162 19.090023,17.380636 19.177243,16.124471 21.314075,15.412128 17.573627,14.510531 15.414657,13.853353 11.704402,14.152057 z"
           id="path4892-1-2-1"
           sodipodi:nodetypes="cccscc" />
      </g>
      <g
         style="display:none"
         inkscape:label="TongueSadCenter"
         id="layerTongueSadCenter"
         inkscape:groupmode="layer">
        <path
           style="fill:#000000;fill-opacity:1;display:inline"
           d="M 29.924345,14.834949 C 30.182336,15.880029 30.127555,15.587558 30.085994,16.376365 30.259975,19.23829 26.108331,23.759894 24.218788,23.615074 22.175095,23.372422 24.857507,22.487223 22.738886,17.395204 22.313605,16.373032 22.007957,15.123336 20.37675,14.313125 L 18.404453,14.661696 C 20.181532,15.700895 20.823928,16.315553 21.342333,17.672853 23.121464,22.330972 20.415886,24.069262 23.392215,24.617835 26.597523,25.208602 31.794639,19.316706 31.830745,16.300722 31.841295,15.422288 31.935143,15.549812 31.679068,14.552521 L 29.924345,14.834949 z"
           id="path4912-9"
           sodipodi:nodetypes="cccsccssscc" />
        <path
           style="fill:#b4626f;fill-opacity:1;display:inline"
           d="M 30.054897,15.052904 C 30.149917,15.401495 30.214937,15.856201 30.160752,16.298774 30.338608,19.224442 26.091499,23.853777 24.159871,23.705732 22.070661,23.457676 24.812704,22.531791 22.646897,17.326362 22.365743,16.650602 22.113304,15.897462 21.53487,15.211572 23.63345,15.917202 24.527367,16.032429 26.213091,15.955778 27.30158,15.906284 28.210027,14.794088 30.054897,15.052904 z"
           id="path4912-4-4"
           sodipodi:nodetypes="cccscsc" />
        <path
           style="fill:url(#linearGradientTongueSadCenter-0);fill-opacity:1;display:inline"
           d="M 30.112782,14.899103 C 30.21509,15.274421 30.325897,15.52608 30.267559,16.002588 30.459052,19.152585 25.88629,24.13688 23.806552,23.977483 21.55715,23.710407 24.509443,22.713529 22.177569,17.108968 21.874858,16.381394 21.603062,15.570505 20.980277,14.832024 22.934555,15.08307 24.832094,15.133449 26.648928,15.124604 27.820877,15.118904 28.935362,15.048694 30.112782,14.899103 z"
           id="path4912-4-5-8"
           sodipodi:nodetypes="cccscsc" />
        <path
           style="fill:#000000;fill-opacity:1;display:inline"
           d="M 25.878308,17.318479 C 26.16769,17.706443 26.265878,17.756598 26.241748,18.211623 26.135158,18.74307 26.199428,18.907142 25.477309,20.413025 25.477309,20.413025 25.226682,20.673371 25.529049,20.807492 25.831423,20.941616 25.89199,20.714832 25.89199,20.714832 26.942209,18.353475 27.075619,18.414059 26.521492,17.254232 26.521492,17.254232 26.376453,17.089281 26.097959,17.1058 25.797276,17.12365 25.878302,17.318476 25.878302,17.318476 z"
           id="path4914-8"
           sodipodi:nodetypes="ccczcczc" />
      </g>
    </g>
    <g
       inkscape:groupmode="layer"
       id="layerTeeth"
       inkscape:label="Teeth"
       style="display:inline">
      <g
         inkscape:groupmode="layer"
         id="layerTeethHappyOpenAlt1"
         inkscape:label="TeethHappyOpenAlt1"
         style="display:none">
        <path
           style="fill:#ffffff;fill-opacity:1;stroke:#000000;stroke-width:0.1;stroke-miterlimit:4;stroke-opacity:1;stroke-dasharray:none;display:inline"
           d="M 24.594829,11.152475 C 27.639105,11.183955 27.128899,11.777192 31.469829,11.683725 33.843059,11.632625 36.835376,11.284522 39.308217,10.955172 37.126249,14.188138 35.120552,19.519171 30.938579,22.214975 29.003064,23.81815 28.21637,24.212935 26.626079,24.277475 24.472116,24.364895 21.967552,22.809283 20.594829,21.964975 15.620295,18.905335 13.116779,16.975423 8.7823282,11.308725 11.31161,11.946466 15.033744,12.047432 17.438579,11.871225 21.314856,11.587203 21.550553,11.120992 24.594829,11.152475 z"
           id="seg-1-6-1-7-16"
           sodipodi:nodetypes="csccsscsc" />
        <path
           sodipodi:nodetypes="ccsccc"
           id="path2860-6-4-6-5-1-7"
           d="M 25.898025,24.518673 26.551651,24.447049 C 26.356725,20.1666 26.408243,19.915526 26.212232,17.639607 25.996106,15.124023 25.713693,12.609687 25.491681,10.911512 L 24.771502,10.948821 C 25.424092,15.444429 25.69462,19.983457 25.898025,24.518673 z"
           style="fill:#000000;fill-opacity:1;display:inline" />
        <path
           sodipodi:nodetypes="ccsccc"
           id="path2860-6-4-6-5-1-7-2"
           d="M 12.405115,16.001233 12.412515,16.216065 C 17.528735,17.935402 22.530284,17.95758 26.43359,17.811782 30.747837,17.650636 34.340275,16.834784 36.730951,15.935849 L 36.78514,15.622205 C 28.864183,18.063431 20.412417,17.688638 12.405115,16.001233 z"
           style="fill:#000000;fill-opacity:1;display:inline" />
        <path
           sodipodi:nodetypes="ccsccc"
           id="path2860-6-4-6-5-1-7-74"
           d="M 31.247751,22.183397 31.903516,22.163637 C 31.89816,18.781968 31.960699,18.587141 31.865628,16.783927 31.76107,14.790854 31.590275,12.795049 31.443698,11.445334 L 30.723002,11.43434 C 31.175789,15.011098 31.245194,18.60063 31.247751,22.183397 z"
           style="fill:#000000;fill-opacity:1;display:inline" />
        <path
           sodipodi:nodetypes="ccsccc"
           id="path2860-6-4-6-5-1-7-74-0"
           d="M 35.801854,17.437028 36.457619,17.425081 C 36.452263,15.380468 36.514802,15.262672 36.419731,14.17242 36.315173,12.967375 36.144378,11.760679 35.997801,10.944619 L 35.277105,10.937972 C 35.729892,13.100538 35.799297,15.270828 35.801854,17.437028 z"
           style="fill:#000000;fill-opacity:1;display:inline" />
        <path
           sodipodi:nodetypes="ccsccc"
           id="path2860-6-4-6-5-1-7-74-4"
           d="M 18.609862,21.372261 19.264041,21.324311 C 19.104264,18.064404 19.157841,17.873823 18.980524,16.139599 18.78506,14.222759 18.523303,12.306204 18.315243,11.011453 L 17.594797,11.032615 C 18.210447,14.460882 18.443698,17.91836 18.609862,21.372261 z"
           style="fill:#000000;fill-opacity:1;display:inline" />
        <path
           sodipodi:nodetypes="ccsccc"
           id="path2860-6-4-6-5-1-7-74-8"
           d="M 12.989354,16.874528 13.645119,16.86373 C 13.639763,15.015743 13.702302,14.909276 13.607231,13.92387 13.502673,12.834712 13.331878,11.744061 13.185301,11.00648 L 12.464605,11.000472 C 12.917392,12.955069 12.986797,14.916647 12.989354,16.874528 z"
           style="fill:#000000;fill-opacity:1;display:inline" />
      </g>
      <g
         inkscape:groupmode="layer"
         id="layerTeethHappyOpen"
         inkscape:label="TeethHappyOpen"
         style="display:none">
        <path
           style="fill:#ffffff;fill-opacity:1;stroke:#000000;stroke-width:0.10473553;stroke-miterlimit:4;stroke-opacity:1;stroke-dasharray:none;display:inline"
           d="M 10.440387,13.310852 C 12.28886,13.90582 14.855194,14.286327 17.27217,14.564167 19.382404,14.806744 21.372777,15.683292 24.488994,15.711262 27.605213,15.739232 29.03934,14.900369 31.387899,14.665252 33.888703,14.414894 36.22461,13.909993 38.223217,13.250054 35.811621,15.825082 33.535739,18.90754 29.353198,21.101032 27.392451,22.040824 26.472872,22.111912 24.997669,22.111888 23.337423,22.111862 21.292306,21.66093 20.101674,20.999947 15.890534,18.662115 13.514742,17.814853 10.440387,13.310852 z"
           id="seg-1-6-1-7-1-8"
           sodipodi:nodetypes="csssccssc" />
        <path
           sodipodi:nodetypes="ccsccc"
           id="path2860-6-4-6-5-1-7-9"
           d="M 24.449048,22.306439 25.175367,22.288679 C 25.342091,20.08169 25.290694,19.954948 25.285699,18.777501 25.280699,17.476095 25.270919,16.172465 25.190393,15.290658 L 24.462023,15.287658 C 24.738727,17.621899 24.62867,19.97084 24.449048,22.306439 z"
           style="fill:#000000;fill-opacity:1;display:inline" />
        <path
           sodipodi:nodetypes="cccscc"
           id="path2860-6-4-6-5-1-7-2-5"
           d="M 36.155846,15.8356 C 27.022952,18.759868 21.084789,18.296983 12.356539,16.149794 L 12.570344,16.475929 C 17.44983,18.329795 22.019222,18.666208 25.741907,18.509004 29.856533,18.335247 34.191178,17.143058 36.47123,16.173786 L 36.155846,15.8356 z"
           style="fill:#000000;fill-opacity:1;display:inline" />
        <path
           sodipodi:nodetypes="ccsccc"
           id="path2860-6-4-6-5-1-7-21-4"
           d="M 29.766583,20.954261 30.390776,20.750431 C 30.538687,18.715423 30.603989,18.59856 30.599556,17.512876 30.594556,16.312885 30.531046,15.110843 30.459547,14.297756 L 29.778094,14.295056 C 30.023245,16.447166 29.925714,18.800526 29.766583,20.954261 z"
           style="fill:#000000;fill-opacity:1;display:inline" />
        <path
           sodipodi:nodetypes="ccsccc"
           id="path2860-6-4-6-5-1-7-21-6-3"
           d="M 18.630032,20.406752 19.191723,20.641372 C 19.339637,18.732511 19.404938,18.622892 19.400504,17.604501 19.395504,16.478899 19.331994,15.351365 19.260494,14.588681 L 18.641542,14.336681 C 18.886376,16.353353 18.789114,18.387136 18.630032,20.406752 z"
           style="fill:#000000;fill-opacity:1;display:inline" />
        <path
           sodipodi:nodetypes="ccsccc"
           id="path2860-6-4-6-5-1-7-21-6-8-1"
           d="M 14.972668,18.443183 15.471862,18.432293 C 15.619772,17.080083 15.685074,17.002428 15.68064,16.281018 15.67564,15.48365 15.61213,14.684929 15.540644,14.144648 L 14.98418,14.142648 C 15.249165,15.573729 15.098287,17.010042 14.972668,18.443183 z"
           style="fill:#000000;fill-opacity:1;display:inline" />
        <path
           sodipodi:nodetypes="ccsccc"
           id="path2860-6-4-6-5-1-7-21-5-2"
           d="M 33.81636,17.999471 34.378052,17.864971 C 34.525951,16.687354 34.591268,16.619717 34.586819,15.991453 34.581819,15.297039 34.518309,14.601439 34.446823,14.130915 L 33.827869,14.254415 C 34.090713,15.500917 33.942065,16.750505 33.81636,17.999471 z"
           style="fill:#000000;fill-opacity:1;display:inline" />
      </g>
      <g
         inkscape:groupmode="layer"
         id="layerTeethNormal"
         inkscape:label="TeethNormal"
         style="display:none">
        <path
           style="fill:none;stroke:#000000;stroke-width:0;stroke-linecap:butt;stroke-linejoin:miter;stroke-opacity:1;display:inline"
           d="M 0.1,0.1 0.1,0.1"
           id="path2937-2-4-7-7" />
      </g>
      <g
         inkscape:groupmode="layer"
         id="layerTeethSadOpen"
         inkscape:label="TeethSadOpen"
         style="display:none">
        <path
           style="fill:#ffffff;fill-opacity:1;stroke:#000000;stroke-width:0.08380839;stroke-miterlimit:4;stroke-opacity:1;stroke-dasharray:none;display:inline"
           d="M 24.666917,20.541011 C 20.643636,20.515081 19.248607,20.761178 17.155898,21.150152 L 15.662366,21.668204 15.665466,19.288834 C 15.37588,18.179417 15.536218,17.330892 14.97298,16.437841 14.079539,14.162713 12.341786,13.425924 10.718569,12.273406 L 12.524008,12.281206 C 13.58088,12.251606 15.897507,12.665949 18.629227,13.183194 21.418419,13.711319 22.767676,14.028028 25.176938,14.081537 27.895553,14.141927 28.266826,13.921868 31.62932,13.377499 32.991391,13.156988 35.293311,12.682162 35.851297,12.639004 36.920638,12.215698 38.954791,12.966806 39.435961,13.069075 37.624038,13.713957 36.160124,14.951507 35.279608,15.845145 34.79942,16.332489 34.440791,17.757504 34.110716,18.843466 33.479745,19.920536 33.592245,21.906622 33.607847,21.97538 30.60351,21.189031 27.851371,20.540656 24.666917,20.541045 z"
           id="path4481-0-9-4"
           sodipodi:nodetypes="cccccccsssccsccc" />
        <path
           sodipodi:nodetypes="ccsccc"
           id="path2860-6-4-6-5-1-7-7-8"
           d="M 25.107917,13.453322 25.56265,13.471912 C 25.778451,15.788583 25.873722,15.92162 25.867255,17.157585 25.860855,18.523672 25.767229,19.892089 25.662995,20.817719 L 25.12471,20.820619 C 25.481026,18.373336 25.34025,15.90342 25.107917,13.453322 z"
           style="fill:#000000;fill-opacity:1;display:inline" />
        <path
           sodipodi:nodetypes="cccscc"
           id="path2860-6-4-6-5-1-7-2-4-8"
           d="M 34.858137,18.352886 C 29.399799,17.769551 20.220704,17.58994 15.158423,18.241401 L 14.634049,17.947869 C 19.342154,17.363341 21.863779,17.39767 25.915287,17.398638 30.530954,17.400038 31.80438,17.672919 35.112575,17.991963 L 34.858137,18.352886 z"
           style="fill:#000000;fill-opacity:1;display:inline" />
        <path
           sodipodi:nodetypes="ccsccc"
           id="path2860-6-4-6-5-1-7-21-2-2"
           d="M 30.026198,13.069267 30.498405,13.090467 C 30.722487,15.733266 30.821437,15.885038 30.814702,17.294987 30.807202,18.853382 30.710912,20.414436 30.602592,21.47038 L 30.043635,21.47378 C 30.413803,18.680918 30.267179,15.865062 30.026198,13.069267 z"
           style="fill:#000000;fill-opacity:1;display:inline" />
        <path
           sodipodi:nodetypes="ccsccc"
           id="path2860-6-4-6-5-1-7-21-6-7-4"
           d="M 19.824273,13.058965 20.408675,13.078545 C 20.686013,15.515386 20.808478,15.65533 20.800139,16.955401 20.790839,18.392353 20.671686,19.831747 20.537646,20.805393 L 19.84583,20.808493 C 20.299837,18.236733 20.122291,15.634842 19.824273,13.058965 z"
           style="fill:#000000;fill-opacity:1;display:inline" />
        <path
           sodipodi:nodetypes="ccsccc"
           id="path2860-6-4-6-5-1-7-21-6-8-7-5"
           d="M 14.670156,12.252448 15.212083,12.266818 C 15.469229,14.050343 15.58279,14.152766 15.575081,15.10429 15.566481,16.155993 15.455967,17.209486 15.331651,17.9221 L 14.690168,17.9243 C 15.106671,16.043869 14.94642,14.137206 14.670156,12.252448 z"
           style="fill:#000000;fill-opacity:1;display:inline" />
        <path
           sodipodi:nodetypes="ccsccc"
           id="path2860-6-4-6-5-1-7-21-5-9-5"
           d="M 34.358927,12.36648 34.821513,12.38125 C 35.04101,14.216572 35.137945,14.321968 35.131345,15.301126 35.123945,16.383371 35.029671,17.467461 34.923576,18.200769 L 34.375991,18.203469 C 34.734616,16.266275 34.594809,14.306492 34.358927,12.36648 z"
           style="fill:#000000;fill-opacity:1;display:inline" />
        <path
           sodipodi:nodetypes="ccsccc"
           id="path2860-6-4-6-5-1-7-21-5-9-1-1"
           d="M 37.601847,12.229328 37.985082,12.234328 C 38.166928,12.86221 38.247234,12.898265 38.241783,13.233242 38.235683,13.603487 38.157553,13.974364 38.069637,14.225237 L 37.615999,14.226078 C 37.944646,13.532635 37.715763,12.924083 37.601847,12.229328 z"
           style="fill:#000000;fill-opacity:1;display:inline" />
        <path
           sodipodi:nodetypes="ccsccc"
           id="path2860-6-4-6-5-1-7-21-5-9-1-7-7"
           d="M 12.017725,12.025983 12.480309,12.030883 C 12.699808,12.638934 12.79674,12.673851 12.790143,12.998252 12.782743,13.356804 12.688468,13.715968 12.582373,13.958913 L 12.034805,13.95972 C 12.418293,13.263442 12.160099,12.722632 12.017725,12.025983 z"
           style="fill:#000000;fill-opacity:1;display:inline" />
      </g>
      <g
         inkscape:groupmode="layer"
         id="layerTeethSadOpenAlt1"
         inkscape:label="TeethSadOpenAlt1"
         style="display:none">
        <path
           style="fill:#ffffff;fill-opacity:1;stroke:#000000;stroke-width:0.1;stroke-miterlimit:4;stroke-opacity:1;stroke-dasharray:none;display:inline"
           d="M 24.333454,20.728157 C 20.277245,20.691537 18.870798,21.039069 16.760962,21.588363 L 15.541003,22.1865 15.544103,19.026597 C 15.252173,17.459918 14.916237,16.363145 14.083849,14.80037 13.316271,13.359273 13.126779,13.08246 11.361896,11.801922 L 9.0801256,10.387331 11.281405,9.1973496 C 12.346926,9.1555496 15.492272,9.6072319 18.246349,10.337665 21.058368,11.083466 22.418668,11.53071 24.847648,11.606274 27.588512,11.691554 27.962824,11.380795 31.352837,10.612056 32.726056,10.300658 35.046816,9.963724 35.609368,9.902778 37.104994,9.7407445 37.392684,9.6460603 38.302686,10.098392 39.171656,10.530329 40.35649,10.854395 39.842597,11.110583 38.015846,12.021262 36.20652,13.23513 35.318798,14.497093 34.83468,15.185302 34.187318,16.79734 33.854542,18.330897 33.218408,19.851898 33.331828,22.322978 33.347558,22.420076 30.318632,21.309622 27.54397,20.727607 24.333454,20.728157 z"
           id="path4481-0-9"
           sodipodi:nodetypes="ccccscccsssssssccc" />
        <path
           sodipodi:nodetypes="ccsccc"
           id="path2860-6-4-6-5-1-7-7"
           d="M 24.778061,10.719178 25.236516,10.745428 C 25.454083,14.016945 25.550134,14.204816 25.543614,15.950202 25.537114,17.87934 25.442769,19.811769 25.337683,21.11891 L 24.794992,21.12301 C 25.156909,17.662657 25.012503,14.182165 24.778061,10.719178 z"
           style="fill:#000000;fill-opacity:1;display:inline" />
        <path
           sodipodi:nodetypes="cccscc"
           id="path2860-6-4-6-5-1-7-2-4"
           d="M 34.60808,17.638166 C 29.10507,16.814402 19.850852,16.560761 14.747139,17.48073 L 14.04025,17.066215 C 18.786887,16.240766 21.507374,16.289244 25.59204,16.290612 30.245482,16.292612 31.529331,16.677942 34.8646,17.128483 L 34.60808,17.638166 z"
           style="fill:#000000;fill-opacity:1;display:inline" />
        <path
           sodipodi:nodetypes="ccsccc"
           id="path2860-6-4-6-5-1-7-21-2"
           d="M 29.736595,10.176831 30.212666,10.206771 C 30.438583,13.938834 30.538342,14.153161 30.531552,16.144241 30.523952,18.34495 30.426913,20.549414 30.317705,22.04058 L 29.754174,22.04538 C 30.129754,18.096639 29.979749,14.12819 29.736595,10.176831 z"
           style="fill:#000000;fill-opacity:1;display:inline" />
        <path
           sodipodi:nodetypes="ccsccc"
           id="path2860-6-4-6-5-1-7-21-6-7"
           d="M 19.451179,10.162283 20.040364,10.189933 C 20.319971,13.631151 20.443438,13.828774 20.435032,15.664689 20.425632,17.6939 20.305526,19.72656 20.17039,21.101509 L 19.472913,21.105809 C 19.935327,17.468773 19.751903,13.803097 19.451179,10.162283 z"
           style="fill:#000000;fill-opacity:1;display:inline" />
        <path
           sodipodi:nodetypes="ccsccc"
           id="path2860-6-4-6-5-1-7-21-6-8-7"
           d="M 14.778838,9.223507 15.325201,9.243807 C 15.584451,11.762437 15.698941,11.907075 15.691169,13.250783 15.682469,14.735959 15.571081,16.223665 15.445747,17.229991 L 14.799014,17.232991 C 15.224916,14.574111 15.057503,11.886425 14.778838,9.223507 z"
           style="fill:#000000;fill-opacity:1;display:inline" />
        <path
           sodipodi:nodetypes="ccsccc"
           id="path2860-6-4-6-5-1-7-21-5-9"
           d="M 34.104781,9.1843796 34.571153,9.2052426 C 34.792447,11.797019 34.890174,11.945855 34.88352,13.328586 34.87602,14.856894 34.781014,16.387806 34.674051,17.423357 L 34.121984,17.427157 C 34.487544,14.687351 34.342805,11.926389 34.104781,9.1843796 z"
           style="fill:#000000;fill-opacity:1;display:inline" />
        <path
           sodipodi:nodetypes="ccsccc"
           id="path2860-6-4-6-5-1-7-21-5-9-1"
           d="M 37.374249,8.9906993 37.76062,9.0008993 C 37.943955,10.265202 38.024918,10.337803 38.019423,11.012314 38.013223,11.757839 37.934503,12.504637 37.845868,13.009795 L 37.388517,13.011395 C 37.710998,11.67162 37.530304,10.333633 37.374249,8.9906993 z"
           style="fill:#000000;fill-opacity:1;display:inline" />
        <path
           sodipodi:nodetypes="ccsccc"
           id="path2860-6-4-6-5-1-7-21-5-9-1-7"
           d="M 11.580735,8.7035437 12.047105,8.7147037 C 12.2684,10.097858 12.366126,10.177284 12.359474,10.91521 12.351974,11.73082 12.256968,12.54782 12.150004,13.100456 L 11.597956,13.102256 C 11.98407,11.634365 11.769424,10.175198 11.580735,8.7035437 z"
           style="fill:#000000;fill-opacity:1;display:inline" />
      </g>
    </g>
    <g
       inkscape:groupmode="layer"
       id="layerDimples"
       inkscape:label="Dimples"
       style="display:inline">
      <g
         inkscape:groupmode="layer"
         id="layerDimplesSad"
         inkscape:label="DimplesSad"
         style="display:none">
        <path
           style="display:inline"
           d="M 0.95753227,17.02417 C 1.3312883,18.414505 2.1732891,19.879121 4.0956132,20.697851 4.0956132,20.697851 4.3429214,20.838765 4.2694271,20.974536 4.1922631,21.117088 3.8609084,21.070066 3.8609084,21.070066 -0.15462054,19.325884 -0.4621521,15.097377 0.92390727,13.432788 0.92390727,13.432788 1.1338172,13.002131 1.3715359,13.059174 1.6028154,13.114674 1.5059723,13.370862 1.5059723,13.370862 0.85950073,14.261569 0.81695624,15.684958 0.95753227,17.024166 z"
           id="seg-8-9-7"
           sodipodi:nodetypes="cczcczcc" />
        <path
           style="display:inline"
           d="M 48.535601,15.238928 C 48.370915,16.726969 47.765643,18.351391 46.029063,19.443658 46.029063,19.443658 45.814228,19.730114 45.89913,19.843372 45.98404,19.956628 46.327939,19.830492 46.327939,19.830492 49.950721,17.513702 50.038488,12.671976 48.137433,11.382122 48.137433,11.382122 47.791785,10.966669 47.469835,11.103078 47.147883,11.239491 47.494085,11.523107 47.494085,11.523107 48.552229,12.580611 48.483582,13.852925 48.535599,15.23893 z"
           id="seg-8-93"
           sodipodi:nodetypes="cczcczcc" />
      </g>
      <g
         inkscape:groupmode="layer"
         id="layerDimplesNormal"
         inkscape:label="DimplesNormal"
         style="display:inline" />
      <g
         inkscape:groupmode="layer"
         id="layerDimplesHappy"
         inkscape:label="DimplesHappy"
         style="display:inline">
        <path
           style="display:inline"
           d="M 1.0413272,9.8570369 C 0.47155105,11.179187 0.22283796,12.850177 1.2220729,14.685165 1.2220729,14.685165 1.328541,14.949139 1.1866519,15.00999 1.0376778,15.073879 0.80703341,14.831372 0.80703341,14.831372 -1.2591946,10.971664 1.1238892,7.4651343 3.2437829,7.0200833 3.2437829,7.0200833 3.6756453,6.8126644 3.8266452,7.0049233 3.9735544,7.1919738 3.7386262,7.3327575 3.7386262,7.3327575 2.6789365,7.6299795 1.762215,8.71969 1.0413272,9.8570369 z"
           id="seg-8-9"
           sodipodi:nodetypes="cczcczcc" />
        <path
           style="display:inline"
           d="M 48.279813,9.0592572 C 49.133474,10.289155 49.744639,11.91137 49.153344,13.875836 49.153344,13.875836 49.179634,14.232935 49.318055,14.262519 49.456479,14.292099 49.632826,13.971036 49.632826,13.971036 50.841294,9.8440905 47.725924,6.1367349 45.445342,6.4136418 45.445342,6.4136418 44.911796,6.3275978 44.758746,6.6419822 44.605697,6.9563667 45.053031,6.9426631 45.053031,6.9426631 46.54555,7.0444935 47.32985,8.0486696 48.279813,9.0592572 z"
           id="seg-8"
           sodipodi:nodetypes="cczcczcc" />
      </g>
    </g>
  </g>
</svg>
