<?xml version="1.0" encoding="UTF-8" standalone="no"?>
<!-- Created with Inkscape (http://www.inkscape.org/) -->

<svg
   xmlns:dc="http://purl.org/dc/elements/1.1/"
   xmlns:cc="http://creativecommons.org/ns#"
   xmlns:rdf="http://www.w3.org/1999/02/22-rdf-syntax-ns#"
   xmlns:svg="http://www.w3.org/2000/svg"
   xmlns="http://www.w3.org/2000/svg"
   xmlns:sodipodi="http://sodipodi.sourceforge.net/DTD/sodipodi-0.dtd"
   xmlns:inkscape="http://www.inkscape.org/namespaces/inkscape"
   width="50"
   height="30"
   id="svg4873"
   version="1.1"
   inkscape:version="0.48.0 r9654"
   sodipodi:docname="body-mouth1.svg"
   inkscape:export-filename="/Users/aaxe/Documents/moralife/img/ml-graphics-sadtongue.png"
   inkscape:export-xdpi="90"
   inkscape:export-ydpi="90"
   style="display:inline">
  <defs
     id="defs4875">
    <linearGradient
       inkscape:collect="always"
       id="linearGradientLipsSadOpenAlt1-0"
       x1="28.55904"
       y1="0.77772164"
       x2="26.706575"
       y2="23.331442"
       gradientUnits="userSpaceOnUse"
       gradientTransform="matrix(1,0,0,1.2016973,-0.42749201,-3.4958495)">
      <stop
         style="stop-color:#000000;stop-opacity:1;"
         offset="0"
         id="stop6432" />
      <stop
         style="stop-color:#000000;stop-opacity:0;"
         offset="1"
         id="stop6434" />
    </linearGradient>
    <linearGradient
       inkscape:collect="always"
       id="linearGradientLipsSadShock-0"
       x1="28.542604"
       y1="1.0776004"
       x2="25.321995"
       y2="22.34704"
       gradientUnits="userSpaceOnUse"
       gradientTransform="matrix(1,0,0,1.0867296,0,-0.95916761)">
      <stop
         style="stop-color:#000000;stop-opacity:1;"
         offset="0"
         id="stop19" />
      <stop
         style="stop-color:#000000;stop-opacity:0;"
         offset="1"
         id="stop21" />
    </linearGradient>
    <linearGradient
       inkscape:collect="always"
       id="linearGradientLipsSadOpen-0"
       x1="30.610764"
       y1="1.0158861"
       x2="28.435228"
       y2="16.41993"
       gradientUnits="userSpaceOnUse"
       gradientTransform="matrix(1,0,0,1.1308752,0,-2.8654058)">
      <stop
         style="stop-color:#000000;stop-opacity:1;"
         offset="0"
         id="stop3814" />
      <stop
         style="stop-color:#000000;stop-opacity:0;"
         offset="1"
         id="stop3816" />
    </linearGradient>
    <linearGradient
       inkscape:collect="always"
       id="linearGradientLipsHappyOpen-0"
       x1="25.616488"
       y1="0.55518275"
       x2="25.616488"
       y2="22.158575"
       gradientUnits="userSpaceOnUse"
       gradientTransform="matrix(1.0579652,0,0,1.3749259,-1.6597629,-4.8150667)">
      <stop
         style="stop-color:#000000;stop-opacity:1;"
         offset="0"
         id="stop4112" />
      <stop
         style="stop-color:#000000;stop-opacity:0;"
         offset="1"
         id="stop4114" />
    </linearGradient>
    <linearGradient
       inkscape:collect="always"
       id="linearGradientLipsHappyOpenAlt1-0"
       x1="25.125038"
       y1="2.7570786"
       x2="21.924892"
       y2="23.157675"
       gradientUnits="userSpaceOnUse"
       gradientTransform="matrix(1,0,0,1.4112716,0,-6.9901421)">
      <stop
         style="stop-color:#000000;stop-opacity:1;"
         offset="0"
         id="stop4230" />
      <stop
         style="stop-color:#000000;stop-opacity:0;"
         offset="1"
         id="stop4232" />
    </linearGradient>
    <linearGradient
       inkscape:collect="always"
       id="linearGradientTongueHappyCenter-0"
       x1="26.491823"
       y1="3.5081766"
       x2="26.491823"
       y2="24.41839"
       gradientUnits="userSpaceOnUse">
      <stop
         style="stop-color:#000000;stop-opacity:1;"
         offset="0"
         id="stop4353" />
      <stop
         style="stop-color:#000000;stop-opacity:0;"
         offset="1"
         id="stop4355" />
    </linearGradient>
    <linearGradient
       inkscape:collect="always"
       id="linearGradientTongueHappyRight-0"
       x1="16.588541"
       y1="11.079315"
       x2="11.746375"
       y2="17.920395"
       gradientUnits="userSpaceOnUse">
      <stop
         style="stop-color:#000000;stop-opacity:1;"
         offset="0"
         id="stop4383" />
      <stop
         style="stop-color:#000000;stop-opacity:0;"
         offset="1"
         id="stop4385" />
    </linearGradient>
    <linearGradient
       inkscape:collect="always"
       id="linearGradientTongueHappyLeft-0"
       x1="32.256317"
       y1="9.0064802"
       x2="46.555771"
       y2="18.170319"
       gradientUnits="userSpaceOnUse">
      <stop
         style="stop-color:#000000;stop-opacity:1;"
         offset="0"
         id="stop4413" />
      <stop
         style="stop-color:#000000;stop-opacity:0;"
         offset="1"
         id="stop4415" />
    </linearGradient>
    <linearGradient
       y2="16.011047"
       x2="26.634321"
       y1="1.3707165"
       x1="25.575439"
       gradientUnits="userSpaceOnUse"
       id="linearGradientTongueSadCenter-0"
       inkscape:collect="always">
      <stop
         style="stop-color:#000000;stop-opacity:1;"
         offset="0"
         id="stop44" />
      <stop
         style="stop-color:#000000;stop-opacity:0;"
         offset="1"
         id="stop46" />
    </linearGradient>
    <linearGradient
       inkscape:collect="always"
       id="linearGradientTongueSadRight-0"
       x1="20.612026"
       y1="3.35021"
       x2="21.046299"
       y2="15.197921"
       gradientUnits="userSpaceOnUse">
      <stop
         style="stop-color:#000000;stop-opacity:1;"
         offset="0"
         id="stop4719" />
      <stop
         style="stop-color:#000000;stop-opacity:0;"
         offset="1"
         id="stop4721" />
    </linearGradient>
    <linearGradient
       inkscape:collect="always"
       id="linearGradientTongueSadLeft-0"
       x1="33.151794"
       y1="4.4901886"
       x2="35.259758"
       y2="15.714469"
       gradientUnits="userSpaceOnUse">
      <stop
         style="stop-color:#000000;stop-opacity:1;"
         offset="0"
         id="stop4719-0" />
      <stop
         style="stop-color:#000000;stop-opacity:0;"
         offset="1"
         id="stop4721-2" />
    </linearGradient>
    <linearGradient
       id="linearGradientLipsHappyShock-0"
       gradientUnits="userSpaceOnUse"
       x1="28.207495"
       y1="0.70487463"
       x2="25.387539"
       y2="19.780203"
       gradientTransform="matrix(1,0,0.01436159,1.2083288,-0.20026773,-0.83971593)">
      <stop
         style="stop-color:#000000;stop-opacity:1;"
         offset="0"
         id="stop3784" />
      <stop
         style="stop-color:#000000;stop-opacity:0;"
         offset="1"
         id="stop3786" />
    </linearGradient>
  </defs>
  <sodipodi:namedview
     id="base"
     pagecolor="#ffffff"
     bordercolor="#666666"
     borderopacity="1.0"
     inkscape:pageopacity="0.0"
     inkscape:pageshadow="2"
     inkscape:zoom="7.017675"
     inkscape:cx="13.399552"
     inkscape:cy="-0.78739495"
     inkscape:document-units="px"
     inkscape:current-layer="layerLipsSadShock"
     showgrid="false"
     inkscape:window-width="1024"
     inkscape:window-height="708"
     inkscape:window-x="-4"
     inkscape:window-y="-4"
     inkscape:window-maximized="1"
     showguides="true"
     inkscape:guide-bbox="true" />
  <metadata
     id="metadata4878">
    <rdf:RDF>
      <cc:Work
         rdf:about="">
        <dc:format>image/svg+xml</dc:format>
        <dc:type
           rdf:resource="http://purl.org/dc/dcmitype/StillImage" />
        <dc:title />
      </cc:Work>
    </rdf:RDF>
  </metadata>
  <g
     inkscape:groupmode="layer"
     id="layerTotal"
     inkscape:label="Total"
     style="display:inline">
    <g
       inkscape:groupmode="layer"
       id="layerLips"
       inkscape:label="Lips"
       style="display:inline">
      <g
         style="display:none"
         inkscape:label="LipsHappyShock"
         id="layerLipsHappyShock"
         inkscape:groupmode="layer">
        <path
           sodipodi:nodetypes="csssssccsssssssccssssssccssssc"
           id="path3038"
           d="M 25.316469,4.0307249 C 22.398247,3.9372003 22.633406,4.5334863 21.37128,4.7752729 C 20.322488,4.9761938 19.619195,4.7543027 18.344116,5.6040173 C 16.33846,6.9405897 14.823673,8.9527738 13.0207,10.183164 C 10.544565,11.872935 7.882023,12.713152 5.9091871,13.993357 C 5.4930366,14.263404 5.2698468,15.164312 5.2371261,15.667907 C 5.1999749,16.239628 5.6944663,16.614923 5.7465347,17.16545 C 9.3857875,25.338225 14.889956,27.011579 20.23543,27.426823 C 21.029085,27.526268 21.512674,28.007666 23.864456,27.999099 C 25.953925,27.990641 25.98791,27.567484 26.852599,27.457333 C 33.772855,26.575857 42.316664,21.823947 43.485761,16.4975 C 43.588752,16.02827 44.288864,15.550775 44.320321,15.066634 C 44.351444,14.587737 44.10258,13.906443 43.673068,13.650992 C 40.066684,11.506103 37.21848,9.8300561 34.049714,6.6437227 C 32.917602,5.5053344 31.145473,5.1938207 29.450429,4.8336473 C 28.135397,4.5542208 28.661106,4.0307249 25.316469,4.0307249 z M 25.928906,6.7441359 C 26.927261,6.7441359 29.54133,6.2527569 30.424205,6.5399887 C 35.298825,8.1258719 34.612818,11.366693 41.49547,13.746547 C 41.943998,13.901637 41.980747,14.619311 41.951682,15.066634 C 41.92469,15.481997 41.393098,15.89156 41.306422,16.293933 C 40.384778,20.572299 31.76375,24.718221 26.528921,25.680763 C 25.579679,25.855319 24.933292,25.620105 23.928695,25.620105 C 23.239255,25.620105 22.228198,25.904135 21.573743,25.820458 C 15.387765,25.651275 12.277901,24.001806 8.0484381,17.579622 C 7.9605405,17.00714 7.3018014,16.418249 7.3408551,15.817214 C 7.3738368,15.309608 7.6858181,14.542272 8.1590059,14.322911 C 10.066366,13.438696 12.218779,12.936049 14.052803,11.683631 C 16.430646,10.05985 18.547743,7.6560327 21.738996,6.4915589 C 22.519273,6.2068393 25.028537,6.7441359 25.928906,6.7441359 z"
           style="fill:#000000;fill-opacity:1;stroke:#000000;stroke-width:0;stroke-linejoin:miter;stroke-miterlimit:4;stroke-opacity:0;stroke-dasharray:none;display:inline"
           inkscape:connector-curvature="0" />
        <path
           sodipodi:nodetypes="cssssssssssssc"
           id="path3040"
           d="M 25.431716,6.6723939 C 26.527157,6.6723939 30.029704,6.1874519 30.970623,6.5907505 C 36.691035,9.0426508 34.932732,9.4466887 42.157734,13.864348 C 42.601967,14.135971 42.589441,16.434158 42.557553,16.924982 C 42.527932,17.380739 41.944646,17.830129 41.849541,18.271633 C 40.838269,22.966057 33.118553,25.967323 27.374654,27.02347 C 26.3331,27.215 25.623855,26.956916 24.521564,26.956916 C 23.765077,26.956916 22.655699,27.268567 21.937601,27.176753 C 19.271902,26.835841 15.24837,26.8631 12.814739,25.572692 C 10.25192,24.213776 8.4000125,21.623877 8.0081577,19.071738 C 7.9117077,18.443582 6.3128282,16.516193 6.355679,15.85671 C 6.3918738,15.299739 7.4349584,14.159292 7.9619687,13.932371 C 11.602982,12.364626 15.29712,8.6584681 21.499479,6.3952546 C 22.355633,6.0828348 24.443789,6.6723939 25.431716,6.6723939 z"
           style="fill:url(#linearGradientLipsHappyShock-0);fill-opacity:1;stroke:none;display:inline"
           inkscape:connector-curvature="0" />
        <path
           id="path3042"
           d="M 23.030631,11.504844 C 20.375933,11.950383 17.989129,13.176781 16.793077,14.703415 C 15.068239,16.79168 16.113085,19.23517 18.665453,20.736926 C 19.842326,21.469213 20.542765,20.890901 22.206744,20.694081 C 22.927495,20.608829 23.697033,20.846405 25.087801,20.958118 C 25.587313,20.998256 26.57656,20.63065 27.306943,20.640811 C 28.194234,20.653174 28.810929,21.032023 29.132716,20.952317 C 32.568198,20.146769 32.708843,18.896051 33.006412,16.757819 C 33.157718,15.838609 32.935781,14.920043 32.349138,14.109328 C 31.496932,12.881321 29.74618,11.934651 27.635871,11.531474 C 25.569208,12.484301 25.613595,13.130117 25.524807,13.62526 C 25.429397,14.157305 27.721793,15.624364 26.674923,16.387283 C 25.628054,17.150202 24.084494,17.439433 22.863773,16.117454 C 21.643049,14.795476 24.160247,14.386862 24.315166,13.654211 C 24.459749,12.970477 24.792022,12.367973 23.030631,11.504844 z"
           style="fill:#000000;fill-opacity:1;stroke:#000000;stroke-width:0;stroke-linejoin:miter;stroke-miterlimit:4;stroke-opacity:0;stroke-dasharray:none;display:inline"
           sodipodi:nodetypes="cccsssccccszzsc"
           inkscape:connector-curvature="0" />
      </g>
      <g
         inkscape:groupmode="layer"
         id="layerLipsHappyOpenAlt1"
         inkscape:label="LipsHappyOpenAlt1"
         style="display:none">
        <path
           sodipodi:nodetypes="ccssccssscc"
           id="path2860-4-1"
           d="M 44.397887,7.6687469 C 44.397887,7.6687469 38.50067,9.9839804 32.0383,9.5469946 C 30.798534,9.6607431 28.405027,8.8591263 25.973871,8.8222356 C 23.63723,8.7866715 20.976512,9.756088 19.733819,9.7583465 C 14.311742,9.7682253 12.848884,8.9831064 4.6635354,7.0997935 L 3.528421,8.4933811 C 9.7986855,10.752557 16.061398,11.91292 21.913836,12.225892 C 23.453315,12.308211 24.84659,12.830718 26.79322,12.800347 C 28.771756,12.769483 30.332436,12.12641 32.164742,11.928284 C 37.584007,11.342297 42.286784,10.198902 45.815764,9.2731509 L 44.397887,7.6687469 z"
           style="fill:#000000;fill-opacity:1;display:inline"
           inkscape:connector-curvature="0" />
        <path
           style="fill:#000000;fill-opacity:1;display:inline"
           d="M 30.428833,25.348935 C 29.245685,25.838012 27.813488,25.131553 26.578923,25.317981 C 25.400858,25.49559 24.305832,25.893467 23.086627,25.791164 C 17.464195,25.319405 12.350658,20.466059 7.5385443,9.0769278 L 6.2756389,9.1538421 C 11.041929,20.692878 15.09017,26.298806 22.850031,27.696875 C 24.106869,27.923315 25.469102,28.784072 26.811531,28.752225 C 28.149956,28.720474 29.363096,27.679613 30.623656,27.329406 C 38.385627,25.172983 42.068401,17.77186 44.115829,8.9056418 L 42.502935,9.9638833 C 40.216521,17.708651 35.75005,22.264502 30.428833,25.348935 z"
           id="seg-5-3-8-4"
           sodipodi:nodetypes="ccsccsssccc"
           inkscape:connector-curvature="0" />
        <path
           style="fill:url(#linearGradientLipsHappyOpenAlt1-0);fill-opacity:1;display:inline"
           d="M 7.3022891,9.2604637 C 12.239701,10.629299 17.113783,11.388401 21.740972,11.631818 C 23.328691,11.715336 24.793331,12.244281 26.800957,12.21347 C 28.84149,12.182168 30.45466,11.519623 32.344381,11.31862 C 36.3204,10.895703 39.889488,10.196384 42.947788,9.4841759 C 41.132835,16.175698 36.686281,23.565609 31.377505,25.724279 C 30.157283,26.220457 28.355757,25.535621 27.082508,25.724758 C 25.867529,25.904945 24.302754,26.186965 23.045345,26.083176 C 17.392798,25.616624 12.200349,20.213438 7.3022891,9.2604637 z"
           id="path2860-4-1-9"
           sodipodi:nodetypes="cssscsssc"
           inkscape:connector-curvature="0" />
        <path
           style="fill:#000000;fill-opacity:1;stroke:#000000;stroke-width:0;stroke-linejoin:miter;stroke-miterlimit:4;stroke-opacity:0;stroke-dasharray:none;display:inline"
           d="M 23.199618,14.401456 C 21.072553,14.878762 19.291523,16.016052 18.497844,17.414451 C 17.27802,19.425992 18.54784,21.780154 21.008313,23.226752 C 22.148503,23.932126 22.681782,23.374828 24.11802,23.185226 C 24.740126,23.10308 25.450467,23.331726 26.690309,23.439321 C 27.135609,23.477968 27.95608,23.124425 28.600286,23.13419 C 29.382865,23.145868 29.978582,23.511862 30.250388,23.435077 C 33.158683,22.659107 33.103176,21.4537 33.059842,19.394002 C 33.061869,18.508555 32.734307,17.623365 32.102329,16.842404 C 31.249859,15.752544 29.762667,14.892163 28.036378,14.459868 C 26.030761,15.577688 26.182841,16.327936 26.174336,16.900896 C 26.165294,17.50367 28.042092,18.441808 27.110789,19.937906 C 26.22003,21.36887 24.446931,21.055945 24.05854,19.544618 C 23.679554,18.069886 24.955596,17.762832 24.991009,16.932772 C 25.025135,16.132955 25.269413,15.431406 23.199618,14.401404 L 23.199618,14.401456 z"
           id="path3236-6-2-7-1-1"
           sodipodi:nodetypes="cccsssscccsssscc"
           inkscape:connector-curvature="0" />
      </g>
      <g
         inkscape:groupmode="layer"
         id="layerLipsHappyOpen"
         inkscape:label="LipsHappyOpen"
         style="display:none">
        <path
           style="fill:#000000;fill-opacity:1;display:inline"
           d="M 33.270715,14.250833 C 31.959083,14.361651 29.426159,13.581628 26.854082,13.545687 C 24.381997,13.51104 21.537893,14.745503 20.252726,14.457677 C 14.867612,13.25162 8.7533226,11.75768 4.0744115,5.5464364 L 2.6255537,6.5787862 L 5.5655454,10.159784 C 18.665942,38.264825 40.291915,28.535515 45.439407,9.5708593 C 46.084679,8.6083841 46.258405,8.1425101 46.772898,7.058223 L 44.633423,5.4094159 C 41.863794,12.161475 38.738389,13.356093 33.270715,14.250833 z M 8.0316048,12.212463 C 19.737523,21.808801 34.662755,19.703831 42.603176,12.673174 C 40.392924,18.090052 35.039448,23.543359 30.312226,25.342807 C 29.060494,25.819275 27.689788,24.664986 26.421354,24.84664 C 25.175453,25.025069 23.790508,25.536465 22.500629,25.43681 C 17.126176,25.021513 12.840049,21.188984 8.0316048,12.212463 z"
           id="seg-84-2-0"
           sodipodi:nodetypes="csscccccccccsssc"
           inkscape:connector-curvature="0" />
        <path
           style="fill:url(#linearGradientLipsHappyOpen-0);fill-opacity:1;display:inline"
           d="M 7.6710524,11.6648 C 19.705245,21.586136 35.04903,19.409877 43.212127,12.141113 C 40.939892,17.741445 36.966862,23.589614 32.107072,25.450005 C 30.820237,25.942609 29.159143,24.690971 27.816392,24.878779 C 26.535089,25.057658 24.384832,26.159499 23.058779,26.056469 C 17.533609,25.627109 12.614343,20.945327 7.6710524,11.6648 z"
           id="seg-84-2-0-1"
           sodipodi:nodetypes="ccsssc"
           inkscape:connector-curvature="0" />
      </g>
      <g
         inkscape:groupmode="layer"
         id="layerLipsHappyAlt1"
         inkscape:label="LipsHappyAlt1"
         style="display:none">
        <path
           style="fill:#000000;fill-opacity:1;display:inline"
           d="M 44.477878,9.3175742 C 42.550926,14.59578 39.688393,18.783693 33.941065,20.484795 C 32.628707,20.873233 30.768084,19.822282 27.820735,19.874346 C 24.873387,19.926411 22.764973,20.755531 21.412621,20.674279 C 15.176176,20.299571 11.032754,17.658674 5.6951255,8.6130953 L 4.6157814,10.070336 C 9.4516165,18.137233 15.471817,22.401366 21.458911,23.870817 C 23.624428,24.402313 25.785615,24.568195 27.88486,24.416163 C 30.134079,24.253272 32.312191,23.725418 34.348335,22.891277 C 40.080501,20.543 44.68752,15.767278 46.588393,9.873197 L 44.477878,9.3175742 z"
           id="seg-5-3-8"
           sodipodi:nodetypes="cszsccssscc"
           inkscape:connector-curvature="0" />
      </g>
      <g
         inkscape:groupmode="layer"
         id="layerLipsHappySilly"
         inkscape:label="LipsHappySilly"
         style="display:none">
        <path
           sodipodi:nodetypes="ccccccssscc"
           id="path13217-2-9"
           d="M 44.843742,8.4182196 C 43.435854,11.88891 39.414389,14.381739 35.640535,16.433119 C 32.538467,16.97306 29.599483,15.452934 26.515512,15.24893 C 23.337617,15.239208 20.489109,17.16088 17.326645,16.91548 C 13.197328,15.18066 7.4844098,12.74202 4.0045341,7.4346201 L 3.114474,8.8093339 C 6.8030171,14.346934 12.847333,16.921334 17.381585,18.791084 C 20.831249,20.213594 23.844176,18.717784 27.201605,18.450724 C 30.395309,18.196744 34.053121,20.068054 36.719573,18.616034 C 40.913311,16.332324 45.544414,13.224674 47.057068,9.0035134 L 44.843742,8.4182196 z"
           style="fill:#000000;fill-opacity:1;display:inline"
           inkscape:connector-curvature="0" />
      </g>
      <g
         inkscape:groupmode="layer"
         id="layerLipsHappy"
         inkscape:label="LipsHappy"
         style="display:none">
        <path
           style="fill:#000000;fill-opacity:1;display:inline"
           d="M 45.204369,9.6962977 C 42.095376,13.367983 39.605893,15.330206 33.287466,16.243828 C 32.047697,16.324428 29.654188,15.756398 27.223038,15.730268 C 24.886397,15.705068 22.197739,16.602928 20.982984,16.393588 C 15.892919,15.516408 10.113917,14.429588 5.6913601,9.9120577 L 4.3206175,10.663908 C 8.8809402,15.249226 14.435235,17.827086 20.017875,18.890772 C 22.502912,19.364257 24.993566,19.537714 27.404665,19.454652 C 29.644819,19.377478 31.8163,19.078869 33.850798,18.593721 C 39.708226,17.196953 44.430215,14.253966 46.38662,10.597508 L 45.204369,9.6962977 z"
           id="seg-1"
           sodipodi:nodetypes="ccssccssscc"
           inkscape:connector-curvature="0" />
      </g>
      <g
         inkscape:groupmode="layer"
         id="layerLipsHappySmirk"
         inkscape:label="LipsHappySmirk"
         style="display:none">
        <path
           style="fill:#000000;fill-opacity:1;display:inline"
           d="M 43.598408,8.765946 C 42.528096,13.657378 41.084538,16.396917 32.997019,18.249774 C 31.652609,18.557582 28.766028,18.33371 26.055577,18.728999 C 23.45049,19.108928 20.825615,20.593634 19.39237,20.569259 C 13.38679,20.467248 12.786813,21.470127 5.8037553,20.088596 L 4.5838153,21.178025 C 10.001724,22.460467 15.234443,23.065784 20.042955,23.057416 C 22.524853,23.053098 24.893741,22.885288 27.116747,22.562712 C 29.522868,22.213563 31.758088,21.6831 33.780729,20.982385 C 40.176446,18.766679 44.446679,14.848678 45.273789,9.5781007 L 43.598408,8.765946 z"
           id="seg-7-2-4"
           sodipodi:nodetypes="ccssccssscc"
           inkscape:connector-curvature="0" />
      </g>
      <g
         style="display:none"
         inkscape:label="LipsNormalHappy"
         id="layerLipsNormalHappy"
         inkscape:groupmode="layer">
        <path
           inkscape:connector-curvature="0"
           style="fill:#000000;fill-opacity:1;display:inline"
           d="M 45.02298,10.786718 C 45.02298,10.786718 41.208453,12.708682 34.746082,12.326516 C 33.506313,12.425995 28.912299,11.100713 26.481148,11.06845 C 24.144505,11.037348 19.18568,12.612187 17.942989,12.614174 C 12.520911,12.622814 12.890823,12.450292 5.2886248,10.289128 L 3.9178835,11.79872 C 9.87927,13.677134 14.167679,14.789775 19.769323,15.11993 C 21.609415,15.228382 23.292073,16.200992 27.182683,16.292422 C 30.678752,16.371677 32.01119,15.152383 34.040105,14.943942 C 39.184353,14.415448 42.818719,13.257596 46.205223,12.480667 L 45.02298,10.786718 z"
           id="path3136"
           sodipodi:nodetypes="ccssccssscc" />
      </g>
      <g
         inkscape:groupmode="layer"
         id="layerLipsNormal"
         inkscape:label="LipsNormal"
         style="display:inline">
        <path
           sodipodi:nodetypes="ccssccssscc"
           id="path2860-4"
           d="M 45.02298,11.800657 C 45.02298,11.800657 41.208453,12.24951 34.746082,11.93987 C 33.506313,12.02047 28.912299,10.946694 26.481148,10.920554 C 24.144505,10.895354 19.18568,12.171328 17.942989,12.172938 C 12.520911,12.179938 10.976367,12.342439 5.5909073,11.699779 L 4.220166,12.922888 C 10.181552,13.941021 14.167679,13.935663 19.769323,14.203163 C 21.609415,14.291033 23.292073,15.079066 27.182683,15.153145 C 30.678752,15.217359 32.01119,14.229457 34.040105,14.060573 C 39.184353,13.632374 42.818719,13.802623 46.205223,13.173136 z"
           style="fill:#000000;fill-opacity:1;display:inline"
           inkscape:connector-curvature="0" />
      </g>
      <g
         style="display:none"
         inkscape:label="LipsNormalSad"
         id="layerLipsNormalSad"
         inkscape:groupmode="layer">
        <path
           inkscape:connector-curvature="0"
           style="fill:#000000;fill-opacity:1;display:inline"
           d="M 45.02298,14.75298 C 45.02298,14.75298 41.208453,13.195758 34.746082,13.505398 C 33.506313,13.424798 28.912299,14.498574 26.481148,14.524714 C 24.144505,14.549914 19.18568,13.27394 17.942989,13.27233 C 12.520911,13.26533 12.890823,13.405112 5.2886248,15.15614 L 3.9178835,13.933031 C 9.87927,12.411094 14.167679,11.509605 19.769323,11.242105 C 21.609415,11.154235 23.292073,10.366202 27.182683,10.292123 C 30.678752,10.227909 32.01119,11.215811 34.040105,11.384695 C 39.184353,11.812894 42.818719,12.751014 46.205223,13.380501 L 45.02298,14.75298 z"
           id="path3132"
           sodipodi:nodetypes="ccssccssscc" />
      </g>
      <g
         inkscape:groupmode="layer"
         id="layerLipsSadSilly"
         inkscape:label="LipsSadSilly"
         style="display:none">
        <path
           style="fill:#000000;fill-opacity:1;display:inline"
           d="M 45.078768,19.130952 C 43.670877,15.660271 39.027044,12.550533 35.253189,10.499162 C 32.275487,9.5309525 29.532686,11.598502 26.607429,11.433232 C 23.552467,11.317132 21.073298,9.9796972 18.127516,10.635017 C 13.998198,12.369838 7.0333646,15.440063 3.5534889,20.747473 L 2.4135059,19.289432 C 6.102049,13.751852 12.543294,10.594091 17.077548,8.7243415 C 20.527213,7.3018515 23.540135,8.4644111 26.897566,8.7314711 C 30.091271,8.9854511 33.749085,7.1141411 36.415536,8.5661611 C 40.60927,10.849871 45.52952,14.2412 47.042168,18.462361 L 45.078768,19.130952 z"
           id="seg-5-4-6-9-8-8"
           sodipodi:nodetypes="ccccccssscc"
           inkscape:connector-curvature="0" />
      </g>
      <g
         style="display:none"
         inkscape:label="LipsSadSmirk"
         id="layerLipsSadSmirk"
         inkscape:groupmode="layer">
        <path
           sodipodi:nodetypes="cssccsssccc"
           id="path3089"
           d="M 32.477213,11.748456 C 31.131566,11.533789 28.331353,11.938076 25.641076,11.725636 C 23.055381,11.521407 20.339182,10.238119 18.940085,10.353982 C 13.077597,10.83945 12.389983,9.8972311 5.7003621,11.696659 L 4.3977963,10.709647 C 9.5037909,9.1271836 14.499558,8.2024172 19.153663,7.8903487 C 21.655087,7.7226223 24.382638,7.2062614 27.372285,7.4282129 C 30.296336,7.6452946 30.744449,8.4424694 32.713801,8.9580939 C 39.32588,10.689297 43.998337,14.272467 45.354926,19.440006 L 43.798307,20.34177 C 42.18359,14.435228 37.982588,12.995604 32.477213,11.748456 z"
           style="fill:#000000;fill-opacity:1;display:inline"
           inkscape:connector-curvature="0" />
      </g>
      <g
         style="display:none"
         inkscape:label="LipsSad"
         id="layerLipsSad"
         inkscape:groupmode="layer">
        <path
           sodipodi:nodetypes="cscssscccsccccc"
           id="path18041"
           d="M 5.9307387,17.795117 C 7.820112,14.561347 16.532579,9.1676968 21.306095,10.508677 C 22.256261,10.775597 22.65698,10.888787 23.948355,11.141957 C 24.601178,11.262797 25.261184,11.387997 26.922334,11.330987 C 28.630258,11.272387 29.133145,11.214347 30.071093,11.041427 C 30.934817,10.882197 31.31133,10.785597 32.07666,10.552697 C 36.262793,9.2787668 40.044991,13.326817 44.492805,17.366187 L 46.001507,16.474847 C 41.322164,12.291047 38.36349,9.4601032 32.810939,8.519653 C 30.95842,7.8645398 28.920034,7.5840963 26.860839,7.5824888 C 24.535367,7.5806734 22.183356,7.93447 20.042535,8.505853 C 12.945566,9.4526632 6.786752,12.861507 4.7057316,16.923547 L 5.9307387,17.795057 L 5.9307387,17.795057 L 5.9307387,17.795117 z"
           style="fill:#000000;fill-opacity:1;display:inline"
           inkscape:connector-curvature="0" />
      </g>
      <g
         inkscape:groupmode="layer"
         id="layerLipsSadAlt1"
         inkscape:label="LipsSadAlt1"
         style="display:none">
        <path
           style="fill:#000000;fill-opacity:1;display:inline"
           d="M 3.7022237,19.502948 C 5.5915982,16.269178 15.535339,9.6354877 20.308855,10.976467 C 22.140544,11.59373 24.715006,11.907948 26.631983,11.916592 C 28.393391,11.942892 30.807214,11.601343 32.493198,11.138302 C 36.679331,9.8643725 40.901841,13.204695 45.349658,17.244066 L 46.858359,16.352706 C 42.179018,12.168905 38.073139,9.2614329 32.520588,8.3209829 C 28.318227,6.0535033 25.364266,6.4420557 19.752184,8.3071829 C 12.655215,9.2539929 4.558237,14.569328 2.4772166,18.631368 L 3.7022237,19.502888 L 3.7022237,19.502878 L 3.7022237,19.502948 z"
           id="seg-0-1-7"
           sodipodi:nodetypes="cccccccccccc"
           inkscape:connector-curvature="0" />
      </g>
      <g
         inkscape:groupmode="layer"
         id="layerLipsSadOpen"
         inkscape:label="LipsSadOpen"
         style="display:none">
        <path
           style="fill:#000000;fill-opacity:1;display:inline"
           d="M 31.867638,13.091659 C 30.627872,13.00051 28.160704,12.982416 25.729554,13.011932 C 23.392913,13.04043 20.777651,12.68477 19.562893,12.921462 C 14.472826,13.913443 9.1973426,16.785429 4.7747848,21.89418 L 3.3727639,20.189581 C 4.2192194,19.227105 5.0985227,18.342093 6.007293,17.532477 C 9.7566487,9.1338521 14.437422,3.5512053 22.509635,2.3051931 C 23.604689,2.2293113 24.54877,1.2089885 27.55266,1.3678907 C 30.00746,1.4977468 30.926469,2.4235784 31.840587,2.8618152 C 35.969817,4.8414574 41.923859,11.076492 43.840875,17.728604 C 44.406371,18.400051 44.968897,19.393931 45.438048,20.26405 L 43.783906,21.682985 C 41.171796,15.872909 37.316348,14.041258 31.867638,13.091659 z M 41.160038,15.177022 C 39.070887,10.721634 35.221952,6.4447887 30.753729,4.9647444 C 29.570581,4.572851 28.23935,5.1929211 27.004789,5.0435664 C 25.82672,4.9012572 24.731827,4.3553158 23.512623,4.437293 C 18.43263,4.7788625 13.027615,8.1728336 8.4826224,15.556012 C 19.301043,8.5658395 30.294843,9.0579161 41.160038,15.177022 z"
           id="seg-84-2-6-1"
           sodipodi:nodetypes="cssccccssccccccsccc"
           inkscape:connector-curvature="0" />
        <path
           style="fill:url(#linearGradientLipsSadOpen-0);fill-opacity:1;display:inline"
           d="M 7.2367348,17.053334 C 19.091116,8.5969204 34.288942,10.263446 42.330071,16.458928 C 40.09179,11.685503 35.623922,6.0922699 30.836743,4.5065756 C 29.569139,4.0867075 28.433739,5.0988932 27.105187,5.023217 C 25.843024,4.9513226 24.741223,4.285837 23.434988,4.3736659 C 17.992369,4.9007644 13.270258,7.8924218 7.40335,16.2055 z"
           id="seg-84-2-6-1-8"
           sodipodi:nodetypes="cscsccc"
           inkscape:connector-curvature="0" />
      </g>
      <g
         inkscape:groupmode="layer"
         id="layerLipsSadOpenAlt1"
         inkscape:label="LipsSadOpenAlt1"
         style="display:none">
        <path
           style="fill:#000000;fill-opacity:1;display:inline"
           d="M 43.614196,14.01505 C 42.188501,18.27205 39.257533,23.312509 35.435962,25.82866 C 32.420612,27.016213 29.64313,24.480246 26.680886,24.682962 C 23.587301,24.825254 20.210984,26.815373 17.227962,26.011581 C 13.046432,23.883724 8.9296348,19.768332 5.4057626,13.258498 L 4.2513652,13.820663 C 7.9865459,20.612861 12.355621,25.395325 16.947203,27.688668 C 20.440483,29.43346 23.491505,27.598781 26.891384,27.27121 C 30.12547,26.959682 33.829528,29.254948 36.529696,27.473973 C 40.776458,24.672876 44.070645,18.386031 45.602417,13.20852 L 43.614196,14.01505 z"
           id="seg-5-4-6-5"
           sodipodi:nodetypes="ccccccssscc"
           inkscape:connector-curvature="0" />
        <path
           style="fill:#000000;fill-opacity:1;display:inline"
           d="M 5.7120046,15.333792 C 7.6013792,11.447781 16.313845,4.9662342 21.087361,6.577698 C 22.037528,6.8984551 22.438243,7.0344752 23.729619,7.3386968 C 24.382444,7.4839101 25.042448,7.6343745 26.703604,7.5658657 C 28.411525,7.4954463 28.914413,7.4256998 29.85236,7.2179023 C 30.716084,7.026556 31.092593,6.9104721 31.857928,6.6305728 C 36.044059,5.0997306 39.826257,9.9642374 44.274077,14.818349 L 45.699467,13.246663 C 41.020124,8.2190029 37.978143,4.6239707 32.42559,3.4938346 C 28.481002,1.8175269 23.776999,2.1826026 19.740493,3.4772511 C 12.643526,4.6150421 6.3180952,8.8044361 4.2370748,13.685778 L 5.7120046,15.333745 L 5.7120046,15.333732 L 5.7120046,15.333792 z"
           id="seg-0-4-8-5"
           sodipodi:nodetypes="cscssscccccccc"
           inkscape:connector-curvature="0" />
        <path
           style="fill:url(#linearGradientLipsSadOpenAlt1-0);fill-opacity:1;display:inline"
           d="M 19.003585,6.1184583 C 19.724134,6.0869366 20.386202,6.181753 21.001495,6.3892741 C 21.981288,6.7197249 22.408926,6.8496174 23.740566,7.1630332 C 24.413746,7.3126347 25.08893,7.4657402 26.80188,7.395161 C 28.563053,7.3226133 29.089348,7.2610469 30.05654,7.0469693 C 30.947195,6.8498402 31.329701,6.7163204 32.118899,6.4279619 C 36.205456,4.9349214 39.927319,9.3706014 44.203033,14.088177 C 42.727201,18.464052 39.751607,23.614406 35.8247,26.197509 C 32.715333,27.420953 29.824261,24.828029 26.769656,25.036871 C 23.579614,25.183464 20.11393,27.219032 17.037899,26.390949 C 13.029143,24.352906 9.0861729,20.505635 5.6304772,14.591121 C 7.9154234,11.105043 14.337497,6.322588 19.003585,6.1184583 z"
           id="seg-5-4-6-5-4"
           sodipodi:nodetypes="cssssscccccc"
           inkscape:connector-curvature="0" />
        <path
           style="fill:#000000;fill-opacity:1;stroke:#000000;stroke-width:0;stroke-linejoin:miter;stroke-miterlimit:4;stroke-opacity:0;stroke-dasharray:none;display:inline"
           d="M 22.698134,11.244424 C 20.08524,11.775355 17.897417,13.040405 16.922455,14.595918 C 15.424019,16.833461 16.983872,19.452084 20.00633,21.061201 C 21.406941,21.845824 22.062025,21.225972 23.826304,21.01511 C 24.590502,20.923721 25.46309,21.178064 26.986115,21.297754 C 27.533124,21.340732 28.540997,20.947466 29.33234,20.95835 C 30.293666,20.971583 31.025446,21.378424 31.359328,21.293025 C 34.931893,20.429871 34.863704,19.089045 34.810479,16.797962 C 34.812991,15.813031 34.410596,14.828385 33.634267,13.959713 C 32.587087,12.7474 30.760215,11.790346 28.639629,11.309511 C 26.175925,12.552902 26.362737,13.387435 26.352294,14.024765 C 26.3413,14.695255 28.883481,15.526287 27.373537,16.870097 C 26.658059,17.449188 24.924973,17.689359 24.0975,16.529507 C 23.460249,15.373235 24.855187,14.983547 24.89869,14.060243 C 24.940614,13.170525 25.240682,12.390182 22.698134,11.244458 z"
           id="path3236-6-2-7-8"
           inkscape:connector-curvature="0" />
      </g>
      <g
         inkscape:groupmode="layer"
         id="layerLipsSadShock"
         inkscape:label="LipsSadShock"
         style="display:none">
        <path
           style="fill:#000000;fill-opacity:1;stroke:#000000;stroke-width:0;stroke-linejoin:miter;stroke-miterlimit:4;stroke-opacity:0;stroke-dasharray:none;display:inline"
           d="M 27.671739,2.225128 C 24.553398,2.1216872 24.737154,2.7811957 23.356104,3.0486183 C 22.208492,3.2708421 21.090236,3.5795875 20.015167,3.9652319 C 14.626199,5.8982783 8.2943675,9.7633279 6.9874369,14.346236 C 6.8337096,14.885345 6.1675969,15.641344 6.0747507,16.198335 C 5.9693399,16.830674 6.4565137,17.24576 6.4491997,17.854657 C 6.4051307,21.522047 6.433534,25.906142 9.765892,27.37615 C 11.907033,28.320669 16.965661,27.764365 19.540095,28.101844 C 20.379688,28.211833 20.842999,28.744272 23.365685,28.734797 C 25.607092,28.725442 25.692068,28.257409 26.631865,28.13559 C 30.365096,27.65168 34.177888,26.497515 37.299524,24.737285 C 40.467065,22.95117 42.922973,20.541034 43.862028,17.573937 C 44.02628,17.054956 44.831743,16.526833 44.921003,15.99136 C 45.009302,15.461686 44.379833,14.939218 44.389356,14.42562 C 44.490369,8.9776997 38.332522,4.5306681 32.012291,3.1131819 C 30.634294,2.8041291 31.258031,2.225128 27.671739,2.225128 z M 28.017202,5.2262339 C 29.08769,5.2262339 31.946988,4.6827554 32.860709,5.0004416 C 37.90563,6.7544714 40.283555,9.2173102 42.043462,14.531308 C 42.196753,14.994172 42.463698,15.496609 42.381227,15.99136 C 42.304644,16.450762 41.687669,16.903751 41.548576,17.348786 C 40.871317,19.515705 38.85646,21.324728 36.321467,22.751467 C 33.320694,24.440354 29.591085,25.593569 26.488572,26.170656 C 25.450721,26.363703 24.784613,26.103565 23.707431,26.103565 C 22.968179,26.103565 21.851494,26.41771 21.159351,26.325161 C 18.590012,25.981521 13.372809,26.578988 11.129506,25.278253 C 8.767119,23.908464 8.5106042,20.727853 8.3944577,18.15529 C 8.3658723,17.52211 7.727082,16.87078 7.8378957,16.20602 C 7.9314821,15.644593 8.5832255,15.051239 8.8865526,14.553279 C 11.59743,10.103025 17.255883,7.2282007 23.553533,4.9468769 C 24.422841,4.6319571 27.051779,5.2262339 28.017202,5.2262339 z"
           id="path11758-5"
           sodipodi:nodetypes="cssssssssssssssccsssssssssssssc"
           inkscape:connector-curvature="0" />
        <path
           style="fill:url(#linearGradientLipsSadShock-0);fill-opacity:1;stroke:none;display:inline"
           d="M 28.918688,4.674524 C 30.093277,4.674524 33.230634,4.0781941 34.233211,4.4267741 C 39.768734,6.3513776 42.377905,9.0537205 44.308959,14.884487 C 44.477157,15.392362 44.77006,15.943659 44.67957,16.486524 C 44.595534,16.990603 43.918566,17.487643 43.765946,17.975958 C 42.962971,20.545111 39.591386,21.800771 36.492782,23.419146 C 33.329226,25.071445 30.413995,27.065604 27.241405,27.655725 C 26.102624,27.867545 25.371741,27.582114 24.189807,27.582114 C 23.378663,27.582114 22.153385,27.926808 21.393933,27.825259 C 18.574734,27.448202 14.257369,27.47835 11.795912,26.051125 C 9.2037897,24.548127 7.5151361,21.683629 7.3876957,18.860893 C 7.3563244,18.166138 6.65542,17.451468 6.7770092,16.722062 C 6.879702,16.106038 7.5948204,15.454982 7.9276453,14.908598 C 10.902146,10.025571 17.110865,6.8711783 24.020942,4.3680033 C 24.974788,4.0224585 27.859382,4.6745268 28.918688,4.674524 z"
           id="path11758-5-8"
           sodipodi:nodetypes="csssssssssssssc"
           inkscape:connector-curvature="0" />
        <path
           style="fill:#000000;fill-opacity:1;stroke:#000000;stroke-width:0;stroke-linejoin:miter;stroke-miterlimit:4;stroke-opacity:0;stroke-dasharray:none;display:inline"
           d="M 24.657131,10.983334 C 21.929115,11.439073 19.352532,12.693546 17.924579,14.255127 C 15.882309,16.391197 16.563217,18.890622 18.896581,20.426756 C 19.966498,21.175806 20.755391,20.584255 22.452957,20.38293 C 23.188258,20.295727 23.924043,20.53874 25.301457,20.653011 C 25.79617,20.694069 26.842971,20.318048 27.573617,20.328442 C 28.461221,20.341087 29.022603,20.728609 29.357133,20.647078 C 32.921835,19.823089 33.250418,18.54374 33.869423,16.356561 C 34.158971,15.416308 34.074263,14.476714 33.607783,13.647441 C 32.93768,12.391323 31.324637,11.422981 29.269639,11.010574 C 27.055011,11.985213 27.002642,12.645812 26.839369,13.152292 C 26.663926,13.696515 28.502815,14.551895 27.694257,15.722058 C 26.885699,16.892218 23.955363,16.548428 23.846713,15.186199 C 23.738065,13.823969 25.357243,13.931328 25.62243,13.181905 C 25.869918,12.482518 26.293372,11.866223 24.657131,10.983334 z"
           id="path3236-8-2-6-9"
           sodipodi:nodetypes="cccsssccccszzsc"
           inkscape:connector-curvature="0" />
      </g>
    </g>
    <g
       inkscape:groupmode="layer"
       id="layerTongue"
       inkscape:label="Tongue"
       style="display:inline">
      <g
         inkscape:groupmode="layer"
         id="layerTongueHappyLeft"
         inkscape:label="TongueHappyLeft"
         style="display:none">
        <path
           style="fill:#ff172b;fill-opacity:1;display:inline"
           d="M 45.245435,11.346218 C 47.545626,17.183248 48.207606,21.262283 45.01355,23.110323 C 41.914884,24.901287 35.899616,25.879006 27.733947,18.39447 C 35.690731,18.32584 41.942894,15.436507 45.245435,11.346218 z"
           id="colorPathTongueHappyLeft"
           sodipodi:nodetypes="cscc"
           inkscape:connector-curvature="0" />
        <path
           style="fill:#000000;fill-opacity:1;display:inline"
           d="M 45.168609,11.528192 C 47.561998,17.383772 47.798779,20.996302 44.688261,22.800372 C 41.59111,24.594802 36.362548,26.266522 27.240488,17.937032 L 25.509014,17.202062 C 44.600578,34.507432 51.912359,24.656642 45.933635,10.898462 L 45.168609,11.528192 z"
           id="seg-5-5-3"
           sodipodi:nodetypes="cccccc"
           inkscape:connector-curvature="0" />
        <path
           style="fill:#000000;fill-opacity:1;display:inline"
           d="M 41.634601,20.192001 C 42.433775,21.324521 43.005935,22.818306 42.452371,24.627256 L 43.275174,24.579056 C 44.406513,20.778806 41.989833,17.935314 39.85481,18.190294 L 39.113666,18.659479 C 40.502428,18.748939 40.742588,19.258597 41.634601,20.192001 z"
           id="pathLayerTongueHappyLeft"
           sodipodi:nodetypes="cccccc"
           inkscape:connector-curvature="0" />
        <path
           style="fill:url(#linearGradientTongueHappyLeft-0);fill-opacity:1;display:inline"
           d="M 45.186129,11.225628 C 47.377442,17.164498 47.531902,21.143545 44.489032,23.023828 C 41.53704,24.846039 35.513201,26.182039 27.6744,18.400662 C 35.020408,18.159135 42.03991,15.38728 45.186129,11.225628 z"
           id="gradientPathTongueHappyLeft"
           sodipodi:nodetypes="cscc"
           inkscape:connector-curvature="0" />
      </g>
      <g
         inkscape:groupmode="layer"
         id="layerTongueHappyRight"
         inkscape:label="TongueHappyRight"
         style="display:none">
        <path
           style="fill:#ff172b;fill-opacity:1;display:inline"
           d="M 5.792892,11.66247 C 10.85531,16.503125 16.576592,18.538175 22.482732,19.247933 C 14.1022,26.970185 9.1735792,25.189771 6.1914946,23.284033 C 3.131271,21.326296 3.5827739,17.853024 5.792892,11.66247 z"
           id="colorPathLayerTongueHappyRight"
           sodipodi:nodetypes="ccsc"
           inkscape:connector-curvature="0" />
        <path
           style="fill:#000000;fill-opacity:1;display:inline"
           d="M 6.065575,11.528192 C 3.6721857,17.383772 3.4354093,20.996302 6.5459219,22.800372 C 9.6430779,24.594802 14.871638,26.266522 23.993702,17.937032 L 25.725172,17.202062 C 6.6336057,34.507432 -0.67816526,24.656642 5.3005475,10.898462 L 6.065575,11.528192 z"
           id="seg-5-5-8-0"
           sodipodi:nodetypes="cccccc"
           inkscape:connector-curvature="0" />
        <path
           style="fill:#000000;fill-opacity:1;display:inline"
           d="M 9.5773666,19.656335 C 8.7781912,20.788855 8.2060312,22.28264 8.7595942,24.09159 L 7.7112675,24.04339 C 6.5799295,20.24314 9.0799188,17.649571 11.214943,17.904551 L 12.181611,18.373736 C 10.792853,18.463186 10.46938,18.72293 9.5773666,19.656335 z"
           id="seg-8-1-8-0"
           sodipodi:nodetypes="cccccc"
           inkscape:connector-curvature="0" />
        <path
           style="fill:url(#linearGradientTongueHappyRight-0);fill-opacity:1;display:inline"
           d="M 5.8761993,11.662468 C 10.938616,16.451125 16.6599,18.464316 22.56604,19.166451 C 14.185508,26.805751 9.2568863,25.044462 6.2748013,23.159195 C 3.2145781,21.222488 3.666081,17.786524 5.8761993,11.662468 z"
           id="seg-5-5-8-0-1-0"
           sodipodi:nodetypes="ccsc"
           inkscape:connector-curvature="0" />
      </g>
      <g
         inkscape:groupmode="layer"
         id="layerTongueHappyCenter"
         inkscape:label="TongueHappyCenter"
         style="display:none">
        <path
           style="fill:#ff172b;fill-opacity:1;display:inline"
           d="M 36.366746,17.787397 C 35.919899,23.862039 34.476215,26.509686 30.779661,27.31547 C 27.083053,28.119653 21.507818,28.151969 16.700208,17.98318 C 23.606454,18.804456 30.238344,18.440392 36.366746,17.787397 z"
           id="seg-5-5-45-6-0"
           sodipodi:nodetypes="cscc"
           inkscape:connector-curvature="0" />
        <path
           style="fill:#000000;fill-opacity:1;display:inline"
           d="M 26.333063,21.280435 C 27.311831,21.487934 28.197343,22.673654 28.458045,23.965744 C 28.717318,25.251965 28.567592,26.810304 27.114617,28.340024 L 28.220295,28.489594 C 31.240499,25.266894 29.865619,21.387794 27.562152,21.013644 L 26.333063,21.280435 z"
           id="seg-8-1-5-1"
           sodipodi:nodetypes="cccccc"
           inkscape:connector-curvature="0" />
        <path
           style="fill:#000000;fill-opacity:1;display:inline"
           d="M 36.229159,17.661361 C 35.832773,23.813101 34.43102,26.428148 30.717327,27.220198 C 27.020426,28.007088 21.389229,28.068318 16.616473,17.678248 L 15.566122,17.084862 C 25.023198,37.650999 37.333216,28.549988 37.226097,17.292891 L 36.229159,17.661321 L 36.229159,17.661361 z"
           id="seg-5-5-45-6"
           sodipodi:nodetypes="ccccccc"
           inkscape:connector-curvature="0" />
        <path
           style="fill:url(#linearGradientTongueHappyCenter-0);fill-opacity:1;display:inline"
           d="M 36.491708,17.82905 C 36.044861,24.079517 34.601177,26.803798 30.904623,27.632905 C 27.208015,28.460364 21.63278,28.493615 16.82517,18.030499 C 23.898031,18.10408 30.279998,18.243789 36.491708,17.82905 z"
           id="seg-5-5-45-6-0-3"
           sodipodi:nodetypes="cscc"
           inkscape:connector-curvature="0" />
      </g>
      <g
         inkscape:groupmode="layer"
         id="layerTongueSadLeft"
         inkscape:label="TongueSadLeft"
         style="display:none">
        <path
           sodipodi:nodetypes="cccccc"
           id="path3117-1-9-0"
           d="M 43.861524,15.485689 C 40.474501,20.05717 37.905367,21.30995 34.999149,21.52958 C 31.207429,21.12217 27.154029,15.891849 26.909643,10.008339 L 26.018986,10.105089 C 27.051726,27.263218 40.404141,24.817264 44.625874,16.301143 L 43.861524,15.485687 z"
           style="fill:#000000;fill-opacity:1;display:inline"
           inkscape:connector-curvature="0" />
        <path
           style="fill:#ff172b;fill-opacity:1;display:inline"
           d="M 33.507853,10.022866 C 31.360308,9.9197277 29.066162,10.698631 26.84591,11.084386 C 27.555291,16.626224 31.422706,21.308666 35.045225,21.699581 C 37.978014,21.476984 40.421716,20.214591 43.814582,15.684304 C 40.696965,13.112337 37.351906,11.286991 34.660882,10.151535 C 34.283485,10.067225 33.896353,10.041524 33.507853,10.022866 z"
           id="path3117-1-9-2-3"
           sodipodi:nodetypes="cccccc"
           inkscape:connector-curvature="0" />
        <path
           sodipodi:nodetypes="cccccc"
           id="path3119-7-3-8"
           d="M 35.841332,17.643167 C 35.442236,18.903567 34.566883,20.300457 32.604356,21.305197 L 33.51694,21.549265 C 37.616997,19.421095 37.903201,15.370166 36.137173,14.378286 L 35.336683,14.567346 C 36.270564,15.488928 36.0022,16.469104 35.841332,17.643167 z"
           style="fill:#000000;fill-opacity:1;display:inline"
           inkscape:connector-curvature="0" />
        <path
           style="fill:url(#linearGradientTongueSadLeft-0);fill-opacity:1;display:inline"
           d="M 33.812249,9.8807705 C 31.664704,9.7776325 28.870713,10.556535 26.650461,10.94229 C 27.359842,16.484128 30.444627,21.309067 34.067145,21.699982 C 39.422389,21.76238 40.476189,20.23911 43.869056,15.708823 C 40.751438,13.136857 37.656302,11.144895 34.965278,10.009439 C 34.587881,9.9251295 34.20075,9.8994285 33.812249,9.8807705 z"
           id="path3117-1-9-2-5-2"
           sodipodi:nodetypes="cccccc"
           inkscape:connector-curvature="0" />
      </g>
      <g
         inkscape:groupmode="layer"
         id="layerTongueSadRight"
         inkscape:label="TongueSadRight"
         style="display:none">
        <path
           sodipodi:nodetypes="cccccc"
           id="path3117-1-9"
           d="M 8.0181038,15.525617 C 11.405127,20.097097 13.974261,21.349877 16.880479,21.569507 C 20.672199,21.162097 24.725599,15.931777 24.969985,10.048267 L 26.027257,9.7284801 C 25.077825,27.55307 11.142257,24.357347 6.920524,15.841227 L 8.0181038,15.525617 z"
           style="fill:#000000;fill-opacity:1;display:inline"
           inkscape:connector-curvature="0" />
        <path
           style="fill:#ff172b;fill-opacity:1;display:inline"
           d="M 18.371775,10.062794 C 20.51932,9.9596558 22.813466,10.738558 25.033718,11.124313 C 24.324337,16.666151 20.456922,21.348593 16.834403,21.739508 C 13.901614,21.516911 11.041374,20.087903 7.6485076,15.557616 C 10.766125,12.98565 14.527722,11.326919 17.218746,10.191463 C 17.596143,10.107153 17.983275,10.081452 18.371775,10.062794 z"
           id="path3117-1-9-2"
           sodipodi:nodetypes="cccccc"
           inkscape:connector-curvature="0" />
        <path
           sodipodi:nodetypes="cccccc"
           id="path3119-7-3"
           d="M 16.038296,17.683094 C 16.437392,18.943494 17.312745,20.340384 19.275272,21.345124 L 18.362688,21.589192 C 14.262631,19.461022 13.976427,15.410094 15.742455,14.418214 L 16.542945,14.607274 C 15.609064,15.528855 15.877428,16.509031 16.038296,17.683094 z"
           style="fill:#000000;fill-opacity:1;display:inline"
           inkscape:connector-curvature="0" />
        <path
           style="fill:url(#linearGradientTongueSadRight-0);fill-opacity:1;display:inline"
           d="M 18.150687,10.087314 C 20.298232,9.9841759 22.425762,10.096614 25.312475,11.148833 C 24.603094,16.690671 20.592076,20.518129 16.684564,21.906525 C 13.751775,21.683928 11.070209,20.279038 7.6773422,15.748752 C 10.79496,13.176785 14.306634,11.351439 16.997658,10.215983 C 17.375055,10.131673 17.762186,10.105972 18.150687,10.087314 z"
           id="path3117-1-9-2-5"
           sodipodi:nodetypes="cccccc"
           inkscape:connector-curvature="0" />
      </g>
      <g
         inkscape:groupmode="layer"
         id="layerTongueSadCenter"
         inkscape:label="TongueSadCenter"
         style="display:none">
        <path
           sodipodi:nodetypes="ccccccc"
           id="path3123-6"
           d="M 35.449043,10.663842 C 35.052654,16.815582 33.650902,20.255332 29.93721,21.047372 C 26.240306,21.834262 20.609113,21.895502 15.836354,11.505422 L 14.300452,10.656202 C 24.346601,32.282662 35.846211,24.851282 36.445981,10.295372 L 35.449043,10.663792 L 35.449043,10.663842 z"
           style="fill:#000000;fill-opacity:1;display:inline"
           inkscape:connector-curvature="0" />
        <path
           style="fill:#ff172b;fill-opacity:1;display:inline"
           d="M 35.575323,10.33162 C 35.136048,16.406262 33.716825,20.470138 30.082906,21.275922 C 26.448934,22.080105 20.884858,21.945806 15.325632,11.110556 C 18.938848,9.096327 22.217876,10.207618 25.741175,10.29256 C 28.982489,10.3707 32.206219,9.7663232 35.575323,10.33162 z"
           id="seg-5-5-45-6-0-4"
           sodipodi:nodetypes="cscsc"
           inkscape:connector-curvature="0" />
        <path
           style="fill:url(#linearGradientTongueSadCenter-0);fill-opacity:1;display:inline"
           d="M 36.241784,10.396766 C 35.75708,16.671088 34.191087,18.989227 30.181361,19.821498 C 26.171575,20.652116 19.374237,21.7904 14.909094,10.598984 C 20.31069,9.1568741 31.212317,9.5388268 36.241784,10.396766 z"
           id="seg-5-5-45-6-0-3-2"
           sodipodi:nodetypes="cscc"
           inkscape:connector-curvature="0" />
        <path
           style="fill:#000000;fill-opacity:1;display:inline"
           d="M 26.955086,14.205234 C 27.767239,14.917203 27.902982,16.046042 28.163684,17.366929 C 28.422957,18.681816 27.940001,20.274885 27.236794,21.922006 L 28.09255,22.074909 C 30.029755,18.613769 29.654566,14.981447 27.601022,13.932497 L 26.955086,14.205234 z"
           id="seg-8-1-5-1-6"
           sodipodi:nodetypes="cccccc"
           inkscape:connector-curvature="0" />
      </g>
      <g
         inkscape:groupmode="layer"
         id="layerTongueNormal"
         inkscape:label="TongueNormal"
         style="display:inline">
        <path
           style="fill:none;stroke:#000000;stroke-width:0;stroke-linecap:butt;stroke-linejoin:miter;stroke-opacity:1;display:inline"
           d="M 0.1,0.1 L 0.1,0.1"
           id="path2937-2-4-7-7"
           inkscape:connector-curvature="0" />
      </g>
    </g>
    <g
       inkscape:groupmode="layer"
       id="layerTeeth"
       inkscape:label="Teeth"
       style="display:inline">
      <g
         inkscape:groupmode="layer"
         id="layerTeethHappyOpenAlt1"
         inkscape:label="TeethHappyOpenAlt1"
         style="display:none">
        <path
           style="fill:#ffffff;fill-opacity:1;stroke:#000000;stroke-width:0.11879695;stroke-miterlimit:4;stroke-opacity:1;stroke-dasharray:none;display:inline"
           d="M 8.0442659,9.9672507 C 12.831667,11.316498 17.557662,12.064739 22.044266,12.304669 C 23.583745,12.386989 24.972636,12.908369 26.919266,12.877999 C 28.897802,12.847134 30.46196,12.194081 32.294266,11.995953 C 36.151433,11.578878 39.640419,10.890136 42.606766,10.187762 C 40.846956,16.783526 35.698162,23.447138 30.550679,25.574916 C 29.367531,26.063992 28.035244,25.074403 26.800679,25.260832 C 25.622614,25.438441 24.551134,26.112873 23.331929,26.01057 C 17.852477,25.550808 12.792885,20.757888 8.0442659,9.9672507 z"
           id="path2860-4-1-90"
           sodipodi:nodetypes="cssscsssc"
           inkscape:connector-curvature="0" />
        <path
           sodipodi:nodetypes="cccsccc"
           id="path2860-6-3-5-1"
           d="M 26.259267,19.190464 C 21.812363,19.14991 14.820012,18.46642 10.085616,15.647323 L 9.9702243,16.535877 C 15.285569,20.428205 21.627669,20.328922 26.319229,20.578697 C 31.599612,20.859822 36.814839,20.445379 39.910321,18.548379 L 40.392424,17.376907 C 35.910281,18.77802 30.814651,19.274607 26.259267,19.190464 z"
           style="fill:#000000;fill-opacity:1;display:inline"
           inkscape:connector-curvature="0" />
        <path
           sodipodi:nodetypes="ccccc"
           id="path2860-6-4-6-5-1-7"
           d="M 26.268265,10.33508 C 27.211099,15.70477 26.67008,21.54564 26.000711,26.804433 L 26.903677,26.936538 C 28.13703,21.254707 28.153899,15.480681 27.245689,9.7191142 L 26.268265,10.33508 z"
           style="fill:#000000;fill-opacity:1;display:inline"
           inkscape:connector-curvature="0" />
        <path
           sodipodi:nodetypes="ccccc"
           id="path2860-6-4-6-5-1-7-4"
           d="M 36.919934,10.065529 C 37.402222,14.51352 36.738528,19.153395 36.002721,23.307793 L 36.681918,23.52865 C 37.807471,18.851044 38.264123,14.892096 37.688054,9.6927895 L 36.919934,10.065529 z"
           style="fill:#000000;fill-opacity:1;display:inline"
           inkscape:connector-curvature="0" />
        <path
           sodipodi:nodetypes="ccccc"
           id="path2860-6-4-6-5-1-7-4-0"
           d="M 16.602726,10.271896 C 17.085014,14.948462 16.42132,19.826773 15.685513,24.19466 L 16.36471,24.426867 C 17.490263,19.508886 17.946915,15.346492 17.370846,9.8800024 L 16.602726,10.271896 z"
           style="fill:#000000;fill-opacity:1;display:inline"
           inkscape:connector-curvature="0" />
      </g>
      <g
         inkscape:groupmode="layer"
         id="layerTeethHappyOpen"
         inkscape:label="TeethHappy"
         style="display:none">
        <path
           style="fill:#ffffff;fill-opacity:1;stroke:#000000;stroke-width:0.12060779;stroke-miterlimit:4;stroke-opacity:1;stroke-dasharray:none;display:inline"
           d="M 8.1123754,12.258173 C 19.818293,21.854511 34.743525,19.749541 42.683947,12.718883 C 40.473694,18.135762 35.548843,23.408513 30.821621,25.20796 C 29.56989,25.684427 27.835223,25.14312 26.491411,25.177832 C 25.238216,25.210203 22.495562,25.816429 20.662572,25.246018 C 16.919952,24.081351 12.920819,21.234695 8.1123754,12.258173 z"
           id="seg-84-2-0-4"
           sodipodi:nodetypes="ccsssc"
           inkscape:connector-curvature="0" />
        <path
           sodipodi:nodetypes="csccscc"
           id="path2860-6-1"
           d="M 40.592612,18.177602 C 35.110033,20.503043 31.005796,21.384431 26.473786,21.362981 C 21.868416,21.341258 15.172164,19.417519 10.191245,17.073952 L 11.098845,18.354157 C 16.606969,20.91504 22.831524,22.740281 27.684953,22.478509 C 33.049367,22.189156 36.988715,20.609518 40.192816,19.35509 L 40.592612,18.177602 z"
           style="fill:#000000;fill-opacity:1;display:inline"
           inkscape:connector-curvature="0" />
        <path
           sodipodi:nodetypes="cccscc"
           id="path2860-6-4-6-2"
           d="M 25.67569,16.542156 C 27.086361,19.624312 26.742006,22.940108 25.283117,26.231772 L 25.839379,26.513089 C 27.157067,24.483043 27.60524,22.484484 27.568617,20.765876 C 27.528132,18.866301 26.902591,17.299073 26.364016,16.194621 L 25.67569,16.542156 z"
           style="fill:#000000;fill-opacity:1;display:inline"
           inkscape:connector-curvature="0" />
        <path
           sodipodi:nodetypes="cccscc"
           id="path2860-6-4-3-7"
           d="M 35.323783,14.641601 C 36.682398,17.71663 36.328993,20.353961 34.823571,23.674068 L 35.222128,23.945098 C 36.56724,21.892438 37.124175,19.915691 37.114284,18.191934 C 37.103352,16.286686 36.496076,15.258181 35.976252,14.156682 z"
           style="fill:#000000;fill-opacity:1;display:inline"
           inkscape:connector-curvature="0" />
        <path
           sodipodi:nodetypes="cccscc"
           id="path2860-6-4-3-7-7"
           d="M 15.375632,14.373987 C 16.734248,17.119999 16.452091,19.984148 14.946669,22.949017 L 15.345226,23.191048 C 16.690338,21.358015 17.247273,19.592774 17.237382,18.053451 C 17.22645,16.352056 16.547925,14.924596 16.028101,13.940953 L 15.375632,14.373987 z"
           style="fill:#000000;fill-opacity:1;display:inline"
           inkscape:connector-curvature="0" />
      </g>
      <g
         inkscape:groupmode="layer"
         id="layerTeethSadOpen"
         inkscape:label="TeethSadOpen"
         style="display:none">
        <path
           style="fill:#ffffff;fill-opacity:1;stroke:#000000;stroke-width:0.0985496;stroke-miterlimit:4;stroke-opacity:1;stroke-dasharray:none;display:inline"
           d="M 8.3576996,16.071633 C 19.607305,8.4187843 34.17228,10.249247 41.803175,15.856005 C 39.679084,11.536172 35.773588,6.148053 31.230637,4.7130389 C 30.027703,4.3330687 28.602958,5.0148471 27.347749,4.8700352 C 26.149978,4.7320556 24.75178,4.122151 23.512185,4.2016345 C 18.347232,4.5328111 13.136818,8.1458158 8.5158153,15.304363 L 8.3576996,16.071633 z"
           id="seg-84-2-6-1-8-8"
           sodipodi:nodetypes="cscsccc"
           inkscape:connector-curvature="0" />
        <path
           sodipodi:nodetypes="cccsccc"
           id="path2860-6-1-2-1"
           d="M 25.97263,8.0619377 C 21.678095,8.0798055 15.410265,10.09427 10.835823,11.619007 L 11.333126,10.778434 C 16.469482,8.6720898 22.576199,7.1708306 27.102049,7.3861493 C 32.104391,7.6241419 35.777859,8.9233929 38.765702,9.9551461 L 39.200643,10.815406 C 35.07836,9.3493977 30.274786,8.2356107 25.97263,8.0619377 z"
           style="fill:#000000;fill-opacity:1;display:inline"
           inkscape:connector-curvature="0" />
        <path
           sodipodi:nodetypes="ccsccc"
           id="path2860-6-4-6-2-5-9"
           d="M 26.721169,4.2429557 L 27.510519,3.9496449 C 28.879261,5.7644247 29.174386,7.2709979 28.955177,8.6716329 C 28.712903,10.219721 27.887062,11.566956 27.130215,12.406373 L 26.297762,12.253784 C 28.377971,9.6871906 28.38544,7.3478216 26.721169,4.2429557 z"
           style="fill:#000000;fill-opacity:1;display:inline"
           inkscape:connector-curvature="0" />
        <path
           sodipodi:nodetypes="cccscc"
           id="path2860-6-4-3-7-5-2"
           d="M 34.362986,13.035617 C 35.899395,10.822303 35.786715,8.2015187 34.65531,5.4614214 L 35.028509,5.3366867 C 36.117,7.0796091 36.472035,8.6710109 36.316434,10.000338 C 36.144451,11.469626 35.371802,12.623453 34.790317,13.41239 L 34.362986,13.035617 z"
           style="fill:#000000;fill-opacity:1;display:inline"
           inkscape:connector-curvature="0" />
        <path
           sodipodi:nodetypes="ccsccc"
           id="path2860-6-4-0-1-7-9"
           d="M 18.035744,3.9510704 C 18.169794,3.7906375 18.318802,3.7306128 18.59836,3.6240692 C 19.310856,5.3763766 19.587166,7.0255415 19.522236,8.506308 C 19.461237,9.8972604 19.39159,11.141281 18.963437,12.204108 C 18.486824,12.519996 18.162402,12.546544 18.213316,11.910314 C 19.089958,9.1539795 18.564277,6.6810453 18.035744,3.9510704 z"
           style="fill:#000000;fill-opacity:1;display:inline"
           inkscape:connector-curvature="0" />
      </g>
      <g
         inkscape:groupmode="layer"
         id="layerTeethSadOpenAlt1"
         inkscape:label="TeethSadOpenAlt1"
         style="display:none">
        <path
           style="fill:#ffffff;fill-opacity:1;stroke:#000000;stroke-width:0.10884419;stroke-miterlimit:4;stroke-opacity:1;stroke-dasharray:none;display:inline"
           d="M 19.159466,6.2181094 C 19.866069,6.1873514 20.515322,6.279873 21.118705,6.482379 C 22.079533,6.8048412 22.498894,6.931594 23.804759,7.2374341 C 24.464908,7.3834196 25.127024,7.5328245 26.806818,7.4639514 C 28.533902,7.3931585 29.050011,7.333079 29.998481,7.1241761 C 30.871897,6.9318121 31.246999,6.8015193 32.020921,6.5201312 C 36.02838,5.0631806 39.678202,9.391642 43.871156,13.995185 C 42.42389,18.265287 39.505892,23.291146 35.654993,25.81181 C 32.605811,27.00568 29.770699,24.475432 26.775218,24.679225 C 23.646922,24.822277 20.248319,26.808641 17.231829,26.000575 C 13.300665,24.011794 9.4340149,20.257522 6.0452072,14.48597 C 8.2859262,11.084159 14.583695,6.4173039 19.159466,6.2181094 z"
           id="seg-5-4-6-5-4-8"
           sodipodi:nodetypes="cssssscccccc"
           inkscape:connector-curvature="0" />
        <path
           sodipodi:nodetypes="csccscc"
           id="path2860-6-3-5"
           d="M 43.367888,17.313993 C 37.017892,15.962399 33.407938,16.298129 28.090133,16.325389 C 22.686256,16.353182 13.150914,16.441354 7.394443,18.898173 L 7.1327678,18.369638 C 13.596447,14.975279 22.5341,14.545314 28.228994,14.893723 C 34.523464,15.278808 39.758627,14.997746 43.518024,16.661962 L 43.367888,17.313993 z"
           style="fill:#000000;fill-opacity:1;display:inline"
           inkscape:connector-curvature="0" />
        <path
           sodipodi:nodetypes="cccscc"
           id="path2860-6-4-6-5-1"
           d="M 25.585779,25.338947 C 28.540433,19.711712 28.161484,13.014938 25.96569,6.9123005 L 27.02133,6.2546764 C 29.313725,10.265176 29.383047,14.278219 29.251094,17.458335 C 29.10526,20.973248 27.934682,24.137566 26.809056,26.15219 z"
           style="fill:#000000;fill-opacity:1;display:inline"
           inkscape:connector-curvature="0" />
        <path
           sodipodi:nodetypes="cccscc"
           id="path2860-6-4-6-5-6-7"
           d="M 14.265582,24.957857 C 16.618984,19.105942 16.247857,13.140713 14.203085,7.409656 L 14.883053,6.8007573 C 16.786551,10.262123 17.480379,13.741367 17.320879,16.873241 C 17.144594,20.334857 15.963985,23.371401 15.069816,25.474181 z"
           style="fill:#000000;fill-opacity:1;display:inline"
           inkscape:connector-curvature="0" />
        <path
           sodipodi:nodetypes="cccscc"
           id="path2860-6-4-6-5-3-1"
           d="M 35.900384,25.802656 C 39.088423,19.825804 38.694733,13.226288 36.096027,6.576868 L 36.700272,5.9433339 C 39.149099,10.081692 39.650353,14.018252 39.390977,17.41831 C 39.104299,21.176314 37.859641,24.285104 36.650264,26.423892 z"
           style="fill:#000000;fill-opacity:1;display:inline"
           inkscape:connector-curvature="0" />
      </g>
      <g
         inkscape:groupmode="layer"
         id="layerTeethNormal"
         inkscape:label="TeethNormal"
         style="display:inline">
        <path
           style="fill:none;stroke:#000000;stroke-width:0;stroke-linecap:butt;stroke-linejoin:miter;stroke-opacity:1;display:inline"
           d="M 0.1,0.1 L 0.1,0.1"
           id="path2937-2-4-7-0"
           inkscape:connector-curvature="0" />
      </g>
    </g>
    <g
       inkscape:groupmode="layer"
       id="layerDimples"
       inkscape:label="Dimples"
       style="display:inline">
      <g
         inkscape:groupmode="layer"
         id="layerDimplesHappy"
         inkscape:label="DimplesHappy"
         style="display:none">
        <path
           style="fill:#000000;fill-opacity:1;display:inline"
           d="M 48.289035,7.0673965 C 49.088207,8.1999363 49.660362,9.6937063 49.106795,11.502666 L 49.534504,11.537758 C 50.665847,7.7375289 47.74931,4.4774789 45.614293,4.7324589 L 45.268246,5.1183365 C 46.657005,5.2077905 47.397019,6.1339926 48.289035,7.0673965 z"
           id="seg-8"
           sodipodi:nodetypes="cccccc"
           inkscape:connector-curvature="0" />
        <path
           style="fill:#000000;fill-opacity:1;display:inline"
           d="M 1.5407884,7.1376597 C 1.0073853,8.3551494 0.77454801,9.8938498 1.7099967,11.58357 L 1.2279937,11.759874 C -0.70635749,8.2057232 1.430797,4.6153135 3.571754,4.5669635 L 4.0658607,4.8132297 C 2.7382398,5.0969165 2.2186107,6.0857915 1.5407884,7.1376597 z"
           id="seg-8-9"
           sodipodi:nodetypes="cccccc"
           inkscape:connector-curvature="0" />
      </g>
      <g
         inkscape:groupmode="layer"
         id="layerDimplesNormal"
         inkscape:label="DimplesNormal"
         style="display:none">
        <path
           style="fill:none;stroke:#000000;stroke-width:0;stroke-linecap:butt;stroke-linejoin:miter;stroke-opacity:1;display:inline"
           d="M 0.1,0.1 L 0.1,0.1"
           id="path2937-2-4-7"
           inkscape:connector-curvature="0" />
      </g>
      <g
         inkscape:groupmode="layer"
         id="layerDimplesSad"
         inkscape:label="DimplesSad"
         style="display:none">
        <path
           style="fill:#000000;fill-opacity:1;display:inline"
           d="M 48.766691,19.922786 C 48.405493,21.261015 47.621343,22.655224 45.875762,23.384416 L 46.27736,23.638097 C 49.924278,22.081921 50.57056,17.755671 49.010937,16.275505 L 48.337529,16.353495 C 49.155544,17.479337 48.915354,18.640273 48.766691,19.922786 z"
           id="seg-8-7"
           sodipodi:nodetypes="cccccc"
           inkscape:connector-curvature="0" />
        <path
           style="fill:#000000;fill-opacity:1;display:inline"
           d="M 1.0363063,19.004329 C 1.1690656,20.326892 1.7213456,21.781816 3.3656559,22.79496 L 3.0676571,22.985677 C -0.36199327,20.838306 -0.26198018,16.661169 1.5796834,15.568324 L 2.0956129,15.739847 C 1.0780965,16.638578 1.1106598,17.755193 1.0363063,19.004329 z"
           id="seg-8-9-4"
           sodipodi:nodetypes="cccccc"
           inkscape:connector-curvature="0" />
      </g>
    </g>
  </g>
</svg>
