<?xml version="1.0" encoding="UTF-8" standalone="no"?>
<!-- Created with Inkscape (http://www.inkscape.org/) -->

<svg
   xmlns:dc="http://purl.org/dc/elements/1.1/"
   xmlns:cc="http://creativecommons.org/ns#"
   xmlns:rdf="http://www.w3.org/1999/02/22-rdf-syntax-ns#"
   xmlns:svg="http://www.w3.org/2000/svg"
   xmlns="http://www.w3.org/2000/svg"
   xmlns:sodipodi="http://sodipodi.sourceforge.net/DTD/sodipodi-0.dtd"
   xmlns:inkscape="http://www.inkscape.org/namespaces/inkscape"
   width="50"
   height="30"
   id="svg4873"
   version="1.1"
   inkscape:version="0.48.0 r9654"
   sodipodi:docname="body-mouth5.svg"
   inkscape:export-filename="E:\moralife\prototype\test-mouth8.png"
   inkscape:export-xdpi="90"
   inkscape:export-ydpi="90"
   style="display:inline">
  <defs
     id="defs4875">
    <inkscape:perspective
       sodipodi:type="inkscape:persp3d"
       inkscape:vp_x="0 : 15 : 1"
       inkscape:vp_y="0 : 1000 : 0"
       inkscape:vp_z="50 : 15 : 1"
       inkscape:persp3d-origin="25 : 10 : 1"
       id="perspective180" />
    <linearGradient
       inkscape:collect="always"
       id="linearGradientLipsHappyOpen-0"
       x1="20.183037"
       y1="1.0563004"
       x2="20.625"
       y2="18.556301"
       gradientUnits="userSpaceOnUse">
      <stop
         style="stop-color:#000000;stop-opacity:1;"
         offset="0"
         id="stop3762" />
      <stop
         style="stop-color:#000000;stop-opacity:0;"
         offset="1"
         id="stop3764" />
    </linearGradient>
    <linearGradient
       inkscape:collect="always"
       id="linearGradientLipsHappyOpenAlt1-0"
       x1="26.317303"
       y1="2.7248557"
       x2="21.567135"
       y2="24.125605"
       gradientUnits="userSpaceOnUse">
      <stop
         style="stop-color:#000000;stop-opacity:1;"
         offset="0"
         id="stop3928" />
      <stop
         style="stop-color:#000000;stop-opacity:0;"
         offset="1"
         id="stop3930" />
    </linearGradient>
    <linearGradient
       inkscape:collect="always"
       id="linearGradientLipsSadOpen-0"
       x1="25.089895"
       y1="1.9188286"
       x2="23.774555"
       y2="21.213516"
       gradientUnits="userSpaceOnUse">
      <stop
         style="stop-color:#000000;stop-opacity:1;"
         offset="0"
         id="stop4055" />
      <stop
         style="stop-color:#000000;stop-opacity:0;"
         offset="1"
         id="stop4057" />
    </linearGradient>
    <linearGradient
       inkscape:collect="always"
       id="linearGradientLipsSadShock-0"
       x1="28.532276"
       y1="1.8267242"
       x2="25.560268"
       y2="23.612549"
       gradientUnits="userSpaceOnUse">
      <stop
         style="stop-color:#000000;stop-opacity:1;"
         offset="0"
         id="stop4055-9" />
      <stop
         style="stop-color:#000000;stop-opacity:0;"
         offset="1"
         id="stop4057-5" />
    </linearGradient>
    <linearGradient
       inkscape:collect="always"
       id="linearGradientLipsSadOpenAlt1-0"
       x1="26.676777"
       y1="2.3439314"
       x2="27.99107"
       y2="21.758543"
       gradientUnits="userSpaceOnUse">
      <stop
         style="stop-color:#000000;stop-opacity:1;"
         offset="0"
         id="stop4559" />
      <stop
         style="stop-color:#000000;stop-opacity:0;"
         offset="1"
         id="stop4561" />
    </linearGradient>
    <linearGradient
       inkscape:collect="always"
       id="linearGradientTongueHappyCenter-0"
       x1="27.270924"
       y1="14.295699"
       x2="38.595448"
       y2="25.297567"
       gradientUnits="userSpaceOnUse">
      <stop
         style="stop-color:#000000;stop-opacity:1;"
         offset="0"
         id="stop3834" />
      <stop
         style="stop-color:#000000;stop-opacity:0;"
         offset="1"
         id="stop3836" />
    </linearGradient>
    <linearGradient
       y2="21.428572"
       x2="41.160713"
       y1="8.4821434"
       x1="32.67857"
       gradientUnits="userSpaceOnUse"
       id="linearGradientTongueHappyLeft-0"
       inkscape:collect="always">
      <stop
         style="stop-color:#000000;stop-opacity:1;"
         offset="0"
         id="stop3834-5-8-0" />
      <stop
         style="stop-color:#000000;stop-opacity:0;"
         offset="1"
         id="stop3836-0-6-0" />
    </linearGradient>
    <linearGradient
       y2="21.964287"
       x2="9.375"
       y1="13.660715"
       x1="14.821428"
       gradientUnits="userSpaceOnUse"
       id="linearGradientTongueHappyRight-0"
       inkscape:collect="always">
      <stop
         style="stop-color:#000000;stop-opacity:1;"
         offset="0"
         id="stop3834-5-8-0-3" />
      <stop
         style="stop-color:#000000;stop-opacity:0;"
         offset="1"
         id="stop3836-0-6-0-8" />
    </linearGradient>
    <linearGradient
       y2="19.653372"
       x2="34.777912"
       y1="6.9811454"
       x1="39.304565"
       gradientUnits="userSpaceOnUse"
       id="linearGradientTongueSadLeft-0"
       inkscape:collect="always">
      <stop
         style="stop-color:#000000;stop-opacity:1;"
         offset="0"
         id="stop3834-5-8-0-3-1-8-0" />
      <stop
         style="stop-color:#000000;stop-opacity:0;"
         offset="1"
         id="stop3836-0-6-0-8-2-2-3" />
    </linearGradient>
    <linearGradient
       y2="20.004555"
       x2="16.708242"
       y1="5.5795708"
       x1="9.2082424"
       gradientUnits="userSpaceOnUse"
       id="linearGradientTongueSadRight-0"
       inkscape:collect="always">
      <stop
         style="stop-color:#000000;stop-opacity:1;"
         offset="0"
         id="stop3834-5-8-0-5-1" />
      <stop
         style="stop-color:#000000;stop-opacity:0;"
         offset="1"
         id="stop3836-0-6-0-7-2" />
    </linearGradient>
    <linearGradient
       inkscape:collect="always"
       id="linearGradientTongueSadCenter-0"
       x1="25.793772"
       y1="1.2990372"
       x2="24.79496"
       y2="17.364555"
       gradientUnits="userSpaceOnUse">
      <stop
         style="stop-color:#000000;stop-opacity:1;"
         offset="0"
         id="stop3834-2-8" />
      <stop
         style="stop-color:#000000;stop-opacity:0;"
         offset="1"
         id="stop3836-6-3" />
    </linearGradient>
    <linearGradient
       inkscape:collect="always"
       id="linearGradientLipsHappyShock-0"
       gradientUnits="userSpaceOnUse"
       x1="30.968401"
       y1="1.3989747"
       x2="29.399553"
       y2="23.58353">
      <stop
         style="stop-color:#000000;stop-opacity:1;"
         offset="0"
         id="stop50" />
      <stop
         style="stop-color:#000000;stop-opacity:0;"
         offset="1"
         id="stop52" />
    </linearGradient>
    <linearGradient
       inkscape:collect="always"
       id="linearGradientLipsSadSilly-0"
       x1="19.815039"
       y1="1.2407491"
       x2="27.858707"
       y2="19.092678"
       gradientUnits="userSpaceOnUse">
      <stop
         style="stop-color:#000000;stop-opacity:1;"
         offset="0"
         id="stop4082" />
      <stop
         style="stop-color:#000000;stop-opacity:0;"
         offset="1"
         id="stop4084" />
    </linearGradient>
    <linearGradient
       inkscape:collect="always"
       id="linearGradientLipsHappySilly-0"
       x1="25.06916"
       y1="9.4050417"
       x2="21.640223"
       y2="23.702705"
       gradientUnits="userSpaceOnUse">
      <stop
         style="stop-color:#000000;stop-opacity:1;"
         offset="0"
         id="stop47" />
      <stop
         style="stop-color:#000000;stop-opacity:0;"
         offset="1"
         id="stop49" />
    </linearGradient>
  </defs>
  <sodipodi:namedview
     id="base"
     pagecolor="#ffffff"
     bordercolor="#666666"
     borderopacity="1.0"
     inkscape:pageopacity="0.0"
     inkscape:pageshadow="2"
     inkscape:zoom="7.919596"
     inkscape:cx="-2.1515807"
     inkscape:cy="27.852563"
     inkscape:document-units="px"
     inkscape:current-layer="layerLips"
     showgrid="false"
     inkscape:window-width="1024"
     inkscape:window-height="708"
     inkscape:window-x="-4"
     inkscape:window-y="-4"
     inkscape:window-maximized="1" />
  <metadata
     id="metadata4878">
    <rdf:RDF>
      <cc:Work
         rdf:about="">
        <dc:format>image/svg+xml</dc:format>
        <dc:type
           rdf:resource="http://purl.org/dc/dcmitype/StillImage" />
        <dc:title />
      </cc:Work>
    </rdf:RDF>
  </metadata>
  <g
     inkscape:groupmode="layer"
     id="layerTotal"
     inkscape:label="Total"
     style="display:inline">
    <g
       inkscape:groupmode="layer"
       id="layerLips"
       inkscape:label="Lips"
       style="display:inline">
      <g
         style="display:none"
         inkscape:label="LipsHappyShock"
         id="layerLipsHappyShock"
         inkscape:groupmode="layer">
        <path
           sodipodi:nodetypes="cccccc"
           id="path3056"
           d="M 41.775036,14.123001 C 39.756755,20.087525 33.272823,25.859391 26.991504,26.592212 C 20.738947,27.320155 14.827406,25.325321 9.2891073,15.19919 L 7.4973618,16.230841 C 19.208998,37.30901 39.182413,28.461306 43.40205,14.345138 L 41.775036,14.123001 z"
           style="fill:#000000;fill-opacity:1;display:inline"
           inkscape:connector-curvature="0" />
        <path
           sodipodi:nodetypes="cccsssccc"
           id="path3058"
           d="M 25.649814,5.0911117 C 31.882526,4.03486 35.112977,7.8393968 42.109109,15.92381 L 43.386377,14.089852 C 36.123866,7.3508487 33.022294,2.5846842 28.823495,2.4836802 C 28.269187,2.4703461 26.708866,2.4937144 26.164491,2.542555 C 25.560604,2.5957001 24.293901,1.9303854 22.355429,2.8028937 C 17.091452,5.1722145 11.707459,9.8127622 7.4504598,16.211795 L 8.5014878,17.635363 C 13.316577,11.513859 20.737353,4.8341623 25.649814,5.0911117 z"
           style="fill:#000000;fill-opacity:1;display:inline"
           inkscape:connector-curvature="0" />
        <path
           sodipodi:nodetypes="csccssccssccccc"
           id="path3060"
           d="M 32.101932,4.8909033 C 31.57521,4.8813833 30.998237,5.0772802 30.977016,5.4685739 C 30.77371,9.2217692 30.426468,12.770014 29.959237,15.026389 C 28.746513,15.538274 27.440843,15.885718 25.941686,16.024183 C 26.680901,13.355776 27.068598,9.2434164 27.173713,5.3004679 C 27.192663,4.5910569 25.12703,4.5178793 25.084587,5.3004679 C 24.859554,9.4547371 24.717031,13.918059 24.173963,16.076698 C 22.659799,16.041758 20.965036,15.549918 19.620738,14.763813 C 20.382276,12.608374 21.113954,9.5707596 21.120624,6.0462444 C 21.121724,5.4495883 19.001859,4.9723609 18.97793,5.6261201 C 18.847201,9.2024452 18.501586,12.604412 17.960151,14.291173 L 17.370909,15.866636 C 20.64403,19.212228 27.358628,18.420373 31.191286,16.601853 C 32.562357,13.117481 32.85284,9.2166582 33.11971,5.4685739 C 33.12911,5.1138592 32.628651,4.9004734 32.101932,4.8909033 z"
           style="fill:#000000;fill-opacity:1;display:inline"
           inkscape:connector-curvature="0" />
        <path
           sodipodi:nodetypes="ccccccscc"
           id="path3062"
           d="M 19.223852,6.1125184 C 19.144882,8.5930555 18.829157,13.470702 18.585702,14.658424 L 18.289692,15.897815 C 19.933969,18.529738 29.351266,17.881078 31.27663,16.450482 C 31.853863,14.153262 32.49873,8.7990275 32.625973,6.305171 C 36.420902,7.6354599 37.591999,10.49004 41.851145,15.27282 C 39.491209,20.87317 32.976751,25.475392 27.042977,26.167667 C 20.988016,26.872602 14.094061,26.04222 8.6480968,16.765988 C 10.778165,11.215747 15.729776,10.845636 19.223852,6.1125184 z"
           style="fill:url(#linearGradientLipsHappyShock-0);fill-opacity:1;display:inline"
           inkscape:connector-curvature="0" />
      </g>
      <g
         inkscape:groupmode="layer"
         id="layerLipsHappyOpenAlt1"
         inkscape:label="LipsHappyOpenAlt1"
         style="display:none">
        <path
           style="fill:#000000;fill-opacity:1;display:inline"
           d="M 42.898902,9.151272 C 40.6645,17.464855 34.246464,23.893891 27.292538,24.915289 C 20.370443,25.929943 13.127099,24.141208 6.9957545,10.027061 L 4.9460117,8.410848 C 17.911736,37.790309 40.132512,28.342021 44.804,8.666389 L 42.898902,9.151272 z"
           id="seg-5-1-1"
           sodipodi:nodetypes="cccccc"
           inkscape:connector-curvature="0" />
        <path
           style="fill:#000000;fill-opacity:1;display:inline"
           d="M 44.289157,6.581755 C 41.945367,11.093435 34.415707,15.459385 27.121337,16.013705 C 19.860367,16.564335 11.643772,15.041895 5.2122542,7.3822949 L 4.3046062,7.6850949 C 17.905097,23.629025 40.545227,18.287135 45.445407,7.6093949 L 44.289157,6.581755 z"
           id="seg-52"
           sodipodi:nodetypes="cccccc"
           inkscape:connector-curvature="0" />
        <path
           style="fill:#000000;fill-opacity:1;display:inline"
           d="M 31.112716,16.84375 C 30.662004,16.83845 30.196929,16.91011 30.178772,17.125 C 30.005161,19.181788 29.690069,21.135303 29.291525,22.375 C 28.236925,22.662614 27.142454,22.861348 25.83593,22.9375 C 26.469685,21.471384 27.053223,19.512818 27.143452,17.34375 C 27.159652,16.95415 25.358423,16.91398 25.322261,17.34375 C 25.128939,19.633879 24.76224,21.786473 24.294921,22.96875 C 23.005903,22.94309 21.604955,22.616889 20.465748,22.1875 C 21.106219,21.00595 21.674287,19.34448 21.679877,17.4375 C 21.680862,17.10983 19.879156,16.85973 19.858684,17.21875 C 19.879244,18.763392 19.503626,20.281205 19.064831,21.78125 L 18.504464,22.84375 C 21.304737,24.680718 27.038937,24.248278 30.318864,23.25 L 30.365564,23.25 L 30.458954,23.28125 C 31.174102,21.78741 31.899097,19.55335 31.999963,17.125 C 32.008063,16.9302 31.563429,16.849003 31.112715,16.84375 z"
           id="seg-3-7-5-22-7-8-76"
           sodipodi:nodetypes="csccssccsccccccsc"
           inkscape:connector-curvature="0" />
        <path
           style="fill:url(#linearGradientLipsHappyOpenAlt1-0);fill-opacity:1;display:inline"
           d="M 6.7567478,10.163123 C 11.057517,13.955986 15.728168,16.028461 20.5794,16.788735 C 20.49725,18.734557 19.732862,21.109335 19.418686,21.980699 L 19.106186,22.793199 C 20.980493,24.630512 28.093881,24.166879 30.28861,23.168199 C 30.988719,21.517813 31.210165,18.606234 31.35111,16.703913 C 36.225503,16.055969 39.529237,14.128161 42.614457,11.473084 C 39.776151,18.221612 35.241131,24.220156 29.19486,25.108237 C 22.397893,26.104549 12.816275,23.587639 6.7567478,10.163123 z"
           id="seg-5-1-1-5"
           sodipodi:nodetypes="ccccccccc"
           inkscape:connector-curvature="0" />
      </g>
      <g
         inkscape:groupmode="layer"
         id="layerLipsHappyOpen"
         inkscape:label="LipsHappyOpen"
         style="display:none">
        <path
           style="fill:#000000;fill-opacity:1;display:inline"
           d="M 43.749549,9.813834 C 41.515147,16.329334 35.097111,21.367883 28.143185,22.168371 C 21.22109,22.963573 13.977746,21.561709 7.8464012,10.500205 L 5.7966584,9.23355 C 11.811184,19.914455 18.656532,24.493752 25.978543,24.315996 C 34.440847,24.110556 43.150164,17.700884 45.654647,9.4338226 z"
           id="seg-5"
           sodipodi:nodetypes="ccccscc"
           inkscape:connector-curvature="0" />
        <path
           sodipodi:nodetypes="ccssccscc"
           id="path2860-4"
           d="M 45.347424,8.0053484 C 45.347424,8.0053484 38.564135,10.128879 32.2364,9.9560594 C 31.027014,10.082574 29.05423,10.945857 26.676666,10.983795 C 24.391529,11.020325 21.784261,10.879651 20.569437,10.916115 C 15.26898,11.074224 13.820821,10.481862 5.7753886,9.1889458 L 4.4597695,10.08411 C 12.267791,12.167953 20.023678,12.836416 26.945786,12.521201 C 34.596696,12.172823 42.301729,10.578119 46.889632,9.4460502 L 45.347424,8.0053484 z"
           style="fill:#000000;fill-opacity:1;display:inline"
           inkscape:connector-curvature="0" />
        <path
           style="fill:#000000;fill-opacity:1;display:inline"
           d="M 31.892606,11.625013 C 31.427064,11.628813 30.985509,11.736421 30.976296,11.98264 C 30.887536,14.338957 30.657961,16.563899 30.30112,17.990767 C 29.224062,18.343342 28.07902,18.5902 26.732332,18.70602 C 27.320113,17.016364 27.843886,14.780963 27.841549,12.304504 C 27.841139,11.858468 25.979282,11.847842 25.960702,12.340264 C 25.861992,14.960252 25.618356,17.449194 25.189072,18.813306 C 23.851112,18.819606 22.344306,18.49502 21.138016,18.026527 C 21.755959,16.658803 22.326223,14.725522 22.247233,12.519078 C 22.233803,12.144221 20.371787,11.893357 20.366386,12.304502 C 20.338426,14.466292 20.143879,16.526171 19.739436,17.633138 L 19.160714,18.777543 C 22.143861,20.825745 28.123771,20.215021 31.458563,18.992119 C 32.474649,16.772235 32.748682,14.315251 32.857143,11.946875 C 32.856946,11.723851 32.358147,11.621184 31.892606,11.625011 z"
           id="seg-3-7-5-22-7-4-8"
           sodipodi:nodetypes="csccssccssccccc"
           inkscape:connector-curvature="0" />
        <path
           style="fill:url(#linearGradientLipsHappyOpen-0);fill-opacity:1;display:inline"
           d="M 44.017858,9.9017856 C 41.668905,16.402482 35.187354,21.39983 28.174382,22.202687 C 21.218794,22.997354 13.966452,21.619724 7.7723217,10.852886 C 12.573687,11.866051 16.234056,12.361966 20.72731,12.469757 C 20.69669,14.249619 20.594978,15.92639 20.344772,16.84482 L 19.962234,17.859328 C 21.93411,19.675043 29.27972,19.133641 31.484036,18.049548 C 32.111973,16.20968 32.830487,13.651771 32.91234,11.680416 C 38.343785,11.215618 40.219501,10.787951 44.017858,9.9017856 z"
           id="seg-5-17"
           sodipodi:nodetypes="ccccccccc"
           inkscape:connector-curvature="0" />
      </g>
      <g
         inkscape:groupmode="layer"
         id="layerLipsHappyAlt1"
         inkscape:label="LipsHappyAlt1"
         style="display:none">
        <path
           style="fill:#000000;fill-opacity:1;display:inline"
           d="M 43.025172,7.3334613 C 40.79077,15.085143 34.372734,21.079652 27.418808,22.032016 C 20.496713,22.978091 14.860511,20.32811 7.1220236,8.1500573 L 5.0722808,6.6430808 C 18.038006,34.036836 40.258782,25.227141 44.93027,6.8813503 L 43.025172,7.3334613 z"
           id="seg-5-1"
           sodipodi:nodetypes="cccccc"
           inkscape:connector-curvature="0" />
        <path
           style="fill:#000000;fill-opacity:1;display:inline"
           d="M 31.41843,22.383929 C 30.943862,22.378629 30.454171,22.481539 30.435054,22.696429 C 30.253163,24.742994 29.917407,26.674284 29.500847,27.915179 C 28.39043,28.202793 27.238032,28.432777 25.862357,28.508929 C 26.532564,27.041291 27.143716,25.061227 27.239083,22.883929 C 27.256143,22.494329 25.359577,22.454159 25.321501,22.883929 C 25.117947,25.174058 24.73184,27.357902 24.239786,28.540179 C 22.883359,28.514539 21.407092,28.187913 20.207946,27.758929 C 20.883859,26.577063 21.480437,24.888383 21.486334,22.977679 C 21.487334,22.650009 19.590307,22.431159 19.568752,22.790179 C 19.463667,24.542766 19.232122,26.166444 18.83122,27.165179 L 18.142857,28.415179 C 21.102787,30.259279 27.185273,29.828009 30.631729,28.821429 C 31.820212,26.968056 32.155427,24.74563 32.352637,22.696429 C 32.361137,22.501629 31.892998,22.389182 31.41843,22.383929 z"
           id="seg-3-7-5-22-7-8-7"
           sodipodi:nodetypes="csccssccssccccc"
           inkscape:connector-curvature="0" />
      </g>
      <g
         inkscape:groupmode="layer"
         id="layerLipsHappySilly"
         inkscape:label="LipsHappySilly"
         style="display:none">
        <path
           style="fill:url(#linearGradientLipsHappySilly-0);fill-opacity:1;display:inline"
           d="M 40.580582,15.562971 C 37.862927,19.604802 31.847054,23.793027 26.729967,24.305769 C 21.075192,24.871205 14.747455,22.720281 9.5577395,15.700799 C 19.977184,22.338891 33.132117,20.848216 40.580582,15.562971 z"
           id="seg-2-1-4"
           sodipodi:nodetypes="cscc"
           inkscape:connector-curvature="0" />
        <path
           style="fill:#000000;fill-opacity:1;display:inline"
           d="M 40.612582,14.323492 C 38.750759,18.835172 32.769468,23.201122 26.975083,23.755442 C 21.207229,24.306072 14.680262,22.783632 9.5712958,15.124032 L 8.1296618,14.817151 C 12.869436,22.033648 19.611391,25.495858 25.80134,25.351843 C 33.186035,25.180031 39.77917,20.059521 41.909872,14.21471 L 40.612582,14.323492 z"
           id="seg-2-1"
           sodipodi:nodetypes="ccccscc"
           inkscape:connector-curvature="0" />
        <path
           style="fill:#ffffff;fill-opacity:1;display:inline"
           d="M 19.807917,19.592685 C 21.296245,19.850101 23.28799,19.998644 24.753937,20.036779 C 24.514826,23.164059 24.136954,26.095105 23.592459,27.723027 C 22.001688,27.695534 19.749001,27.255754 18.33899,26.629872 C 19.124294,24.92608 19.903551,22.483821 19.910401,19.729329 C 19.910529,19.678966 19.852612,19.639577 19.807917,19.592685 z M 30.697969,19.592685 C 30.481283,22.443993 29.63896,25.110939 29.168059,26.834838 C 27.891691,27.242577 26.007135,27.546171 24.427007,27.654705 C 25.168049,25.634514 25.590417,22.96503 25.745879,20.002618 C 26.999111,19.943748 29.496785,19.796296 30.697969,19.592685 z"
           id="seg-2-4"
           sodipodi:nodetypes="ccccscccccc"
           inkscape:connector-curvature="0" />
        <path
           style="fill:#000000;fill-opacity:1;display:inline"
           d="M 43.61255,9.461887 C 41.26876,13.973567 33.7391,18.339517 26.44473,18.893837 C 19.18376,19.444467 10.967165,17.922027 4.535648,10.262427 L 3.628,10.565227 C 10.215161,18.287393 18.922824,21.016371 26.708457,20.564299 C 34.997794,20.08298 42.241937,15.995689 44.7688,10.489527 L 43.61255,9.461887 z"
           id="seg-2"
           sodipodi:nodetypes="ccccscc"
           inkscape:connector-curvature="0" />
        <path
           style="fill:#000000;fill-opacity:1;display:inline"
           d="M 30.855074,19.54014 C 30.350687,19.53314 29.830227,19.62765 29.809909,19.911042 C 29.615473,22.625532 29.263513,25.199933 28.817003,26.834541 C 27.649403,27.207533 26.395368,27.47706 24.949893,27.576345 C 25.65912,25.642887 26.312149,23.060005 26.413124,20.199521 C 26.431244,19.685732 24.415521,19.632757 24.375053,20.199521 C 24.158986,23.215776 23.799603,26.05697 23.27763,27.617556 C 21.822419,27.592406 20.23005,27.201032 18.940196,26.628485 C 19.658579,25.069885 20.344902,22.842918 20.351168,20.323155 C 20.352268,19.891037 18.336008,19.561214 18.313098,20.034676 C 18.187176,22.640591 17.844165,25.126233 17.320191,26.340005 L 16.745351,27.493922 C 19.879409,29.916686 26.348609,29.305229 30.018943,27.988458 C 31.273411,25.671877 31.641601,22.613126 31.84798,19.952253 C 31.85708,19.695359 31.35946,19.547068 30.855074,19.54014 z"
           id="seg-3-7-5-22-7-8-3"
           sodipodi:nodetypes="csccssccssccccc"
           inkscape:connector-curvature="0" />
      </g>
      <g
         inkscape:groupmode="layer"
         id="layerLipsHappy"
         inkscape:label="LipsHappy"
         style="display:none">
        <path
           style="fill:#ffffff;fill-opacity:1;display:inline"
           d="M 19.707618,19.447294 C 21.195946,19.70471 23.187691,19.853253 24.653638,19.891388 C 24.414527,23.018668 24.036655,25.949715 23.49216,27.577637 C 21.901389,27.550144 19.648702,27.110364 18.238691,26.484482 C 19.023995,24.780689 19.803252,22.33843 19.810102,19.583938 C 19.81023,19.533575 19.752313,19.494186 19.707618,19.447294 z M 30.59767,19.447294 C 30.380984,22.298602 29.538661,24.965548 29.06776,26.689448 C 27.791392,27.097187 25.906836,27.400781 24.326708,27.509315 C 25.06775,25.489124 25.490118,22.819639 25.64558,19.857227 C 26.898812,19.798357 29.396486,19.650905 30.59767,19.447294 z"
           id="seg-2-4-1"
           sodipodi:nodetypes="ccccscccccc"
           inkscape:connector-curvature="0" />
        <path
           style="fill:#000000;fill-opacity:1;display:inline"
           d="M 30.754775,19.394749 C 30.250388,19.387749 29.729928,19.482259 29.70961,19.765651 C 29.515174,22.480141 29.163214,25.054542 28.716704,26.689151 C 27.549104,27.062143 26.295069,27.33167 24.849594,27.430955 C 25.558821,25.497497 26.21185,22.914614 26.312825,20.05413 C 26.330945,19.540341 24.315222,19.487366 24.274754,20.05413 C 24.058687,23.070385 23.699304,25.91158 23.177331,27.472166 C 21.72212,27.447016 20.129751,27.055642 18.839897,26.483095 C 19.55828,24.924494 20.244603,22.697527 20.250869,20.177764 C 20.251969,19.745646 18.235709,19.415823 18.212799,19.889285 C 18.086877,22.4952 17.743866,24.980842 17.219892,26.194615 L 16.645052,27.348532 C 19.77911,29.771296 26.24831,29.159839 29.918644,27.843068 C 31.173112,25.526487 31.541302,22.467735 31.747681,19.806862 C 31.756781,19.549968 31.259161,19.401677 30.754775,19.394749 z"
           id="seg-3-7-5-22-7-8-3-4"
           sodipodi:nodetypes="csccssccssccccc"
           inkscape:connector-curvature="0" />
        <path
           style="fill:#000000;fill-opacity:1;display:inline"
           d="M 43.612735,9.4620121 C 41.268945,13.973692 33.739285,18.339642 26.444915,18.893962 C 19.183945,19.444592 10.96735,17.922152 4.5358328,10.262552 L 3.6281848,10.565352 C 17.228675,26.509282 39.868805,21.167392 44.768985,10.489652 L 43.612735,9.4620121 z"
           id="seg"
           sodipodi:nodetypes="cccccc"
           inkscape:connector-curvature="0" />
      </g>
      <g
         inkscape:groupmode="layer"
         id="layerLipsHappySmirk"
         inkscape:label="LipsHappySmirk"
         style="display:none">
        <path
           style="fill:#000000;fill-opacity:1;display:inline"
           d="M 9.6386895,6.6307688 C 10.444902,10.460668 15.126962,15.253656 20.421841,17.171403 C 25.692713,19.079515 32.100457,19.647662 38.452068,15.295886 L 39.102617,16.505508 C 25.723471,25.520022 10.037337,16.882188 8.6089705,7.951615 L 9.6386895,6.6307688 z"
           id="seg-3"
           sodipodi:nodetypes="cccccc"
           inkscape:connector-curvature="0" />
        <path
           style="fill:#000000;fill-opacity:1;display:inline"
           d="M 19.436618,17.713883 C 19.240752,17.720983 19.098214,17.806143 19.070149,17.925857 C 18.457638,20.539142 17.666838,22.974492 16.923685,24.157881 L 16.138393,25.302539 C 18.784271,28.145199 25.288906,28.317751 29.174237,27.422275 L 29.226587,27.422275 L 29.278937,27.464665 C 30.444456,25.557364 31.807139,22.696063 32.524811,19.452062 C 32.639986,18.931604 30.682881,18.626051 30.535404,19.197694 C 29.832528,21.922783 28.980706,24.45489 28.231882,26.065639 C 26.990531,26.309099 25.720962,26.436811 24.253069,26.362402 C 25.320992,24.481508 26.439243,21.924304 27.08012,19.028115 C 27.19528,18.507655 25.238023,18.244492 25.090715,18.816141 C 24.305162,21.85501 23.388582,24.722387 22.577781,26.235218 C 21.148066,26.034971 19.66158,25.442313 18.494263,24.709008 C 19.503663,23.20997 20.575041,21.005527 21.05955,18.434589 C 21.12169,18.10501 20.024211,17.692522 19.436614,17.713878 z"
           id="seg-3-7-5-22-7-8-2"
           sodipodi:nodetypes="cscccccssccssccsc"
           inkscape:connector-curvature="0" />
      </g>
      <g
         style="display:inline"
         inkscape:label="LipsNormalHappy"
         id="layerLipsNormalHappy"
         inkscape:groupmode="layer">
        <path
           inkscape:connector-curvature="0"
           style="fill:#000000;fill-opacity:1;display:inline"
           d="M 43.980775,9.8011521 C 43.980775,9.8011521 38.213265,11.671802 31.893025,11.318732 C 30.680525,11.410732 28.339665,11.761022 25.961985,11.731192 C 23.676735,11.702592 21.074535,11.487672 19.859165,11.489502 C 14.556355,11.496502 13.125664,10.863112 5.1203428,9.3414521 L 3.7797488,10.198762 C 11.525216,12.504262 19.258905,13.393472 26.187185,13.275642 C 33.844915,13.145432 40.518725,11.829662 45.137025,10.828792 L 43.980775,9.8011521 z"
           id="path3152"
           sodipodi:nodetypes="ccssccscc" />
        <path
           inkscape:connector-curvature="0"
           sodipodi:nodetypes="csccssccssccccsc"
           id="path3154"
           d="M 30.552539,12.437533 C 30.12566,12.431333 29.68515,12.551862 29.668026,12.803559 C 29.503489,15.21447 29.205625,17.500982 28.827738,18.952782 C 27.839615,19.284059 26.778329,19.523449 25.555038,19.611628 C 26.155273,17.894394 26.708029,15.600353 26.793357,13.059776 C 26.808697,12.603445 25.102945,12.519792 25.068555,13.023176 C 24.885465,15.705571 24.538176,18.263464 24.095591,19.648232 C 22.874789,19.618172 21.547999,19.236101 20.469085,18.733169 C 21.077057,17.348879 21.657874,15.407545 21.663179,13.169586 C 21.664113,12.785792 19.957766,12.492855 19.938377,12.913368 C 19.832646,15.209657 19.535516,17.389947 19.098089,18.476951 L 18.611607,19.50182 C 21.263932,21.653651 26.738759,21.147166 29.844928,19.977653 L 29.933378,20.014253 C 30.610674,18.264547 31.297297,15.647813 31.392825,12.803557 C 31.400425,12.575385 30.979416,12.443685 30.552537,12.437531 z"
           style="fill:#000000;fill-opacity:1;display:inline" />
      </g>
      <g
         inkscape:groupmode="layer"
         id="layerLipsNormal"
         inkscape:label="LipsNormal"
         style="display:none">
        <path
           sodipodi:nodetypes="ccssccscc"
           id="path2860"
           d="M 43.980775,11.063843 C 43.980775,11.063843 38.213265,11.671802 31.893025,11.318732 C 30.680525,11.410732 28.339665,11.761022 25.961985,11.731192 C 23.676735,11.702592 21.074535,11.487672 19.859165,11.489502 C 14.556355,11.496502 12.873126,11.368188 5.1203428,10.477874 L 3.7797488,11.335184 C 11.777754,12.883069 19.258905,13.393472 26.187185,13.275642 C 33.844915,13.145432 39.88738,12.966084 45.137025,12.091483 z"
           style="fill:#000000;fill-opacity:1;display:inline"
           inkscape:connector-curvature="0" />
        <path
           style="fill:#000000;fill-opacity:1;display:inline"
           d="M 30.552539,12.437533 C 30.12566,12.431333 29.68515,12.551862 29.668026,12.803559 C 29.503489,15.21447 29.205625,17.500982 28.827738,18.952782 C 27.839615,19.284059 26.778329,19.523449 25.555038,19.611628 C 26.155273,17.894394 26.708029,15.600353 26.793357,13.059776 C 26.808697,12.603445 25.102945,12.519792 25.068555,13.023176 C 24.885465,15.705571 24.538176,18.263464 24.095591,19.648232 C 22.874789,19.618172 21.547999,19.236101 20.469085,18.733169 C 21.077057,17.348879 21.657874,15.407545 21.663179,13.169586 C 21.664113,12.785792 19.957766,12.492855 19.938377,12.913368 C 19.832646,15.209657 19.535516,17.389947 19.098089,18.476951 L 18.611607,19.50182 C 21.263932,21.653651 26.738759,21.147166 29.844928,19.977653 L 29.933378,20.014253 C 30.610674,18.264547 31.297297,15.647813 31.392825,12.803557 C 31.400425,12.575385 30.979416,12.443685 30.552537,12.437531 z"
           id="seg-3-7-5-22-7-4"
           sodipodi:nodetypes="csccssccssccccsc"
           inkscape:connector-curvature="0" />
      </g>
      <g
         inkscape:groupmode="layer"
         id="layerLipsNormalSad"
         inkscape:label="LipsNormalSad"
         style="display:none">
        <path
           sodipodi:nodetypes="ccssccscc"
           id="path3158"
           d="M 43.980775,12.826202 C 43.980775,12.826202 38.213265,10.955552 31.893025,11.308622 C 30.680525,11.216622 28.339665,10.866332 25.961985,10.896162 C 23.676735,10.924762 21.074535,11.139682 19.859165,11.137852 C 14.556355,11.130852 13.125664,11.764242 5.1203428,13.285902 L 3.7797488,12.428592 C 11.525216,10.123092 19.258905,9.2338817 26.187185,9.3517117 C 33.844915,9.4819217 40.518725,10.797692 45.137025,11.798562 L 43.980775,12.826202 z"
           style="fill:#000000;fill-opacity:1;display:inline"
           inkscape:connector-curvature="0" />
        <path
           style="fill:#000000;fill-opacity:1;display:inline"
           d="M 30.173732,10.417228 C 29.746853,10.411028 29.306343,10.531557 29.289219,10.783254 C 29.124682,13.194165 28.826818,15.480677 28.448931,16.932477 C 27.460808,17.263754 26.399522,17.503144 25.176231,17.591323 C 25.776466,15.874089 26.329222,13.580048 26.41455,11.039471 C 26.42989,10.58314 24.724138,10.499487 24.689748,11.002871 C 24.506658,13.685266 24.159369,16.243159 23.716784,17.627927 C 22.495982,17.597867 21.169192,17.215796 20.090278,16.712864 C 20.69825,15.328574 21.279067,13.38724 21.284372,11.149281 C 21.285306,10.765487 19.578959,10.47255 19.55957,10.893063 C 19.453839,13.189352 19.156709,15.369642 18.719282,16.456646 L 18.2328,17.481515 C 20.885125,19.633346 26.359952,19.126861 29.466121,17.957348 L 29.554571,17.993948 C 30.231867,16.244242 30.91849,13.627508 31.014018,10.783252 C 31.021618,10.55508 30.600609,10.42338 30.17373,10.417226 z"
           id="path3160"
           sodipodi:nodetypes="csccssccssccccsc"
           inkscape:connector-curvature="0" />
      </g>
      <g
         inkscape:groupmode="layer"
         id="layerLipsSadSilly"
         inkscape:label="LipsSadSilly"
         style="display:none">
        <path
           style="fill:url(#linearGradientLipsSadSilly-0);fill-opacity:1;display:inline"
           d="M 25.304428,8.8392858 C 29.094741,8.8722338 32.842934,9.7155288 36.754465,11.339286 C 35.798975,15.467 31.368402,18.781717 27.116286,19.616072 C 22.434337,20.53477 16.812389,17.345331 9.2946432,13.151786 C 13.098949,10.780855 17.792859,9.7374818 22.433475,8.9642858 C 23.39334,8.8721158 24.354539,8.8310288 25.304428,8.8392858 z"
           id="seg-0-8-3"
           sodipodi:nodetypes="ccsccc"
           inkscape:connector-curvature="0" />
        <path
           style="fill:#000000;fill-opacity:1;display:inline"
           d="M 22.963784,9.2645775 C 30.068434,8.5272175 36.773425,11.006837 44.748295,16.650498 L 45.628515,16.339848 C 39.509005,9.9606075 31.799454,7.3385675 24.710314,7.2680575 C 24.078354,7.2620575 23.451324,7.2750575 22.830794,7.3091575 C 22.142425,7.3462575 21.462045,7.4071575 20.791794,7.4908975 C 13.470929,8.4051775 7.3588015,12.031838 5.241,16.851538 L 6.439064,17.845318 C 10.160968,12.127239 16.629629,10.405247 22.963784,9.2645775 z"
           id="seg-0-8"
           sodipodi:nodetypes="cccsssccc"
           inkscape:connector-curvature="0" />
        <path
           style="fill:#ffffff;fill-opacity:1;display:inline"
           d="M 24.396703,9.0960169 C 24.58936,9.0868649 25.93391,9.1007359 26.126187,9.0960169 C 25.903922,12.284202 25.0184,15.265887 24.497871,16.919643 C 23.034436,16.882964 20.766874,16.484134 19.473214,15.874245 C 20.153934,14.305652 20.76663,12.09676 20.855838,9.6018549 C 21.554049,9.4590329 22.281858,9.3229719 22.980357,9.1971839 C 23.459531,9.1474529 23.920459,9.1186399 24.396703,9.0960169 z M 26.579032,9.1923669 C 27.693875,9.2590279 29.317073,9.3177869 30.433035,9.5344089 C 30.227085,12.121528 29.89613,14.492873 29.488805,16.07658 C 28.303606,16.478711 26.658749,16.778788 25.191591,16.88592 C 25.898362,14.839606 26.458307,12.208765 26.579032,9.1923669 z"
           id="seg-0-8-21"
           sodipodi:nodetypes="cccccccccccc"
           inkscape:connector-curvature="0" />
        <path
           style="fill:#000000;fill-opacity:1;display:inline"
           d="M 30.931634,8.3657965 C 30.457064,8.3587965 29.967373,8.4944315 29.948258,8.7776235 C 29.765331,11.490232 29.434175,14.021664 29.01405,15.655138 C 27.91575,16.027785 26.735145,16.297149 25.375559,16.396427 C 26.042891,14.4643 26.65742,11.88322 26.752286,9.0247195 C 26.769366,8.5112995 24.872937,8.4583355 24.834703,9.0247195 C 24.63149,12.038123 24.243936,14.877841 23.75299,16.43761 C 22.396854,16.40362 20.919958,16.014397 19.721149,15.449225 C 20.397064,13.891705 21.042809,11.666284 21.048706,9.1482685 C 21.049706,8.7164495 19.15268,8.4280255 19.131124,8.9011715 C 19.01263,11.50528 18.689913,13.948015 18.196916,15.160946 L 17.65606,16.314062 C 20.615989,18.744317 26.747659,18.175969 30.194101,16.849437 C 31.309369,14.317688 31.667148,11.49841 31.86584,8.7776235 C 31.87434,8.5209065 31.406202,8.3727215 30.931633,8.3657965 z"
           id="seg-3-7-5-22-7-9"
           sodipodi:nodetypes="csccssccssccccc"
           inkscape:connector-curvature="0" />
        <path
           style="fill:#000000;fill-opacity:1;display:inline"
           d="M 27.208093,19.18427 C 22.74432,20.130955 17.473037,17.49177 10.187577,13.0631 C 9.9387301,13.293875 9.7931821,13.532971 9.6030831,13.734054 C 16.227146,18.616156 22.16927,21.118722 26.873053,21.18079 C 27.347273,21.187047 27.808653,21.17379 28.254938,21.13969 C 28.750365,21.10259 29.228299,21.04169 29.68761,20.95795 C 34.704645,20.04367 38.518371,15.702723 37.762117,10.883023 L 36.386949,9.8892448 C 36.467927,15.040653 31.671866,18.237586 27.208093,19.18427 z"
           id="seg-0-8-2"
           sodipodi:nodetypes="cccsssccz"
           inkscape:connector-curvature="0" />
      </g>
      <g
         inkscape:groupmode="layer"
         id="layerLipsSadSmirk"
         inkscape:label="LipsSadSmirk"
         style="display:none">
        <path
           style="fill:#000000;fill-opacity:1;display:inline"
           d="M 7.6274446,18.608208 C 8.4336576,14.778309 13.115718,9.9853205 18.410597,8.0675735 C 23.681468,6.1594615 30.089212,5.5913145 36.440823,9.9430905 L 37.091372,8.7334685 C 23.712226,-0.28104546 8.0260926,8.3567885 6.5977256,17.287362 L 7.6274446,18.608208 z"
           id="seg-3-8"
           sodipodi:nodetypes="cccccc"
           inkscape:connector-curvature="0" />
        <path
           style="fill:#000000;fill-opacity:1;display:inline"
           d="M 23.138746,6.2045945 C 22.691702,8.4257417 22.147695,10.461323 21.599962,11.686618 L 20.745082,13.178051 C 22.905337,15.880859 28.216117,16.08523 31.388338,15.23381 C 32.841545,12.939362 33.498384,10.22789 34.123954,7.6154094 C 34.217994,7.1205568 32.577346,6.8703457 32.456938,7.4138644 C 31.881954,10.009914 31.231268,12.413154 30.618946,13.943922 C 29.593687,14.178087 28.54401,14.302671 27.327658,14.226085 C 28.199575,12.437726 29.155325,9.5643903 29.678578,6.8106867 C 29.772598,6.3158329 28.174577,6.0253075 28.054306,6.5688328 C 27.416082,9.4503399 26.664094,12.611021 26.002594,14.064849 C 24.835384,13.873827 23.578319,13.310984 22.625818,12.613725 C 23.452463,11.188115 24.323288,9.1414242 24.720274,6.6883025 C 24.503667,5.7788658 23.460408,6.2662538 23.138746,6.2045945 z"
           id="seg-3-7-5-22-7-8-2-5"
           sodipodi:nodetypes="cccccsccsscccc"
           inkscape:connector-curvature="0" />
      </g>
      <g
         inkscape:groupmode="layer"
         id="layerLipsSad"
         inkscape:label="LipsSad"
         style="display:none">
        <path
           style="fill:#000000;fill-opacity:1;display:inline"
           d="M 6.617825,17.845674 C 8.765012,13.560904 16.005245,10.006734 23.142545,9.2649144 C 30.247195,8.5275544 36.952185,11.007174 44.927055,16.650834 L 45.807275,16.340184 C 39.687765,9.9609444 31.978215,7.3389044 24.889075,7.2683944 C 24.257115,7.2623944 23.630085,7.2753944 23.009555,7.3094944 C 22.321185,7.3465944 21.640805,7.4074944 20.970555,7.4912344 C 13.649689,8.4055144 7.537562,12.032174 5.419761,16.851874 L 6.617825,17.845654 z"
           id="seg-0"
           sodipodi:nodetypes="ccccssscc"
           inkscape:connector-curvature="0" />
        <path
           style="fill:#000000;fill-opacity:1;display:inline"
           d="M 31.110394,8.3661334 C 30.635825,8.3591334 30.146134,8.4947684 30.127018,8.7779604 C 29.944091,11.490568 29.612935,14.022 29.192811,15.655474 C 28.09451,16.028121 26.913906,16.297485 25.55432,16.396763 C 26.221652,14.464636 26.836181,11.883556 26.931047,9.0250564 C 26.948127,8.5116364 25.051698,8.4586724 25.013464,9.0250564 C 24.810251,12.038459 24.422697,14.878177 23.931751,16.437946 C 22.575615,16.403956 21.098719,16.014733 19.89991,15.449561 C 20.575825,13.892041 21.22157,11.66662 21.227467,9.1486054 C 21.228467,8.7167864 19.331441,8.4283624 19.309885,8.9015084 C 19.191391,11.505616 18.868674,13.948351 18.375677,15.161282 L 17.834821,16.314398 C 20.79475,18.744653 26.92642,18.176305 30.372862,16.849773 C 31.48813,14.318024 31.845909,11.498746 32.044601,8.7779604 C 32.053101,8.5212434 31.584963,8.3730584 31.110394,8.3661334 z"
           id="seg-3-7-5-22-7"
           sodipodi:nodetypes="csccssccssccccc"
           inkscape:connector-curvature="0" />
      </g>
      <g
         inkscape:groupmode="layer"
         id="layerLipsSadAlt1"
         inkscape:label="LipsSadAlt1"
         style="display:none">
        <path
           style="fill:#000000;fill-opacity:1;display:inline"
           d="M 5.8423299,18.481331 C 7.9895169,12.15081 15.22975,5.7632919 22.36705,4.6672924 C 29.4717,3.5778822 36.17669,8.3778106 44.15156,16.716018 L 45.03178,16.257049 C 38.91227,6.8320616 31.20272,2.9581368 24.11358,2.853962 C 23.48162,2.845102 22.85459,2.864304 22.23406,2.914685 C 21.54569,2.969498 20.86531,3.0594748 20.19506,3.1831962 C 12.874194,4.5339962 6.7620669,9.8921926 4.6442659,17.013044 L 5.8423299,18.481301 L 5.8423299,18.481331 z"
           id="seg-0-1"
           sodipodi:nodetypes="ccccsssccc"
           inkscape:connector-curvature="0" />
        <path
           style="fill:#000000;fill-opacity:1;display:inline"
           d="M 29.919733,4.1786372 C 29.468501,4.1715772 29.049643,3.9525159 29.031467,4.2409621 C 28.857669,7.0017826 28.542212,9.5820326 28.1432,11.246075 C 27.087646,11.632048 25.991248,11.898831 24.683636,12.001117 C 25.318151,10.033143 25.90246,7.4041766 25.99266,4.4926427 C 26.00889,3.9696973 24.20573,3.9157504 24.169376,4.4926427 C 23.976417,7.5578356 23.606732,10.452838 23.140857,12.043063 C 21.851412,12.008443 20.447143,11.611998 19.307286,11.036341 C 19.949963,9.4499236 20.517202,7.1832156 20.522809,4.6184831 C 20.523781,4.1786526 18.720021,3.8848775 18.699525,4.3668024 C 18.599595,6.7192956 18.37945,8.8987526 17.998262,10.239352 L 17.34375,11.917223 C 20.158122,14.392566 25.941511,13.813674 29.21847,12.462531 C 30.337568,9.9748276 30.627703,7.4345062 30.808,4.6873907 C 30.8161,4.4259112 30.370965,4.1856909 29.919733,4.1786372 z"
           id="seg-3-7-5-22-7-1"
           sodipodi:nodetypes="csccssccssccccc"
           inkscape:connector-curvature="0" />
      </g>
      <g
         inkscape:groupmode="layer"
         id="layerLipsSadOpen"
         inkscape:label="LipsSadOpen"
         style="display:none">
        <path
           style="fill:#000000;fill-opacity:1;display:inline"
           d="M 44.036618,14.197222 C 41.692828,18.708902 34.163168,23.074852 26.868798,23.629172 C 19.607828,24.179802 11.569804,23.148433 5.1382875,15.488833 L 4.2306395,15.791633 C 17.831129,31.735563 40.292688,25.902602 45.192868,15.224862 L 44.036618,14.197222 z"
           id="seg-89"
           sodipodi:nodetypes="cccccc"
           inkscape:connector-curvature="0" />
        <path
           style="fill:#000000;fill-opacity:1;display:inline"
           d="M 5.3967109,16.854061 C 7.5841762,12.211286 14.960226,8.360154 22.231412,7.5563526 C 29.469336,6.7573838 36.300102,9.4441839 44.42457,15.559389 L 45.321301,15.222783 C 39.086998,8.3105381 31.232827,5.4694184 24.010705,5.3930171 C 23.36689,5.3865171 22.728098,5.4006071 22.095927,5.4375511 C 21.394645,5.4777511 20.701502,5.5437393 20.018679,5.6344762 C 12.560483,6.6251469 6.3337009,10.554826 4.1761729,15.777226 L 5.3967109,16.85404 z"
           id="seg-0-2"
           sodipodi:nodetypes="ccccssscc"
           inkscape:connector-curvature="0" />
        <path
           style="fill:#000000;fill-opacity:1;display:inline"
           d="M 30.914202,6.7411253 C 30.451645,6.7338953 29.944958,6.8821035 29.926322,7.178086 C 29.747782,10.017075 29.44284,12.701035 29.032526,14.4078 C 27.967532,14.795 26.820917,15.057813 25.504383,15.162551 C 26.153549,13.144117 26.729245,10.438674 26.821556,7.456152 C 26.838196,6.9195403 25.024195,6.8641868 24.986922,7.456152 C 24.789302,10.598521 24.428913,13.569438 23.952,15.202274 C 22.622288,15.175844 21.133978,14.803807 19.953439,14.209182 C 20.622208,12.578767 21.264754,10.281058 21.270612,7.6150468 C 21.271608,7.1637246 19.409951,6.8027407 19.388936,7.2972572 C 19.274135,10.002458 18.970619,12.57577 18.495141,13.851668 L 17.977679,15.043379 C 20.852076,17.574049 26.748717,16.975074 30.114489,15.599511 C 31.318539,12.963866 31.573637,10.013209 31.807997,7.178086 C 31.816297,6.9097733 31.376758,6.7483637 30.914202,6.7411253 z"
           id="seg-3-7-5-22-7-7"
           sodipodi:nodetypes="csccssccssccccc"
           inkscape:connector-curvature="0" />
        <path
           style="fill:url(#linearGradientLipsSadOpen-0);fill-opacity:1;display:inline"
           d="M 20.129465,7.6651783 C 20.037765,9.5415043 19.671114,13.231049 19.388394,14.129464 L 19.044644,15.066964 C 20.95411,17.057801 27.639113,16.229454 29.875,15.147324 C 30.545329,13.409663 31.2942,9.359618 31.441965,7.473217 C 35.84894,8.479473 39.178941,11.449181 44.125001,15.066967 C 41.384455,19.303179 33.819345,22.784388 26.928572,23.308038 C 19.897067,23.841264 11.891255,23.213147 5.5669648,16.196428 C 8.0405718,11.99812 13.432458,8.5710533 20.129465,7.6651783 z"
           id="seg-89-2"
           sodipodi:nodetypes="ccccccscc"
           inkscape:connector-curvature="0" />
      </g>
      <g
         inkscape:groupmode="layer"
         id="layerLipsSadOpenAlt1"
         inkscape:label="LipsSadOpenAlt1"
         style="display:none">
        <path
           sodipodi:nodetypes="ccssccscc"
           id="path2860-3"
           d="M 43.713747,13.83226 C 43.713747,13.83226 38.124808,9.9973238 31.804568,10.350394 C 30.592068,10.258394 28.251208,9.9081038 25.873528,9.9379338 C 23.588278,9.9665338 20.986078,10.181454 19.770708,10.179624 C 14.467898,10.172624 13.215778,11.163157 5.1211717,13.934817 L 3.8698634,12.631078 C 11.615331,9.3434352 19.259734,7.8292246 26.188014,7.9470546 C 33.845744,8.0772646 41.055268,9.7501784 44.959283,12.358191 z"
           style="fill:#000000;fill-opacity:1;display:inline"
           inkscape:connector-curvature="0" />
        <path
           style="fill:#000000;fill-opacity:1;display:inline"
           d="M 30.594795,9.4688061 C 30.200718,9.4620161 29.794057,9.5950546 29.778249,9.8729928 C 29.627227,12.520005 29.389256,15.017946 29.043358,16.622911 C 28.12024,16.995592 27.125042,17.29225 25.981312,17.390866 C 26.53832,15.49224 27.045345,12.933733 27.124476,10.115505 C 27.138636,9.6115965 25.563959,9.5596407 25.532212,10.115505 C 25.363407,13.07376 25.082636,15.900725 24.674839,17.431285 C 23.543469,17.406745 22.291461,17.018462 21.286175,16.461237 C 21.853587,14.930832 22.383569,12.731339 22.388511,10.236761 C 22.389373,9.8129525 20.814146,9.5298933 20.796247,9.9942488 C 20.698717,12.528 20.423806,14.896197 20.020529,16.097469 C 20.008889,16.132149 19.991589,16.186089 19.979699,16.218725 L 19.571429,17.26961 C 22.029205,19.654778 27.120622,19.096961 29.982385,17.795053 L 30.023215,17.795053 C 30.648467,15.862924 31.282329,13.01379 31.370516,9.8729928 C 31.377616,9.6210325 30.988873,9.4756012 30.594797,9.4688061 z"
           id="seg-3-7-5-22-7-4-1"
           inkscape:connector-curvature="0" />
        <path
           style="fill:#000000;fill-opacity:1;display:inline"
           d="M 42.483111,12.87661 C 40.817465,18.655139 39.173772,20.728955 34.369494,23.193747 C 32.729011,24.035382 30.445595,23.491455 26.950714,23.836766 C 23.455833,24.182076 23.694963,26.389131 22.248559,26.282646 C 16.701293,25.87425 12.551658,23.321743 7.6883759,12.883289 L 5.7649019,13.085431 C 11.358661,24.903827 17.135532,27.618956 24.022142,28.101746 C 25.186316,28.183356 25.664992,25.905287 27.846226,25.689973 C 30.152545,25.462311 33.502628,25.900285 35.079035,25.116567 C 40.544064,22.399603 42.055471,20.017454 43.852495,12.960213 L 42.483111,12.87661 z"
           id="seg-5-1-4"
           sodipodi:nodetypes="cszsccszscc"
           inkscape:connector-curvature="0" />
        <path
           style="fill:url(#linearGradientLipsSadOpenAlt1-0);fill-opacity:1;display:inline"
           d="M 21.35444,9.8392862 L 20.102408,16.964286 C 22.627295,19.349453 26.781472,18.797443 29.721376,17.495536 C 30.64829,15.204895 30.673104,12.53238 30.866064,10.026786 C 34.782664,9.8641355 39.269384,11.498905 43.080354,12.375 C 41.38179,18.060598 39.495144,20.459667 34.605083,22.901786 C 32.919806,23.743421 30.55481,23.181475 26.964499,23.526786 C 23.374189,23.872096 23.634904,26.102021 22.149005,25.995536 C 16.502884,25.59091 11.53423,23.005057 6.5758931,12.785715 C 13.17092,11.521679 14.613134,9.8641122 19.612849,9.8705362 C 19.850631,9.8708852 21.025401,9.8518762 21.35444,9.8392862 z"
           id="path2860-3-3"
           sodipodi:nodetypes="cccccssscsc"
           inkscape:connector-curvature="0" />
      </g>
      <g
         inkscape:groupmode="layer"
         id="layerLipsSadShock"
         inkscape:label="LipsSadShock"
         style="display:none">
        <path
           style="fill:#000000;fill-opacity:1;display:inline"
           d="M 41.775036,14.123001 C 39.756755,20.087525 33.272823,25.859391 26.991504,26.592212 C 20.738947,27.320155 13.817253,25.956666 8.2789548,15.830535 L 7.4973618,16.230841 C 19.208998,37.30901 38.551068,29.597728 42.770705,15.48156 L 41.775036,14.123001 z"
           id="seg-89-4"
           sodipodi:nodetypes="cccccc"
           inkscape:connector-curvature="0" />
        <path
           style="fill:#000000;fill-opacity:1;display:inline"
           d="M 8.5014878,17.63539 C 10.385155,11.497557 16.736809,6.4062894 22.998164,5.3436498 C 29.230876,4.2873981 35.112977,7.8393968 42.109109,15.92381 L 42.881301,15.478812 C 37.512826,6.3406962 30.749451,2.5846842 24.530347,2.4836802 C 23.975945,2.4750872 23.42587,2.4937144 22.881495,2.542555 C 22.277608,2.5957001 21.68073,2.6829378 21.092738,2.8028937 C 14.670345,4.1125783 9.3083463,9.3076859 7.4504598,16.211795 L 8.5014878,17.635363 z"
           id="seg-0-2-3"
           sodipodi:nodetypes="ccccssscc"
           inkscape:connector-curvature="0" />
        <path
           style="fill:#000000;fill-opacity:1;display:inline"
           d="M 32.101932,4.8909033 C 31.57521,4.8813833 30.998237,5.0772802 30.977016,5.4685739 C 30.77371,9.2217692 30.426468,12.770014 29.959237,15.026389 C 28.746513,15.538274 27.440843,15.885718 25.941686,16.024183 C 26.680901,13.355776 27.068598,9.2434164 27.173713,5.3004679 C 27.192663,4.5910569 25.12703,4.5178793 25.084587,5.3004679 C 24.859554,9.4547371 24.717031,13.918059 24.173963,16.076698 C 22.659799,16.041758 20.965036,15.549918 19.620738,14.763813 C 20.382276,12.608374 21.113954,9.5707596 21.120624,6.0462444 C 21.121724,5.4495883 19.001859,4.9723609 18.97793,5.6261201 C 18.847201,9.2024452 18.501586,12.604412 17.960151,14.291173 L 17.370909,15.866636 C 20.64403,19.212228 27.358628,18.420373 31.191286,16.601853 C 32.562357,13.117481 32.85284,9.2166582 33.11971,5.4685739 C 33.12911,5.1138592 32.628651,4.9004734 32.101932,4.8909033 z"
           id="seg-3-7-5-22-7-7-1"
           sodipodi:nodetypes="csccssccssccccc"
           inkscape:connector-curvature="0" />
        <path
           style="fill:url(#linearGradientLipsSadShock-0);fill-opacity:1;display:inline"
           d="M 19.223852,6.1125184 C 19.144882,8.5930555 18.829157,13.470702 18.585702,14.658424 L 18.289692,15.897815 C 19.933969,18.529738 29.351266,17.881078 31.27663,16.450482 C 31.853863,14.153262 32.49873,8.7990275 32.625973,6.305171 C 36.420902,7.6354599 37.591999,10.49004 41.851145,15.27282 C 39.491209,20.87317 32.976751,25.475392 27.042977,26.167667 C 20.988016,26.872602 14.094061,26.04222 8.6480968,16.765988 C 10.778165,11.215747 13.456933,7.3101018 19.223852,6.1125184 z"
           id="seg-89-2-2"
           sodipodi:nodetypes="ccccccscc"
           inkscape:connector-curvature="0" />
      </g>
    </g>
    <g
       inkscape:groupmode="layer"
       id="layerTongue"
       inkscape:label="Tongue"
       style="display:inline">
      <g
         inkscape:groupmode="layer"
         id="layerTongueHappyRight"
         inkscape:label="TongueHappyRight"
         style="display:none">
        <path
           style="fill:#000000;fill-opacity:1;display:inline"
           d="M 6.4510587,12.915604 C 1.7343415,14.252086 1.1235357,17.767815 5.0276555,22.11208 C 9.6158758,25.484609 12.973812,26.785387 15.948803,18.556189 L 17.042994,18.979924 C 15.486422,26.003204 10.374273,26.481109 6.8070284,24.487115 C -0.81802449,20.545443 0.81082542,12.953219 5.7840023,11.7322 L 6.4510576,12.915605 z"
           id="seg-5-5-45-6-2-9"
           sodipodi:nodetypes="ccccccc"
           inkscape:connector-curvature="0" />
        <path
           style="fill:#000000;fill-opacity:1;display:inline"
           d="M 8.9487143,18.853185 C 10.050688,19.605627 7.9877692,20.055934 7.0858122,20.789809 C 6.3144199,21.62183 6.6895692,21.24131 5.8588236,22.928403 L 5.1846754,22.784852 C 6.1228087,19.974274 7.0309541,17.543718 8.2725234,18.391476 L 8.9487143,18.853185 z"
           id="seg-8-1-5-1-8-3"
           sodipodi:nodetypes="ccccss"
           inkscape:connector-curvature="0" />
        <path
           style="fill:#ef2588;fill-opacity:1;display:inline"
           d="M 5.9204792,12.739641 C 3.5265107,13.637594 2.0180813,14.953229 2.1302999,16.904237 C 2.2238689,18.531009 3.0348542,20.278353 4.7807906,22.165687 C 8.1426123,24.803394 9.9849107,25.174873 12.34344,24.332424 C 13.976321,23.749171 14.846767,21.899715 15.806136,19.058595 C 10.895129,16.85461 9.1824248,16.074122 5.9204792,12.739641 z"
           id="seg-5-5-45-6-1-0-4"
           sodipodi:nodetypes="cscscc"
           inkscape:connector-curvature="0" />
        <path
           style="fill:url(#linearGradientTongueHappyRight-0);fill-opacity:1;display:inline"
           d="M 5.9012059,12.643262 C 0.92462168,13.409441 0.72905778,17.756395 4.9249044,22.129643 C 9.8062145,25.649339 14.242033,26.069101 15.997387,18.658364 C 10.704375,16.752892 9.3990806,16.187026 5.9012059,12.643262 z"
           id="seg-5-5-45-6-1-4-6-4"
           sodipodi:nodetypes="cccc"
           inkscape:connector-curvature="0" />
        <path
           style="fill:#000000;fill-opacity:1;display:inline"
           d="M 8.4579076,18.81881 C 9.5598826,19.571251 7.4969635,20.021558 6.5950055,20.755433 C 5.8236133,21.587453 6.1987615,21.206934 5.3680159,22.894027 L 4.6938677,22.750476 C 5.632001,19.939898 6.5401454,17.509342 7.7817177,18.3571 L 8.4579076,18.81881 z"
           id="seg-8-1-5-1-5-6"
           sodipodi:nodetypes="ccccss"
           inkscape:connector-curvature="0" />
      </g>
      <g
         inkscape:groupmode="layer"
         id="layerTongueHappyLeft"
         inkscape:label="TongueHappyLeft"
         style="display:none">
        <path
           style="fill:#000000;fill-opacity:1;display:inline"
           d="M 42.071509,13.624004 C 46.73995,15.120422 47.23061,18.654922 43.180735,22.863639 C 38.480267,26.077876 35.079959,27.263484 32.387088,18.937698 L 31.279095,19.323905 C 32.59546,26.396143 37.688357,27.047957 41.321471,25.176667 C 49.076401,21.497091 47.707186,13.853776 42.7785,12.464016 L 42.07151,13.624005 z"
           id="seg-5-5-45-6-2"
           sodipodi:nodetypes="ccccccc"
           inkscape:connector-curvature="0" />
        <path
           style="fill:#000000;fill-opacity:1;display:inline"
           d="M 39.372993,19.473035 C 38.246021,20.187492 40.292399,20.707828 41.168827,21.472009 C 41.911422,22.32983 41.549456,21.936749 42.322235,23.651168 L 43.000883,23.530671 C 42.159059,20.68976 41.334257,18.229672 40.064523,19.034634 L 39.372993,19.473035 z"
           id="seg-8-1-5-1-8"
           sodipodi:nodetypes="ccccss"
           inkscape:connector-curvature="0" />
        <path
           style="fill:#ef2588;fill-opacity:1;display:inline"
           d="M 42.607776,13.466221 C 44.969759,14.445222 46.432485,15.81149 46.253855,17.757542 C 46.104912,19.380181 45.23486,21.098878 43.42563,22.925627 C 39.975886,25.447255 38.122,25.755746 35.793545,24.833424 C 34.181485,24.194873 33.374561,22.316832 32.512554,19.444673 C 37.495806,17.4093 39.234109,16.687622 42.607776,13.466221 z"
           id="seg-5-5-45-6-1-0"
           sodipodi:nodetypes="cscscc"
           inkscape:connector-curvature="0" />
        <path
           style="fill:url(#linearGradientTongueHappyLeft-0);fill-opacity:1;display:inline"
           d="M 42.630322,13.370555 C 47.577911,14.305856 47.625248,19.192663 43.282828,23.420407 C 38.284426,26.771739 33.836881,26.504402 32.335051,19.038158 C 37.689915,17.314141 39.013732,16.793079 42.630322,13.370555 z"
           id="seg-5-5-45-6-1-4-6"
           sodipodi:nodetypes="cccc"
           inkscape:connector-curvature="0" />
        <path
           style="fill:#000000;fill-opacity:1;display:inline"
           d="M 39.864686,19.455403 C 38.737713,20.16986 40.784091,20.690195 41.66052,21.454376 C 42.403115,22.312196 42.04115,21.919116 42.813929,23.633535 L 43.492577,23.513038 C 42.650753,20.672127 41.825952,18.212039 40.556215,19.017001 L 39.864686,19.455403 z"
           id="seg-8-1-5-1-5"
           sodipodi:nodetypes="ccccss"
           inkscape:connector-curvature="0" />
      </g>
      <g
         inkscape:groupmode="layer"
         id="layerTongueHappyCenter"
         inkscape:label="TongueHappyCenter"
         style="display:none">
        <path
           style="fill:#000000;fill-opacity:1;display:inline"
           d="M 37.454851,17.282834 C 41.583802,19.925817 41.152157,23.468005 36.158845,26.498123 C 32.949827,27.635364 31.495157,27.996893 29.665225,27.106488 C 29.33447,27.349147 29.095951,27.493022 28.733424,27.838775 C 30.353662,29.109078 31.77347,28.696072 33.768843,28.257346 C 42.207824,26.688323 42.843378,18.94939 38.435537,16.3428 L 37.454851,17.282834 z"
           id="seg-5-5-45-6"
           sodipodi:nodetypes="ccccccc"
           inkscape:connector-curvature="0" />
        <path
           style="fill:#ef2588;fill-opacity:1;display:inline"
           d="M 37.888196,17.227809 C 39.920353,18.779497 40.984035,20.475033 40.312586,22.310293 C 39.752725,23.840554 38.471223,25.278839 36.254222,26.58085 C 33.523405,27.955481 32.196877,27.847572 29.939769,27.574005 C 30.753084,26.635393 30.846727,22.83588 30.928239,19.972653 C 34.704209,18.657512 33.801558,19.476907 37.888196,17.227809 z"
           id="seg-5-5-45-6-1"
           sodipodi:nodetypes="cscccc"
           inkscape:connector-curvature="0" />
        <path
           style="fill:#000000;fill-opacity:1;display:inline"
           d="M 33.347331,22.244832 C 32.074884,22.646572 33.919539,23.674026 34.570826,24.637315 C 35.06875,25.656812 34.819625,25.184088 35.127173,27.039306 L 35.814036,27.096776 C 35.728476,24.134999 35.561763,21.545688 34.128125,21.998319 L 33.347331,22.244832 z"
           id="seg-8-1-5-1"
           sodipodi:nodetypes="ccccss"
           inkscape:connector-curvature="0" />
        <path
           style="fill:url(#linearGradientTongueHappyCenter-0);fill-opacity:1;display:inline"
           d="M 37.856096,17.007385 C 42.39869,19.179542 41.106018,23.977779 35.825055,26.951307 C 33.005498,27.921611 29.90493,28.308566 28.946671,27.302056 C 27.970982,26.277237 31.248882,23.563452 30.534939,19.980848 C 32.922656,19.11421 33.4831,19.10452 37.856096,17.007385 z"
           id="seg-5-5-45-6-1-4"
           sodipodi:nodetypes="ccscc"
           inkscape:connector-curvature="0" />
      </g>
      <g
         inkscape:groupmode="layer"
         id="layerTongueNormal"
         inkscape:label="TongueNormal"
         style="display:inline" />
      <g
         inkscape:groupmode="layer"
         id="layerTongueSadRight"
         inkscape:label="TongueSadRight"
         style="display:none">
        <path
           style="fill:#000000;fill-opacity:1;display:inline"
           d="M 16.77876,10.416178 C 17.521545,10.65427 19.020571,10.78061 18.972477,11.406012 C 18.811525,13.49903 19.506625,15.62871 19.655542,17.492196 C 19.392267,18.385483 18.609743,18.905749 17.887988,19.655812 C 13.18752,22.870049 9.7872118,24.055657 7.0943408,15.729871 L 5.9863478,16.116078 C 7.3027128,23.188316 12.39561,23.84013 16.028724,21.96884 C 18.376667,20.854783 20.010987,19.417994 20.844079,17.504521 C 19.258295,15.708947 19.365438,14.138628 20.569709,11.946934 C 20.288355,11.158502 19.767905,10.454524 19.029296,9.9634535 C 18.566927,9.6560445 18.049634,9.4151885 17.48575,9.2561885 L 16.77876,10.416178 z"
           id="seg-5-5-45-6-2-0"
           sodipodi:nodetypes="cscccccccscc"
           inkscape:connector-curvature="0" />
        <path
           style="fill:#000000;fill-opacity:1;display:inline"
           d="M 14.080246,16.265208 C 12.953274,16.979665 14.999652,17.500001 15.87608,18.264182 C 16.618675,19.122003 16.256709,18.728922 17.029488,20.443341 L 17.708136,20.322844 C 16.866312,17.481933 16.04151,15.021845 14.771776,15.826807 L 14.080246,16.265208 z"
           id="seg-8-1-5-1-8-7"
           sodipodi:nodetypes="ccccss"
           inkscape:connector-curvature="0" />
        <path
           style="fill:#ef2588;fill-opacity:1;display:inline"
           d="M 17.157193,10.289961 C 17.833415,10.570243 18.991129,10.657942 19.237007,11.234158 C 19.299537,12.828693 18.511841,15.267214 17.835949,16.22278 C 18.502287,16.759792 18.897701,16.831169 19.939623,17.345841 C 19.541412,18.377992 18.669443,19.048248 17.975047,19.749367 C 14.525303,22.270995 12.671417,22.579486 10.342962,21.657164 C 8.7309014,21.018613 8.1025488,19.497715 7.2405418,16.625556 C 10.705937,12.000897 13.69424,11.993505 17.157193,10.289961 z"
           id="seg-5-5-45-6-1-0-1"
           sodipodi:nodetypes="cccccscc"
           inkscape:connector-curvature="0" />
        <path
           style="fill:url(#linearGradientTongueSadRight-0);fill-opacity:1;display:inline"
           d="M 15.478977,10.136576 C 16.851448,9.8366978 17.772642,9.7567545 18.403299,9.9452925 C 19.988279,10.41913 19.738142,12.588772 20.204511,17.224853 C 20.302188,18.19584 20.261983,18.156429 16.930814,20.639203 C 13.599645,23.121977 8.041901,23.690701 6.7591276,16.224457 C 10.799095,11.732583 11.779801,10.969814 15.478977,10.136576 z"
           id="seg-5-5-45-6-1-4-6-7"
           sodipodi:nodetypes="csszcc"
           inkscape:connector-curvature="0" />
        <path
           style="fill:#000000;fill-opacity:1;display:inline"
           d="M 14.571939,16.247576 C 13.444966,16.962033 15.491344,17.482368 16.367773,18.246549 C 17.110368,19.104369 16.748403,18.711289 17.521182,20.425708 L 18.19983,20.305211 C 17.358006,17.4643 16.533205,15.004212 15.263468,15.809174 L 14.571939,16.247576 z"
           id="seg-8-1-5-1-5-7"
           sodipodi:nodetypes="ccccss"
           inkscape:connector-curvature="0" />
      </g>
      <g
         inkscape:groupmode="layer"
         id="layerTongueSadLeft"
         inkscape:label="TongueSadLeft"
         style="display:none">
        <path
           style="fill:#000000;fill-opacity:1;display:inline"
           d="M 35.658707,11.041015 C 31.731216,12.091655 31.222615,14.855452 34.473475,18.27058 C 38.293969,20.921805 41.090036,21.944377 43.567234,15.475211 L 44.478339,15.808319 C 43.182222,21.329484 38.925466,21.705177 35.955113,20.137651 C 29.605927,17.03901 30.962228,11.070585 35.103266,10.110713 L 35.658706,11.041015 z"
           id="seg-5-5-45-6-2-9-0"
           sodipodi:nodetypes="ccccccc"
           inkscape:connector-curvature="0" />
        <path
           style="fill:#000000;fill-opacity:1;display:inline"
           d="M 37.73844,15.708687 C 38.656025,16.300199 36.938286,16.654196 36.187249,17.231112 C 35.544931,17.885183 35.857308,17.586048 35.165568,18.912311 L 34.604221,18.799462 C 35.385381,16.590001 36.141571,14.679284 37.175393,15.345726 L 37.73844,15.708687 z"
           id="seg-8-1-5-1-8-3-0"
           sodipodi:nodetypes="ccccss"
           inkscape:connector-curvature="0" />
        <path
           style="fill:#ef2588;fill-opacity:1;display:inline"
           d="M 35.216906,10.902686 C 33.223511,11.608588 31.96748,12.64284 32.060921,14.176573 C 32.138831,15.455416 32.81412,16.829045 34.267917,18.312722 C 37.06722,20.386286 38.601255,20.678314 40.565141,20.016045 C 41.924799,19.557536 42.738883,18.014349 43.537725,15.780878 C 39.984169,12.530417 38.558045,12.809714 35.216906,10.902686 z"
           id="seg-5-5-45-6-1-0-4-1"
           sodipodi:nodetypes="cscscc"
           inkscape:connector-curvature="0" />
        <path
           style="fill:url(#linearGradientTongueSadLeft-0);fill-opacity:1;display:inline"
           d="M 35.468715,10.82692 C 31.324841,11.429232 30.909462,15.35155 34.403236,18.789463 C 38.467778,21.556379 42.413908,21.381288 43.875546,15.555533 C 39.914619,12.807597 39.274163,12.362756 35.468715,10.82692 z"
           id="seg-5-5-45-6-1-4-6-4-4"
           sodipodi:nodetypes="cccc"
           inkscape:connector-curvature="0" />
        <path
           style="fill:#000000;fill-opacity:1;display:inline"
           d="M 37.329759,15.681664 C 38.247345,16.273175 36.529604,16.627172 35.778567,17.204088 C 35.136249,17.858159 35.448625,17.559024 34.756885,18.885287 L 34.195539,18.772439 C 34.976698,16.562977 35.732887,14.65226 36.766713,15.318703 L 37.329759,15.681664 z"
           id="seg-8-1-5-1-5-6-6"
           sodipodi:nodetypes="ccccss"
           inkscape:connector-curvature="0" />
      </g>
      <g
         inkscape:groupmode="layer"
         id="layerTongueSadCenter"
         inkscape:label="TongueSadCenter"
         style="display:none">
        <path
           style="fill:#000000;fill-opacity:1;display:inline"
           d="M 19.482549,10.143533 C 16.171367,13.855923 17.548235,17.211685 23.23325,18.826829 C 28.978304,19.234468 32.552243,18.528691 30.650771,9.8342745 L 31.815278,9.6041875 C 34.278178,16.490679 30.165084,19.679474 26.037705,19.902748 C 17.388498,20.655687 14.680064,13.240573 18.272909,9.4881405 L 19.48255,10.143533 z"
           id="seg-5-5-45-6-7"
           sodipodi:nodetypes="ccccccc"
           inkscape:connector-curvature="0" />
        <path
           style="fill:#ef2588;fill-opacity:1;display:inline"
           d="M 19.276904,10.194973 C 17.742474,12.316334 17.084268,14.045089 18.213868,15.699803 C 19.155741,17.079521 20.76423,18.16647 23.232371,18.856786 C 27.456058,19.309073 29.468585,18.968829 30.734839,16.558878 C 31.560095,14.98824 31.368114,12.668808 30.666299,9.6348825 C 22.514308,8.1042505 20.036451,9.7981775 19.276904,10.194973 z"
           id="seg-5-5-45-6-1-7"
           sodipodi:nodetypes="cscscc"
           inkscape:connector-curvature="0" />
        <path
           style="fill:#000000;fill-opacity:1;display:inline"
           d="M 24.912851,13.818158 C 26.246363,13.865738 24.74282,15.348224 24.37224,16.450391 C 24.164466,17.565797 24.2784,17.043732 24.477119,18.913739 L 23.830508,19.152435 C 23.122522,16.27525 22.59215,13.735362 24.094587,13.788965 L 24.912851,13.818155 z"
           id="seg-8-1-5-1-3"
           sodipodi:nodetypes="ccccss"
           inkscape:connector-curvature="0" />
        <path
           style="fill:url(#linearGradientTongueSadCenter-0);fill-opacity:1;display:inline"
           d="M 19.364374,9.6933575 C 15.471995,13.231467 17.681851,17.276655 23.710844,18.835323 C 29.866538,19.229802 33.939511,17.073933 31.404117,9.3647995 C 25.685978,7.8091725 22.816766,7.9540155 19.364374,9.6933575 z"
           id="seg-5-5-45-6-1-4-3"
           sodipodi:nodetypes="cccc"
           inkscape:connector-curvature="0" />
      </g>
    </g>
    <g
       inkscape:groupmode="layer"
       id="layerTeeth"
       inkscape:label="Teeth"
       style="display:inline">
      <g
         inkscape:groupmode="layer"
         id="layerTeethHappyOpenAlt1"
         inkscape:label="TeethHappyOpenAlt1"
         style="display:none">
        <path
           style="fill:#ffffff;fill-opacity:1;stroke:#000000;stroke-width:0.1;stroke-miterlimit:4;stroke-opacity:1;stroke-dasharray:none;display:inline"
           d="M 6.8198829,10.182098 C 11.120652,13.974961 17.041303,16.58315 21.892535,17.343424 C 26.259563,17.944943 26.171281,17.881649 29.449959,17.437174 C 34.324352,16.78923 39.592372,14.147136 42.677592,11.492059 C 39.839286,18.240587 33.33998,24.239131 27.293709,25.127212 C 20.496742,26.123524 12.87941,23.606614 6.8198829,10.182098 z"
           id="seg-5-1-1-5-4"
           sodipodi:nodetypes="cccccc"
           inkscape:connector-curvature="0" />
        <path
           style="fill:#000000;fill-opacity:1;display:inline"
           d="M 38.629056,13.345045 C 38.315294,13.380925 38.016141,13.509154 38.063517,13.685889 C 38.385734,14.88795 39.772426,17.448846 39.438864,18.094501 C 39.170893,18.6132 36.979416,19.200776 36.443662,18.837099 C 35.952911,18.503972 35.997136,16.156256 35.489106,14.946498 C 35.110999,14.046117 34.116724,14.644833 34.206928,14.947323 C 34.618699,16.32787 35.349026,18.954327 34.707909,19.280299 C 33.052557,20.121953 32.975207,20.336682 31.479475,19.902531 C 30.866931,19.724734 30.797262,17.208429 30.594776,16.01129 C 30.548696,15.738895 29.80534,15.67623 29.843126,15.97587 C 30.011091,17.307147 30.083793,21.184679 30.016387,22.04733 C 28.401994,22.178897 26.892304,22.613479 25.273793,22.667255 C 24.850409,22.648235 25.158698,16.421821 24.682496,16.346538 C 24.415364,16.304308 24.572987,16.338238 24.251632,16.284978 C 23.975804,16.239278 24.815407,22.636135 24.280872,22.576193 C 23.169556,22.451562 19.395964,21.489468 19.12203,21.450812 C 19.298209,20.432629 19.366539,16.244262 19.359698,15.902879 C 19.352898,15.561496 18.415894,15.543034 18.452857,15.860139 C 18.608573,17.195373 18.675824,19.55141 18.002528,19.538679 C 16.142639,19.503509 16.078116,19.608169 14.538523,18.482938 C 13.933228,18.040551 14.753304,15.959696 14.734664,14.558216 C 14.731164,14.296365 13.465902,14.179836 13.456806,14.467376 C 13.414206,15.817298 13.354286,17.921149 12.699395,18.006899 C 11.055777,18.22211 10.398299,17.526858 10.208578,17.011356 C 10.000236,16.445254 9.9793353,13.745214 10.341249,12.372916 C 10.415919,12.089823 9.5582989,11.985131 9.4636859,12.293596 C 9.2541608,15.570969 9.6081091,17.340287 11.210564,18.495287 C 12.423118,18.981518 15.143246,19.343027 15.414947,19.950489 C 15.659905,20.498159 15.54134,21.643204 15.437587,22.793658 L 16.327558,23.436615 C 16.590538,22.611325 16.207169,20.802787 16.739863,20.288551 C 16.888491,20.145073 17.855216,19.978602 18.335112,20.498963 C 18.666962,20.858794 18.186646,21.907855 18.601089,22.002276 C 19.664277,22.244495 20.980388,22.613644 21.12145,22.778781 C 21.488377,23.208326 21.370387,24.159062 21.1971,24.904216 L 22.211898,25.135788 C 22.45938,24.194124 21.999998,23.664133 22.45878,23.318677 C 22.817794,23.048343 23.921589,23.386307 24.811725,23.433965 C 25.548281,23.473375 27.241934,23.008007 27.602591,23.289861 C 27.964931,23.57303 27.947549,24.326215 27.79373,24.987615 L 28.823547,24.900525 C 29.066004,23.977982 28.655833,23.572538 28.891967,23.136253 C 29.062079,22.821958 30.097443,22.679625 31.031838,22.620288 C 31.212984,22.608788 30.913159,21.439746 31.242524,21.119501 C 31.785618,20.591439 32.357677,20.919127 32.407828,20.978819 C 32.92411,21.593324 32.608388,23.255868 32.464008,23.829585 L 33.478807,24.061158 C 33.71646,23.227447 33.440167,21.259464 33.710307,20.703324 C 33.992078,20.123251 38.356442,19.395791 39.67663,18.958867 C 40.821899,17.916733 39.330202,14.690607 38.937533,13.530591 C 38.888743,13.370935 38.942833,13.3092 38.629065,13.345078 L 38.629067,13.345042 L 38.629056,13.345043 z"
           id="seg-3-9-4-1-68-2-7-8-1-5"
           sodipodi:nodetypes="csssssssssccsssczssssssssccsccssssccsssccssssccsccccc"
           inkscape:connector-curvature="0" />
      </g>
      <g
         inkscape:groupmode="layer"
         id="layerTeethHappyOpen"
         inkscape:label="TeethHappyOpen"
         style="display:none">
        <path
           style="fill:#ffffff;fill-opacity:1;stroke:#000000;stroke-width:0.1;stroke-miterlimit:4;stroke-opacity:1;stroke-dasharray:none;display:inline"
           d="M 44.10491,9.9169138 C 41.755957,16.41761 35.274406,21.414958 28.261434,22.217815 C 21.305846,23.012482 14.053504,21.634852 7.8593739,10.868014 C 12.660739,11.881179 17.749679,12.377094 22.242933,12.484885 C 25.346557,12.594187 25.385249,12.590533 29.785107,12.231258 C 35.216552,11.76646 40.306553,10.803079 44.10491,9.9169138 z"
           id="seg-5-17-2"
           sodipodi:nodetypes="cccccc"
           inkscape:connector-curvature="0" />
        <path
           style="fill:#000000;fill-opacity:1;display:inline"
           d="M 40.067279,10.411785 C 40.451749,11.622886 41.348902,13.839586 41.041283,14.514459 C 40.794153,15.056631 38.598356,15.761581 38.037285,15.416244 C 37.523344,15.099917 37.455949,12.702157 36.88255,11.492137 C 36.455791,10.591562 35.47544,11.250309 35.581444,11.554637 C 36.065328,12.943561 36.932062,15.588504 36.29705,15.951959 C 34.657459,16.890393 35.035663,17.113224 33.497042,16.742137 C 32.866934,16.590167 32.502473,13.065579 32.239741,11.853744 C 32.179951,11.578005 31.065461,11.549806 31.118135,11.853744 C 31.35225,13.204116 32.142029,18.117568 32.11488,19.001066 C 30.482897,19.212951 28.971657,19.639713 27.331774,19.772417 C 26.901217,19.773362 26.721744,11.993809 26.234898,11.939889 C 25.961794,11.909639 25.676944,12.025979 25.348287,11.987079 C 25.066193,11.953719 26.41869,19.851991 25.873386,19.816529 C 24.73967,19.742799 20.774958,18.942525 20.495123,18.916253 C 20.625217,17.868817 20.21696,12.554838 20.04139,11.697502 C 19.865831,10.840167 19.066415,11.375698 19.11909,11.697502 C 19.340964,13.0525 19.415771,16.999546 18.731907,17.018931 C 16.842822,17.072481 17.40735,17.182383 15.79117,16.108217 C 15.155765,15.685907 15.992443,13.001691 15.906506,11.572503 C 15.890446,11.305475 14.600879,11.247411 14.605399,11.541253 C 14.626729,12.920776 14.562549,15.591904 13.90207,15.710896 C 12.244429,16.009537 11.556053,15.589403 11.338873,15.072503 C 11.100377,14.504865 11.333773,13.088427 11.635432,11.670717 C 11.697672,11.378256 10.489935,11.070155 10.408675,11.389467 L 10.208033,15.318038 C 10.727766,15.456598 10.557245,15.683979 11.30729,15.94592 C 12.561034,16.383768 16.44597,16.956779 16.750741,17.563574 C 17.025513,18.110643 16.852951,19.741794 16.802681,20.920717 L 17.843567,21.076967 C 18.070971,20.222187 17.595441,18.395172 18.111424,17.844824 C 18.255389,17.691271 18.782024,17.474915 19.293905,17.98282 C 19.647872,18.334038 19.210615,19.427607 19.635709,19.504026 C 20.726208,19.700063 22.525871,20.013458 22.676918,20.175182 C 23.069814,20.595849 22.995546,21.571665 22.855324,22.34036 L 23.896209,22.52786 C 24.10232,21.555076 23.610797,21.036358 24.059845,20.661789 C 24.411242,20.368674 25.547528,20.660489 26.453111,20.666289 C 27.202448,20.671089 28.8989,20.114775 29.278371,20.385039 C 29.659613,20.656564 29.677993,21.425957 29.553529,22.108253 L 30.594415,21.96986 C 30.79634,21.016828 30.360713,20.622833 30.579475,20.166289 C 30.737072,19.837399 32.227375,19.642373 33.172755,19.536893 C 33.356031,19.516443 32.995864,18.337962 33.314786,17.995343 C 33.840662,17.430387 33.990425,17.737255 34.044172,17.795753 C 34.597479,18.397974 34.356593,20.109633 34.237513,20.702003 L 35.278398,20.889503 C 35.479697,20.027348 35.105202,18.032484 35.352748,17.452003 C 35.610947,16.846541 40.005084,15.894364 41.323907,15.385039 C 41.342407,15.555424 41.396827,15.748812 41.398257,15.885039 L 41.903427,15.054682 C 42.31712,13.044118 40.662211,10.369172 41.071322,10.304682 C 40.762395,10.191179 40.185873,10.332042 40.067279,10.411785 z"
           id="seg-3-9-4-1-68-2-7-8-1"
           sodipodi:nodetypes="cssssssssccsssczssssssssccssccssssccsssccssssccsccccc"
           inkscape:connector-curvature="0" />
      </g>
      <g
         inkscape:groupmode="layer"
         id="layerTeethNormal"
         inkscape:label="TeethNormal"
         style="display:none">
        <path
           style="fill:none;stroke:#000000;stroke-width:0;stroke-linecap:butt;stroke-linejoin:miter;stroke-opacity:1;display:inline"
           d="M 0.1,0.1 L 0.1,0.1"
           id="path2937-2-4-7-7"
           inkscape:connector-curvature="0" />
      </g>
      <g
         inkscape:groupmode="layer"
         id="layerTeethSadOpen"
         inkscape:label="TeethSadOpen"
         style="display:none">
        <path
           style="fill:#ffffff;fill-opacity:1;stroke:#000000;stroke-width:0.10077676;stroke-miterlimit:4;stroke-opacity:1;stroke-dasharray:none;display:inline"
           d="M 22.165212,7.3604052 C 25.772689,6.8963642 25.845741,6.833993 29.546966,7.7500488 C 33.948178,8.7961931 39.226718,11.659932 44.152437,15.361306 C 41.38837,19.648563 33.804117,23.142556 26.910666,23.636551 C 19.876434,24.139502 11.874406,23.457639 5.5894531,16.296742 C 8.0863783,12.046517 15.46339,8.2436519 22.165212,7.3604052 z"
           id="seg-89-2-6"
           sodipodi:nodetypes="cccscc"
           inkscape:connector-curvature="0" />
        <path
           style="fill:#000000;fill-opacity:1;display:inline"
           d="M 13.747592,9.0961661 C 13.877997,9.6132524 14.336301,13.160973 13.746592,13.772061 C 13.115994,14.425495 10.282055,14.784518 9.7607464,14.39703 C 9.3155799,14.066139 9.7827514,12.534294 9.5706344,11.927837 L 8.6828543,12.099527 C 8.8329243,12.587239 9.465395,14.247502 8.5887633,14.64655 C 4.3746365,16.564845 6.8516941,15.01594 5.3048262,15.179267 L 5.204726,16.596186 C 5.8878499,16.528426 8.4763357,14.731846 10.674912,15.241047 C 11.381486,15.404693 10.46295,20.013679 10.628612,21.146768 C 10.664392,21.391518 11.651248,21.147531 11.741574,21.352692 C 11.90361,21.720731 11.650054,16.009129 11.997844,15.28575 C 12.288165,14.681902 13.311576,14.189853 13.980354,15.20332 C 14.31685,15.713245 13.916674,16.969705 14.039454,18.012139 C 14.113254,18.638686 15.209322,18.277881 15.316285,18.465903 C 15.823973,19.358329 15.984843,21.635561 16.048362,23.309959 C 16.059682,23.608203 17.164593,23.850823 17.164561,23.579282 C 17.164341,21.888758 16.27235,18.700419 16.849593,18.206741 C 18.131849,17.85859 21.115401,17.658351 22.062636,17.721637 C 22.506629,18.292423 22.574569,21.748088 22.459834,24.110392 C 22.437724,24.565939 23.548904,24.499769 23.57927,24.085962 C 23.748673,21.77732 22.94901,18.605606 23.434995,17.575192 C 24.031601,17.477032 25.756427,17.448784 26.50175,17.544312 C 27.440271,18.451682 27.397158,21.75592 27.288142,24.125806 C 27.266652,24.593436 28.376153,24.494442 28.405961,24.069676 C 28.563504,21.824379 27.988385,18.901234 28.602864,17.365247 C 29.733585,17.296037 31.129116,17.478496 32.487724,17.469067 C 33.279103,18.157523 32.989536,21.928685 32.697802,23.219627 C 32.622492,23.532886 33.741861,23.542779 33.820474,23.258587 C 34.044751,22.447807 33.501206,19.71701 33.735194,17.682822 C 33.950317,17.324089 34.011872,17.765082 34.642002,17.464566 C 34.804913,16.081177 34.747186,15.111482 34.928008,14.086845 C 35.260114,13.696593 38.224549,14.373216 38.549138,14.888848 C 38.888726,15.428305 38.499708,19.245129 38.159295,20.431402 C 38.076625,20.719485 39.168113,20.795677 39.253266,20.535368 C 39.613653,19.433645 39.288606,14.885429 39.938923,14.980412 C 41.912082,15.268605 42.71656,15.955756 43.936723,16.367433 C 44.504187,16.0479 44.477302,15.948451 44.007833,15.251608 C 40.623473,14.052323 41.745525,15.161938 39.056455,13.708373 C 38.381897,13.343741 39.044685,11.636036 38.846108,11.068253 L 37.990265,11.23834 C 38.10843,11.622357 38.208244,13.247004 37.724893,13.509316 C 37.078973,13.859855 35.496724,13.080362 35.019644,12.550044 C 34.5898,12.072233 35.273416,9.2062427 35.083124,8.6338478 L 34.214142,8.6171928 C 34.331252,9.0170748 33.865434,15.810374 33.779603,16.631674 C 33.081145,16.578564 28.503673,16.644074 25.814496,16.768644 C 25.403083,16.787704 25.392509,6.4599895 25.039027,6.495229 C 24.869676,6.512112 24.68519,6.529379 24.487892,6.54695 C 24.144878,6.577498 25.025831,16.710488 24.617581,16.742446 C 21.540485,16.983321 15.694542,17.252212 14.834207,17.367571 C 14.889037,16.323003 14.646161,9.115849 14.45526,8.446289 L 13.747592,9.0961665 z"
           id="seg-3-9-4-1-68-2-7-8-1-3"
           sodipodi:nodetypes="cssccsccsssssssssccssccsscccscccssssccsccsscccssssccc"
           inkscape:connector-curvature="0" />
      </g>
      <g
         inkscape:groupmode="layer"
         id="layerTeethSadOpenAlt1"
         inkscape:label="TeethSadOpenAlt1"
         style="display:none">
        <path
           style="fill:#ffffff;fill-opacity:1;stroke:#000000;stroke-width:0.1;stroke-miterlimit:4;stroke-opacity:1;stroke-dasharray:none;display:inline"
           d="M 25.945959,9.9111008 C 32.467907,10.124827 36.423838,9.9006076 42.850445,12.178958 C 41.151881,17.864556 39.97952,20.799339 35.089459,23.241458 C 33.404182,24.083093 31.039186,23.521147 27.448875,23.866458 C 23.858565,24.211768 24.121468,26.265687 22.633381,26.335208 C 16.005118,26.644868 11.572177,22.8983 6.6138408,12.678958 C 12.94101,10.968493 15.09751,10.203784 20.097226,10.210208 C 20.335007,10.210557 25.616921,9.9236908 25.945959,9.9111008 z"
           id="path2860-3-3-7"
           sodipodi:nodetypes="ccssscsc"
           inkscape:connector-curvature="0" />
        <path
           style="fill:#000000;fill-opacity:1;display:inline"
           d="M 14.32172,10.595428 C 14.452125,11.112514 14.910428,14.660241 14.32072,15.271329 C 13.690122,15.924763 10.856183,16.283786 10.334875,15.896298 C 9.8897079,15.565407 10.267595,11.488919 10.055477,10.882462 L 9.1676972,11.054152 C 9.3177672,11.541864 10.039523,15.74677 9.1628972,16.145818 L 8.3465094,16.300771 L 8.5467163,16.666883 C 9.2298403,16.599123 9.0504692,16.231114 11.249045,16.740313 C 11.955619,16.903959 11.126369,20.084374 11.292035,21.217463 C 11.327815,21.462213 12.225385,22.021797 12.315711,22.226958 C 12.477747,22.594997 12.224191,17.508395 12.571981,16.785016 C 12.862302,16.181168 13.885713,15.689119 14.554491,16.702586 C 14.890987,17.212511 14.490811,18.468971 14.613591,19.511405 C 14.687391,20.137952 15.783459,19.777147 15.890422,19.965169 C 16.39811,20.857595 16.55898,23.670541 16.622499,25.344939 C 16.633819,25.643183 17.828016,26.332232 17.738698,25.614262 C 17.53,23.93667 16.846487,20.199685 17.42373,19.706007 C 18.705986,19.357856 21.689538,19.157617 22.636773,19.220903 C 23.080766,19.791689 23.148706,23.96164 23.033971,26.323944 C 23.011861,26.779491 24.123041,26.713321 24.153407,26.299514 C 24.32281,23.990872 23.523147,20.104872 24.009132,19.074458 C 24.605738,18.976298 26.330564,18.94805 27.075887,19.043578 C 28.014408,19.950948 27.971295,22.808757 27.862279,25.178643 C 27.840789,25.646273 28.95029,25.547279 28.980098,25.122513 C 29.137641,22.877216 28.562522,20.4005 29.177001,18.864513 C 30.307722,18.795303 31.703253,18.977762 33.061861,18.968333 C 33.85324,19.656789 33.563673,23.427951 33.271939,24.718893 C 33.196629,25.032152 34.315998,25.042045 34.394611,24.757853 C 34.618888,23.947073 34.075343,21.216276 34.309331,19.182088 C 34.524454,18.823355 34.586009,19.264348 35.216139,18.963832 C 35.37905,17.580443 35.321323,16.610748 35.502145,15.586111 C 35.834251,15.195859 38.798686,15.872482 39.123275,16.388114 C 39.462863,16.927571 38.984559,20.030109 38.644146,21.216382 C 38.561476,21.504465 39.652964,21.580657 39.738117,21.320348 C 40.098504,20.218625 39.862743,16.384695 40.51306,16.479678 C 42.486219,16.767871 40.701411,16.517518 41.921574,16.929199 C 42.489038,16.609666 42.462153,16.510217 41.992684,15.813374 C 40.349395,15.506946 40.355376,15.455847 39.630592,15.207639 C 38.90515,14.959206 39.752751,10.947802 39.554172,10.380019 L 38.698329,10.550106 C 38.816494,10.934123 38.782379,14.74627 38.299028,15.008582 C 37.653108,15.359121 36.070859,14.579628 35.593779,14.04931 C 35.163935,13.571499 35.847551,10.705508 35.657259,10.133113 L 34.788277,10.116453 C 34.905387,10.516335 34.439569,17.309635 34.353738,18.130935 C 33.65528,18.077825 29.077808,18.143335 26.388631,18.267905 C 25.977218,18.286965 26.05593,8.8074639 25.613162,8.7534182 C 25.444226,8.7327972 25.259325,8.7875682 25.062027,8.8051382 C 24.719013,8.8356882 25.599966,18.209748 25.191716,18.241706 C 22.11462,18.482581 16.268677,18.751472 15.408342,18.866831 C 15.463172,17.822263 15.220296,10.615109 15.029395,9.9455486 L 14.32172,10.595428 z"
           id="seg-3-9-4-1-68-2-7-8-1-3-4"
           sodipodi:nodetypes="csscccccsssssssssccssccsscccscccssssccsccsscccssssccc"
           inkscape:connector-curvature="0" />
      </g>
    </g>
    <g
       inkscape:groupmode="layer"
       id="layerDimples"
       inkscape:label="Dimples"
       style="display:inline">
      <g
         inkscape:groupmode="layer"
         id="layerDimplesHappy"
         inkscape:label="DimplesHappy"
         style="display:inline">
        <path
           style="fill:#000000;fill-opacity:1;display:inline"
           d="M 45.011018,5.1652195 C 45.922308,5.1360195 47.127258,6.1909695 47.841518,7.5233495 C 48.552348,8.8497494 49.019178,10.577159 48.367028,12.611839 L 48.849831,12.529745 C 50.189031,8.2538051 47.541131,4.4074652 45.440001,4.5999552 L 45.011018,5.1652195 z"
           id="seg-8"
           sodipodi:nodetypes="cccccc"
           inkscape:connector-curvature="0" />
        <path
           style="fill:#000000;fill-opacity:1;display:inline"
           d="M 1.8724217,7.5145384 C 1.2763987,8.8766083 0.95416469,10.618239 1.7637747,12.585419 L 1.2044291,12.59992 C -0.46599486,8.4636497 1.8427231,4.4727998 3.9369171,4.5159098 L 4.4820757,4.9831984 C 3.0878256,5.2978715 2.5687501,6.3967843 1.8724217,7.5145384 z"
           id="seg-8-9"
           sodipodi:nodetypes="cccccc"
           inkscape:connector-curvature="0" />
      </g>
      <g
         inkscape:groupmode="layer"
         id="layerDimplesNormal"
         inkscape:label="DimplesNormal"
         style="display:none">
        <path
           style="fill:none;stroke:#000000;stroke-width:0;stroke-linecap:butt;stroke-linejoin:miter;stroke-opacity:1;display:inline"
           d="M 0.1,0.1 L 0.1,0.1"
           id="path2937-2-4-7"
           inkscape:connector-curvature="0" />
      </g>
      <g
         inkscape:groupmode="layer"
         id="layerDimplesSad"
         inkscape:label="DimplesSad"
         style="display:none">
        <path
           style="fill:#000000;fill-opacity:1;display:inline"
           d="M 46.976549,9.4914323 C 47.845694,9.7669103 48.631295,11.162494 48.861878,12.656561 C 49.091214,14.143847 48.957093,15.928192 47.665492,17.630247 L 48.14812,17.713363 C 50.832927,14.126033 49.614658,9.6180933 47.56908,9.1009753 L 46.976549,9.4914323 z"
           id="seg-8-4"
           sodipodi:nodetypes="cccccc"
           inkscape:connector-curvature="0" />
        <path
           style="fill:#000000;fill-opacity:1;display:inline"
           d="M 1.2866956,13.476986 C 1.3666513,14.961602 1.8618077,16.662171 3.4693773,18.055363 L 2.9762643,18.319783 C -0.37538627,15.376062 -0.10731589,10.773324 1.7826908,9.870339 L 2.4797311,10.042653 C 1.3757935,10.95055 1.4061744,12.165509 1.2866956,13.476986 z"
           id="seg-8-9-0"
           sodipodi:nodetypes="cccccc"
           inkscape:connector-curvature="0" />
      </g>
    </g>
  </g>
</svg>
