<?xml version="1.0" encoding="UTF-8" standalone="no"?>
<!-- Created with Inkscape (http://www.inkscape.org/) -->

<svg
   xmlns:dc="http://purl.org/dc/elements/1.1/"
   xmlns:cc="http://creativecommons.org/ns#"
   xmlns:rdf="http://www.w3.org/1999/02/22-rdf-syntax-ns#"
   xmlns:svg="http://www.w3.org/2000/svg"
   xmlns="http://www.w3.org/2000/svg"
   xmlns:sodipodi="http://sodipodi.sourceforge.net/DTD/sodipodi-0.dtd"
   xmlns:inkscape="http://www.inkscape.org/namespaces/inkscape"
   width="50"
   height="30"
   id="svg4873"
   version="1.1"
   inkscape:version="0.48.0 r9654"
   sodipodi:docname="body-mouth3.svg"
   inkscape:export-filename="/Users/aaxe/Documents/moralife/img/ml-graphics-mouthh.png"
   inkscape:export-xdpi="90"
   inkscape:export-ydpi="90"
   style="display:inline">
  <defs
     id="defs4875">
    <linearGradient
       inkscape:collect="always"
       id="linearGradientLipsHappyOpenAlt1-0"
       x1="30.557472"
       y1="4.460628"
       x2="28.170988"
       y2="22.365776"
       gradientUnits="userSpaceOnUse"
       gradientTransform="matrix(1,0,0,1.1622684,0,-4.6895726)">
      <stop
         style="stop-color:#000000;stop-opacity:1;"
         offset="0"
         id="stop3771" />
      <stop
         style="stop-color:#000000;stop-opacity:0;"
         offset="1"
         id="stop3773" />
    </linearGradient>
    <linearGradient
       inkscape:collect="always"
       id="linearGradientLipsSadOpenAlt1-0"
       x1="25.979544"
       y1="0.639332"
       x2="24.565331"
       y2="19.441208"
       gradientUnits="userSpaceOnUse"
       gradientTransform="matrix(1.0660248,0,0,1.0660248,-2.3533325,0.20214086)">
      <stop
         style="stop-color:#000000;stop-opacity:1;"
         offset="0"
         id="stop4118" />
      <stop
         style="stop-color:#000000;stop-opacity:0;"
         offset="1"
         id="stop4120" />
    </linearGradient>
    <linearGradient
       inkscape:collect="always"
       id="linearGradientLipsSadShock-0"
       x1="30.420393"
       y1="1.2770886"
       x2="26.170469"
       y2="22.773212"
       gradientUnits="userSpaceOnUse">
      <stop
         style="stop-color:#000000;stop-opacity:1;"
         offset="0"
         id="stop4148" />
      <stop
         style="stop-color:#000000;stop-opacity:0;"
         offset="1"
         id="stop4150" />
    </linearGradient>
    <linearGradient
       inkscape:collect="always"
       id="linearGradientLipsHappyOpen-0"
       x1="26.995098"
       y1="5.0922041"
       x2="25.934439"
       y2="23.804726"
       gradientUnits="userSpaceOnUse"
       gradientTransform="matrix(1,0,0,1.2352465,0,-4.9778247)">
      <stop
         style="stop-color:#000000;stop-opacity:1;"
         offset="0"
         id="stop3803" />
      <stop
         style="stop-color:#000000;stop-opacity:0;"
         offset="1"
         id="stop3805" />
    </linearGradient>
    <linearGradient
       inkscape:collect="always"
       id="linearGradientLipsSadOpen-0"
       x1="20.922297"
       y1="2.4214764"
       x2="21.711504"
       y2="11.804205"
       gradientUnits="userSpaceOnUse"
       gradientTransform="matrix(1.198239,0,0,1.198239,-4.5418494,0.04746782)">
      <stop
         style="stop-color:#000000;stop-opacity:1;"
         offset="0"
         id="stop3859" />
      <stop
         style="stop-color:#000000;stop-opacity:0;"
         offset="1"
         id="stop3861" />
    </linearGradient>
    <linearGradient
       inkscape:collect="always"
       id="linearGradientLipsHappyShock-0"
       gradientUnits="userSpaceOnUse"
       x1="30.895119"
       y1="1.1632922"
       x2="22.928722"
       y2="21.939688"
       gradientTransform="matrix(1,0,0,1.077294,0,-0.18996709)">
      <stop
         style="stop-color:#323232;stop-opacity:1;"
         offset="0"
         id="stop3784" />
      <stop
         style="stop-color:#000000;stop-opacity:0;"
         offset="1"
         id="stop3786" />
    </linearGradient>
  </defs>
  <sodipodi:namedview
     id="base"
     pagecolor="#ffffff"
     bordercolor="#666666"
     borderopacity="1.0"
     inkscape:pageopacity="0.0"
     inkscape:pageshadow="2"
     inkscape:zoom="5.6568545"
     inkscape:cx="8.275613"
     inkscape:cy="14.091341"
     inkscape:document-units="px"
     inkscape:current-layer="layerLipsSadShock"
     showgrid="false"
     inkscape:window-width="1024"
     inkscape:window-height="708"
     inkscape:window-x="-4"
     inkscape:window-y="-4"
     inkscape:window-maximized="1" />
  <metadata
     id="metadata4878">
    <rdf:RDF>
      <cc:Work
         rdf:about="">
        <dc:format>image/svg+xml</dc:format>
        <dc:type
           rdf:resource="http://purl.org/dc/dcmitype/StillImage" />
        <dc:title />
      </cc:Work>
    </rdf:RDF>
  </metadata>
  <g
     inkscape:groupmode="layer"
     id="layerTotal"
     inkscape:label="Total"
     style="display:inline">
    <g
       inkscape:groupmode="layer"
       id="layerLips"
       inkscape:label="Lips"
       style="display:inline">
      <g
         style="display:none"
         inkscape:label="LipsHappyShock"
         id="layerLipsHappyShock"
         inkscape:groupmode="layer">
        <path
           sodipodi:nodetypes="cssssssssssssc"
           id="path3040"
           d="M 27.285051,5.3538516 C 28.358761,5.3538516 31.842663,4.8221965 32.72263,5.2643439 C 38.072479,7.9524265 36.038901,10.162854 42.657385,15.006049 C 43.064327,15.303837 43.078884,16.055933 42.996166,16.594036 C 42.919348,17.093693 42.300517,17.586372 42.16101,18.070405 C 40.677602,23.217026 32.796366,26.507394 27.05569,27.665276 C 26.014716,27.875254 25.346603,27.592309 24.266179,27.592309 C 23.524702,27.592309 22.404657,27.933981 21.710431,27.833323 C 19.133362,27.459572 15.186795,27.489457 12.936742,26.074749 C 10.567246,24.584934 9.0236235,21.745558 8.9071278,18.947581 C 8.8784519,18.258917 7.5133753,16.14587 7.6245201,15.422861 C 7.7183938,14.812239 8.8603575,13.561936 9.4007038,13.313157 C 13.133856,11.594397 17.143285,7.5312375 23.459886,5.050017 C 24.331809,4.7075021 26.316725,5.3538516 27.285051,5.3538516 z"
           style="fill:url(#linearGradientLipsHappyShock-0);fill-opacity:1;stroke:none;display:inline"
           inkscape:connector-curvature="0" />
        <path
           id="path3067"
           d="M 24.669186,13.234137 C 22.770102,13.61994 20.851294,14.715995 19.686289,16.124622 C 18.032658,18.050486 18.183032,20.341372 19.558522,21.767953 C 20.18345,22.462832 20.789418,21.932824 21.960534,21.767953 C 22.467801,21.696421 22.937108,21.923944 23.85148,22.043237 C 24.179885,22.086049 24.918712,21.750476 25.410232,21.767953 C 26.007331,21.789186 26.349492,22.168987 26.585685,22.098294 C 29.096739,21.38577 30.28069,20.287424 30.980855,18.29937 C 31.297663,17.444974 31.009495,16.500683 30.801982,15.739225 C 30.512269,14.586237 29.094052,13.687823 27.761137,13.289193 C 26.141317,14.153878 25.815793,15.636942 25.640212,16.097094 C 25.589902,16.228947 25.641812,16.354194 25.716872,16.510021 C 25.743662,16.493409 25.765112,16.470334 25.793532,16.454961 C 26.069676,16.305655 26.189423,16.260588 26.330152,16.207205 C 26.752142,16.292515 27.134814,16.508635 27.326731,16.867887 C 27.414941,17.033939 27.456533,17.23209 27.428944,17.418456 C 27.386234,17.725198 27.170083,17.992669 26.892324,18.161724 L 24.745846,19.758374 L 23.08488,17.831383 C 22.746033,17.50497 22.632821,17.046968 22.880454,16.620131 C 23.10689,16.259337 23.541626,16.032609 23.979246,15.986978 C 24.110541,16.051917 24.213966,16.145611 24.46476,16.317319 C 24.53277,16.363891 24.54693,16.413123 24.592526,16.454961 C 24.677116,16.349354 24.770808,16.224707 24.822506,16.097091 C 25.079819,15.46192 25.658835,14.057282 24.669186,13.234134 z"
           style="fill:#000000;fill-opacity:1;stroke:#000000;stroke-width:0;stroke-linejoin:miter;stroke-miterlimit:4;stroke-opacity:0;stroke-dasharray:none;display:inline"
           inkscape:connector-curvature="0" />
        <path
           sodipodi:nodetypes="cssssccsssssssccssssssccsssc"
           id="path3038"
           d="M 27.449064,2.45772 C 24.598544,2.3551865 24.766518,3.0089107 23.50408,3.2739877 C 22.455032,3.4942626 21.788953,3.2509985 20.450083,4.1825621 C 15.451777,7.6602974 10.955912,10.954534 7.3822544,13.380017 C 6.9460461,13.676076 6.6328268,14.663766 6.5479545,15.215872 C 6.4515971,15.842663 6.8969292,16.254109 6.8902435,16.857666 C 9.6004021,25.817697 14.819924,27.652238 20.015811,28.107481 C 20.783295,28.216507 21.206816,28.744275 23.512838,28.734883 C 25.561741,28.72561 25.639419,28.261691 26.498501,28.140931 C 33.373885,27.174546 41.703464,23.511436 43.407831,17.671911 C 43.557975,17.157481 44.294262,16.633992 44.375856,16.103214 C 44.456572,15.578186 44.235154,14.898916 43.889871,14.551208 C 40.856657,11.496704 38.506901,8.8156809 35.735081,5.3224185 C 34.744786,4.0743734 33.040475,3.7328532 31.416824,3.337985 C 30.157178,3.0316429 30.727345,2.45772 27.449064,2.45772 z M 27.764857,5.4325044 C 28.743405,5.4325044 31.357131,4.8937925 32.192376,5.2086923 C 36.80401,6.9473381 36.514848,10.168937 41.745455,14.655968 C 42.096188,14.95684 42.129597,15.612802 42.05421,16.103214 C 41.984204,16.558587 41.420215,17.007603 41.293072,17.448734 C 39.941136,22.13922 31.599407,25.137969 26.367514,26.193231 C 25.418802,26.384599 24.809901,26.126728 23.825234,26.126728 C 23.149473,26.126728 22.128695,26.438119 21.495997,26.346381 C 15.450482,26.160902 12.575258,24.352546 9.1030533,17.311735 C 9.0769232,16.684107 8.4929964,16.03849 8.5942924,15.37956 C 8.6798404,14.823058 9.0660855,13.981807 9.5528854,13.741316 C 14.059173,11.515099 17.92778,7.4169126 23.684554,5.1555975 C 24.4792,4.8434399 26.88235,5.4325044 27.764857,5.4325044 z"
           style="fill:#000000;fill-opacity:1;stroke:#000000;stroke-width:0;stroke-linejoin:miter;stroke-miterlimit:4;stroke-opacity:0;stroke-dasharray:none;display:inline"
           inkscape:connector-curvature="0" />
        <path
           sodipodi:nodetypes="cccc"
           d="M 31.104459,5.1278236 C 31.806304,7.3781078 31.239123,8.6939093 29.042548,11.469698 C 34.570739,10.818985 35.505723,10.214866 36.26863,6.9794166 C 36.26863,6.9794166 33.927216,4.6606575 31.104459,5.1278236 z"
           id="path3061"
           style="fill:#ffffff;fill-opacity:1;stroke:#000000;stroke-width:0.77492899;stroke-miterlimit:4;stroke-opacity:1;stroke-dasharray:none;display:inline"
           inkscape:connector-curvature="0" />
        <path
           sodipodi:nodetypes="ccccc"
           d="M 16.498509,8.4677603 C 18.495527,9.8149218 19.002789,11.034998 19.474547,14.48935 C 23.128142,10.515401 23.271913,9.3238096 21.495727,6.2213604 C 18.952567,6.1683895 16.498502,8.4677476 16.498502,8.4677476 z"
           id="path3063"
           style="fill:#ffffff;fill-opacity:1;stroke:#000000;stroke-width:0.79090619;stroke-miterlimit:4;stroke-opacity:1;stroke-dasharray:none;display:inline"
           inkscape:connector-curvature="0" />
      </g>
      <g
         inkscape:groupmode="layer"
         id="layerLipsHappyOpenAlt1"
         inkscape:label="LipsHappyOpenAlt1"
         style="display:none">
        <path
           style="fill:url(#linearGradientLipsHappyOpenAlt1-0);fill-opacity:1;display:inline"
           d="M 41.137341,10.76855 C 38.557744,17.567605 34.399859,25.95499 28.69488,26.841226 C 22.58689,27.788125 15.050513,22.895597 9.549826,10.797443 C 15.156255,15.559228 24.237181,9.2697965 30.063739,9.1295595 C 36.224594,8.9812889 35.567161,11.869629 41.137341,10.76855 z"
           id="seg-5-2-7"
           sodipodi:nodetypes="cccsc"
           inkscape:connector-curvature="0" />
        <path
           style="fill:#000000;fill-opacity:1;display:inline"
           d="M 42.54327,4.5728399 C 40.367977,9.7976546 35.985023,7.1487752 29.215064,7.790696 C 22.476096,8.4283746 12.244376,14.369589 6.2752333,5.4992957 L 5.4330553,5.8496615 C 6.4955273,7.4038001 7.6181443,8.782111 8.7846743,9.9979832 C 14.396873,22.709934 21.908925,30.257844 28.404419,28.900094 C 34.760985,27.571377 40.141009,17.567128 42.086443,8.8150613 C 42.708277,7.8517616 43.222895,6.8302211 43.615416,5.7629679 L 42.54327,4.5728399 z M 39.688877,11.747964 C 37.317482,18.123332 33.495185,25.988054 28.250662,26.819064 C 22.635655,27.706956 15.707548,23.119308 10.65083,11.775057 C 15.804756,16.240108 24.152749,10.342607 29.509039,10.211108 C 35.172644,10.072078 34.568273,12.780431 39.688877,11.747964 z"
           id="seg-5-2"
           sodipodi:nodetypes="cccccsccccccsc"
           inkscape:connector-curvature="0" />
        <path
           style="fill:#000000;fill-opacity:1;stroke:#000000;stroke-width:0;stroke-linejoin:miter;stroke-miterlimit:4;stroke-opacity:0;stroke-dasharray:none;display:inline"
           d="M 24.6875,14.342573 C 23.057149,14.748762 21.657519,15.851186 20.96875,17.284565 C 19.919243,19.342942 20.714573,21.902141 22.46875,23.531757 C 23.279327,24.323716 23.720401,23.739339 24.8125,23.604399 C 25.285544,23.545937 25.793867,23.835423 26.71875,24.003929 C 27.05093,24.064483 27.672653,23.710584 28.15625,23.749683 C 28.743724,23.79722 29.196879,24.217693 29.40625,24.149213 C 31.64353,23.464253 31.678069,22.210409 31.78125,20.044952 C 31.84108,19.114952 31.642333,18.169481 31.21875,17.320886 C 30.649788,16.137929 29.581644,15.164459 28.3125,14.63314 C 26.731227,15.717571 26.794154,16.50151 26.75,17.10296 C 26.742,17.212481 26.77982,17.341519 26.84375,17.466169 C 26.92983,17.375245 27.018003,17.324299 27.125,17.248244 C 27.452433,17.015546 27.579335,16.900377 27.75,16.812393 C 28.302796,16.879026 28.851248,17.149509 29.15625,17.611453 C 29.296591,17.82502 29.379,18.083682 29.375,18.33787 C 29.3718,18.755927 29.138687,19.1317 28.8125,19.391176 L 26.34375,21.788355 L 23.90625,19.391176 C 23.419252,18.990287 23.192876,18.36 23.4375,17.756736 C 23.666124,17.244862 24.167909,16.923855 24.71875,16.812393 C 24.897163,16.884837 25.057479,16.973007 25.40625,17.175602 C 25.587807,17.28109 25.685314,17.359388 25.78125,17.466169 C 25.82665,17.349942 25.86202,17.241877 25.875,17.10296 C 25.95337,16.264326 26.17546,15.517126 24.6875,14.342573 z"
           id="path3236-6-2-7-1-9"
           inkscape:connector-curvature="0" />
        <path
           style="fill:#ffffff;fill-opacity:1;stroke:#000000;stroke-width:0.53904277;stroke-miterlimit:4;stroke-opacity:1;stroke-dasharray:none;display:inline"
           id="path3173-9-8-0-2-3-57"
           d="M 29.748998,10.338299 C 30.577712,11.93159 30.522418,13.109683 29.853493,15.84712 C 32.778879,13.941461 33.167094,13.087999 33.073039,10.228621 C 31.902226,9.6076563 31.090117,9.7776903 29.748998,10.338299 z"
           sodipodi:nodetypes="cccc"
           inkscape:connector-curvature="0" />
        <path
           style="fill:#ffffff;fill-opacity:1;stroke:#000000;stroke-width:0.53904277;stroke-miterlimit:4;stroke-opacity:1;stroke-dasharray:none;display:inline"
           id="path3173-9-8-8-9-0-9-6"
           d="M 18.736298,12.570152 C 19.676656,14.077381 19.70625,15.256735 19.236458,18.049562 C 22.014616,15.866473 22.340118,14.978291 22.040831,12.138044 C 21.290831,11.411626 19.861298,11.843734 18.736298,12.570152 z"
           sodipodi:nodetypes="cccc"
           inkscape:connector-curvature="0" />
      </g>
      <g
         style="display:none"
         inkscape:label="LipsHappyOpen"
         id="layerLipsHappyOpen"
         inkscape:groupmode="layer">
        <path
           id="path3226"
           d="M 42.668914,4.3329582 C 40.842566,8.9950836 35.622793,13.53075 29.988474,15.269559 C 28.911973,15.601778 27.946735,15.040842 26.109348,15.169269 C 24.271961,15.297696 23.764926,16.115315 22.243541,15.970462 C 16.76085,15.448451 11.073437,12.697107 6.4008775,5.3175978 L 5.5586995,5.6899505 C 6.6211715,7.341685 7.7437885,8.8065269 8.9103185,10.098743 C 20.014679,36.830058 37.242978,33.356013 42.212087,8.8415585 C 42.833921,7.8177615 43.348539,6.7320785 43.741059,5.5978257 L 42.668914,4.3329582 z M 39.814521,11.958616 C 37.443126,18.734277 33.670734,26.120521 28.426212,27.003711 C 22.811204,27.947364 16.590065,23.6011 11.015487,12.135017 C 20.945232,21.277706 33.121443,18.960883 39.814521,11.958616 z"
           style="fill:#000000;fill-opacity:1;display:inline"
           sodipodi:nodetypes="cszscccccccscc"
           inkscape:connector-curvature="0" />
        <path
           id="path3226-1"
           d="M 41.003423,10.364984 C 38.494009,18.335675 34.516808,26.017587 28.967046,27.056545 C 23.025233,28.166634 15.626334,24.581833 10.275303,10.398838 C 20.782981,21.154037 33.920795,18.602246 41.003423,10.364984 z"
           style="fill:url(#linearGradientLipsHappyOpen-0);fill-opacity:1;display:inline"
           sodipodi:nodetypes="cscc"
           inkscape:connector-curvature="0" />
        <path
           style="fill:#ffffff;fill-opacity:1;stroke:#000000;stroke-width:0.55570823;stroke-miterlimit:4;stroke-opacity:1;stroke-dasharray:none;display:inline"
           id="path3173-9-8-0-2-3-2"
           d="M 28.675377,17.311139 C 29.567777,18.954346 29.560317,20.208237 29.003137,23.153266 C 31.847998,20.959897 32.201175,20.031255 31.991277,17.001191 C 30.796584,16.410129 29.992273,16.637917 28.675377,17.311139 z"
           sodipodi:nodetypes="cccc"
           inkscape:connector-curvature="0" />
        <path
           style="fill:#ffffff;fill-opacity:1;stroke:#000000;stroke-width:0.55570823;stroke-miterlimit:4;stroke-opacity:1;stroke-dasharray:none;display:inline"
           id="path3173-9-8-8-9-0-9-16"
           d="M 20.52772,17.125892 C 21.171251,18.93789 20.984694,20.170471 20.015349,22.94773 C 23.12901,21.409221 23.609365,20.57218 23.835835,17.543937 C 23.235662,16.592783 21.759783,16.666569 20.52772,17.125892 z"
           sodipodi:nodetypes="cccc"
           inkscape:connector-curvature="0" />
      </g>
      <g
         inkscape:groupmode="layer"
         id="layerLipsHappyAlt1"
         inkscape:label="LipsHappyAlt1"
         style="display:none">
        <path
           style="fill:#000000;fill-opacity:1;display:inline"
           d="M 43.340778,5.2741768 C 41.399205,11.301648 36.212136,17.458739 31.434854,20.572401 C 28.748954,22.322975 27.577277,20.821538 25.134383,20.770432 C 22.691997,20.719337 21.840266,22.014977 19.495123,20.759106 C 15.269807,18.496364 11.143752,13.560866 7.0461862,5.0680718 L 6.1807359,5.5650428 C 17.532719,34.277087 38.94578,25.784476 44.33174,7.1363533 L 43.340778,5.2741768 z"
           id="seg-88-1"
           sodipodi:nodetypes="cszscccc"
           inkscape:connector-curvature="0" />
        <path
           style="fill:#ffffff;fill-opacity:1;stroke:#000000;stroke-width:0.70227766;stroke-miterlimit:4;stroke-opacity:1;stroke-dasharray:none;display:inline"
           id="path3173-9-8-0-2-3-11"
           d="M 32.650351,21.748301 C 34.550579,22.952975 35.115699,24.261995 35.749323,27.642037 C 38.400782,23.748973 38.429121,22.582677 36.770526,19.548435 C 34.963969,19.609767 34.034515,20.302174 32.650351,21.748301 z"
           sodipodi:nodetypes="cccc"
           inkscape:connector-curvature="0" />
        <path
           style="fill:#ffffff;fill-opacity:1;stroke:#000000;stroke-width:0.70664442;stroke-miterlimit:4;stroke-opacity:1;stroke-dasharray:none;display:inline"
           id="path3173-9-8-8-9-0-9-5"
           d="M 14.863738,19.429596 C 14.67613,21.685703 13.772672,22.800179 11.054748,24.941807 C 15.76248,25.489705 16.815521,24.970913 18.747018,22.076773 C 18.519443,20.715901 16.645131,19.796762 14.863738,19.429596 z"
           sodipodi:nodetypes="cccc"
           inkscape:connector-curvature="0" />
      </g>
      <g
         inkscape:groupmode="layer"
         id="layerLipsHappySilly"
         inkscape:label="LipsHappySilly"
         style="display:none">
        <path
           sodipodi:nodetypes="ccccccssscc"
           id="path13217-2-9"
           d="M 41.103905,8.2374704 C 39.825974,12.18066 35.448765,16.84955 32.023257,19.18021 C 29.320409,20.28024 28.893725,16.93143 25.175987,17.1192 C 22.403014,17.25106 21.585671,19.925193 18.911802,19.180643 C 15.163638,17.209643 11.356953,14.01483 8.1982861,7.9848504 L 7.1635291,8.5055904 C 10.511602,14.79709 14.534593,18.31517 18.650312,20.43946 C 21.781556,22.05563 22.39182,19.35635 25.439344,19.053 C 28.338252,18.76443 30.657987,21.89028 33.078314,20.24058 C 36.884948,17.64597 41.513048,12.65714 42.886076,7.8613004 L 41.103905,8.2374704 z"
           style="fill:#000000;fill-opacity:1;display:inline"
           inkscape:connector-curvature="0" />
        <path
           style="fill:#ffffff;fill-opacity:1;stroke:#000000;stroke-width:0.654526;stroke-miterlimit:4;stroke-opacity:1;stroke-dasharray:none;display:inline"
           id="path3173-9-8-0-2-3-5"
           d="M 27.423501,19.408412 C 27.823776,21.466786 27.298755,22.687516 25.41463,25.280327 C 29.749085,24.584513 30.557298,23.857158 31.551078,20.79136 C 30.353145,19.60682 29.289147,19.420401 27.423501,19.408412 z"
           sodipodi:nodetypes="cccc"
           inkscape:connector-curvature="0" />
        <path
           style="fill:#ffffff;fill-opacity:1;stroke:#000000;stroke-width:0.68292874;stroke-miterlimit:4;stroke-opacity:1;stroke-dasharray:none;display:inline"
           id="path3173-9-8-8-9-0-9-1"
           d="M 14.422311,17.647905 C 14.375035,19.835309 13.569584,20.963893 11.074728,23.190812 C 15.648372,23.440349 16.633414,22.877511 18.325073,19.971303 C 18.024905,18.672067 16.162437,17.896515 14.422311,17.647905 z"
           sodipodi:nodetypes="cccc"
           inkscape:connector-curvature="0" />
      </g>
      <g
         inkscape:groupmode="layer"
         id="layerLipsHappy"
         inkscape:label="LipsHappy"
         style="display:none">
        <path
           style="fill:#000000;fill-opacity:1;display:inline"
           d="M 7.6885771,8.7605404 L 6.5961811,9.4997504 C 18.035858,25.470444 40.231394,20.06341 44.779294,9.4243504 L 43.706169,8.4004404 C 40.057305,13.476615 35.405289,16.249192 30.47467,17.193989 C 28.837439,17.507712 28.496918,16.856073 26.059848,16.797988 C 23.622779,16.739902 22.706836,17.334299 21.457807,17.098395 C 15.658552,16.003091 11.80274,13.083257 7.6885771,8.7605404 z"
           id="seg-88"
           sodipodi:nodetypes="ccccszsc"
           inkscape:connector-curvature="0" />
        <path
           style="fill:#ffffff;fill-opacity:1;stroke:#000000;stroke-width:0.69611412;stroke-miterlimit:4;stroke-opacity:1;stroke-dasharray:none;display:inline"
           id="path3173-9-8-0-2-3-8"
           d="M 33.278235,18.159992 C 34.874584,19.717333 35.154708,21.102576 35.077329,24.510435 C 38.445785,21.277484 38.763656,19.893927 37.776174,16.611633 C 36.011517,16.301309 34.916702,17.040797 33.278235,18.159992 z"
           sodipodi:nodetypes="cccc"
           inkscape:connector-curvature="0" />
        <path
           style="fill:#ffffff;fill-opacity:1;stroke:#000000;stroke-width:0.77620256;stroke-miterlimit:4;stroke-opacity:1;stroke-dasharray:none;display:inline"
           id="path3173-9-8-8-9-0-9-2"
           d="M 13.726706,16.02746 C 14.003623,18.498734 13.266624,19.891673 10.792281,22.776906 C 15.982209,22.367651 17.006913,21.584921 18.473912,18.055701 C 17.939658,16.637403 15.724503,16.044863 13.726706,16.02746 z"
           sodipodi:nodetypes="cccc"
           inkscape:connector-curvature="0" />
      </g>
      <g
         inkscape:groupmode="layer"
         id="layerLipsHappySmirk"
         inkscape:label="LipsHappySmirk"
         style="display:none">
        <path
           style="fill:#000000;fill-opacity:1;display:inline"
           d="M 9.1678262,6.0476033 C 11.298174,10.554992 16.876154,14.533967 22.319123,16.838328 C 24.506898,17.764554 24.907736,17.0626 29.199353,17.588794 C 33.49097,18.114989 33.524092,19.247386 36.257524,19.15563 C 38.889085,19.067296 41.501253,18.74446 43.567661,18.13443 C 43.642219,19.00114 43.735305,19.077427 43.791698,19.762142 C 28.540595,25.205955 12.209054,18.299796 7.6944462,7.48691 L 9.1678262,6.0476033 z"
           id="seg-88-6"
           sodipodi:nodetypes="cszscccc"
           inkscape:connector-curvature="0" />
        <path
           style="fill:#ffffff;fill-opacity:1;stroke:#000000;stroke-width:0.70284832;stroke-miterlimit:4;stroke-opacity:1;stroke-dasharray:none;display:inline"
           id="path3173-9-8-0-2-3-0"
           d="M 36.076085,21.174084 C 37.435932,22.968844 37.507475,24.394002 36.918168,27.78489 C 40.767109,25.063139 41.202007,23.979568 40.709257,20.554047 C 38.993998,19.979062 37.880148,20.302835 36.076085,21.174084 z"
           sodipodi:nodetypes="cccc"
           inkscape:connector-curvature="0" />
        <path
           style="fill:#ffffff;fill-opacity:1;stroke:#000000;stroke-width:0.70284832;stroke-miterlimit:4;stroke-opacity:1;stroke-dasharray:none;display:inline"
           id="path3173-9-8-8-9-0-9-9"
           d="M 14.644931,15.268291 C 14.283014,17.490748 13.300288,18.52539 10.438318,20.437068 C 15.063638,21.347366 16.148247,20.915047 18.289089,18.195891 C 18.169527,16.828754 16.382677,15.77124 14.644931,15.268291 z"
           sodipodi:nodetypes="cccc"
           inkscape:connector-curvature="0" />
      </g>
      <g
         style="display:none"
         inkscape:label="LipsNormalHappy"
         id="layerLipsNormalHappy"
         inkscape:groupmode="layer">
        <path
           inkscape:connector-curvature="0"
           style="fill:#000000;fill-opacity:1;display:inline"
           d="M 44.646297,11.201483 C 40.645483,12.326405 37.837596,12.571168 33.436032,12.54366 C 30.458045,12.525047 30.100005,11.907958 25.783893,11.918146 C 21.46778,11.928334 20.446458,12.534824 17.062037,12.390852 C 12.59377,12.200773 10.131831,11.59344 5.5897385,10.631377 C 4.8118232,10.475794 4.1188972,10.916667 4.0411057,11.694582 C 9.8730072,13.558185 12.025636,14.208844 17.20085,14.720603 C 19.965566,14.993995 22.782652,15.716872 25.569483,15.665995 C 28.092005,15.619944 30.55185,14.832007 33.014565,14.589994 C 39.18819,13.983309 42.168301,13.363213 45.981976,12.47592 C 46.13756,11.853588 45.657587,11.357066 44.646297,11.201483 z"
           id="path3139"
           sodipodi:nodetypes="cszsccssscc" />
        <path
           inkscape:connector-curvature="0"
           sodipodi:nodetypes="cccc"
           d="M 31.516351,14.184214 C 32.911501,16.190692 32.92597,17.739318 32.136748,21.390336 C 36.431119,18.609292 36.950715,17.453515 36.568072,13.717022 C 34.73349,13.017539 33.511279,13.319315 31.516351,14.184214 z"
           id="path3141"
           style="fill:#ffffff;fill-opacity:1;stroke:#000000;stroke-width:0.7628119;stroke-miterlimit:4;stroke-opacity:1;stroke-dasharray:none;display:inline" />
        <path
           inkscape:connector-curvature="0"
           sodipodi:nodetypes="cccc"
           d="M 13.692995,13.696793 C 14.53045,15.978671 14.154577,17.472489 12.476191,20.787029 C 17.308429,19.191869 18.099319,18.210501 18.671601,14.518753 C 17.834631,13.296413 15.593775,13.248848 13.692995,13.696793 z"
           id="path3143"
           style="fill:#ffffff;fill-opacity:1;stroke:#000000;stroke-width:0.75871009;stroke-miterlimit:4;stroke-opacity:1;stroke-dasharray:none;display:inline" />
      </g>
      <g
         inkscape:groupmode="layer"
         id="layerLipsNormal"
         inkscape:label="LipsNormal"
         style="display:inline">
        <path
           sodipodi:nodetypes="cszsccssscc"
           id="path2860-1"
           d="M 45.488787,10.854412 C 41.392647,11.256137 38.517856,11.381732 34.011418,11.353568 C 30.962475,11.334512 30.595904,10.70272 26.176953,10.71315 C 21.758001,10.723581 20.212344,11.719522 16.747283,11.57212 C 12.172553,11.377512 10.276953,11.505708 5.5016374,10.895722 C 4.7051869,10.736432 3.9957508,11.187809 3.9161057,11.984259 C 9.8869622,12.642266 12.090881,13.058428 17.389404,13.582381 C 20.219995,13.862287 23.104202,14.602388 25.957435,14.550299 C 28.54006,14.50315 31.058515,13.696439 33.579909,13.44866 C 39.900631,12.827519 42.576748,12.442648 46.856291,12.159214 C 47.015581,11.522054 46.524173,11.013702 45.488787,10.854412 z"
           style="fill:#000000;fill-opacity:1;display:inline"
           inkscape:connector-curvature="0" />
        <path
           style="fill:#ffffff;fill-opacity:1;stroke:#000000;stroke-width:0.78390145;stroke-miterlimit:4;stroke-opacity:1;stroke-dasharray:none;display:inline"
           id="path3173-9-8-0-2-3-1"
           d="M 32.928411,13.09944 C 34.362132,15.161393 34.377001,16.752834 33.565961,20.504791 C 37.979057,17.64686 38.513018,16.459129 38.119798,12.619333 C 36.234493,11.90051 34.978493,12.210629 32.928411,13.09944 z"
           sodipodi:nodetypes="cccc"
           inkscape:connector-curvature="0" />
        <path
           style="fill:#ffffff;fill-opacity:1;stroke:#000000;stroke-width:0.82430249;stroke-miterlimit:4;stroke-opacity:1;stroke-dasharray:none;display:inline"
           id="path3173-9-8-8-9-0-9-7"
           d="M 13.918777,12.917562 C 14.828632,15.396713 14.420264,17.019675 12.596779,20.620765 C 17.846774,18.8877 18.706039,17.821491 19.327796,13.810582 C 18.418467,12.482568 15.983884,12.430891 13.918777,12.917562 z"
           sodipodi:nodetypes="cccc"
           inkscape:connector-curvature="0" />
      </g>
      <g
         inkscape:groupmode="layer"
         id="layerLipsNormalSad"
         inkscape:label="LipsNormalSad"
         style="display:none">
        <path
           sodipodi:nodetypes="cszsccssscc"
           id="path3147"
           d="M 43.961317,14.496775 C 40.151156,13.42546 37.477075,13.19236 33.285261,13.218558 C 30.449186,13.236284 30.108207,13.823966 25.997773,13.814264 C 21.887337,13.804561 20.914685,13.226973 17.691544,13.364084 C 13.436206,13.545105 11.091587,14.123496 6.7659407,15.039714 C 6.0250957,15.187883 5.3651901,14.768019 5.2911056,14.027174 C 10.845096,12.252379 12.895145,11.632725 17.823742,11.145354 C 20.45671,10.88499 23.139552,10.19656 25.793581,10.245012 C 28.195896,10.288869 30.53852,11.039259 32.883878,11.269738 C 38.763308,11.847513 41.601406,12.438059 45.233347,13.283069 C 45.381516,13.875745 44.924416,14.348606 43.961317,14.496775 z"
           style="fill:#000000;fill-opacity:1;display:inline"
           inkscape:connector-curvature="0" />
        <path
           style="fill:#ffffff;fill-opacity:1;stroke:#000000;stroke-width:0.76458097;stroke-miterlimit:4;stroke-opacity:1;stroke-dasharray:none;display:inline"
           id="path3149"
           d="M 32.158712,13.123252 C 33.557099,15.134384 33.5716,16.686601 32.780549,20.346086 C 37.084878,17.558594 37.605679,16.400136 37.222149,12.654976 C 35.383313,11.953871 34.158267,12.256347 32.158712,13.123252 z"
           sodipodi:nodetypes="cccc"
           inkscape:connector-curvature="0" />
        <path
           style="fill:#ffffff;fill-opacity:1;stroke:#000000;stroke-width:0.78677648;stroke-miterlimit:4;stroke-opacity:1;stroke-dasharray:none;display:inline"
           id="path3151"
           d="M 13.012205,13.167405 C 14.126883,15.428156 13.903721,17.009853 12.537885,20.612316 C 17.345005,18.435646 18.052508,17.336677 18.236286,13.467001 C 17.238724,12.298721 14.922862,12.496309 13.012205,13.167405 z"
           sodipodi:nodetypes="cccc"
           inkscape:connector-curvature="0" />
      </g>
      <g
         style="display:none"
         inkscape:label="LipsSadSilly"
         id="layerLipsSadSilly"
         inkscape:groupmode="layer">
        <path
           style="fill:#000000;fill-opacity:1;display:inline"
           d="M 42.402836,18.561294 C 40.709687,14.33853 37.397514,9.3917772 33.263224,7.023322 C 30.037375,5.957296 24.933465,9.8096317 21.808244,9.7323751 C 18.5476,9.7211041 17.203077,6.6817974 14.101732,7.6182818 C 9.7998361,9.938422 7.3892029,13.393592 3.9782367,20.095155 L 2.7383685,18.952662 C 6.3587774,11.957952 9.1148531,8.3208423 13.840565,5.8166211 C 17.435893,3.9114047 18.431178,6.8087217 22.02243,6.9928151 C 25.43855,7.1679293 31.528078,3.5181837 34.449345,5.1948362 C 39.043846,7.8318552 42.666148,13.740364 44.512726,18.884885 L 42.402836,18.561294 z"
           id="path3328"
           sodipodi:nodetypes="ccccccssscc"
           inkscape:connector-curvature="0" />
        <path
           style="fill:#ffffff;fill-opacity:1;stroke:#000000;stroke-width:0.7306267;stroke-miterlimit:4;stroke-opacity:1;stroke-dasharray:none;display:inline"
           id="path3173-9-8-0-2-3"
           d="M 29.548899,6.7226474 C 30.564773,8.8835606 30.373595,10.4018 29.167039,13.865248 C 33.476552,11.747102 34.106147,10.688685 34.24819,6.9765449 C 32.656346,6.0333892 31.494484,6.156754 29.548899,6.7226474 z"
           sodipodi:nodetypes="cccc"
           inkscape:connector-curvature="0" />
        <path
           style="fill:#ffffff;fill-opacity:1;stroke:#000000;stroke-width:0.73706067;stroke-miterlimit:4;stroke-opacity:1;stroke-dasharray:none;display:inline"
           id="path3173-9-8-8-9-0-9"
           d="M 13.154365,7.9926735 C 14.496662,9.9668413 14.538904,11.511558 13.868309,15.169599 C 17.833939,12.310192 18.298572,11.146851 17.871359,7.4266986 C 16.800786,6.4752372 14.760225,7.041212 13.154365,7.9926735 z"
           sodipodi:nodetypes="cccc"
           inkscape:connector-curvature="0" />
      </g>
      <g
         inkscape:groupmode="layer"
         id="layerLipsSadSmirk"
         inkscape:label="LipsSadSmirk"
         style="display:none">
        <path
           style="fill:#000000;fill-opacity:1;display:inline"
           d="M 42.243263,19.297334 C 38.320884,13.330135 27.742143,8.5114891 18.227801,9.0511325 C 14.093368,9.2863208 9.8030311,10.114449 5.7182701,11.973192 C 5.5192851,11.106976 5.4142351,11.043066 5.2595706,10.358383 C 12.137582,6.7527768 19.644311,5.8659818 26.305916,7.0047818 C 28.127344,7.3161548 30.139475,6.8903714 32.693004,7.8712635 C 35.280334,8.8651394 36.536617,10.595229 38.570658,12.153891 C 40.607648,13.714816 42.299063,15.558792 43.528679,17.631154 L 42.243263,19.297334 z"
           id="seg-88-6-8"
           sodipodi:nodetypes="ccccssscc"
           inkscape:connector-curvature="0" />
        <path
           style="fill:#ffffff;fill-opacity:1;stroke:#000000;stroke-width:0.83739775;stroke-miterlimit:4;stroke-opacity:1;stroke-dasharray:none;display:inline"
           id="path3173-9-8-0-2-3-89"
           d="M 36.602282,14.086444 C 36.336701,16.756069 35.244849,18.059243 31.983355,20.544681 C 37.550943,21.284172 38.808618,20.68967 41.152718,17.297515 C 40.119753,15.405779 38.884277,14.786466 36.602282,14.086444 z"
           sodipodi:nodetypes="cccc"
           inkscape:connector-curvature="0" />
        <path
           style="fill:#ffffff;fill-opacity:1;stroke:#000000;stroke-width:0.81489849;stroke-miterlimit:4;stroke-opacity:1;stroke-dasharray:none;display:inline"
           id="path3173-9-8-8-9-0-9-27"
           d="M 16.783869,8.1734192 C 17.832101,10.564448 17.527647,12.190652 15.946903,15.854606 C 21.022041,13.825939 21.805197,12.721735 22.175288,8.7263292 C 21.197439,7.4711246 18.792033,7.5678818 16.783869,8.1734192 z"
           sodipodi:nodetypes="cccc"
           inkscape:connector-curvature="0" />
      </g>
      <g
         inkscape:groupmode="layer"
         id="layerLipsSad"
         inkscape:label="LipsSad"
         style="display:none">
        <path
           style="fill:#000000;fill-opacity:1;display:inline"
           d="M 24.61107,8.6168925 C 26.27055,8.6626966 27.243122,8.1798463 28.231201,8.2687111 C 34.08218,8.7949306 39.317234,10.831072 45.922571,17.40927 L 47.089454,16.578893 C 40.420144,9.0616123 36.493571,7.663717 29.792837,6.2553165 C 29.117067,6.113279 27.380523,4.9968777 24.526939,4.9783594 C 22.320519,4.964041 20.440434,5.7648642 19.294802,6.0906802 C 11.516639,8.3027818 5.1739151,11.646182 2.8658464,17.660201 L 4.1715473,18.900226 C 7.6230066,12.752374 14.083756,9.1328155 20.786826,8.201094 C 21.684836,8.0762713 22.95159,8.5710884 24.61107,8.6168925 z"
           id="seg-0-7"
           sodipodi:nodetypes="csccsssccsz"
           inkscape:connector-curvature="0" />
        <path
           style="fill:#ffffff;fill-opacity:1;stroke:#000000;stroke-width:0.79726964;stroke-miterlimit:4;stroke-opacity:1;stroke-dasharray:none;display:inline"
           id="path3173-9-8-0-2-3-54"
           d="M 30.745654,8.2135295 C 31.35815,10.76916 30.82365,12.340556 28.782892,15.734419 C 33.839041,14.543588 34.740838,13.571059 35.700769,9.6483406 C 34.208951,8.248412 32.943296,8.0921288 30.745654,8.2135295 z"
           sodipodi:nodetypes="cccc"
           inkscape:connector-curvature="0" />
        <path
           style="fill:#ffffff;fill-opacity:1;stroke:#000000;stroke-width:0.74339592;stroke-miterlimit:4;stroke-opacity:1;stroke-dasharray:none;display:inline"
           id="path3173-9-8-8-9-0-9-3"
           d="M 13.133906,10.463105 C 14.833274,12.125844 15.166721,13.643391 15.194753,17.402606 C 18.573962,13.724952 18.81347,12.475447 17.688761,8.8906349 C 16.45106,8.1802607 14.541283,9.177881 13.133906,10.463105 z"
           sodipodi:nodetypes="cccc"
           inkscape:connector-curvature="0" />
      </g>
      <g
         style="display:none"
         inkscape:label="LipsSadAlt1"
         id="layerLipsSadAlt1"
         inkscape:groupmode="layer">
        <path
           sodipodi:nodetypes="ccccszscc"
           id="path3308"
           d="M 5.1787874,22.001027 C 7.444158,15.302097 15.08291,8.523448 22.61305,7.363688 C 30.108755,6.210868 36.756505,11.122038 45.170332,19.945477 L 46.525287,19.647317 C 40.068943,9.673818 32.537921,6.7234866 29.881463,6.0829365 C 29.238348,5.9278626 28.137955,4.8703977 24.482285,4.8214114 C 20.826614,4.7724251 19.809402,5.987906 19.115791,6.1662115 C 11.492451,8.1259315 6.6515318,12.912098 3.9147801,20.447347 L 5.1787874,22.001027 z"
           style="fill:#000000;fill-opacity:1;display:inline"
           inkscape:connector-curvature="0" />
        <path
           style="fill:#ffffff;fill-opacity:1;stroke:#000000;stroke-width:0.64477193;stroke-miterlimit:4;stroke-opacity:1;stroke-dasharray:none;display:inline"
           id="path3173-9-8-0-2-6"
           d="M 30.842366,8.3860387 C 31.026132,10.703208 30.38479,12.02679 28.265812,14.786948 C 32.602584,14.300555 33.47225,13.544819 34.76329,10.199189 C 34.189746,9.356352 32.069723,8.1057384 30.842366,8.3860387 z"
           sodipodi:nodetypes="cccc"
           inkscape:connector-curvature="0" />
        <path
           style="fill:#ffffff;fill-opacity:1;stroke:#000000;stroke-width:0.6560145;stroke-miterlimit:4;stroke-opacity:1;stroke-dasharray:none;display:inline"
           id="path3173-9-8-8-9-0-4"
           d="M 14.394524,10.048218 C 16.127207,11.237735 16.725964,12.47902 17.201916,15.655958 C 19.810125,12.112414 19.876443,11.024641 18.431871,8.1354971 C 17.85203,8.1354971 15.90211,8.1927285 14.394524,10.048218 z"
           sodipodi:nodetypes="cccc"
           inkscape:connector-curvature="0" />
      </g>
      <g
         style="display:none"
         inkscape:label="LipsSadOpen"
         id="layerLipsSadOpen"
         inkscape:groupmode="layer">
        <path
           sodipodi:nodetypes="ccccssscc"
           id="path3312"
           d="M 4.4773206,23.267813 C 6.8923479,20.220679 15.035732,17.693115 23.063328,17.165566 C 29.783295,16.958912 38.489673,18.828222 47.459334,22.841747 L 48.555263,22.197186 C 41.672397,17.660547 33.00117,15.795871 25.027722,15.745737 C 24.316935,15.740944 23.611693,15.751728 22.913758,15.774974 C 22.139515,15.801335 21.374264,15.844712 20.620408,15.904216 C 12.386339,16.554405 5.5117855,19.133541 3.1298098,22.561092 L 4.4773206,23.267813 z"
           style="fill:#000000;fill-opacity:1;display:inline"
           inkscape:connector-curvature="0" />
        <path
           sodipodi:nodetypes="czccszscc"
           id="path3314"
           d="M 4.0835848,23.05201 C 6.1695787,16.25167 14.464009,8.6952925 23.281547,8.9399314 C 32.099084,9.1845702 35.769234,11.334816 44.353294,20.019411 L 46.647619,21.052242 C 41.217116,12.996211 34.28467,8.7516418 27.879788,7.4913046 C 26.422066,7.2044578 26.341468,6.490857 23.612533,6.5022511 C 20.883597,6.5136451 20.385259,7.2842789 18.869513,7.6331364 C 11.307033,9.3736838 5.4555337,15.086138 2.6092527,22.346805 L 4.0835848,23.05201 z"
           style="fill:#000000;fill-opacity:1;display:inline"
           inkscape:connector-curvature="0" />
        <path
           style="fill:url(#linearGradientLipsSadOpen-0);fill-opacity:1;display:inline"
           d="M 23.814807,7.8968434 C 30.172406,7.8336866 36.483328,11.534483 43.847866,18.905663 C 37.898089,16.170969 31.132863,15.013599 24.825822,14.973942 C 24.115035,14.969149 23.426838,14.950696 22.728903,14.973942 C 21.95466,15.000303 21.198617,15.064217 20.44476,15.123722 C 13.882078,15.641932 8.7645489,17.668925 5.5153326,20.090737 C 8.3836969,14.306279 14.432166,9.3539811 21.04388,8.1589581 C 21.971839,7.9914455 22.892632,7.9060039 23.814807,7.8968434 z"
           id="path3312-7"
           sodipodi:nodetypes="ccssscsc"
           inkscape:connector-curvature="0" />
        <path
           style="fill:#ffffff;fill-opacity:1;stroke:#000000;stroke-width:0.59911948;stroke-miterlimit:4;stroke-opacity:1;stroke-dasharray:none;display:inline"
           id="path3173-9-8-0-2-61"
           d="M 29.971535,9.4659384 C 30.408581,11.334942 29.970396,12.469645 28.336313,14.906201 C 32.277068,14.120411 32.991285,13.427244 33.794673,10.588732 C 32.94739,10.05918 31.13655,9.4659384 29.971535,9.4659384 z"
           sodipodi:nodetypes="cccc"
           inkscape:connector-curvature="0" />
        <path
           style="fill:#ffffff;fill-opacity:1;stroke:#000000;stroke-width:0.56539762;stroke-miterlimit:4;stroke-opacity:1;stroke-dasharray:none;display:inline"
           id="path3173-9-8-8-9-0-8"
           d="M 14.303441,10.747877 C 15.653767,11.955248 15.929963,13.069418 15.987449,15.837475 C 18.606689,13.095199 18.729976,11.928459 17.812844,9.2998916 C 17.177382,9.2998916 15.256635,10.006504 14.303441,10.747877 z"
           sodipodi:nodetypes="cccc"
           inkscape:connector-curvature="0" />
      </g>
      <g
         inkscape:groupmode="layer"
         id="layerLipsSadOpenAlt1"
         inkscape:label="LipsSadOpenAlt1"
         style="display:none">
        <path
           style="fill:#000000;fill-opacity:1;display:inline"
           d="M 42.031482,18.388359 C 40.669169,14.18482 37.8685,9.2076562 34.216822,6.7231147 C 31.335522,5.5504661 29.036777,5.4493323 26.206224,5.2491648 C 23.250164,5.1085988 19.668686,5.7487894 16.818274,6.5424875 C 12.822638,8.6436224 8.8888564,12.707331 5.5216408,19.135429 L 4.4185641,18.580307 C 7.9876931,11.873411 12.242144,7.6452795 16.629603,5.380723 C 18.552539,4.3903566 20.681808,4.000457 22.840022,3.8221866 C 24.119724,3.716482 24.890341,3.1942988 26.814017,3.2232194 C 28.737692,3.2521399 29.183067,4.0257455 30.404133,4.1618477 C 32.100459,4.3509235 33.750106,4.6207262 35.341538,5.592734 C 39.399504,8.3586633 42.467639,13.67687 43.931315,18.789355 L 42.031482,18.388359 z"
           id="seg-5-4-6-9-7"
           sodipodi:nodetypes="cccccccszsccc"
           inkscape:connector-curvature="0" />
        <path
           style="fill:#000000;fill-opacity:1;display:inline"
           d="M 5.4322461,17.043792 C 9.9239344,25.143342 17.71298,25.774685 25.725753,26.800894 C 33.297891,26.891186 37.885773,23.206461 42.745898,17.563287 L 44.205752,18.642851 C 39.677901,23.710083 36.815014,26.425333 31.442222,27.56437 C 27.525418,28.854196 23.292762,28.286421 19.087182,27.581 C 12.219975,26.434256 6.2605474,23.019064 4.2468979,18.099295 L 5.4322461,17.04376 L 5.4322461,17.043771 z"
           id="seg-0-4-8-4-1"
           sodipodi:nodetypes="ccccccccc"
           inkscape:connector-curvature="0" />
        <path
           style="fill:url(#linearGradientLipsSadOpenAlt1-0);fill-opacity:1;display:inline"
           d="M 25.019266,4.9074974 C 25.419849,4.9018901 25.810416,4.8899272 26.193485,4.9074974 C 29.127916,5.1076649 31.495044,5.2339462 34.482084,6.4065948 C 38.259131,8.8854639 41.182131,13.835481 42.598005,18.03293 C 37.824636,23.213568 33.14137,26.547064 25.675447,26.461189 C 17.754475,25.482648 10.070336,24.844342 5.3338428,17.766424 C 8.6903114,11.944492 12.543059,8.1907025 16.454379,6.2067151 C 19.04002,5.5122298 22.215185,4.9467164 25.019266,4.9074974 z"
           id="seg-5-4-6-9-7-2"
           sodipodi:nodetypes="cccccccc"
           inkscape:connector-curvature="0" />
        <path
           style="fill:#ffffff;fill-opacity:1;stroke:#000000;stroke-width:0.53301239;stroke-miterlimit:4;stroke-opacity:1;stroke-dasharray:none;display:inline"
           id="path3173-9-8-0-2-8"
           d="M 30.50092,5.4584272 C 31.058834,7.0723487 30.774981,8.1166025 29.552057,10.422436 C 32.967404,9.3661853 33.53596,8.687383 33.986967,6.1019061 C 33.044725,5.3481127 32.196955,5.0815306 30.50092,5.4584272 z"
           sodipodi:nodetypes="cccc"
           inkscape:connector-curvature="0" />
        <path
           style="fill:#ffffff;fill-opacity:1;stroke:#000000;stroke-width:0.53301239;stroke-miterlimit:4;stroke-opacity:1;stroke-dasharray:none;display:inline"
           id="path3173-9-8-8-9-0-41"
           d="M 16.466152,6.3843941 C 17.678058,7.5874173 17.883322,8.649927 17.801393,11.2587 C 20.402031,8.8057564 20.519138,7.7574402 19.784902,5.2377172 C 18.748436,4.9550448 17.691066,5.3479282 16.466152,6.3843941 z"
           sodipodi:nodetypes="cccc"
           inkscape:connector-curvature="0" />
        <path
           style="fill:#000000;fill-opacity:1;stroke:#000000;stroke-width:0;stroke-linejoin:miter;stroke-miterlimit:4;stroke-opacity:0;stroke-dasharray:none;display:inline"
           d="M 21.265283,11.75094 C 18.661518,12.3669 16.47642,13.866595 15.502086,15.681906 C 14.004934,18.293017 15.559545,21.32638 18.566908,23.210706 C 19.960438,24.129407 20.606805,23.420895 22.364621,23.177393 C 23.126018,23.071963 24.012556,23.368286 25.529382,23.510526 C 26.074163,23.561589 27.073086,23.096791 27.861312,23.110767 C 28.818853,23.127716 29.560668,23.609741 29.893422,23.510526 C 33.453786,22.508068 33.37302,20.956469 33.324689,18.280342 C 33.32906,17.12993 32.930239,15.964893 32.158724,14.949014 C 31.118116,13.53133 29.306355,12.415916 27.195046,11.85088 C 24.738428,13.299267 24.64163,14.437814 24.629924,15.182207 C 24.626193,15.41842 24.819973,15.66737 25.029683,15.915099 C 25.06564,15.88104 25.090532,15.846884 25.129623,15.815159 C 25.44866,15.55635 25.596285,15.446634 25.762575,15.348773 C 26.301195,15.422883 26.797924,15.701137 27.095106,16.214919 C 27.231843,16.452461 27.332244,16.731738 27.328299,17.014437 L 27.328299,17.04775 C 27.325208,17.512718 27.079797,17.92511 26.761974,18.213715 L 24.363418,20.878777 L 21.998175,18.213715 C 21.523637,17.767829 21.293439,17.052452 21.531789,16.381485 C 21.754551,15.812164 22.260976,15.472805 22.797694,15.348773 C 22.97153,15.429354 23.124132,15.523207 23.463959,15.748533 C 23.59059,15.832514 23.653301,15.902204 23.730466,15.981726 C 23.811206,15.801824 23.853606,15.589925 23.863719,15.348773 C 23.907287,14.309645 23.795546,13.093247 21.265283,11.75094 z"
           id="path3236-6-2-7-0"
           inkscape:connector-curvature="0" />
      </g>
      <g
         inkscape:groupmode="layer"
         id="layerLipsSadShock"
         inkscape:label="LipsSadShock"
         style="display:none">
        <path
           style="fill:#000000;fill-opacity:1;stroke:#000000;stroke-width:0;stroke-linejoin:miter;stroke-miterlimit:4;stroke-opacity:0;stroke-dasharray:none;display:inline"
           d="M 23.990586,4.3896103 C 22.95967,4.5892269 20.945807,5.1940063 19.980058,5.5404101 C 15.139081,7.2768081 9.9133085,10.994225 7.863872,14.537848 C 7.4309673,15.661097 6.6622811,16.236628 6.2861095,18.180489 C 6.9030859,21.474766 8.6277822,24.164097 11.73071,26.139438 C 13.431213,27.221988 18.249971,26.590851 20.562616,26.89399 C 21.316831,26.992882 21.733031,27.286309 23.999192,27.277824 C 26.012675,27.270491 26.08901,27.033737 26.93324,26.924265 C 34.976231,25.812739 41.793883,21.830064 44.128575,16.015546 C 42.085885,10.73563 39.075382,6.7983671 31.766543,4.4475625 C 30.528672,4.1699533 31.088984,3.9773031 27.867373,3.9773031 C 26.480036,3.8053137 25.281125,4.0967742 23.990586,4.3896103 z M 28.287132,5.6089429 C 29.248766,5.6089429 31.659,5.9714795 32.528688,6.1428743 C 38.778153,7.4774096 40.561389,12.014821 41.847067,16.015588 C 39.607359,21.544326 33.742929,23.488962 26.804517,25.159289 C 25.872207,25.332695 25.273833,25.099053 24.306189,25.099053 C 23.642105,25.099053 22.638975,25.38124 22.017217,25.298094 C 19.709143,24.989424 14.970846,25.423416 12.955661,24.255017 C 10.833495,23.02459 8.7944474,20.679537 8.6901154,18.368718 C 8.7563264,16.99558 9.7569977,15.906388 10.335852,14.723857 C 11.535788,10.516256 19.009809,6.9555777 24.167937,6.0947799 C 25.007964,5.9545925 27.419883,5.6089744 28.287132,5.6089744 L 28.287132,5.6089429 z"
           id="path11758-5"
           sodipodi:nodetypes="csccsssccccccccsssccsccc"
           inkscape:connector-curvature="0" />
        <path
           style="fill:url(#linearGradientLipsSadShock-0);fill-opacity:1;stroke:#000000;stroke-width:0;stroke-linejoin:miter;stroke-miterlimit:4;stroke-opacity:0;stroke-dasharray:none;display:inline"
           d="M 32.763218,5.6819916 C 39.102362,7.0165268 40.911187,11.553937 42.215315,15.554704 C 39.943468,21.083442 33.994883,23.028079 26.956906,24.698406 C 26.011218,24.871812 25.404257,24.63817 24.422728,24.63817 C 23.749114,24.63817 22.731589,24.920357 22.100908,24.83721 C 19.759714,24.52854 14.953423,24.962532 12.909321,23.794133 C 10.756703,22.563707 8.6883932,20.218653 8.5825649,17.907835 C 8.6497262,16.534696 9.6647558,15.445504 10.251919,14.262973 C 11.469071,10.055372 19.050345,6.494695 24.282491,5.6338972 C 25.134573,5.4937098 27.581102,5.1480916 28.460796,5.1480916 C 29.917735,5.1956864 31.342243,5.4514262 32.763218,5.6819916 z"
           id="path11758-5-9"
           sodipodi:nodetypes="ccsssccsccc"
           inkscape:connector-curvature="0" />
        <path
           style="fill:#ffffff;fill-opacity:1;stroke:#000000;stroke-width:0.64234298;stroke-miterlimit:4;stroke-opacity:1;stroke-dasharray:none;display:inline"
           id="path3173-9-8-0-2-8-8"
           d="M 32.47311,6.0825246 C 32.842599,8.106982 32.313555,9.2989783 30.43526,11.822023 C 34.696633,11.188292 35.509405,10.444585 36.32877,7.5188881 C 35.647462,7.064683 33.722174,6.1960758 32.47311,6.0825246 z"
           sodipodi:nodetypes="cccc"
           inkscape:connector-curvature="0" />
        <path
           style="fill:#ffffff;fill-opacity:1;stroke:#000000;stroke-width:0.70862067;stroke-miterlimit:4;stroke-opacity:1;stroke-dasharray:none;display:inline"
           id="path3173-9-8-8-9-0-41-3"
           d="M 17.307669,7.663371 C 18.724723,9.2818055 18.92104,10.49917 18.671242,13.761716 C 22.463895,10.809425 22.806095,9.7425037 21.900682,6.5541565 C 20.837275,6.2000046 18.636926,6.9550671 17.307669,7.663371 z"
           sodipodi:nodetypes="cccc"
           inkscape:connector-curvature="0" />
        <path
           style="fill:#000000;fill-opacity:1;stroke:#000000;stroke-width:0;stroke-linejoin:miter;stroke-miterlimit:4;stroke-opacity:0;stroke-dasharray:none;display:inline"
           d="M 24.419804,12.492444 C 22.258225,12.906285 20.091052,13.97978 18.792991,15.321162 C 16.94874,17.156877 17.175309,19.278272 18.781642,20.561618 C 19.512564,21.188053 20.192579,20.678418 21.527313,20.490994 C 22.105448,20.409701 22.647329,20.607032 23.695369,20.690845 C 24.071781,20.720916 24.908303,20.3878 25.470563,20.389566 C 26.153596,20.391713 26.553776,20.734087 26.822074,20.661544 C 29.67538,19.92653 31.002504,18.872516 31.75539,17.007125 C 32.097131,16.204978 31.745196,15.337201 31.489819,14.636711 C 31.131137,13.57532 29.48857,12.78334 27.955438,12.452624 C 26.124507,13.302629 25.787809,14.688402 25.598091,15.12056 C 25.54373,15.244391 25.606056,15.359087 25.695574,15.50148 C 25.725801,15.485277 25.749769,15.463233 25.781888,15.448133 C 26.093977,15.301466 26.22978,15.256125 26.38937,15.202451 C 26.873771,15.269207 27.31635,15.458503 27.5443,15.786227 C 27.649094,15.93772 27.701366,16.12037 27.674277,16.294118 C 27.632779,16.580014 27.392087,16.834567 27.078624,16.999608 L 24.663156,18.544322 L 22.71856,16.805016 C 22.323443,16.512086 22.183102,16.090414 22.455975,15.687052 C 22.706196,15.345597 23.197719,15.122424 23.69686,15.067214 C 23.84849,15.123614 23.968949,15.207516 24.259722,15.359477 C 24.338574,15.400693 24.355935,15.445962 24.409053,15.483444 C 24.503225,15.38296 24.607346,15.26454 24.663395,15.144599 C 24.942361,14.54763 25.570691,13.22718 24.419804,12.492441 z"
           id="path3236-8-2-6-6"
           inkscape:connector-curvature="0" />
      </g>
    </g>
    <g
       inkscape:groupmode="layer"
       id="layerTongue"
       inkscape:label="Tongue"
       style="display:inline">
      <g
         inkscape:groupmode="layer"
         id="layerTongueHappyLeft"
         inkscape:label="TongueHappyLeft"
         style="display:none">
        <path
           style="fill:#00ff00;fill-opacity:1;fill-rule:nonzero;stroke:none"
           d="M 37.890352,26.875838 C 39.414482,25.496579 41.055542,23.231653 41.056353,20.952158 C 41.056757,19.806514 39.884946,17.339826 39.314153,15.770792 L 38.479634,14.867648 C 38.534825,14.144122 39.157765,14.005473 39.52959,14.22511 C 39.946954,14.062397 41.267137,15.981382 41.566652,16.580764 C 41.728347,16.904342 41.930893,17.644203 42.144161,18.288613 C 42.481224,19.307082 42.58626,19.506776 42.947559,19.816038 C 43.17616,20.011708 43.757482,20.334017 44.11198,20.468576 C 44.6625,20.677538 44.782642,20.712426 45.851039,20.70775 C 46.938785,20.70315 47.07987,20.604606 47.805528,20.2533 C 49.307707,19.52608 49.679669,19.500345 49.13458,20.106368 C 48.632879,20.664165 46.95658,21.678285 46.22535,21.865617 C 45.621994,22.02019 44.035081,22.089452 43.309627,21.949697 C 43.155687,21.920047 43.179239,22.075965 43.038059,22.48526 C 42.31557,24.579808 40.402618,26.606095 38.10028,27.198883 C 37.177566,27.436464 37.181867,27.516948 37.890352,26.875806 z"
           id="path12614"
           sodipodi:nodetypes="cscccssssssssssscc"
           inkscape:connector-curvature="0" />
        <path
           style="fill:#000000;fill-opacity:1;display:inline"
           d="M 37.30045,14.710099 C 38.423132,15.767885 38.253687,15.451181 39.128876,16.583602 C 39.853392,17.768866 39.849662,17.66517 40.408208,19.782174 C 40.750208,21.078425 40.461948,22.875375 39.795496,24.260333 C 39.157919,25.277302 39.027862,25.949586 37.078268,27.400737 L 37.081568,27.615245 C 41.396752,27.203032 42.97702,24.142008 43.612552,22.30117 C 45.252282,22.553799 48.062941,22.523412 49.782735,19.314188 C 49.783314,19.313839 49.783735,19.313571 49.784235,19.313199 L 49.646687,19.239469 C 47.897877,20.305803 47.350904,20.158243 46.372734,20.300024 C 45.184975,20.323864 43.374276,20.193734 42.984317,19.215677 C 41.597061,15.736229 41.088978,13.90838 39.695576,13.611213 L 39.305717,14.148543 C 40.428398,15.20633 40.26046,14.888625 41.13565,16.021047 C 42.098222,17.668413 42.245561,19.104061 42.524158,19.515705 C 43.346042,20.713923 46.428077,21.763117 49.362565,19.641868 C 48.318613,20.949655 47.775559,21.042931 46.985784,21.502034 C 45.964271,21.93718 44.704731,21.97323 43.655463,21.802621 L 43.219965,21.661712 L 43.151465,21.895501 C 42.768941,23.160494 41.989018,24.645728 40.880151,25.618379 C 39.941418,26.272464 39.545743,26.818377 37.465381,27.363499 C 41.228933,25.096527 41.19305,21.591146 41.002426,19.848434 C 40.34788,17.51662 40.432764,15.299906 37.969565,14.28488 L 37.30045,14.710099 z"
           id="seg-8-1-5-1-5"
           sodipodi:nodetypes="ccsccccccccscccccccccccccc"
           inkscape:connector-curvature="0" />
      </g>
      <g
         inkscape:groupmode="layer"
         id="layerTongueHappyRight"
         inkscape:label="TongueHappyRight"
         style="display:none">
        <path
           style="fill:#00ff00;fill-opacity:1;fill-rule:nonzero;stroke:none;display:inline"
           d="M 8.074289,24.519957 C 7.2151141,22.952447 6.5714324,20.965537 7.2076551,19.076136 C 7.5274127,18.126533 9.0710907,15.695515 9.9755614,14.554081 C 9.9755614,14.554081 10.541244,14.248437 10.806409,14.027466 C 11.143622,13.312993 10.445081,13.065437 10.172675,13.06881 C 9.877334,12.81774 8.5636647,13.935307 8.1516294,14.348653 C 7.9291889,14.571806 7.0241254,15.575745 6.6699351,16.050419 C 6.1101438,16.800646 5.8977413,17.061833 5.5163128,17.217534 C 5.2749758,17.316044 4.7728631,17.501244 4.4457982,17.51405 C 3.9378869,17.53393 3.7771261,17.689907 2.9060222,17.388543 C 2.0191454,17.081703 1.9314368,16.960858 1.4370481,16.467642 C 0.41361726,15.446644 0.11707985,15.321736 0.39285156,15.975787 C 0.64667426,16.577767 1.7321224,17.885039 2.276873,18.243911 C 2.7263586,18.540032 3.8860905,18.763591 4.5175016,18.849806 C 4.6515406,18.867836 4.5181434,19.204777 4.5190716,19.583301 C 4.5238116,21.520394 6.0982386,23.596866 7.8125995,24.729283 C 8.4996693,25.183121 8.4736702,25.248623 8.0742869,24.519976 z"
           id="path12614-2"
           sodipodi:nodetypes="cscccssssssssssscc"
           inkscape:connector-curvature="0" />
        <path
           style="fill:#000000;fill-opacity:1;display:inline"
           d="M 10.592055,15.241117 C 9.6970464,15.998207 9.0531626,16.52383 8.0371065,18.0747 C 7.414971,19.024312 7.156308,20.546634 7.3088204,21.839919 C 7.5381843,22.829601 7.4590016,23.405143 8.609815,25.098192 L 8.549159,25.269753 C 5.2432508,23.772927 4.1350677,20.807671 4.130587,19.156279 C 2.7634811,18.916451 0.54569386,18.132932 0.05330876,15.088729 C 0.05294208,15.088303 0.05265531,15.087942 0.05236239,15.087529 L 0.18126925,15.065429 C 1.2773412,16.39493 1.7505277,16.424041 2.4868089,16.802201 C 3.4210416,17.142162 4.8903582,17.52662 5.464254,16.845731 C 7.5058563,14.423485 8.8287162,12.181169 10.012808,12.318634 L 10.144833,13.060806 C 8.9690252,13.607878 9.6642514,13.262927 8.664232,13.936831 C 7.4554561,15.001078 6.0795915,16.955526 5.7473917,17.21118 C 4.7717569,17.952377 2.0464899,17.963339 0.29724391,15.465632 C 0.76964276,16.798842 1.1744598,17.020495 1.675541,17.60285 C 2.366651,18.228526 3.354424,18.597699 4.2316697,18.743943 L 4.6147605,18.748343 L 4.6056705,18.954781 C 4.5658215,20.074949 5.4671646,21.557361 6.0817964,22.638703 C 6.648013,23.418025 6.8134451,23.963717 8.3133476,24.963791 C 5.946979,22.124998 6.9253294,19.316925 7.5485663,17.967544 C 8.6988661,16.269921 9.0742984,14.220032 11.086597,14.025741 L 11.684931,14.757591 C 11.52573,14.776451 10.739576,15.167143 10.592055,15.241117 z"
           id="seg-8-1-5-1-5-4"
           sodipodi:nodetypes="csccccccccsccccccccccccccc"
           inkscape:connector-curvature="0" />
      </g>
      <g
         inkscape:groupmode="layer"
         id="layerTongueHappyCenter"
         inkscape:label="TongueHappyCenter"
         style="display:none">
        <path
           style="fill:#00ff00;fill-opacity:1;fill-rule:nonzero;stroke:none;display:inline"
           d="M 18.338914,28.601488 C 20.364561,28.163411 22.926691,27.058434 24.04129,25.207709 C 24.601473,24.277544 24.767609,21.750121 25.028114,20.220565 C 25.028114,20.220565 25.092943,19.850862 24.72935,19.113745 C 25.145466,18.855794 25.607475,18.682336 25.974476,19.061785 C 26.424123,19.116455 26.657207,21.265451 26.629941,21.886201 C 26.615221,22.22132 26.433311,22.91277 26.307556,23.531493 C 26.108801,24.50938 26.104369,24.718542 26.273666,25.131338 C 26.38079,25.392524 26.73883,25.914369 26.987466,26.182262 C 27.373582,26.598281 27.463079,26.680366 28.412865,27.15463 C 29.379851,27.637475 29.55306,27.620688 30.368269,27.660108 C 32.055826,27.741728 32.398274,27.887245 31.618726,28.135482 C 30.90123,28.363956 28.919059,28.437426 28.179029,28.262368 C 27.568415,28.117919 26.127219,27.464111 25.55213,27.026043 C 25.430098,26.933113 25.374796,27.070253 25.049588,27.339437 C 23.385345,28.717072 20.698703,29.506596 18.367215,28.957806 C 17.432818,28.737872 17.397303,28.805152 18.338915,28.601509 z"
           id="path12614-8"
           sodipodi:nodetypes="cscccssssssssssscc"
           inkscape:connector-curvature="0" />
        <path
           style="fill:#000000;fill-opacity:1;display:inline"
           d="M 24.366922,18.19475 L 23.760581,18.458191 C 24.239338,19.819524 24.243821,19.486517 24.466623,20.797712 C 24.529983,22.084412 24.577333,21.998531 24.038202,23.96759 C 23.708085,25.173262 22.57436,26.50352 21.306556,27.329993 C 20.244182,27.870545 19.800323,28.358297 17.362229,28.664382 L 17.260266,28.840012 C 21.288594,30.436094 24.185825,28.657437 25.648974,27.446925 C 26.979715,28.38577 29.487184,29.618721 32.580572,27.782143 C 32.581258,27.78212 32.581772,27.782099 32.582272,27.782035 L 32.496282,27.66066 C 30.424291,27.74412 30.011318,27.379515 29.074553,27.056967 C 28.009543,26.54487 26.467311,25.629022 26.599415,24.660278 C 27.069374,21.214022 27.511969,19.502344 26.421447,18.637552 L 25.813136,18.899461 C 26.291892,20.260783 26.298201,19.927657 26.521,21.238843 C 26.56966,23.007319 25.998797,24.239084 26.044719,24.698016 C 26.188088,26.038798 28.40869,28.269862 32.047678,27.860302 C 30.482798,28.455197 29.955614,28.287953 29.030864,28.307394 C 27.912309,28.203679 26.777673,27.669382 25.930504,27.061345 L 25.613139,26.752048 L 25.43814,26.911246 C 24.480759,27.767339 23.063323,28.624476 21.604644,28.918171 C 20.452511,29.029294 19.834849,29.295557 17.72351,28.807388 C 22.168963,28.650452 23.850053,25.787814 24.532579,24.287327 C 25.091545,22.100868 26.055282,20.1212 24.366796,18.194785 z"
           id="seg-8-1-5-1-5-3"
           sodipodi:nodetypes="cccsccccccccsccccccccccccc"
           inkscape:connector-curvature="0" />
      </g>
      <g
         inkscape:groupmode="layer"
         id="layerTongueNormal"
         inkscape:label="TongueNormal"
         style="display:none">
        <path
           style="fill:none;stroke:#000000;stroke-width:0;stroke-linecap:butt;stroke-linejoin:miter;stroke-opacity:1;display:inline"
           d="M 0.1,0.1 L 0.1,0.1"
           id="path2937-2-4-7-0"
           inkscape:connector-curvature="0" />
      </g>
      <g
         inkscape:groupmode="layer"
         id="layerTongueSadLeft"
         inkscape:label="TongueSadLeft"
         style="display:none">
        <path
           style="fill:#00ff00;fill-opacity:1;fill-rule:nonzero;stroke:none;display:inline"
           d="M 42.821577,26.556663 C 40.634385,25.292799 38.055981,22.954068 37.401982,20.095914 C 37.073297,18.659443 37.744423,15.20828 37.966049,13.066392 C 37.966049,13.066392 38.810274,10.430937 39.122774,11.493437 C 38.859305,11.363965 38.289751,10.175702 37.370411,10.441707 C 36.829641,10.488266 35.730084,13.927154 35.549634,14.770266 C 35.452217,15.225424 35.426029,16.215082 35.359882,17.088294 C 35.255345,18.468399 35.189056,18.7509 34.852845,19.249091 C 34.640115,19.564299 34.04894,20.146076 33.670675,20.423121 C 33.083247,20.853353 32.951981,20.933807 31.694438,21.254392 C 30.414145,21.580895 30.220044,21.500497 29.266178,21.281678 C 27.291598,20.828737 26.846876,20.910115 27.661404,21.503517 C 28.411098,22.04967 30.6726,22.809171 31.586039,22.820662 C 32.339738,22.830145 34.225456,22.432156 35.038393,22.03524 C 35.210898,21.951022 35.227873,22.153736 35.511132,22.623841 C 36.960683,25.029581 39.79041,26.985993 42.667295,27.025886 C 43.820273,27.041882 43.838274,27.14412 42.821568,26.556618 z"
           id="path12614-0-3"
           sodipodi:nodetypes="cscccssssssssssscc"
           inkscape:connector-curvature="0" />
        <path
           style="fill:#000000;fill-opacity:1;display:inline"
           d="M 38.416751,14.029003 C 37.904439,15.736643 37.879117,15.605471 37.828877,18.430769 C 37.798118,20.160711 38.651854,22.325945 39.832228,23.859005 C 40.873228,24.939444 41.218752,25.742743 43.926793,26.966746 L 43.984367,27.23674 C 38.792538,28.038276 36.057539,24.682709 34.782915,22.568545 C 32.927314,23.386311 29.613873,24.206958 26.672361,20.70817 C 26.671585,20.707924 26.670929,20.707725 26.670257,20.707428 L 26.810864,20.572954 C 29.172583,21.375775 29.773432,21.023621 30.964172,20.902544 C 32.367551,20.569539 34.459267,19.85313 34.637575,18.507537 C 35.271881,13.720589 35.571391,11.069401 37.124602,10.271031 L 38.118281,10.15696 C 37.101289,11.826401 36.600608,12.249347 35.895996,13.936762 C 35.236166,16.29661 35.474219,18.14186 35.264579,18.743166 C 34.64149,20.496801 31.318254,22.754116 27.260214,20.990737 C 28.862346,22.311704 29.527585,22.262747 30.587718,22.597141 C 31.913459,22.830676 33.404738,22.491049 34.589575,21.956524 L 35.061259,21.646771 L 35.208784,21.919003 C 36.020953,23.388381 37.363475,25.012516 38.945915,25.893387 C 40.237054,26.42677 40.85868,26.990431 43.46091,27.038371 C 38.386321,25.345568 37.424266,20.938993 37.149137,18.695455 C 37.250709,15.571461 36.33633,13.337825 38.941735,11.312428 L 39.969948,11.614439 C 41.136487,10.955594 38.291632,13.235099 38.416751,14.029003 z"
           id="seg-8-1-5-1-5-5-7"
           sodipodi:nodetypes="csccccccccsccccccccccccccc"
           inkscape:connector-curvature="0" />
      </g>
      <g
         inkscape:groupmode="layer"
         id="layerTongueSadRight"
         inkscape:label="TongueSadRight"
         style="display:none">
        <path
           style="fill:#00ff00;fill-opacity:1;fill-rule:nonzero;stroke:none;display:inline"
           d="M 4.586297,27.41041 C 6.6658746,26.029195 9.2091401,23.541944 10.098956,20.619005 C 10.546168,19.149952 10.322872,15.688827 10.357428,13.531623 C 10.357428,13.531623 10.144517,11.554147 9.5022621,10.722287 C 9.6878111,9.953937 10.39945,9.8584189 10.659202,9.8608636 C 11.144828,9.7583185 12.250757,14.298219 12.319965,15.142986 C 12.357326,15.599043 12.273655,16.59933 12.238057,17.479927 C 12.1818,18.871678 12.210164,19.154465 12.455009,19.642915 C 12.60993,19.951956 13.072242,20.513077 13.378342,20.775761 C 13.853705,21.183682 13.961619,21.258981 15.044136,21.524623 C 16.146216,21.795205 16.327333,21.704783 17.198355,21.438759 C 19.00143,20.888135 19.387708,20.949704 18.599999,21.588262 C 17.874988,22.176008 15.78389,23.050291 14.971187,23.104606 C 14.300607,23.149425 12.668417,22.834773 11.989122,22.471103 C 11.844976,22.393943 11.807993,22.599874 11.505561,23.088848 C 9.9578881,25.591143 7.232676,27.703229 4.6726561,27.878041 C 3.6466671,27.94811 3.6196297,28.052413 4.5863119,27.410361 z"
           id="path12614-0"
           sodipodi:nodetypes="cscccssssssssssscc"
           inkscape:connector-curvature="0" />
        <path
           style="fill:#000000;fill-opacity:1;display:inline"
           d="M 9.8530291,14.526825 C 10.123629,16.230995 10.160296,16.097071 9.8996421,18.953862 C 9.7400431,20.703091 8.7476601,22.934158 7.533407,24.540743 C 6.4918809,25.682756 6.0981347,26.511823 3.5601577,27.877055 L 3.4798076,28.15295 C 8.0054083,28.72148 10.797654,25.197893 12.158423,22.998839 C 13.718498,23.739702 16.573351,24.415338 19.564529,20.737177 C 19.56525,20.736877 19.565827,20.736636 19.566414,20.736235 L 19.456035,20.606717 C 17.271232,21.529523 16.775513,21.201229 15.730797,21.134331 C 14.520074,20.862908 12.637369,20.232422 12.726276,18.882312 C 13.043324,14.067718 12.463823,10.238571 11.170277,9.5032365 L 10.540424,9.8994606 C 11.263497,11.54136 11.658635,12.640948 12.10226,14.315634 C 12.433436,16.672916 12.022575,18.551393 12.143837,19.150105 C 12.507874,20.895643 15.216196,23.024685 19.011731,21.050561 C 17.445731,22.462206 16.86005,22.443751 15.882138,22.831692 C 14.679167,23.129977 13.391069,22.855987 12.396263,22.370427 L 12.010708,22.079006 L 11.850247,22.361395 C 10.969976,23.88633 9.6018421,25.592655 8.100882,26.558028 C 6.8962584,27.158122 6.283125,27.757585 3.9662227,27.927721 C 8.6571931,25.977479 9.9879861,21.473175 10.474822,19.189906 C 10.722146,16.033237 11.360636,12.374124 9.2649451,10.446236 L 8.6633771,11.037448 C 9.0977561,11.702565 9.6163881,13.783411 9.8530291,14.526825 z"
           id="seg-8-1-5-1-5-5"
           sodipodi:nodetypes="csccccccccsccccccccccccccc"
           inkscape:connector-curvature="0" />
      </g>
      <g
         inkscape:groupmode="layer"
         id="layerTongueSadCenter"
         inkscape:label="TongueSadCenter"
         style="display:none">
        <path
           style="fill:#00ff00;fill-opacity:1;fill-rule:nonzero;stroke:none;display:inline"
           d="M 15.002681,23.80083 C 17.349026,22.73919 20.401384,20.580064 21.939627,17.610588 C 22.712728,16.118163 23.28775,12.339073 23.815723,10.019457 L 23.883085,8.2129374 C 24.158021,7.7344778 24.494856,7.7574515 25.247723,8.0639511 C 25.745244,8.0533095 25.488093,11.236368 25.362095,12.161787 C 25.294073,12.66138 24.983232,13.723042 24.746728,14.665506 C 24.372947,16.155047 24.335844,16.465902 24.462929,17.043142 C 24.543343,17.408367 24.866053,18.108752 25.104658,18.455094 C 25.475195,18.992953 25.563286,19.096376 26.559076,19.605746 C 27.572897,20.124358 27.770357,20.0642 28.681517,19.956574 C 30.567675,19.733867 30.930619,19.879795 30.015428,20.406367 C 29.173075,20.89105 26.931632,21.403544 26.1259,21.294821 C 25.461047,21.205186 23.939961,20.529725 23.360189,19.997687 C 23.237164,19.884781 23.153861,20.099355 22.746645,20.564432 C 20.662648,22.944744 17.518638,24.661782 14.979723,24.32332 C 13.962213,24.187614 13.911925,24.294543 15.002597,23.801102 z"
           id="path12614-0-0"
           sodipodi:nodetypes="cscccssssssssssscc"
           inkscape:connector-curvature="0" />
        <path
           style="fill:#000000;fill-opacity:1;display:inline"
           d="M 23.095357,10.989036 C 22.969054,12.882816 23.035529,12.745925 22.126579,15.773557 C 21.570024,17.627403 20.090187,19.829492 18.536856,21.312363 C 17.258555,22.329725 16.684272,23.142871 13.894142,24.092902 L 13.752459,24.373938 C 18.039694,25.918798 21.572524,22.693142 23.404611,20.601416 C 24.757677,21.721662 27.389529,23.038118 31.151961,19.686674 C 31.152724,19.686528 31.153385,19.686387 31.154072,19.68613 L 31.075989,19.523715 C 28.731957,20.069258 28.323297,19.613119 27.318861,19.325902 C 26.199246,18.783903 24.604697,17.740797 24.902085,16.27837 C 25.96004,11.075824 26.720846,8.4492658 25.626682,7.3898355 L 24.986341,7.6289742 C 25.315953,9.5487727 25.289915,9.3266559 25.339244,11.224288 C 25.122427,13.834996 24.290997,15.776523 24.272195,16.447246 C 24.227618,18.404882 26.383445,21.258808 30.540599,19.910911 C 28.688585,21.11111 28.121126,20.970629 27.077693,21.187739 C 25.83512,21.26182 24.640595,20.701043 23.780783,19.972595 L 23.471212,19.578886 L 23.249871,19.850434 C 22.041251,21.313983 20.314855,22.872763 18.628583,23.60499 C 17.315241,24.004269 16.57941,24.524624 14.278882,24.231153 C 19.30461,23.093377 21.635604,18.509048 22.633931,16.146566 C 23.598582,12.792733 25.162368,10.139877 23.558454,7.6290323 L 22.783906,7.9214846 C 23.010947,8.7040003 23.078875,10.110958 23.095436,10.988978 L 23.095357,10.989036 z"
           id="seg-8-1-5-1-5-5-2"
           sodipodi:nodetypes="csccccccccscccccccccccccccc"
           inkscape:connector-curvature="0" />
      </g>
    </g>
    <g
       inkscape:groupmode="layer"
       id="layerTeeth"
       inkscape:label="Teeth"
       style="display:inline">
      <g
         inkscape:groupmode="layer"
         id="layerTeethHappyOpenAlt1"
         inkscape:label="TeethHappyOpenAlt1"
         style="display:none">
        <path
           sodipodi:nodetypes="csccscc"
           id="path2860-6-3-5-1"
           d="M 36.14401,20.396636 C 32.227873,22.347817 29.496571,23.225516 26.287382,23.285419 C 23.026249,23.346322 17.846275,22.132507 14.519742,18.901122 L 14.329654,19.623623 C 19.891598,23.415954 23.051832,24.269431 26.832978,24.102134 C 30.643672,23.933523 33.646164,22.834169 36.195071,21.279344 L 36.144011,20.396636 z"
           style="fill:#000000;fill-opacity:1;display:inline"
           inkscape:connector-curvature="0" />
        <path
           sodipodi:nodetypes="ccsccccccccccccc"
           id="path2860-6-4-6-5-1-7-3"
           d="M 30.359413,12.698767 C 30.424184,13.04142 30.348829,13.442378 30.411332,13.728604 C 29.501563,13.9121 28.551604,14.056427 27.564569,14.146677 C 25.80984,14.307121 23.877901,14.391215 21.828774,14.305631 C 21.812579,14.014585 21.841692,13.607845 21.878276,13.275266 C 24.743287,13.353611 27.598797,13.177962 30.359413,12.698767 z M 32.979663,12.157741 C 33.181006,12.820368 32.659662,12.810538 32.680745,13.173942 C 35.176702,12.45867 37.292131,11.510326 38.94475,10.723029 L 38.140106,10.360483 C 36.408372,11.141278 34.855446,11.700575 32.979663,12.157741 z M 18.953983,14.114416 C 19.544192,14.058225 19.072712,13.276193 19.00146,12.900055 C 17.029859,12.729379 14.979345,12.651694 13.054631,12.272287 L 12.255018,12.54284 C 14.663025,13.376001 16.684394,13.862413 18.953983,14.114416 z"
           style="fill:#000000;fill-opacity:1;display:inline"
           inkscape:connector-curvature="0" />
        <path
           style="fill:#ffffff;fill-opacity:1;stroke:#000000;stroke-width:0.10780855;stroke-miterlimit:4;stroke-opacity:1;stroke-dasharray:none;display:inline"
           d="M 33.192131,12.212217 C 33.324231,11.591238 33.444672,11.163964 33.342772,10.503926 C 34.345726,10.768466 34.799442,11.136025 35.524065,11.432208 C 34.356102,11.888133 33.943915,12.011348 33.192131,12.212217 z M 29.495955,10.160976 C 30.133965,11.438502 30.081392,11.553511 30.284864,12.806741 C 27.792492,13.238123 25.829643,13.197835 22.37746,13.353566 C 22.345897,12.755398 22.382112,12.317184 22.280317,12.067603 C 24.397104,11.194815 27.134373,10.218954 29.495955,10.160976 z M 16.014261,20.7454 C 20.517787,23.557645 23.623859,24.184281 26.985232,24.035557 C 29.956684,23.90408 32.422229,23.22118 34.578982,22.183191 C 32.805431,24.604704 30.338344,26.593575 27.993734,26.965086 C 24.211403,27.56318 20.014889,25.50794 16.014261,20.7454 z"
           id="path2860-6-3-5-1-9"
           sodipodi:nodetypes="ccccccccccscsc"
           inkscape:connector-curvature="0" />
        <path
           sodipodi:nodetypes="ccccc"
           id="path2860-6-4-6-5-6-7-4-2-0"
           d="M 27.478475,9.4963052 C 27.557125,10.881845 27.553935,11.823399 26.451429,13.220271 L 26.577585,13.450691 C 28.203737,12.045125 28.057475,10.828335 28.025735,9.6179133 C 27.743441,9.6202378 27.676873,9.598271 27.478475,9.4963052 z"
           style="fill:#000000;fill-opacity:1;display:inline"
           inkscape:connector-curvature="0" />
        <path
           sodipodi:nodetypes="ccccc"
           id="path2860-6-4-6-5-6-7-4-2"
           d="M 26.122841,23.730877 C 26.201491,25.116417 26.198301,26.057971 25.095795,27.454843 L 25.221952,27.685263 C 26.848104,26.279697 26.701841,25.062907 26.670101,23.852485 C 26.387807,23.85481 26.32124,23.832843 26.122841,23.730877 z"
           style="fill:#000000;fill-opacity:1;display:inline"
           inkscape:connector-curvature="0" />
        <path
           sodipodi:nodetypes="ccccc"
           id="path2860-6-4-6-5-6-7-4-2-4"
           d="M 21.613602,23.041408 C 21.692252,24.426948 21.865839,25.060309 20.763333,26.457181 L 20.889489,26.687613 C 22.515641,25.282035 22.192602,24.373437 22.160862,23.163028 C 21.878568,23.165352 21.812,23.143385 21.613602,23.041408 z"
           style="fill:#000000;fill-opacity:1;display:inline"
           inkscape:connector-curvature="0" />
        <path
           sodipodi:nodetypes="ccccc"
           id="path2860-6-4-6-5-6-7-4-2-6"
           d="M 29.837829,23.275826 C 29.916479,24.661355 29.913289,25.602908 28.810783,26.999792 L 28.93694,27.230212 C 30.563092,25.824634 30.416829,24.607844 30.385089,23.397434 C 30.102795,23.399759 30.036228,23.377792 29.837829,23.275826 z"
           style="fill:#000000;fill-opacity:1;display:inline"
           inkscape:connector-curvature="0" />
      </g>
      <g
         inkscape:groupmode="layer"
         id="layerTeethHappyOpen"
         inkscape:label="TeethHappyOpen"
         style="display:none">
        <path
           sodipodi:nodetypes="csccscc"
           id="path2860-6-3-5-1-4"
           d="M 36.712543,21.32217 C 32.796404,23.395877 29.587077,24.23026 26.377891,24.293938 C 23.116754,24.358665 17.936782,23.068622 14.610249,19.634341 L 14.420161,20.402207 C 19.982105,24.432655 23.142336,25.339734 26.923483,25.161933 C 30.73418,24.982736 34.214694,23.912754 36.763603,22.260303 L 36.712543,21.32217 z"
           style="fill:#000000;fill-opacity:1;display:inline"
           inkscape:connector-curvature="0" />
        <path
           sodipodi:nodetypes="ccccc"
           id="path2860-6-4-6-5-6-7-4-2-9"
           d="M 26.738203,24.880825 C 26.816863,26.353363 26.868453,26.197046 26.783173,27.710452 L 26.909329,27.955351 C 27.340006,26.180691 27.204537,26.261698 27.172799,24.975274 C 26.975007,24.925557 26.936607,24.919602 26.738208,24.880828 z"
           style="fill:#000000;fill-opacity:1;display:inline"
           inkscape:connector-curvature="0" />
        <path
           sodipodi:nodetypes="cccccccccscccccc"
           id="path2860-6-4-6-5-1-7-3-9"
           d="M 32.055452,19.111043 C 32.070308,19.535743 32.005402,19.642765 32.050598,19.893307 C 34.659055,19.488759 36.536772,18.821413 38.52913,18.006037 L 37.675744,17.574702 C 35.809089,18.296052 34.029335,18.795525 32.055452,19.111043 z M 29.615462,20.173076 C 29.677474,19.853241 29.682073,19.628067 29.613523,19.420317 C 27.600429,19.594702 25.571011,19.578377 23.508361,19.417387 C 23.448941,19.640717 23.552858,20.127357 23.460925,20.257279 C 24.959982,20.332611 26.38951,20.329179 27.725675,20.280435 C 28.395166,20.256011 29.02312,20.219957 29.615462,20.173076 z M 20.681877,20.028142 C 20.862824,19.634616 20.875705,19.576206 20.947421,19.148815 C 18.500069,18.830604 15.997769,18.340441 13.413483,17.75196 C 13.392453,17.887121 13.604889,17.937395 13.637403,18.534168 C 16.052198,19.301496 18.423804,19.76658 20.681877,20.028142 z"
           style="fill:#000000;fill-opacity:1;display:inline"
           inkscape:connector-curvature="0" />
        <path
           sodipodi:nodetypes="ccccc"
           id="path2860-6-4-6-5-6-7-4-2-4-2"
           d="M 22.341689,24.103818 C 22.388449,24.979311 22.294259,25.798724 21.978474,26.631269 C 22.106749,26.687472 22.181176,26.64115 22.505664,26.685001 C 22.85862,25.816784 22.907184,24.972147 22.888949,24.233112 C 22.606655,24.235582 22.540088,24.212236 22.341689,24.103868 z"
           style="fill:#000000;fill-opacity:1;display:inline"
           inkscape:connector-curvature="0" />
        <path
           sodipodi:nodetypes="ccccc"
           id="path2860-6-4-6-5-6-7-4-2-6-5"
           d="M 30.728552,24.305999 C 30.765692,25.265192 30.777662,26.024177 30.560571,26.84711 C 30.840565,26.599814 30.797455,26.469644 31.040419,26.452758 C 31.170968,25.760859 31.137149,25.097162 31.125309,24.435255 C 30.920649,24.437725 30.872391,24.414379 30.728555,24.305999 z"
           style="fill:#000000;fill-opacity:1;display:inline"
           inkscape:connector-curvature="0" />
        <path
           sodipodi:nodetypes="ccccc"
           id="path2860-6-4-6-5-6-7-4-2-5-5"
           d="M 35.035566,14.891339 C 35.114226,16.363876 35.111026,17.364549 34.008524,18.849131 L 34.134681,19.09403 C 35.760831,17.600197 35.614567,16.307005 35.582829,15.020595 C 35.300533,15.023066 35.233965,14.99972 35.035566,14.891339 z"
           style="fill:#000000;fill-opacity:1;display:inline"
           inkscape:connector-curvature="0" />
        <path
           style="fill:#ffffff;fill-opacity:1;stroke:#000000;stroke-width:0.11156128;stroke-miterlimit:4;stroke-opacity:1;stroke-dasharray:none;display:inline"
           d="M 11.061128,12.196633 C 13.108569,14.0961 14.930529,15.280313 17.117363,16.267834 C 17.082203,16.991924 16.955759,17.66765 16.492371,18.445898 C 15.598006,18.268619 14.965926,18.068981 14.052503,17.862488 C 13.025118,16.249949 12.036142,14.538973 11.061128,12.196633 z M 39.773318,11.9506 C 39.00816,14.153443 38.697652,15.906969 37.48107,17.661484 C 36.771963,17.910713 35.357262,18.373666 34.648385,18.56258 C 35.636585,17.374582 35.586154,16.314202 35.554623,15.25659 C 37.117674,14.330148 38.544988,13.245428 39.773318,11.9506 z M 35.023381,15.567741 C 35.043131,16.652655 34.90851,17.545994 34.085892,18.718156 C 33.245692,18.923818 33.016778,19.110797 32.173393,19.239474 C 32.304397,18.630752 32.214304,17.760449 32.147505,16.897639 C 33.327316,16.507292 33.950555,16.160255 35.023381,15.567741 z M 17.648606,16.462304 C 18.595153,16.859676 19.364933,17.151134 20.315542,17.39576 C 20.53594,17.991883 20.642871,18.53739 20.659287,19.145991 C 19.375241,18.975643 18.246903,18.777632 16.929865,18.523686 C 17.464841,17.803125 17.600937,17.123076 17.648606,16.462304 z M 28.679713,17.745806 C 28.899268,18.28188 29.194671,18.831684 29.231485,19.457142 C 27.376677,19.58699 25.681594,19.608958 23.783334,19.457142 C 23.896235,19.022805 24.105321,18.518163 24.134664,17.940277 C 25.849173,18.09629 27.046744,18.020136 28.679713,17.745806 z M 17.071723,22.174704 C 19.080007,23.54339 20.861044,24.068236 22.401326,24.659207 C 22.396926,25.039643 22.348436,25.860363 22.276328,26.229994 C 20.541534,25.517579 18.743618,24.202223 17.071723,22.174704 z M 33.626116,23.871902 C 32.979042,24.275034 31.744341,25.986676 31.068447,26.26093 C 31.074847,26.092152 31.151217,24.741536 31.148117,24.574351 C 31.842637,24.429197 32.988262,24.084595 33.626116,23.871902 z M 22.813063,24.706057 C 24.002619,25.112997 25.724998,25.133233 26.848049,25.209325 C 26.911309,25.596946 26.890629,26.936322 26.839449,27.253905 C 25.651554,27.247853 23.793862,26.787102 22.608379,26.375257 C 22.695409,25.989668 22.799485,25.064257 22.813048,24.706057 L 22.813063,24.706057 z M 30.705137,24.641825 C 30.785187,25.017409 30.702036,26.251301 30.685216,26.445086 C 30.118093,26.641661 29.64479,26.823929 29.066078,26.922126 C 28.364211,27.040969 27.839244,27.130691 27.131697,27.15549 C 27.181807,26.840286 27.244503,25.546407 27.188707,25.199008 C 28.351465,25.133417 29.317943,24.85311 30.705137,24.641825 z"
           id="path3226-4"
           sodipodi:nodetypes="ccccccccccccccccccccccccccccccccccccccccscccc"
           inkscape:connector-curvature="0" />
        <path
           sodipodi:nodetypes="ccccc"
           id="path2860-6-4-6-5-6-7-4-2-0-3"
           d="M 17.161511,15.047931 C 17.240161,16.520469 17.236971,17.521129 16.134465,19.005722 L 16.260621,19.25061 C 17.886773,17.756777 17.740511,16.463585 17.708771,15.177174 C 17.426477,15.179645 17.359909,15.156299 17.161511,15.047931 z"
           style="fill:#000000;fill-opacity:1;display:inline"
           inkscape:connector-curvature="0" />
      </g>
      <g
         inkscape:groupmode="layer"
         id="layerTeethNormal"
         inkscape:label="TeethNormal"
         style="display:none">
        <path
           style="fill:none;stroke:#000000;stroke-width:0;stroke-linecap:butt;stroke-linejoin:miter;stroke-opacity:1;display:inline"
           d="M 0.1,0.1 L 0.1,0.1"
           id="path2937-2-4-7-7"
           inkscape:connector-curvature="0" />
      </g>
      <g
         inkscape:groupmode="layer"
         id="layerTeethSadOpen"
         inkscape:label="TeethSadOpen"
         style="display:none">
        <path
           style="fill:#ffffff;fill-opacity:1;stroke:#000000;stroke-width:0.1198239;stroke-miterlimit:4;stroke-opacity:1;stroke-dasharray:none;display:inline"
           d="M 24.071236,8.6758763 C 25.966194,8.6570519 27.848267,8.7909688 29.762872,9.4376244 C 30.075525,11.666036 29.519055,12.707651 27.550501,15.440566 C 31.738452,14.625768 33.568844,12.897572 33.88448,11.122648 C 37.209892,12.9585 40.379913,15.957443 44.104295,19.684696 C 38.157178,16.953569 31.422892,15.792606 25.119696,15.752974 C 24.408909,15.748181 23.720712,15.767174 23.022777,15.790419 C 22.248534,15.816781 21.455046,15.84325 20.701189,15.902754 C 14.166325,16.418769 8.4925149,18.140119 5.2364185,20.54593 C 7.2267379,16.554546 10.035289,13.215278 14.355921,11.065929 C 15.560824,12.265806 15.678497,14.094926 15.789473,16.400183 C 18.617178,13.707706 18.714976,11.790618 18.610696,11.051978 L 18.39245,9.5060897 C 19.288427,9.2178401 20.394682,9.1016773 21.300309,8.9379911 C 22.228268,8.7704788 23.149061,8.6850373 24.071236,8.6758763 z"
           id="path3312-5"
           sodipodi:nodetypes="cccccsssccczcsc"
           inkscape:connector-curvature="0" />
        <path
           sodipodi:nodetypes="ccccc"
           id="path2860-6-4-6-5-6-7-4-2-8"
           d="M 23.849498,8.1018174 C 23.943739,11.073199 23.939917,13.092423 22.618851,16.088116 L 22.770017,16.58227 C 24.718536,13.56792 24.543279,10.958431 24.505246,8.3626261 C 24.16699,8.367419 24.087227,8.320448 23.849498,8.1018174 z"
           style="fill:#000000;fill-opacity:1;display:inline"
           inkscape:connector-curvature="0" />
        <path
           sodipodi:nodetypes="ccccc"
           id="path2860-6-4-6-5-6-7-4-2-8-8"
           d="M 35.938717,11.556715 C 36.032958,13.813059 36.029136,15.346386 34.708071,17.621194 L 34.859236,17.996447 C 36.807755,15.707463 36.632498,13.725923 36.594465,11.75476 C 36.256209,11.758355 36.176446,11.722767 35.938717,11.556715 z"
           style="fill:#000000;fill-opacity:1;display:inline"
           inkscape:connector-curvature="0" />
        <path
           sodipodi:nodetypes="ccccc"
           id="path2860-6-4-6-5-6-7-4-2-8-6"
           d="M 10.624813,12.368618 C 11.439136,14.576565 11.926683,16.089749 11.374136,18.581823 L 11.640985,18.923571 C 12.797593,16.299633 11.992737,14.377969 11.324311,12.440764 C 10.997516,12.508345 10.908586,12.487735 10.624813,12.36863 z"
           style="fill:#000000;fill-opacity:1;display:inline"
           inkscape:connector-curvature="0" />
      </g>
      <g
         inkscape:groupmode="layer"
         id="layerTeethSadOpenAlt1"
         inkscape:label="TeethSadOpenAlt1"
         style="display:none">
        <path
           sodipodi:nodetypes="ccsccsccccccccccc"
           id="path2860-6-3-5-1-8"
           d="M 20.448465,8.1065924 C 20.390234,7.8091914 20.237913,7.7553937 20.285922,7.3898276 C 22.2661,7.0242614 24.125091,6.9322471 26.113828,6.9968593 C 27.782512,7.0510732 29.334135,7.2042789 30.785684,7.4397561 C 30.838076,7.9417395 30.652043,8.0985606 30.410453,8.3591761 C 28.836332,8.0867791 27.027588,7.8132135 25.391533,7.7907919 C 24.067901,7.7726519 22.105733,7.870981 20.448465,8.1065924 z M 17.483273,8.0699741 C 17.426457,8.1911572 17.645184,8.3968826 17.537807,8.7452721 C 14.765367,9.4267943 11.98937,10.766736 9.8127654,12.319287 L 9.5611144,11.350441 C 12.667602,9.7951272 15.20816,8.7483097 17.483273,8.0699741 z M 33.167725,8.8960514 C 33.4183,8.4656362 33.266262,8.3901084 33.444646,7.9862019 C 35.288693,8.4484406 36.961404,9.0481682 38.507976,9.7409031 L 38.440379,10.598989 C 36.501891,9.8897816 34.782694,9.3264666 33.167725,8.8960514 z"
           style="fill:#000000;fill-opacity:1;display:inline"
           inkscape:connector-curvature="0" />
        <path
           sodipodi:nodetypes="cccscc"
           id="path2860-6-4-6-5-1-7-3-98"
           d="M 37.988096,22.765478 C 29.221187,20.034131 18.71312,20.320571 9.1017644,22.261867 L 8.1726754,22.053736 C 14.505351,20.006702 20.707883,19.675104 25.691877,19.82229 C 31.200604,19.984976 35.760483,21.353784 38.897831,22.393233 L 37.988096,22.765478 z"
           style="fill:#000000;fill-opacity:1;display:inline"
           inkscape:connector-curvature="0" />
        <path
           style="fill:#ffffff;fill-opacity:1;stroke:#000000;stroke-width:0.10660248;stroke-miterlimit:4;stroke-opacity:1;stroke-dasharray:none;display:inline"
           d="M 16.643293,6.7048705 C 17.289962,7.6037597 17.265023,7.5408058 17.314512,8.2410682 C 15.631867,8.7416082 14.071365,9.3100635 11.979434,10.269391 C 13.589732,8.6781131 14.97466,7.5823331 16.643293,6.7048705 z M 20.587842,7.3056698 C 20.592373,6.5337464 20.37634,6.2204194 20.246853,5.4894702 C 21.98291,5.2249068 23.468383,5.2970944 25.171491,5.2723996 C 25.557893,5.2667923 25.934635,5.2548294 26.304143,5.2723996 C 27.920659,5.3867143 28.938646,5.3791449 30.336955,5.5700436 C 30.402733,6.2939548 30.632683,6.7440122 30.390266,7.5407925 C 28.850999,7.2715478 27.996686,7.0962396 26.204203,7.0380032 C 24.087582,6.9692359 22.715361,6.8783153 20.587842,7.3056698 z M 33.633157,8.1629838 C 33.877591,7.6731881 34.101128,7.0374556 34.099449,6.405051 C 35.030542,7.0385508 36.087062,8.1999644 36.897764,9.1034263 C 35.900911,8.7256745 34.854508,8.4528999 33.633157,8.1629838 z M 23.9389,20.796387 C 28.739453,20.822846 33.436173,21.40075 37.730596,22.695244 C 34.425477,25.347576 30.746715,26.885023 25.804443,26.82609 C 19.967155,26.078499 14.258876,25.530734 9.8473844,22.162232 C 14.452782,21.272194 19.239148,20.770479 23.9389,20.796387 z"
           id="seg-5-4-6-9-7-0"
           sodipodi:nodetypes="ccccccccccccccccccccc"
           inkscape:connector-curvature="0" />
        <path
           sodipodi:nodetypes="ccccc"
           id="path2860-6-4-6-5-6-7-4-2-6-7"
           d="M 26.090092,7.378449 C 26.173935,6.1076408 26.170535,5.847436 24.995236,4.566234 L 25.129722,4.354884 C 26.863241,5.6440704 26.707321,6.4898534 26.673485,7.600033 C 26.372553,7.5979009 26.301591,7.284916 26.090092,7.378449 z"
           style="fill:#000000;fill-opacity:1;display:inline"
           inkscape:connector-curvature="0" />
        <path
           style="fill:#000000;fill-opacity:1;display:inline"
           d="M 26.676896,20.743934 C 27.263134,21.594973 27.2852,22.430225 27.121709,23.72876 C 26.958755,25.021369 26.936809,25.636092 25.710034,28.038049 L 26.116694,28.276358 C 28.430472,24.596803 28.413342,22.484059 27.314133,20.601299 L 26.676896,20.743934 z"
           id="seg-8-2"
           sodipodi:nodetypes="cccccc"
           inkscape:connector-curvature="0" />
        <path
           style="fill:#000000;fill-opacity:1;display:inline"
           d="M 32.537606,21.101979 C 33.123845,21.804682 33.14591,22.494346 32.982419,23.566543 C 32.819466,24.633848 32.797518,25.141425 31.570745,27.12471 L 31.977404,27.321488 C 34.291182,24.283285 34.274052,22.5388 33.174842,20.984205 L 32.537606,21.101979 z"
           id="seg-8-2-8"
           sodipodi:nodetypes="cccccc"
           inkscape:connector-curvature="0" />
        <path
           style="fill:#000000;fill-opacity:1;display:inline"
           d="M 20.610686,20.54641 C 21.196925,21.355054 21.218991,22.14872 21.0555,23.38259 C 20.892546,24.610821 20.803973,24.728542 19.577199,27.01088 L 19.983858,27.237325 C 22.297636,23.741009 22.347133,22.199868 21.247923,20.410875 L 20.610686,20.54641 z"
           id="seg-8-2-0"
           sodipodi:nodetypes="cccccc"
           inkscape:connector-curvature="0" />
        <path
           style="fill:#000000;fill-opacity:1;display:inline"
           d="M 16.086606,22.872828 C 15.923652,23.811377 15.901705,24.257722 14.674931,26.001781 L 15.08159,26.174818 C 17.395369,23.503104 17.378239,21.969052 16.279029,20.601992 L 15.641792,20.70561 C 16.290668,21.400935 16.093912,22.02209 16.086606,22.872828 z"
           id="seg-8-2-81"
           sodipodi:nodetypes="cccccc"
           inkscape:connector-curvature="0" />
      </g>
    </g>
    <g
       inkscape:groupmode="layer"
       id="layerDimples"
       inkscape:label="Dimples"
       style="display:inline">
      <g
         inkscape:groupmode="layer"
         id="layerDimplesHappy"
         inkscape:label="DimplesHappy"
         style="display:inline">
        <path
           style="fill:#000000;fill-opacity:1;display:inline"
           d="M 5.0158095,3.9079524 C 1.9533095,6.4079524 2.4145342,10.14381 2.1091155,11.753002 C 0.3533135,7.7149724 2.4349309,3.8949237 3.7365365,3.7058324 C 4.5349488,3.5898427 4.8169357,3.6869815 5.0158095,3.9079524 z"
           id="seg-8-9"
           sodipodi:nodetypes="ccsc"
           inkscape:connector-curvature="0" />
        <path
           style="fill:#000000;fill-opacity:1;display:inline"
           d="M 45.232274,3.9293299 C 48.294774,6.4293298 47.83355,10.165188 48.138968,11.774379 C 49.89477,7.7363498 47.813153,3.9163012 46.511547,3.7272099 C 45.713135,3.6112202 45.431148,3.708359 45.232274,3.9293299 z"
           id="seg-8-9-1"
           sodipodi:nodetypes="ccsc"
           inkscape:connector-curvature="0" />
      </g>
      <g
         inkscape:groupmode="layer"
         id="layerDimplesNormal"
         inkscape:label="DimplesNormal"
         style="display:inline">
        <path
           style="fill:none;stroke:#000000;stroke-width:0;stroke-linecap:butt;stroke-linejoin:miter;stroke-opacity:1;display:inline"
           d="M 0.1,0.1 L 0.1,0.1"
           id="path2937-2-4-7"
           inkscape:connector-curvature="0" />
      </g>
      <g
         inkscape:groupmode="layer"
         id="layerDimplesSad"
         inkscape:label="DimplesSad"
         style="display:none">
        <path
           style="fill:#000000;fill-opacity:1;display:inline"
           d="M 2.0239707,16.126558 C 0.93310457,19.926416 3.4418175,22.732787 4.1082762,24.228986 C 0.36369764,21.912382 -0.10385972,17.58719 0.85771677,16.689802 C 1.4475525,16.139339 1.7346059,16.058389 2.0239707,16.126558 z"
           id="seg-8-9-7"
           sodipodi:nodetypes="ccsc"
           inkscape:connector-curvature="0" />
        <path
           style="fill:#000000;fill-opacity:1;display:inline"
           d="M 47.490795,15.210234 C 49.039501,18.847598 46.893952,21.94049 46.416043,23.507135 C 49.8482,20.748728 49.781714,16.398845 48.717328,15.626176 C 48.064428,15.152218 47.769613,15.107087 47.490795,15.210234 z"
           id="seg-8-9-1-4"
           sodipodi:nodetypes="ccsc"
           inkscape:connector-curvature="0" />
      </g>
    </g>
  </g>
</svg>
