<?xml version="1.0" encoding="UTF-8" standalone="no"?>
<!-- Created with Inkscape (http://www.inkscape.org/) -->

<svg
   xmlns:dc="http://purl.org/dc/elements/1.1/"
   xmlns:cc="http://creativecommons.org/ns#"
   xmlns:rdf="http://www.w3.org/1999/02/22-rdf-syntax-ns#"
   xmlns:svg="http://www.w3.org/2000/svg"
   xmlns="http://www.w3.org/2000/svg"
   xmlns:sodipodi="http://sodipodi.sourceforge.net/DTD/sodipodi-0.dtd"
   xmlns:inkscape="http://www.inkscape.org/namespaces/inkscape"
   width="32"
   height="32"
   id="svg4873"
   version="1.1"
   inkscape:version="0.47 r22583"
   sodipodi:docname="body-eye4.svg"
   inkscape:export-filename="E:\moralife\code\moralife\Resources\images\conscience\body-eye4.png"
   inkscape:export-xdpi="90"
   inkscape:export-ydpi="90"
   style="display:inline">
  <defs
     id="defs4875">
    <inkscape:perspective
       sodipodi:type="inkscape:persp3d"
       inkscape:vp_x="0 : 16 : 1"
       inkscape:vp_y="0 : 1000 : 0"
       inkscape:vp_z="32 : 16 : 1"
       inkscape:persp3d-origin="16 : 10.666667 : 1"
       id="perspective69" />
    <linearGradient
       inkscape:collect="always"
       id="linearGradient3648"
       x1="19.634945"
       y1="22.223915"
       x2="17.947445"
       y2="17.473915"
       gradientUnits="userSpaceOnUse">
      <stop
         style="stop-color:#000000;stop-opacity:1;"
         offset="0"
         id="stop3644" />
      <stop
         style="stop-color:#000000;stop-opacity:0;"
         offset="1"
         id="stop3646" />
    </linearGradient>
    <inkscape:perspective
       id="perspective2895"
       inkscape:persp3d-origin="0.5 : 0.33333333 : 1"
       inkscape:vp_z="1 : 0.5 : 1"
       inkscape:vp_y="0 : 1000 : 0"
       inkscape:vp_x="0 : 0.5 : 1"
       sodipodi:type="inkscape:persp3d" />
    <inkscape:perspective
       id="perspective2895-3"
       inkscape:persp3d-origin="0.5 : 0.33333333 : 1"
       inkscape:vp_z="1 : 0.5 : 1"
       inkscape:vp_y="0 : 1000 : 0"
       inkscape:vp_x="0 : 0.5 : 1"
       sodipodi:type="inkscape:persp3d" />
  </defs>
  <sodipodi:namedview
     id="base"
     pagecolor="#ffffff"
     bordercolor="#666666"
     borderopacity="1.0"
     inkscape:pageopacity="0.0"
     inkscape:pageshadow="2"
     inkscape:zoom="16.000001"
     inkscape:cx="13.502112"
     inkscape:cy="14.482303"
     inkscape:document-units="px"
     inkscape:current-layer="layerEyeball"
     showgrid="false"
     inkscape:window-width="1024"
     inkscape:window-height="708"
     inkscape:window-x="-4"
     inkscape:window-y="-4"
     inkscape:window-maximized="1" />
  <metadata
     id="metadata4878">
    <rdf:RDF>
      <cc:Work
         rdf:about="">
        <dc:format>image/svg+xml</dc:format>
        <dc:type
           rdf:resource="http://purl.org/dc/dcmitype/StillImage" />
        <dc:title />
      </cc:Work>
    </rdf:RDF>
  </metadata>
  <g
     inkscape:groupmode="layer"
     id="layerTotal"
     inkscape:label="Total"
     style="display:inline">
    <g
       inkscape:groupmode="layer"
       id="layerBags"
       inkscape:label="Bags"
       style="display:inline">
      <g
         inkscape:groupmode="layer"
         id="layerBagsOldest"
         inkscape:label="BagsOldest"
         style="display:inline">
        <path
           style="fill:#000000;fill-opacity:1;stroke:none;display:inline"
           id="pathBagsOldest0"
           d="M 2.1442336,15.084734 C 2.1681566,15.101774 2.575741,15.120494 2.7739848,15.008354 2.9582662,14.904106 2.9359164,14.669615 2.9136928,14.653801 2.815292,14.468009 2.6597118,14.375516 2.4437539,14.288188 2.1357048,14.176702 1.7920246,14.111906 1.4359227,14.079743 1.4043987,14.070443 1.0843223,14.082543 0.96930695,14.225597 0.87309095,14.816837 1.6119323,14.88791 2.1442336,15.084734 z"
           sodipodi:nodetypes="csccccc"
           inkscape:connector-curvature="0" />
        <path
           style="fill:#000000;fill-opacity:1;stroke:none;display:inline"
           id="pathBagsOldest1"
           d="M 2.4858441,16.40632 C 2.1793198,16.57192 1.6741414,16.615416 1.2022695,16.747329 0.98715195,16.826149 0.93194515,16.697149 0.86936069,16.564309 0.80677569,16.431465 0.92772569,16.221645 0.98300315,16.117483 1.2106854,15.778919 1.8740426,15.823403 2.3060696,15.735596 2.451392,15.695006 2.6081558,15.824196 2.6605971,15.986454 2.7130421,16.148701 2.6045841,16.374331 2.4858975,16.406345 z"
           sodipodi:nodetypes="cczcczc"
           inkscape:connector-curvature="0" />
        <path
           style="fill:#000000;fill-opacity:1;display:inline"
           d="M 22.388906,27.597662 C 20.431736,29.75786 15.90971,30.791122 11.978662,30.224992 8.0657917,29.660838 3.9815607,27.862873 1.8205313,22.959908 1.8205313,22.959908 1.7816863,22.714755 1.4771325,22.755367 1.1725788,22.795977 1.2939314,23.015838 1.2939314,23.015838 4.0978238,29.237951 9.8714327,31.778376 14.930846,31.646695 18.19067,31.561851 21.154007,30.367727 22.835506,28.334358 22.835506,28.334358 23.625488,27.752258 23.230727,27.198897 22.857142,26.675217 22.388906,27.597662 22.388906,27.597662 z"
           id="layerBagsOlder0-1"
           sodipodi:nodetypes="ccczcsczc"
           inkscape:connector-curvature="0" />
        <path
           style="fill:#000000;fill-opacity:1;display:inline"
           d="M 22.527629,25.44529 C 20.570459,27.605488 16.048433,28.63875 12.117385,28.07262 8.204514,27.508466 4.1202827,25.710501 1.9592535,20.807536 1.9592535,20.807536 1.9204085,20.562383 1.6158547,20.602995 1.3113011,20.643605 1.4326536,20.863466 1.4326536,20.863466 6.0431183,31.09454 18.682957,31.371247 22.974229,26.181986 22.974229,26.181986 23.764211,25.599886 23.36945,25.046525 22.995865,24.522845 22.527629,25.44529 22.527629,25.44529 z"
           id="layerBagsOld0-7"
           sodipodi:nodetypes="ccczcczc"
           inkscape:connector-curvature="0" />
      </g>
      <g
         inkscape:groupmode="layer"
         id="layerBagsOlder"
         inkscape:label="BagsOlder"
         style="display:none">
        <path
           style="fill:#000000;fill-opacity:1;display:inline"
           d="M 22.645768,27.333976 C 20.688598,29.494174 16.166572,30.527436 12.235524,29.961306 8.322654,29.397152 4.238423,27.599187 2.0773936,22.696222 2.0773936,22.696222 2.0385486,22.451069 1.7339948,22.491681 1.4294411,22.532291 1.5507937,22.752152 1.5507937,22.752152 4.3546861,28.974265 10.128295,31.51469 15.187708,31.383009 18.447532,31.298165 21.410869,30.104041 23.092368,28.070672 23.092368,28.070672 23.88235,27.488572 23.487589,26.935211 23.114004,26.411531 22.645768,27.333976 22.645768,27.333976 z"
           id="layerBagsOlder0"
           sodipodi:nodetypes="ccczcsczc"
           inkscape:connector-curvature="0" />
      </g>
      <g
         inkscape:groupmode="layer"
         id="layerBagsOld"
         inkscape:label="BagsOld"
         style="display:none">
        <path
           style="fill:#000000;fill-opacity:1;display:inline"
           d="M 22.784491,25.181604 C 20.827321,27.341802 16.305295,28.375064 12.374247,27.808934 8.4613763,27.24478 4.377145,25.446815 2.2161158,20.54385 2.2161158,20.54385 2.1772708,20.298697 1.872717,20.339309 1.5681634,20.379919 1.6895159,20.59978 1.6895159,20.59978 6.2999806,30.830854 18.939819,31.107561 23.231091,25.9183 23.231091,25.9183 24.021073,25.3362 23.626312,24.782839 23.252727,24.259159 22.784491,25.181604 22.784491,25.181604 z"
           id="layerBagsOld0"
           sodipodi:nodetypes="ccczcczc"
           inkscape:connector-curvature="0" />
      </g>
      <g
         inkscape:groupmode="layer"
         id="layerBagsNormal"
         inkscape:label="BagsNormal"
         style="display:none">
        <path
           style="fill:none;stroke:#000000;stroke-width:0;stroke-linecap:butt;stroke-linejoin:miter;stroke-opacity:1;display:inline"
           d="M 0.1,0.1 0.1,0.1"
           id="layerBagsNormal0"
           inkscape:connector-curvature="0" />
      </g>
    </g>
    <g
       inkscape:groupmode="layer"
       id="layerEyeball"
       inkscape:label="Eyeball"
       style="display:inline">
      <g
         inkscape:groupmode="layer"
         id="layerEyeballIrisRight"
         inkscape:label="EyeballIrisRight"
         style="display:inline">
        <path
           style="fill:#808080;fill-opacity:1;stroke:#000000;stroke-width:0.49999997;stroke-miterlimit:4;stroke-opacity:1;stroke-dasharray:none"
           d="M 19.634815,16.849298 C 19.647315,18.076602 18.756533,19.144013 17.669388,19.621956 16.073469,20.351675 13.982505,20.032805 12.816612,18.674668 12.068996,17.836861 11.897371,16.535318 12.455487,15.551626 13.16836,14.246857 14.726806,13.60272 16.167271,13.705197 17.51811,13.780827 18.899875,14.537699 19.432943,15.8268 19.596262,16.314425 19.610718,16.333357 19.634815,16.849298 z"
           id="pathEyeballIris0"
           sodipodi:nodetypes="ccccccc" />
        <path
           sodipodi:nodetypes="ccccccc"
           id="path2868"
           d="M 19.634815,16.849298 C 19.647315,18.076602 18.756533,19.144013 17.669388,19.621956 16.073469,20.351675 13.982505,20.032805 12.816612,18.674668 12.068996,17.836861 11.897371,16.535318 12.455487,15.551626 13.16836,14.246857 14.726806,13.60272 16.167271,13.705197 17.51811,13.780827 18.899875,14.537699 19.432943,15.8268 19.596262,16.314425 19.610718,16.333357 19.634815,16.849298 z"
           style="fill:url(#linearGradient3648);fill-opacity:1;stroke:none" />
      </g>
      <g
         style="display:inline"
         inkscape:label="EyeballIrisLeft"
         id="layerEyeballIrisLeft"
         inkscape:groupmode="layer">
        <path
           sodipodi:nodetypes="ccccccc"
           id="path2877"
           d="M 19.634815,16.849298 C 19.647315,18.076602 18.756533,19.144013 17.669388,19.621956 16.073469,20.351675 13.982505,20.032805 12.816612,18.674668 12.068996,17.836861 11.897371,16.535318 12.455487,15.551626 13.16836,14.246857 14.726806,13.60272 16.167271,13.705197 17.51811,13.780827 18.899875,14.537699 19.432943,15.8268 19.596262,16.314425 19.610718,16.333357 19.634815,16.849298 z"
           style="fill:#808080;fill-opacity:1;stroke:#000000;stroke-width:0.49999997;stroke-miterlimit:4;stroke-opacity:1;stroke-dasharray:none" />
        <path
           style="fill:url(#linearGradient3648);fill-opacity:1;stroke:none"
           d="M 19.634815,16.849298 C 19.647315,18.076602 18.756533,19.144013 17.669388,19.621956 16.073469,20.351675 13.982505,20.032805 12.816612,18.674668 12.068996,17.836861 11.897371,16.535318 12.455487,15.551626 13.16836,14.246857 14.726806,13.60272 16.167271,13.705197 17.51811,13.780827 18.899875,14.537699 19.432943,15.8268 19.596262,16.314425 19.610718,16.333357 19.634815,16.849298 z"
           id="path2879"
           sodipodi:nodetypes="ccccccc" />
      </g>
      <g
         inkscape:groupmode="layer"
         id="layerEyeballPupil"
         inkscape:label="EyeballPupil"
         style="display:none">
        <path
           style="fill:#000000;fill-opacity:1;stroke:none"
           d="M 17.051842,16.828906 C 17.055675,17.17062 16.826993,17.503358 16.529575,17.657627 16.078892,17.902566 15.460995,17.816157 15.12076,17.423401 14.907358,17.186727 14.837314,16.829052 14.960436,16.533004 15.110307,16.156431 15.508022,15.920519 15.904108,15.902615 16.313483,15.875376 16.747624,16.075289 16.944531,16.444636 17.010001,16.566706 17.051392,16.690287 17.051842,16.828906 z"
           id="pathEyeballPupil0"
           sodipodi:nodetypes="csssssc" />
      </g>
      <g
         inkscape:groupmode="layer"
         id="layerEyeballDilate"
         inkscape:label="EyeballDilate"
         style="display:none">
        <path
           style="fill:#000000;fill-opacity:1;fill-rule:evenodd;stroke:none"
           d="M 18.249998,16.834186 C 18.262049,17.715052 17.692065,18.599246 16.882222,18.937361 16.05508,19.304277 15.020268,19.121652 14.375129,18.484962 13.755138,17.903823 13.522724,16.95449 13.807361,16.153359 14.093368,15.290076 14.94427,14.660979 15.851357,14.627928 16.733627,14.571543 17.620739,15.078559 18.011776,15.87283 18.167994,16.180998 18.24998,16.488728 18.249998,16.834186 z"
           id="pathEyeballDilate0"
           sodipodi:nodetypes="cccccsc" />
      </g>
    </g>
    <g
       inkscape:label="Socket"
       inkscape:groupmode="layer"
       id="layerSocket"
       style="display:inline">
      <g
         inkscape:groupmode="layer"
         id="layerSocketBottom"
         inkscape:label="SocketBottom"
         style="display:inline">
        <path
           style="fill:#000000;fill-opacity:1;stroke:none;display:inline"
           d="M 24.013395,18.565353 C 24.636993,18.277345 25.073541,17.420818 25.521989,17.25655 25.585649,19.97349 24.147629,23.474889 20.52883,25.390349 15.238569,28.190527 8.6515417,26.200819 6.5721759,24.136399 4.5064201,22.085539 3.8729621,20.656758 3.5784141,18.583329 3.5157261,18.142047 3.4349649,17.915077 3.4729443,17.324987 3.6100937,17.429806 4.217522,18.216387 4.4195357,18.170107 4.8491896,20.603216 5.3374995,21.234351 6.2025988,22.380499 7.2913961,23.823019 10.505024,25.654422 14.312551,25.597198 16.358524,25.566449 18.700985,25.052873 20.852392,23.578087 22.677968,22.326658 23.705352,21.096752 23.986102,18.814635 23.996157,18.732907 24.005253,18.64983 24.013395,18.565353 z"
           id="pathSocketDown0"
           sodipodi:nodetypes="ccszsccssssc" />
      </g>
      <g
         inkscape:groupmode="layer"
         id="layerSocketTop"
         inkscape:label="SocketTop"
         style="display:inline">
        <path
           style="fill:#000000;fill-opacity:1;stroke:none;display:inline"
           d="M 4.4237962,18.18984 C 4.4066172,18.453268 3.5605828,17.52181 3.4716979,17.32849 3.4624028,14.84167 4.3468904,12.737857 5.7726528,10.757398 7.9671166,8.189522 11.190933,6.8475937 14.48656,6.9052586 21.060577,7.0202867 24.954168,11.092173 25.525902,17.319923 25.042548,17.529083 24.603428,18.345196 24.00371,18.592819 24.132265,15.933743 23.569039,13.165046 21.655873,11.005208 19.645217,8.742363 16.869928,7.801767 14.42961,7.8165939 11.38883,7.9217692 8.9247563,9.1811505 7.1982406,11.157726 5.6650094,12.913023 4.7134402,15.233921 4.4561851,17.814363 4.4437666,17.938929 4.4329661,18.064099 4.4237962,18.18984 z"
           id="pathSocketUp0"
           sodipodi:nodetypes="cccsccccssc" />
      </g>
    </g>
    <g
       inkscape:groupmode="layer"
       id="layerLid"
       inkscape:label="Lid"
       style="display:inline">
      <g
         inkscape:groupmode="layer"
         id="layerLidUnder"
         inkscape:label="LidUnder"
         style="display:none">
        <path
           style="fill:#000000;fill-opacity:1;display:inline"
           d="M 4.5727261,16.029175 C 3.9742601,15.477836 3.2851764,16.602516 4.5891111,17.552154 11.622521,22.674475 20.895415,21.252737 24.233031,16.096436 L 23.753002,14.753356 C 21.892701,17.370893 17.21461,19.091388 13.00733,18.985973 10.224972,18.915783 6.8268694,18.105795 4.5727261,16.029175 z"
           id="pathLidUnder0"
           sodipodi:nodetypes="cscccs" />
        <path
           style="fill:#ffffff;fill-opacity:1;stroke:none;display:inline"
           d="M 23.984168,16.698407 C 24.144653,17.146344 24.065928,17.74492 24.012458,18.19188 23.70926,20.726432 22.855108,21.913919 20.924995,23.250017 14.642372,27.599055 7.5642844,24.438533 5.9752059,22.066467 4.7388267,20.461128 4.3789561,17.979916 4.4637413,17.423628 11.288139,22.442572 20.196072,21.38237 23.984168,16.698407 z"
           id="pathLidUnder1"
           sodipodi:nodetypes="cssccc" />
      </g>
      <g
         style="display:none"
         inkscape:label="LidSquint"
         id="layerLidSquint"
         inkscape:groupmode="layer">
        <path
           sodipodi:nodetypes="cscccs"
           id="path2883"
           d="M 4.5727261,16.029175 C 3.9742601,15.477836 3.2851764,16.602516 4.5891111,17.552154 11.622521,22.674475 20.895415,21.252737 24.233031,16.096436 L 23.753002,14.753356 C 21.892701,17.370893 17.21461,19.091388 13.00733,18.985973 10.224972,18.915783 6.8268694,18.105795 4.5727261,16.029175 z"
           style="fill:#000000;fill-opacity:1;display:inline" />
        <path
           sodipodi:nodetypes="cssccc"
           id="path2885"
           d="M 23.984168,16.698407 C 24.144653,17.146344 24.065928,17.74492 24.012458,18.19188 23.70926,20.726432 22.855108,21.913919 20.924995,23.250017 14.642372,27.599055 7.5642844,24.438533 5.9752059,22.066467 4.7388267,20.461128 4.3789561,17.979916 4.4637413,17.423628 11.288139,22.442572 20.196072,21.38237 23.984168,16.698407 z"
           style="fill:#ffffff;fill-opacity:1;stroke:none;display:inline" />
        <path
           sodipodi:nodetypes="cccccc"
           id="pathLidAngry0-7"
           d="M 5.419733,13.262592 C 8.4332514,13.164812 9.502139,13.198472 12.301119,13.844235 17.012939,14.9318 17.393054,14.763358 24.584859,18.032843 L 25.080265,17.33201 C 20.825664,13.636967 14.238966,11.658295 6.4231297,11.737413 6.2294226,12.182527 5.8961134,12.560773 5.419733,13.262592 z"
           style="fill:#000000;fill-opacity:1;display:inline" />
        <path
           style="fill:#ffffff;fill-opacity:1;stroke:none;display:inline"
           d="M 14.384829,7.8449248 C 16.88037,7.7852048 19.847148,8.6879101 21.916079,11.01634 23.071254,12.595368 24.026249,14.567973 24.134829,16.64134 21.58328,14.283197 13.290693,11.762187 6.6348287,11.73509 7.3913137,10.747505 8.2426317,10.136408 8.7598287,9.7975901 9.671148,9.0157151 11.889288,7.9046458 14.384829,7.8449248 z"
           id="pathLidAngry1-9"
           sodipodi:nodetypes="cccccc" />
      </g>
      <g
         inkscape:groupmode="layer"
         id="layerLidSleepy"
         inkscape:label="LidSleepy"
         style="display:none">
        <path
           style="fill:#ffffff;fill-opacity:1;stroke:none;display:inline"
           d="M 14.34375,8.0937478 C 16.839291,8.0340278 19.618569,8.7340678 21.6875,11.062498 22.70385,12.451764 23.69624,14.437774 24.041053,16.134801 19.688272,12.009852 11.249361,11.18163 4.75,16.343748 4.152463,16.991347 4.73278,15.540169 4.8125,15.249998 5.669595,12.658368 7.577558,10.415708 8.59375,9.749998 9.505069,8.968123 11.848209,8.1534688 14.34375,8.0937478 z"
           id="pathLidSleepy0"
           sodipodi:nodetypes="ccccccc" />
        <path
           style="fill:#000000;fill-opacity:1;display:inline"
           d="M 4.6023775,17.530037 C 3.9648334,18.170579 3.0926283,17.624697 4.481732,16.521405 11.974493,10.570278 21.660896,11.853351 25.216487,17.843954 L 24.948053,19.184213 C 22.966258,16.14314 18.203604,14.01169 13.721548,14.134156 10.757479,14.215696 7.0037403,15.117417 4.6023775,17.530037 z"
           id="pathLidSleepy1"
           sodipodi:nodetypes="cscccs" />
      </g>
      <g
         inkscape:groupmode="layer"
         id="layerLidAngry"
         inkscape:label="LidAngry"
         style="display:none">
        <path
           sodipodi:nodetypes="cccccc"
           id="pathLidAngry0"
           d="M 5.2849043,13.371252 C 8.2984227,13.273472 9.3673105,13.307132 12.16629,13.952895 16.87811,15.04046 17.258225,14.872018 24.45003,18.141503 L 24.945436,17.44067 C 20.690835,13.745627 14.104137,11.766955 6.288301,11.846073 6.0945939,12.291187 5.7612847,12.669433 5.2849043,13.371252 z"
           style="fill:#000000;fill-opacity:1;display:inline" />
        <path
           style="fill:#ffffff;fill-opacity:1;stroke:none;display:inline"
           d="M 14.25,7.953585 C 16.745541,7.893865 19.712319,8.79657 21.78125,11.125 22.936425,12.704028 23.89142,14.676633 24,16.75 21.448451,14.391857 13.155864,11.870847 6.5,11.84375 7.256485,10.856165 8.107803,10.245068 8.625,9.90625 9.536319,9.124375 11.754459,8.013306 14.25,7.953585 z"
           id="pathLidAngry1"
           sodipodi:nodetypes="cccccc" />
      </g>
      <g
         inkscape:groupmode="layer"
         id="layerLidNormal"
         inkscape:label="LidNormal"
         style="display:inline">
        <path
           style="fill:none;stroke:#000000;stroke-width:0;stroke-linecap:butt;stroke-linejoin:miter;stroke-opacity:1;display:inline"
           d="M 0.1,0.1 0.1,0.1"
           id="pathLidNormal0" />
      </g>
    </g>
    <g
       inkscape:groupmode="layer"
       id="layerLashes"
       inkscape:label="Lashes"
       style="display:inline">
      <g
         inkscape:groupmode="layer"
         id="layerLashesDown"
         inkscape:label="LashesDown"
         style="display:none">
        <path
           style="fill:#000000;fill-opacity:1;stroke:none;display:inline"
           id="pathLashesDown0"
           d="M 4.777803,24.533973 C 4.807043,24.508583 5.30526,24.480683 5.547586,24.64779 5.772844,24.803127 5.745525,25.152534 5.718359,25.1761 5.598078,25.452936 5.407903,25.590758 5.143925,25.720883 4.767377,25.887004 4.347276,25.983555 3.911991,26.031481 3.873461,26.045341 3.482209,26.027381 3.341619,25.814148 3.224008,24.933158 4.127139,24.827255 4.777803,24.533973 z"
           sodipodi:nodetypes="csccccc" />
        <path
           style="fill:#000000;fill-opacity:1;stroke:none;display:inline"
           id="pathLashesDown1"
           d="M 14.134935,30.002233 C 14.303431,29.323606 14.372113,29.012403 14.492709,28.331844 14.565429,27.946688 15.125067,27.861618 15.417276,27.847889 15.709481,27.834159 15.755021,27.900609 15.87759,28.402494 16.000243,28.996852 15.8929,29.616537 15.528649,30.144677 15.524149,30.176827 15.115043,30.58344 14.769702,30.551949 14.424357,30.520459 14.128635,30.230091 14.134108,30.002232 L 14.134935,30.002233 z"
           sodipodi:nodetypes="cczcczcc" />
        <path
           style="fill:#000000;fill-opacity:1;stroke:none;display:inline"
           id="pathLashesDown2"
           d="M 20.699008,28.430336 C 20.37514,28.074414 20.213646,27.366366 19.902831,26.794792 19.876261,26.526766 20.003979,26.458011 20.192217,26.353295 20.380461,26.248579 20.681888,26.330035 20.8537,26.379875 21.423272,26.602796 21.513067,27.54428 21.681027,28.073929 21.721457,28.338351 21.615877,28.473117 21.380399,28.57066 21.14493,28.6682 20.775389,28.57436 20.699008,28.430335 z"
           sodipodi:nodetypes="cczcczc" />
        <path
           style="fill:#000000;fill-opacity:1;stroke:none;display:inline"
           id="pathLashesDown3"
           d="M 9.133193,27.300172 C 9.363286,27.093759 9.701296,26.634134 10.007973,27.120755 10.314651,27.607376 9.8460697,28.270989 9.190203,28.978062 9.04337,29.183048 8.338563,29.397327 8.109862,29.263496 7.838294,29.10458 8.064612,28.552456 8.087282,28.524517 8.53651,28.058582 8.722614,27.783472 9.13319,27.300172 z"
           sodipodi:nodetypes="czcscc" />
        <path
           style="fill:#000000;fill-opacity:1;stroke:none;display:inline"
           id="pathLashesDown4"
           d="M 24.703104,25.386738 C 24.316092,25.161596 23.977358,24.696658 23.54195,24.299729 23.319106,24.12642 23.45644,24.02088 23.5947,23.906715 23.732944,23.792549 24.074005,23.822265 24.240658,23.832465 24.809143,23.911485 25.121489,24.56358 25.477151,24.940484 25.611194,25.06274 25.530291,25.265407 25.348038,25.381915 25.165799,25.498423 24.811104,25.487115 24.703106,25.386715 z"
           sodipodi:nodetypes="cczcczc" />
        <path
           style="fill:#ffffff;fill-opacity:1;stroke:none;display:inline"
           d="M 14.197329,7.8449253 C 16.69287,7.7852053 19.659648,8.6879103 21.728579,11.016339 22.883754,12.595367 23.838749,14.567972 23.947329,16.641339 23.469029,20.903938 22.350238,22.916 19.690763,23.94593 17.031288,24.97586 10.611173,26.058281 7.5810914,23.304589 5.3397987,21.267736 3.5219964,17.706198 6.1973288,12.610089 6.9538138,11.622504 8.0551322,10.136407 8.5723292,9.7975893 9.4836482,9.0157143 11.701788,7.9046463 14.197329,7.8449253 z"
           id="pathLidAngry1-0"
           sodipodi:nodetypes="ccczsccc" />
      </g>
      <g
         inkscape:groupmode="layer"
         id="layerLashesUp"
         inkscape:label="LashesUp"
         style="display:none">
        <path
           style="fill:#000000;fill-opacity:1;stroke:none;display:inline"
           id="pathLashesUp0"
           d="M 4.8607793,9.7386248 C 4.8900218,9.7640171 5.388237,9.7919143 5.6305624,9.6248072 5.8558208,9.4694707 5.8285012,9.1200631 5.801336,9.0964979 5.6810547,8.8196614 5.4908796,8.6818395 5.2269011,8.5517144 4.850354,8.3855931 4.4302529,8.2890422 3.9949679,8.2411169 3.9564342,8.2272593 3.5651854,8.2452295 3.4245952,8.4584497 3.3069846,9.3394399 4.2101151,9.445343 4.8607793,9.7386248 z"
           sodipodi:nodetypes="csccccc" />
        <path
           style="fill:#000000;fill-opacity:1;stroke:none;display:inline"
           id="pathLashesUp1"
           d="M 14.217911,4.5689831 C 14.386407,5.1536126 14.720254,5.3333228 14.84085,5.9196175 14.91357,6.2514256 15.208043,6.4131006 15.500252,6.4249286 15.792457,6.4367566 15.837997,6.3795076 15.960566,5.9471414 16.083219,5.4351085 15.975876,4.9012556 15.611625,4.4462682 15.607125,4.4185732 15.198019,4.0682786 14.852678,4.0954077 14.507333,4.1225367 14.211611,4.3726853 14.217084,4.5689831 L 14.217911,4.5689831 z"
           sodipodi:nodetypes="cczcczcc" />
        <path
           style="fill:#000000;fill-opacity:1;stroke:none;display:inline"
           id="pathLashesUp2"
           d="M 21.031984,5.5297614 C 20.708116,5.885684 20.546622,6.5937318 20.235807,7.1653053 20.209237,7.4333313 20.336955,7.5020864 20.525193,7.6068022 20.713437,7.7115187 21.014864,7.6300622 21.186676,7.5802212 21.756248,7.3573008 21.846043,6.4158167 22.014003,5.8861677 22.054433,5.6217453 21.948853,5.4869798 21.713375,5.3894369 21.477906,5.2918939 21.108365,5.3857069 21.031984,5.5297614 z"
           sodipodi:nodetypes="cczcczc" />
        <path
           style="fill:#000000;fill-opacity:1;stroke:none;display:inline"
           id="pathLashesUp3"
           d="M 9.2161697,6.9724255 C 9.4462628,7.1788389 9.7842729,7.6384637 10.09095,7.1518426 10.397628,6.6652214 9.9247619,6.0055084 9.2731793,5.2945359 8.9673826,4.9608667 8.4215391,4.8752705 8.1928381,5.009102 7.9212709,5.1680179 8.1475853,5.7201418 8.1702618,5.7480804 8.4869074,6.2803064 8.8055932,6.4891253 9.2161697,6.9724255 z"
           sodipodi:nodetypes="czsscc" />
        <path
           style="fill:#000000;fill-opacity:1;stroke:none;display:inline"
           id="pathLashesUp4"
           d="M 24.78608,8.8858599 C 24.399068,9.1110016 24.060334,9.5759392 23.624926,9.972869 23.402082,10.146178 23.539416,10.251718 23.677676,10.365883 23.81592,10.480049 24.156981,10.450333 24.323634,10.440133 24.892119,10.361113 25.204465,9.7090177 25.560127,9.3321139 25.69417,9.2098576 25.61327,9.0071904 25.431014,8.8906822 25.248775,8.7741741 24.89408,8.7854829 24.786082,8.8858522 z"
           sodipodi:nodetypes="cczcczc" />
      </g>
    </g>
    <g
       inkscape:groupmode="layer"
       id="layerBrow"
       inkscape:label="Brow"
       style="display:inline">
      <g
         inkscape:groupmode="layer"
         id="layerBrowExcited"
         inkscape:label="BrowExcited"
         style="display:none">
        <path
           sodipodi:nodetypes="csssssssssss"
           id="pathBrowExcited0"
           d="M 1.3230924,7.8215967 C 0.9928404,8.0659163 0.69533616,7.8702248 0.4896634,7.6773835 0.34730156,7.5439033 0.2486758,7.16105 0.63426289,6.8343146 0.89683809,6.6118159 1.155961,6.3738578 1.4422431,6.155619 4.0872424,4.1392809 8.1520456,2.794033 12.873443,1.8092207 17.053805,0.93726022 21.051864,0.75172842 25.146448,0.66460345 25.534986,0.6563361 25.927346,0.59351215 26.314907,0.64195723 26.66846,0.6861514 26.988863,0.7964084 27.000522,1.28668 27.012532,1.7917183 26.761865,1.9953104 26.364117,2.0395046 25.944518,2.0861267 25.521398,2.0051228 25.101198,1.9954544 16.818236,1.8048714 9.2140389,3.3223743 2.1281382,7.351641 1.8590451,7.5046558 1.5738726,7.6360702 1.3230924,7.8215967 z"
           style="fill:#d10a00;fill-opacity:1;display:inline" />
      </g>
      <g
         inkscape:groupmode="layer"
         id="layerBrowConfused"
         inkscape:label="BrowConfused"
         style="display:none">
        <path
           sodipodi:nodetypes="cssssssssss"
           id="pathBrowConfused0"
           d="M 28.968803,0.53139946 C 29.322356,0.48720528 29.699979,0.47346331 29.863427,0.89080719 30.050668,1.3689027 29.504194,1.587017 29.327417,1.7416966 28.938882,2.0816649 28.383468,2.2189645 27.855289,2.4233837 21.247687,4.9806991 9.5864292,4.1836221 2.1662503,1.8572255 1.7567282,1.7288309 1.3287614,1.6629839 0.97800121,1.4583738 0.71283616,1.3036942 0.59084094,0.86453111 0.72639633,0.5983835 0.8610422,0.33402165 1.2107229,0.25401033 1.5642763,0.2982045 1.878784,0.33751796 2.1735402,0.46748947 2.4769852,0.5478736 10.997763,2.8050715 18.909305,2.8271653 27.451631,0.89638445 27.957083,0.78213956 28.450624,0.59617189 28.968803,0.53139946 z"
           style="fill:#d10a00;fill-opacity:1;display:inline" />
      </g>
      <g
         inkscape:groupmode="layer"
         id="layerBrowAngry"
         inkscape:label="BrowAngry"
         style="display:none">
        <path
           sodipodi:nodetypes="czzsssssssssz"
           id="pathBrowAngry0"
           d="M 29.516069,9.1225613 C 29.847526,9.1888525 30.141018,9.1867049 30.409245,8.8570813 30.677473,8.5274576 30.521231,8.2672839 30.159956,7.8772984 29.798681,7.4873129 29.390039,7.1105722 28.939572,6.7474303 26.202293,4.5407841 21.920672,2.8362595 17.338318,1.7132358 12.50679,0.5291457 7.4895477,0.36304885 3.3355174,0.28602956 2.9589696,0.27904804 2.5895147,0.27279845 2.2279338,0.26658892 1.9679932,0.26212488 1.5180694,0.58553774 1.5357891,0.93320092 1.5561427,1.3325419 2.1285606,1.639072 2.4401574,1.6354347 2.7768372,1.6315046 3.1124642,1.6305468 3.4470487,1.6325681 8.1791527,1.6611562 12.702708,2.2856527 17.046448,3.5250098 20.916418,4.6291909 24.643658,6.2214222 28.248487,8.3151063 28.65043,8.5485547 29.056526,9.0306527 29.516069,9.1225613 z"
           style="fill:#d10a00;fill-opacity:1;display:inline" />
      </g>
      <g
         inkscape:groupmode="layer"
         id="layerBrowNormal"
         inkscape:label="BrowNormal"
         style="display:inline">
        <path
           sodipodi:nodetypes="czssssssssssz"
           id="pathBrowNormal0"
           d="M 27.916564,12.256628 C 28.08874,12.502603 28.406512,12.532348 28.782264,12.47454 29.069526,12.430346 29.183781,12.121909 29.149979,11.895888 29.093914,11.521007 29.023392,11.154781 28.939054,10.797384 27.779774,5.8847575 24.010006,2.6402471 19.293086,1.513554 14.46696,0.36077559 6.6905143,0.56750157 1.8897575,3.1624876 1.5787086,3.330621 1.1701765,3.4977984 0.99569808,3.697245 0.67169564,4.0676127 0.76770319,4.4635147 0.8754447,4.7220943 0.98593014,4.9872594 1.2576465,5.3185843 1.5891028,5.3185843 1.9532194,5.3185843 2.1494899,5.1151061 2.4929119,4.9766676 7.5880733,2.9227331 13.80481,1.9966524 18.90412,3.444999 22.704838,4.5245094 25.88479,6.9230887 27.516895,11.156893 27.671666,11.558381 27.744388,12.010654 27.916564,12.256628 z"
           style="fill:#d10a00;fill-opacity:1;display:inline" />
      </g>
    </g>
  </g>
</svg>
