<?xml version="1.0" encoding="UTF-8" standalone="no"?>
<!-- Created with Inkscape (http://www.inkscape.org/) -->

<svg
   xmlns:dc="http://purl.org/dc/elements/1.1/"
   xmlns:cc="http://creativecommons.org/ns#"
   xmlns:rdf="http://www.w3.org/1999/02/22-rdf-syntax-ns#"
   xmlns:svg="http://www.w3.org/2000/svg"
   xmlns="http://www.w3.org/2000/svg"
   xmlns:sodipodi="http://sodipodi.sourceforge.net/DTD/sodipodi-0.dtd"
   xmlns:inkscape="http://www.inkscape.org/namespaces/inkscape"
   width="200"
   height="200"
   id="svg4873"
   version="1.1"
   inkscape:version="0.48.0 r9654"
   sodipodi:docname="con-animal-rooster.svg"
   inkscape:export-filename="/Users/aaxe/Documents/moralife/img/pos-menorah.png"
   inkscape:export-xdpi="90"
   inkscape:export-ydpi="90"
   style="display:inline">
  <defs
     id="defs4875" />
  <sodipodi:namedview
     id="base"
     pagecolor="#ffffff"
     bordercolor="#666666"
     borderopacity="1.0"
     inkscape:pageopacity="0.0"
     inkscape:pageshadow="2"
     inkscape:zoom="4"
     inkscape:cx="99.427345"
     inkscape:cy="101.26316"
     inkscape:document-units="px"
     inkscape:current-layer="layerSymbol"
     showgrid="false"
     inkscape:window-width="1024"
     inkscape:window-height="708"
     inkscape:window-x="-4"
     inkscape:window-y="-4"
     inkscape:window-maximized="1"
     showguides="true"
     inkscape:guide-bbox="true" />
  <metadata
     id="metadata4878">
    <rdf:RDF>
      <cc:Work
         rdf:about="">
        <dc:format>image/svg+xml</dc:format>
        <dc:type
           rdf:resource="http://purl.org/dc/dcmitype/StillImage" />
        <dc:title />
        <dc:creator>
          <cc:Agent>
            <dc:title>Adam Axe</dc:title>
          </cc:Agent>
        </dc:creator>
        <dc:publisher>
          <cc:Agent>
            <dc:title>TeamAxe.Org</dc:title>
          </cc:Agent>
        </dc:publisher>
        <dc:subject>
          <rdf:Bag>
            <rdf:li>Moralife</rdf:li>
            <rdf:li>St. Louis</rdf:li>
            <rdf:li>Arch</rdf:li>
          </rdf:Bag>
        </dc:subject>
        <dc:description>A surrounding for the software, Moralife.</dc:description>
      </cc:Work>
    </rdf:RDF>
  </metadata>
  <g
     inkscape:groupmode="layer"
     id="layerTotal"
     inkscape:label="Total"
     style="fill:#000000;fill-opacity:1">
    <g
       inkscape:groupmode="layer"
       id="layerSymbol"
       inkscape:label="Symbol"
       style="fill:#000000;fill-opacity:1;display:inline">
      <path
         style="fill:#000000;fill-opacity:1;display:inline"
         d="M 102.37563,103.91357 C 92.80276,110.17188 98.17182,121.12115 86.53019,118.78717 C 74.80772,116.43701 79.476789,110.74074 74.415745,107.37052 C 73.648842,106.85983 73.642751,105.37455 74.167953,104.6175 C 74.849586,103.63498 75.303166,103.52483 75.825841,103.84005 C 80.866853,106.88032 77.709477,113.25254 85.88409,115.48892 C 94.613,116.50524 90.44838,105.99197 99.11072,98.68375 C 99.11072,98.68375 103.69886,97.74799 106.07141,99.01423 C 105.59932,95.55997 101.13325,94.37984 100.89511,92.80157 C 99.61989,87.77093 98.86675,86.6336 95.67999,82.550243 C 95.36683,82.148988 97.36051,82.538513 98.24256,79.174911 C 98.58067,77.885548 95.56961,77.181667 95.15187,75.761321 C 94.54242,73.689245 96.31858,71.056536 96.1292,70.836714 C 95.16434,69.71682 94.28925,70.302852 92.17912,70.110748 C 91.33324,70.033738 92.59703,66.174011 91.74982,65.374242 C 90.86862,64.54237 87.8785,66.776101 87.11125,67.061768 C 85.994,67.477748 86.72143,60.908399 84.52953,60.021888 C 81.21854,58.680789 79.097049,64.976884 77.575673,63.574055 C 67.109483,59.661896 73.336738,56.157235 78.722867,51.583446 C 81.07177,50.504707 87.33745,51.093241 89.45749,52.378541 C 91.75194,53.769591 87.28643,58.619994 91.24971,60.7788 C 93.32327,61.908273 96.51095,58.900049 97.6542,54.010632 C 101.06605,55.608494 97.68408,62.312073 98.40812,63.376098 C 99.855,64.117615 99.71861,65.380087 105.30134,61.799742 C 105.516,64.194292 101.47631,70.130161 101.26666,71.252392 C 100.95165,72.938714 105.06388,72.487683 108.18813,71.58603 C 110.96934,76.244773 99.60813,75.080798 100.39538,76.516199 C 102.95393,81.18126 104.36546,78.351508 107.37708,77.12514 C 108.20982,78.008977 108.57036,82.437918 104.90957,86.19196 C 102.30896,88.85881 108.07414,88.65896 106.38837,89.8528 C 106.27114,91.96298 113.42858,99.73422 114.24724,103.7414 C 110.43754,102.11497 104.71101,102.37517 102.37563,103.91357 z"
         id="seg-3-9"
         sodipodi:nodetypes="cssssccccssssssscccsscccccccsccc"
         inkscape:connector-curvature="0" />
    </g>
    <g
       inkscape:groupmode="layer"
       id="layerPosition"
       inkscape:label="Position">
      <path
         style="fill:none;stroke:#000000;stroke-width:0.90835607px;stroke-linecap:butt;stroke-linejoin:miter;stroke-opacity:1;display:inline"
         d="M 76.71696,87.31012 L 127.53304,87.08145 L 107.35274,137.41855 L 76.71696,87.31012 z"
         id="path2955"
         sodipodi:nodetypes="cccc"
         inkscape:connector-curvature="0" />
    </g>
  </g>
</svg>
