<?xml version="1.0" encoding="UTF-8" standalone="no"?>
<!-- Created with Inkscape (http://www.inkscape.org/) -->

<svg
   xmlns:dc="http://purl.org/dc/elements/1.1/"
   xmlns:cc="http://creativecommons.org/ns#"
   xmlns:rdf="http://www.w3.org/1999/02/22-rdf-syntax-ns#"
   xmlns:svg="http://www.w3.org/2000/svg"
   xmlns="http://www.w3.org/2000/svg"
   xmlns:sodipodi="http://sodipodi.sourceforge.net/DTD/sodipodi-0.dtd"
   xmlns:inkscape="http://www.inkscape.org/namespaces/inkscape"
   width="200"
   height="200"
   id="svg4873"
   version="1.1"
   inkscape:version="0.48.0 r9654"
   sodipodi:docname="con-buddhawheel-eye.svg"
   style="display:inline">
  <defs
     id="defs4875" />
  <sodipodi:namedview
     id="base"
     pagecolor="#ffffff"
     bordercolor="#666666"
     borderopacity="1.0"
     inkscape:pageopacity="0.0"
     inkscape:pageshadow="2"
     inkscape:zoom="1.8041622"
     inkscape:cx="-28.191847"
     inkscape:cy="63.579581"
     inkscape:document-units="px"
     inkscape:current-layer="layerPosition"
     showgrid="false"
     inkscape:window-width="1024"
     inkscape:window-height="708"
     inkscape:window-x="-4"
     inkscape:window-y="-4"
     inkscape:window-maximized="1" />
  <metadata
     id="metadata4878">
    <rdf:RDF>
      <cc:Work
         rdf:about="">
        <dc:format>image/svg+xml</dc:format>
        <dc:type
           rdf:resource="http://purl.org/dc/dcmitype/StillImage" />
        <dc:title />
      </cc:Work>
    </rdf:RDF>
  </metadata>
  <g
     inkscape:groupmode="layer"
     id="layerTotal"
     inkscape:label="Total"
     style="display:inline">
    <g
       inkscape:groupmode="layer"
       id="layerSymbol"
       inkscape:label="Symbol">
      <path
         style="fill:#000000;fill-opacity:1;display:inline"
         d="M 60.270428,76.730579 C 49.612272,78.273089 43.104867,81.221849 37.136351,83.592789 L 40.031636,87.695999 C 46.298131,85.005889 51.881987,82.682849 60.270428,81.223909 C 60.270399,79.726139 60.270432,78.228359 60.270428,76.730579 z"
         id="seg"
         sodipodi:nodetypes="ccccc"
         inkscape:connector-curvature="0" />
      <path
         style="fill:#000000;fill-opacity:1;display:inline"
         d="M 79.414087,43.472409 L 76.340207,44.830739 C 78.396727,47.658689 79.188367,49.200309 80.391717,53.601199 C 80.404157,53.600899 80.416887,53.601509 80.429327,53.601199 C 81.682187,53.297509 83.024077,53.442849 84.250537,53.789209 C 82.862997,49.344319 81.832527,47.414239 79.414087,43.472409 z M 79.949917,110.42586 C 79.160977,115.15972 78.665657,116.93169 76.692717,123.11154 L 82.426877,124.33357 C 83.700157,118.8383 84.213607,116.67371 85.162357,111.20139 C 82.088837,111.03603 83.334287,110.64384 79.949917,110.42586 z"
         id="seg-3"
         sodipodi:nodetypes="ccccccccccc"
         inkscape:connector-curvature="0" />
      <path
         style="fill:#000000;fill-opacity:1;display:inline"
         d="M 82.201277,50.485008 L 81.355247,50.673018 C 73.468647,52.485918 66.807211,55.703049 61.863774,59.852379 C 46.382746,72.846579 47.773115,94.982319 81.322357,111.77011 C 82.195887,112.28379 82.281537,112.39757 83.235297,112.70543 C 84.284457,112.23025 84.386067,112.21982 85.115357,111.709 C 128.56822,88.201779 115.94246,57.185049 83.225917,50.682428 C 82.803617,50.615278 82.616707,50.591598 82.201277,50.485008 z M 82.252977,53.629409 C 95.086257,57.844669 107.29223,66.675649 108.35754,77.167689 C 109.38154,87.286379 102.07533,100.38154 83.202407,110.76428 C 81.483337,109.889 79.890647,108.99823 78.408257,108.0993 C 63.318377,98.948649 60.094388,88.681289 60.735742,79.437859 C 61.468076,68.933789 69.593095,58.259489 82.252977,53.629409 z"
         id="seg-3-1"
         inkscape:connector-curvature="0" />
      <path
         style="fill:#000000;fill-opacity:1;display:inline"
         d="M 121.64953,55.340249 C 114.18395,57.703619 109.17919,59.618609 101.51458,64.111199 C 103.37284,65.202329 103.3939,65.292129 104.56611,67.016249 C 110.48626,63.231549 114.14322,61.554459 121.93624,59.020459 L 121.64953,55.340249 z M 50.531744,109.51873 L 56.566721,113.92277 C 59.511326,108.35679 61.025312,104.15139 66.084315,97.983449 C 64.517579,95.744359 63.479579,94.811309 62.653224,93.626429 C 57.249197,98.811359 54.051442,102.89165 50.531744,109.51873 z"
         id="seg-1"
         sodipodi:nodetypes="cccccccccc"
         inkscape:connector-curvature="0" />
      <path
         style="fill:#000000;fill-opacity:1;display:inline"
         d="M 42.607312,53.422589 L 43.688343,59.025159 C 48.050859,60.184339 55.733172,62.432249 64.838339,66.619269 C 65.886375,65.457779 67.174895,63.204879 67.724225,62.708779 C 56.585855,56.540469 47.537396,54.324019 42.607312,53.422619 L 42.607312,53.422599 L 42.607312,53.422589 z M 99.836127,98.286789 C 103.20415,103.55921 105.76705,107.62323 109.80518,114.32698 L 111.52073,114.87219 C 109.02309,107.04008 106.27529,101.32385 102.44381,95.276859 C 101.82219,96.477819 101.42323,97.079619 99.836127,98.286789 z"
         id="seg-7"
         sodipodi:nodetypes="cccccccccccc"
         inkscape:connector-curvature="0" />
    </g>
    <g
       inkscape:groupmode="layer"
       id="layerPosition"
       inkscape:label="Position">
      <path
         style="fill:none;stroke:#000000;stroke-width:0.90835607px;stroke-linecap:butt;stroke-linejoin:miter;stroke-opacity:1;display:inline"
         d="M 82.335901,80.884809 L 132.10795,80.455418 L 107.22577,143.41037 z"
         id="path2955"
         sodipodi:nodetypes="cccc"
         inkscape:connector-curvature="0" />
    </g>
  </g>
</svg>
