<?xml version="1.0" encoding="UTF-8" standalone="no"?>
<!-- Created with Inkscape (http://www.inkscape.org/) -->

<svg
   xmlns:dc="http://purl.org/dc/elements/1.1/"
   xmlns:cc="http://creativecommons.org/ns#"
   xmlns:rdf="http://www.w3.org/1999/02/22-rdf-syntax-ns#"
   xmlns:svg="http://www.w3.org/2000/svg"
   xmlns="http://www.w3.org/2000/svg"
   xmlns:sodipodi="http://sodipodi.sourceforge.net/DTD/sodipodi-0.dtd"
   xmlns:inkscape="http://www.inkscape.org/namespaces/inkscape"
   width="200"
   height="200"
   id="svg3604"
   version="1.1"
   inkscape:version="0.47 r22583"
   sodipodi:docname="con-bahai.svg"
   inkscape:export-filename="c:\local\ml\pt\images\conscience\con-yinyang2.png"
   inkscape:export-xdpi="90"
   inkscape:export-ydpi="90"
   style="display:inline">
  <defs
     id="defs3606">
    <inkscape:perspective
       sodipodi:type="inkscape:persp3d"
       inkscape:vp_x="0 : 45 : 1"
       inkscape:vp_y="0 : 1000 : 0"
       inkscape:vp_z="90 : 45 : 1"
       inkscape:persp3d-origin="45 : 30 : 1"
       id="perspective5109" />
    <inkscape:perspective
       id="perspective4877"
       inkscape:persp3d-origin="0.5 : 0.33333333 : 1"
       inkscape:vp_z="1 : 0.5 : 1"
       inkscape:vp_y="0 : 1000 : 0"
       inkscape:vp_x="0 : 0.5 : 1"
       sodipodi:type="inkscape:persp3d" />
  </defs>
  <sodipodi:namedview
     id="base"
     pagecolor="#ffffff"
     bordercolor="#666666"
     borderopacity="1.0"
     inkscape:pageopacity="0.0"
     inkscape:pageshadow="2"
     inkscape:zoom="8.34435"
     inkscape:cx="89.59847"
     inkscape:cy="94.941167"
     inkscape:document-units="px"
     inkscape:current-layer="layerPosition"
     showgrid="false"
     inkscape:window-width="1024"
     inkscape:window-height="708"
     inkscape:window-x="-4"
     inkscape:window-y="-4"
     inkscape:window-maximized="1" />
  <metadata
     id="metadata3609">
    <rdf:RDF>
      <cc:Work
         rdf:about="">
        <dc:format>image/svg+xml</dc:format>
        <dc:type
           rdf:resource="http://purl.org/dc/dcmitype/StillImage" />
        <dc:title></dc:title>
        <cc:license
           rdf:resource="" />
      </cc:Work>
    </rdf:RDF>
  </metadata>
  <g
     inkscape:groupmode="layer"
     id="layerTotal"
     inkscape:label="Total"
     style="display:inline">
    <g
       inkscape:groupmode="layer"
       id="layerSymbol"
       inkscape:label="Symbol"
       style="display:inline">
      <path
         style="fill:#000000;fill-opacity:1;fill-rule:nonzero;stroke:none"
         d="M 113.48997,117.78868 C 111.37565,116.79493 109.26133,115.80117 107.14701,114.80741 106.98388,117.13792 106.82076,119.46843 106.65763,121.79895 105.53123,119.75221 104.40483,117.70548 103.27842,115.65875 101.77661,117.44829 100.2748,119.23783 98.772983,121.02737 99.064747,118.70944 99.356507,116.39152 99.648267,114.0736 97.381406,114.63862 95.114548,115.20365 92.84769,115.76867 94.446171,114.06492 96.044652,112.36118 97.643133,110.65743 95.477093,109.78212 93.311052,108.90681 91.145012,108.0315 93.439648,107.5927 95.734284,107.1539 98.028921,106.7151 96.791052,104.7338 95.553183,102.75249 94.315314,100.77118 96.429633,101.76494 98.543951,102.7587 100.65827,103.75246 100.8214,101.42194 100.98453,99.091436 101.14765,96.760923 102.27405,98.807656 103.40046,100.85438 104.52686,102.90112 106.02867,101.11158 107.53048,99.32204 109.0323,97.532499 108.74054,99.850424 108.44878,102.16834 108.15702,104.48627 110.42388,103.92124 112.69073,103.35622 114.95759,102.79119 113.35911,104.49494 111.76063,106.19869 110.16215,107.90244 112.32819,108.77775 114.49423,109.65306 116.66027,110.52837 114.36563,110.96717 112.071,111.40596 109.77636,111.84476 111.01423,113.82607 112.2521,115.80738 113.48997,117.78868 z"
         id="path5980" />
      <path
         style="fill:#ffffff;fill-opacity:1;fill-rule:nonzero;stroke:none"
         d="M 111.04704,115.37107 C 109.57502,114.67291 108.10302,113.97473 106.631,113.27657 106.51156,114.90137 106.17035,116.85881 106.05091,118.48361 105.2704,117.05355 104.48989,115.17999 103.70937,113.74994 102.6577,114.99422 101.60603,116.46026 100.55436,117.70454 100.76349,116.08882 101.19435,114.36223 101.40348,112.74652 99.821287,113.13501 98.239086,113.52351 96.656893,113.912 97.775769,112.72777 98.894644,111.54355 100.01351,110.35933 98.505149,109.74364 96.99678,109.12794 95.488408,108.51225 97.089666,108.21184 98.690922,107.91145 100.29218,107.61106 99.433777,106.22635 98.575379,104.84165 97.716978,103.45694 99.188987,104.15511 100.661,104.85327 102.13302,105.55145 102.25247,103.92664 102.37191,102.30184 102.49137,100.67702 103.27188,102.10708 103.71975,103.09363 104.50027,104.52369 105.55194,103.27941 106.82537,101.92424 107.87704,100.67996 107.66792,102.29568 107.56966,104.02226 107.36055,105.63797 108.94274,105.24949 110.52493,104.97189 112.10712,104.58339 110.98826,105.76761 109.86938,106.95184 108.75051,108.13605 110.25888,108.75175 111.76724,109.47832 113.27562,110.09401 111.67435,110.39441 110.0731,110.91657 108.47185,111.21695 109.33024,112.60166 110.18864,113.98636 111.04704,115.37107 z"
         id="path5983"
         sodipodi:nodetypes="ccccccccccccccccccccc" />
    </g>
    <g
       inkscape:groupmode="layer"
       id="layerPosition"
       inkscape:label="Position">
      <path
         style="fill:none;stroke:#000000;stroke-width:0.90835607px;stroke-linecap:butt;stroke-linejoin:miter;stroke-opacity:1;display:inline"
         d="M 78.185109,85.46977 125.26054,85.474811 104.45344,140.16075 78.185109,85.46977 z"
         id="path2955"
         sodipodi:nodetypes="cccc" />
    </g>
  </g>
</svg>
