<?xml version="1.0" encoding="UTF-8" standalone="no"?>
<!-- Created with Inkscape (http://www.inkscape.org/) -->

<svg
   xmlns:dc="http://purl.org/dc/elements/1.1/"
   xmlns:cc="http://creativecommons.org/ns#"
   xmlns:rdf="http://www.w3.org/1999/02/22-rdf-syntax-ns#"
   xmlns:svg="http://www.w3.org/2000/svg"
   xmlns="http://www.w3.org/2000/svg"
   xmlns:sodipodi="http://sodipodi.sourceforge.net/DTD/sodipodi-0.dtd"
   xmlns:inkscape="http://www.inkscape.org/namespaces/inkscape"
   width="200"
   height="200"
   id="svg3604"
   version="1.1"
   inkscape:version="0.48.0 r9654"
   sodipodi:docname="con-gender-female-nose.svg"
   inkscape:export-filename="C:\local\ml\Archive\img\sym-ball.png"
   inkscape:export-xdpi="90"
   inkscape:export-ydpi="90"
   style="display:inline">
  <defs
     id="defs3606">
    <inkscape:perspective
       sodipodi:type="inkscape:persp3d"
       inkscape:vp_x="0 : 45 : 1"
       inkscape:vp_y="0 : 1000 : 0"
       inkscape:vp_z="90 : 45 : 1"
       inkscape:persp3d-origin="45 : 30 : 1"
       id="perspective47" />
    <inkscape:perspective
       id="perspective3020"
       inkscape:persp3d-origin="0.5 : 0.33333333 : 1"
       inkscape:vp_z="1 : 0.5 : 1"
       inkscape:vp_y="0 : 1000 : 0"
       inkscape:vp_x="0 : 0.5 : 1"
       sodipodi:type="inkscape:persp3d" />
    <inkscape:perspective
       id="perspective3051"
       inkscape:persp3d-origin="0.5 : 0.33333333 : 1"
       inkscape:vp_z="1 : 0.5 : 1"
       inkscape:vp_y="0 : 1000 : 0"
       inkscape:vp_x="0 : 0.5 : 1"
       sodipodi:type="inkscape:persp3d" />
    <inkscape:perspective
       id="perspective3107"
       inkscape:persp3d-origin="0.5 : 0.33333333 : 1"
       inkscape:vp_z="1 : 0.5 : 1"
       inkscape:vp_y="0 : 1000 : 0"
       inkscape:vp_x="0 : 0.5 : 1"
       sodipodi:type="inkscape:persp3d" />
    <inkscape:perspective
       id="perspective6455"
       inkscape:persp3d-origin="0.5 : 0.33333333 : 1"
       inkscape:vp_z="1 : 0.5 : 1"
       inkscape:vp_y="0 : 1000 : 0"
       inkscape:vp_x="0 : 0.5 : 1"
       sodipodi:type="inkscape:persp3d" />
  </defs>
  <sodipodi:namedview
     id="base"
     pagecolor="#ffffff"
     bordercolor="#666666"
     borderopacity="1.0"
     inkscape:pageopacity="0.0"
     inkscape:pageshadow="2"
     inkscape:zoom="2.8284271"
     inkscape:cx="-2.5352059"
     inkscape:cy="95.18143"
     inkscape:document-units="px"
     inkscape:current-layer="layerPosition"
     showgrid="false"
     inkscape:window-width="1024"
     inkscape:window-height="708"
     inkscape:window-x="-4"
     inkscape:window-y="-4"
     inkscape:window-maximized="1" />
  <metadata
     id="metadata3609">
    <rdf:RDF>
      <cc:Work
         rdf:about="">
        <dc:format>image/svg+xml</dc:format>
        <dc:type
           rdf:resource="http://purl.org/dc/dcmitype/StillImage" />
        <dc:title />
      </cc:Work>
    </rdf:RDF>
  </metadata>
  <g
     inkscape:groupmode="layer"
     id="layerTotal"
     inkscape:label="Total"
     style="display:inline">
    <g
       inkscape:groupmode="layer"
       id="layerSymbol"
       inkscape:label="Symbol"
       style="display:inline">
      <path
         style="fill:#000000;fill-opacity:1;stroke:#000000;stroke-width:0.21380846;stroke-linejoin:miter;stroke-miterlimit:4;stroke-opacity:1;stroke-dasharray:none;display:inline"
         d="M 105.01651,100.43915 L 104.06877,100.27221 C 101.55812,99.954638 99.126805,101.06268 97.779034,102.99656 C 95.731917,105.93388 96.105878,110.51117 99.645301,112.28008 C 103.10972,114.0115 106.79726,112.97475 108.15782,111.58606 C 109.50948,110.20648 109.9885,108.38176 110.10442,107.2656 C 110.22129,106.14018 109.2355,101.3696 105.01651,100.43915 z M 107.07877,102.18215 C 107.71137,102.669 108.62653,103.66644 109.12088,105.49006 C 109.72421,107.71564 109.00314,109.23268 108.42898,110.10267 C 107.39572,111.66833 103.34479,113.74808 99.636979,110.98652 C 97.007256,109.02792 97.580257,105.55958 99.358575,103.06437 C 102.07664,99.918958 105.9513,101.05159 107.07877,102.18215 z"
         id="path4329-2-7-1"
         sodipodi:nodetypes="ccsszsccssscc"
         inkscape:connector-curvature="0" />
      <path
         style="fill:#000000;fill-opacity:1;display:inline"
         id="seg-1-1-5-7"
         d="M 101.07475,115.41374 C 102.54024,115.93123 103.10848,116.20252 104.60261,116.31733 C 105.72324,116.25325 105.88914,116.37995 107.95386,115.7713 L 108.1587,116.8799 C 105.78101,117.38387 103.81878,117.72518 100.96437,116.92314 L 101.07475,115.41374 z"
         sodipodi:nodetypes="cccccc"
         inkscape:connector-curvature="0" />
      <path
         sodipodi:nodetypes="csscscccsscc"
         d="M 102.32313,112.12252 C 102.36653,112.17921 102.37305,112.27628 102.53765,112.41333 C 102.73122,112.57449 103.35263,112.79507 103.39968,112.8907 C 103.78202,113.66793 104.0761,114.88721 104.13126,115.89108 C 104.19545,117.06159 104.15767,117.81167 103.74552,118.46862 C 103.72461,118.50195 103.33052,119.10462 103.29127,119.13119 L 104.37065,119.26849 L 104.48577,119.22393 C 105.58096,117.97926 105.60966,114.68323 104.64598,112.96639 C 104.59569,112.87682 105.00986,112.75135 105.13922,112.63305 C 105.28373,112.50089 105.44351,112.37538 105.38831,112.3081 L 102.32313,112.12252 z"
         id="seg-3-8-4"
         style="fill:#000000;fill-opacity:1;display:inline"
         inkscape:connector-curvature="0" />
    </g>
    <g
       inkscape:groupmode="layer"
       id="layerPosition"
       inkscape:label="Position">
      <path
         style="fill:none;stroke:#000000;stroke-width:1.02585244px;stroke-linecap:butt;stroke-linejoin:miter;stroke-opacity:1;display:inline"
         d="M 79.512972,87.542716 L 124.9193,87.893896 L 105.49461,135.61815 z"
         id="path2955"
         sodipodi:nodetypes="cccc"
         inkscape:connector-curvature="0" />
    </g>
  </g>
</svg>
