<?xml version="1.0" encoding="UTF-8" standalone="no"?>
<!-- Created with Inkscape (http://www.inkscape.org/) -->

<svg
   xmlns:dc="http://purl.org/dc/elements/1.1/"
   xmlns:cc="http://creativecommons.org/ns#"
   xmlns:rdf="http://www.w3.org/1999/02/22-rdf-syntax-ns#"
   xmlns:svg="http://www.w3.org/2000/svg"
   xmlns="http://www.w3.org/2000/svg"
   xmlns:sodipodi="http://sodipodi.sourceforge.net/DTD/sodipodi-0.dtd"
   xmlns:inkscape="http://www.inkscape.org/namespaces/inkscape"
   width="200"
   height="200"
   id="svg4873"
   version="1.1"
   inkscape:version="0.48.0 r9654"
   sodipodi:docname="con-buddhawheel-nose.svg"
   style="display:inline"
   inkscape:export-filename="E:\moralife\code\moralife\Resources\images\conscience\con-buddhawheel-nose.png"
   inkscape:export-xdpi="90"
   inkscape:export-ydpi="90">
  <defs
     id="defs4875">
    <inkscape:perspective
       sodipodi:type="inkscape:persp3d"
       inkscape:vp_x="0 : 45 : 1"
       inkscape:vp_y="0 : 1000 : 0"
       inkscape:vp_z="90 : 45 : 1"
       inkscape:persp3d-origin="45 : 30 : 1"
       id="perspective6054" />
    <inkscape:perspective
       id="perspective6065"
       inkscape:persp3d-origin="0.5 : 0.33333333 : 1"
       inkscape:vp_z="1 : 0.5 : 1"
       inkscape:vp_y="0 : 1000 : 0"
       inkscape:vp_x="0 : 0.5 : 1"
       sodipodi:type="inkscape:persp3d" />
  </defs>
  <sodipodi:namedview
     id="base"
     pagecolor="#ffffff"
     bordercolor="#666666"
     borderopacity="1.0"
     inkscape:pageopacity="0.0"
     inkscape:pageshadow="2"
     inkscape:zoom="2.4362039"
     inkscape:cx="89.530341"
     inkscape:cy="106.82109"
     inkscape:document-units="px"
     inkscape:current-layer="svg4873"
     showgrid="false"
     inkscape:window-width="1024"
     inkscape:window-height="708"
     inkscape:window-x="-4"
     inkscape:window-y="-4"
     inkscape:window-maximized="1"
     showguides="true"
     inkscape:guide-bbox="true" />
  <metadata
     id="metadata4878">
    <rdf:RDF>
      <cc:Work
         rdf:about="">
        <dc:format>image/svg+xml</dc:format>
        <dc:type
           rdf:resource="http://purl.org/dc/dcmitype/StillImage" />
        <dc:title></dc:title>
      </cc:Work>
    </rdf:RDF>
  </metadata>
  <g
     inkscape:groupmode="layer"
     id="layerTotal"
     inkscape:label="Total">
    <g
       inkscape:groupmode="layer"
       id="layerSymbol"
       inkscape:label="Symbol"
       style="display:inline">
      <path
         style="fill:#000000;fill-opacity:1;display:inline"
         id="seg-72"
         d="M 93.283473,102.81549 C 96.919413,101.25463 102.26282,100.00905 107.23453,100.4 C 111.01143,101.02458 113.12212,100.76334 119.88222,104.06079 L 120.41105,103.89943 C 108.43169,96.180487 97.324013,99.580967 92.385713,101.54265 L 93.283473,102.81549 z"
         sodipodi:nodetypes="cccccc"
         inkscape:connector-curvature="0" />
      <path
         style="fill:#000000;fill-opacity:1;display:inline"
         id="seg-3-3"
         d="M 103.77591,87.874487 C 105.67164,90.481307 107.14449,97.494547 106.78149,102.03559 C 106.08962,106.14347 106.21714,108.89289 104.65148,113.79699 L 106.43001,114.17671 C 108.54237,105.06003 109.51452,94.140297 105.41218,87.453827 L 103.77591,87.874487 z"
         sodipodi:nodetypes="cccccc"
         inkscape:connector-curvature="0" />
      <path
         style="fill:#000000;fill-opacity:1;display:inline"
         d="M 106.35954,91.277037 L 106.09723,91.335477 C 103.6517,91.897637 101.58587,92.894347 100.05298,94.180997 C 95.252543,98.210307 95.684253,105.07486 106.08738,110.28052 C 106.35826,110.43981 106.38497,110.47485 106.68072,110.57032 C 107.00605,110.42297 107.0373,110.41952 107.26345,110.26112 C 120.73756,102.97186 116.82322,93.354677 106.67829,91.338297 C 106.54735,91.317477 106.48837,91.310087 106.35954,91.277027 L 106.35954,91.277037 z M 106.37638,92.252207 C 110.3558,93.559297 114.13971,96.297407 114.47005,99.550837 C 114.78758,102.6885 112.52278,106.74972 106.67055,109.96926 C 100.71124,106.93503 99.485343,103.403 99.703753,100.25518 C 99.930843,96.998017 102.45073,93.687927 106.37638,92.252207 z"
         id="seg-3-1-6"
         sodipodi:nodetypes="ccsccccccccccc"
         inkscape:connector-curvature="0" />
      <path
         style="fill:#000000;fill-opacity:1;display:inline"
         id="seg-1-5"
         d="M 98.410663,110.94838 C 99.783273,108.35384 101.34364,105.61406 104.75455,102.53161 C 108.63737,99.875687 112.45601,95.948397 118.68135,93.924157 L 118.59267,92.782777 C 109.46891,95.671087 98.482113,105.17173 96.539013,109.58252 L 98.410663,110.94838 z"
         sodipodi:nodetypes="cccccc"
         inkscape:connector-curvature="0" />
      <path
         style="fill:#000000;fill-opacity:1;display:inline"
         id="seg-7-5"
         d="M 94.417193,93.925877 C 96.399093,94.452497 101.25601,96.098067 105.18843,98.536447 C 109.10265,100.96431 111.3097,105.07991 114.91971,111.07291 L 115.45223,111.24239 C 110.92758,97.053937 97.803923,92.867997 94.082173,92.187517 L 94.417193,93.925877 z"
         sodipodi:nodetypes="cccccc"
         inkscape:connector-curvature="0" />
      <path
         style="fill:#ffffff;fill-opacity:1;fill-rule:evenodd;stroke:none"
         d="M 108.72945,99.708693 C 108.7304,100.00268 108.4987,100.22415 108.25092,100.35319 C 107.84258,100.56512 107.3402,100.57935 106.91466,100.40939 C 106.64851,100.30088 106.39183,100.09247 106.33544,99.796833 C 106.28206,99.528039 106.44162,99.265259 106.65643,99.11482 C 107.01777,98.858051 107.49587,98.802672 107.92097,98.903268 C 108.22398,98.978178 108.52984,99.14898 108.66655,99.442407 C 108.70143,99.520204 108.72961,99.623345 108.72945,99.708693 z"
         id="path3638"
         sodipodi:nodetypes="cssssssc"
         inkscape:connector-curvature="0" />
    </g>
    <g
       inkscape:groupmode="layer"
       id="layerPosition"
       inkscape:label="Position"
       style="display:inline">
      <path
         inkscape:connector-curvature="0"
         style="fill:none;stroke:#000000;stroke-width:0.90835607px;stroke-linecap:butt;stroke-linejoin:miter;stroke-opacity:1;display:inline"
         d="M 83.479291,74.52182 L 125.04184,74.502903 L 103.13494,135.8578 L 83.479291,74.52182 z"
         id="path2955-1"
         sodipodi:nodetypes="cccc" />
    </g>
  </g>
</svg>
