<?xml version="1.0" encoding="UTF-8" standalone="no"?>
<!-- Created with Inkscape (http://www.inkscape.org/) -->

<svg
   xmlns:dc="http://purl.org/dc/elements/1.1/"
   xmlns:cc="http://creativecommons.org/ns#"
   xmlns:rdf="http://www.w3.org/1999/02/22-rdf-syntax-ns#"
   xmlns:svg="http://www.w3.org/2000/svg"
   xmlns="http://www.w3.org/2000/svg"
   xmlns:sodipodi="http://sodipodi.sourceforge.net/DTD/sodipodi-0.dtd"
   xmlns:inkscape="http://www.inkscape.org/namespaces/inkscape"
   width="200"
   height="200"
   id="svg3604"
   version="1.1"
   inkscape:version="0.47 r22583"
   sodipodi:docname="con-sports-tennisball.svg"
   inkscape:export-filename="c:\local\ml\pt\images\conscience\con-yinyang2.png"
   inkscape:export-xdpi="90"
   inkscape:export-ydpi="90"
   style="display:inline">
  <defs
     id="defs3606">
    <inkscape:perspective
       sodipodi:type="inkscape:persp3d"
       inkscape:vp_x="0 : 100 : 1"
       inkscape:vp_y="0 : 1000 : 0"
       inkscape:vp_z="200 : 100 : 1"
       inkscape:persp3d-origin="100 : 66.666667 : 1"
       id="perspective13" />
  </defs>
  <sodipodi:namedview
     id="base"
     pagecolor="#ffffff"
     bordercolor="#666666"
     borderopacity="1.0"
     inkscape:pageopacity="0.0"
     inkscape:pageshadow="2"
     inkscape:zoom="1.4750866"
     inkscape:cx="168.35653"
     inkscape:cy="19.819509"
     inkscape:document-units="px"
     inkscape:current-layer="layerTotal"
     showgrid="false"
     inkscape:window-width="1024"
     inkscape:window-height="708"
     inkscape:window-x="-4"
     inkscape:window-y="-4"
     inkscape:window-maximized="1" />
  <metadata
     id="metadata3609">
    <rdf:RDF>
      <cc:Work
         rdf:about="">
        <dc:format>image/svg+xml</dc:format>
        <dc:type
           rdf:resource="http://purl.org/dc/dcmitype/StillImage" />
        <dc:title />
        <cc:license
           rdf:resource="" />
      </cc:Work>
    </rdf:RDF>
  </metadata>
  <g
     inkscape:groupmode="layer"
     id="layerTotal"
     inkscape:label="Total"
     style="display:inline">
    <g
       inkscape:groupmode="layer"
       id="layerSymbol"
       inkscape:label="Symbol"
       style="display:inline">
      <path
         style="fill:#ffffff;fill-opacity:1;stroke:#000000;stroke-width:0.42848021;stroke-miterlimit:4;stroke-opacity:1;stroke-dasharray:none;display:inline"
         id="seg-1-7-1"
         d="M 106.40441,90.486411 104.65027,90.049411 C 104.4798,92.329948 105.12712,95.748088 106.30532,98.054238 107.85945,101.09619 110.1686,103.00605 111.07153,102.5764 L 111.72104,101.02434 C 110.535,100.78682 108.89577,98.626828 108.09474,97.180018 107.29375,95.733208 106.37011,92.568528 106.40441,90.486411 z"
         sodipodi:nodetypes="ccscczc" />
      <path
         style="fill:#ffffff;fill-opacity:1;stroke:#000000;stroke-width:0.42594633;stroke-miterlimit:4;stroke-opacity:1;stroke-dasharray:none;display:inline"
         id="seg-1-4-6-3"
         d="M 94.842682,94.727128 96.207552,93.243328 C 100.62412,96.923028 102.11733,104.73358 100.47198,106.68615 L 98.502502,106.70465 C 99.268802,104.86671 98.931302,103.31123 98.530602,101.32277 97.851662,98.308648 96.501142,96.372268 94.842762,94.727188 L 94.842742,94.727188 94.842672,94.727188 94.842672,94.727178 z"
         sodipodi:nodetypes="ccccccccc" />
      <path
         style="fill:#000000;fill-opacity:1;stroke:#000000;stroke-width:0.29576054;stroke-linejoin:miter;stroke-miterlimit:4;stroke-opacity:1;stroke-dasharray:none;display:inline"
         d="M 103.17027,89.395391 101.85608,89.465091 C 98.412852,89.819721 95.512462,92.093518 94.309252,95.153538 92.481742,99.801318 94.383552,105.92592 99.642742,107.22769 104.79051,108.50186 109.38689,105.93114 110.7743,103.61058 112.15262,101.30522 112.23153,98.666608 112.04379,97.108158 111.85449,95.536798 109.07806,89.340561 103.17027,89.395411 z M 107.03262,90.598051 C 108.02493,91.063481 109.87237,92.861458 111.09032,95.193168 112.57672,98.038828 111.69449,100.72921 111.19608,102.09574 110.29912,104.55495 104.70099,108.59607 98.655412,105.59809 94.620382,103.59714 94.250572,98.051988 95.855432,94.091418 98.513312,88.949361 105.18344,89.410051 107.03262,90.598051 z"
         id="path4329-1-17"
         sodipodi:nodetypes="ccsszsccssscc" />
    </g>
    <g
       inkscape:groupmode="layer"
       id="layerPosition"
       inkscape:label="Position">
      <path
         style="fill:none;stroke:#000000;stroke-width:0.90835607px;stroke-linecap:butt;stroke-linejoin:miter;stroke-opacity:1;display:inline"
         d="M 78.185109,76.656728 125.26054,76.661769 104.45344,131.34771 78.185109,76.656728 z"
         id="path2955"
         sodipodi:nodetypes="cccc" />
    </g>
  </g>
</svg>
