<?xml version="1.0" encoding="UTF-8" standalone="no"?>
<!-- Created with Inkscape (http://www.inkscape.org/) -->

<svg
   xmlns:dc="http://purl.org/dc/elements/1.1/"
   xmlns:cc="http://creativecommons.org/ns#"
   xmlns:rdf="http://www.w3.org/1999/02/22-rdf-syntax-ns#"
   xmlns:svg="http://www.w3.org/2000/svg"
   xmlns="http://www.w3.org/2000/svg"
   xmlns:sodipodi="http://sodipodi.sourceforge.net/DTD/sodipodi-0.dtd"
   xmlns:inkscape="http://www.inkscape.org/namespaces/inkscape"
   width="200"
   height="200"
   id="svg3604"
   version="1.1"
   inkscape:version="0.47 r22583"
   sodipodi:docname="con-zodiac-capricorn.svg"
   inkscape:export-filename="c:\local\ml\pt\images\conscience\con-yinyang2.png"
   inkscape:export-xdpi="90"
   inkscape:export-ydpi="90"
   style="display:inline">
  <defs
     id="defs3606">
    <inkscape:perspective
       sodipodi:type="inkscape:persp3d"
       inkscape:vp_x="0 : 100 : 1"
       inkscape:vp_y="0 : 1000 : 0"
       inkscape:vp_z="200 : 100 : 1"
       inkscape:persp3d-origin="100 : 66.666667 : 1"
       id="perspective11" />
  </defs>
  <sodipodi:namedview
     id="base"
     pagecolor="#ffffff"
     bordercolor="#666666"
     borderopacity="1.0"
     inkscape:pageopacity="0.0"
     inkscape:pageshadow="2"
     inkscape:zoom="2.0860875"
     inkscape:cx="79.147525"
     inkscape:cy="105.96979"
     inkscape:document-units="px"
     inkscape:current-layer="layerPosition"
     showgrid="false"
     inkscape:window-width="1024"
     inkscape:window-height="708"
     inkscape:window-x="-4"
     inkscape:window-y="-4"
     inkscape:window-maximized="1" />
  <metadata
     id="metadata3609">
    <rdf:RDF>
      <cc:Work
         rdf:about="">
        <dc:format>image/svg+xml</dc:format>
        <dc:type
           rdf:resource="http://purl.org/dc/dcmitype/StillImage" />
        <dc:title />
        <cc:license
           rdf:resource="" />
      </cc:Work>
    </rdf:RDF>
  </metadata>
  <g
     inkscape:groupmode="layer"
     id="layerTotal"
     inkscape:label="Total"
     style="display:inline">
    <g
       inkscape:groupmode="layer"
       id="layerSymbol"
       inkscape:label="Symbol"
       style="display:inline">
      <path
         d="M 88.221706,117.56009 C 88.104933,117.22862 88.221706,116.51359 88.221706,116.51359 C 88.221706,114.55507 87.877372,98.381381 87.204608,94.823191 C 86.991159,91.117821 86.837553,88.196797 86.254489,87.09048 C 85.432215,85.520687 84.3042,85.30615 82.540063,85.30615 L 80.865626,82.997414 L 84.531057,82.997414 C 86.639049,82.997414 88.089253,83.819688 88.896582,85.464236 C 89.853389,87.452639 89.455869,102.69116 90.248222,107.29589 C 90.353186,106.82634 92.055625,94.258391 92.191726,93.737731 C 93.52903,88.621999 94.778713,85.860541 97.194045,82.997414 C 97.194045,82.997414 98.372846,81.615917 99.124653,81.095224 C 100.01973,80.475294 101.15591,82.234951 101.15591,82.234951 C 101.79232,83.547997 102.93502,87.736682 103.57786,92.147081 C 104.00697,94.120401 104.15097,96.447731 104.76965,98.623501 C 106.69825,94.930741 112.53525,93.234991 115.94394,93.234991 C 117.99215,93.234991 119.74135,93.952621 121.17661,95.357961 C 122.62678,96.763301 123.34441,98.482601 123.34441,100.50089 C 123.34441,102.65375 122.61183,104.50759 121.16163,106.00266 C 119.69651,107.51264 117.9174,108.26016 115.82435,108.26016 C 112.96881,108.26016 107.31123,106.99572 105.17332,104.78309 C 103.64836,108.78978 102.30283,110.23966 101.1367,111.34598 C 99.970576,112.45233 98.056929,114.11211 95.395731,114.11211 L 92.674754,114.11211 L 94.735768,111.77349 C 97.307234,111.77349 98.281162,110.30168 99.252946,109.25517 C 100.20979,108.22358 101.45067,106.29307 102.94571,101.88268 C 102.27294,100.7016 101.82441,99.699931 101.61512,98.907551 C 101.4058,98.115191 101.1367,96.380951 100.8078,93.689861 L 100.34211,90.039018 C 99.848747,86.256557 99.880556,86.309807 98.928293,85.045627 C 97.223966,87.063919 96.455295,89.79984 95.214411,93.253391 C 93.958583,96.706941 91.923203,113.22449 91.923203,115.94547 L 91.923203,117.56009 L 90.744594,119.62072 C 90.744594,119.62072 88.739199,119.02921 88.221706,117.56009 z M 105.84608,102.24151 C 108.01388,104.64852 113.38742,106.0176 115.60009,106.0176 C 117.09513,106.0176 118.35095,105.49432 119.35263,104.44781 C 120.35433,103.41621 120.8477,102.10057 120.8477,100.54576 C 120.8477,99.155361 120.36928,97.959321 119.41244,96.972591 C 118.47057,96.000831 117.30445,95.507471 115.94394,95.507471 C 112.99873,95.507471 107.52052,97.651721 105.84608,102.24151 z"
         id="path46037"
         sodipodi:nodetypes="cccccccccscscccscscscscccccscccccccscscscsc"
         style="fill:#000000;fill-opacity:1"
         inkscape:connector-curvature="0" />
    </g>
    <g
       inkscape:groupmode="layer"
       id="layerPosition"
       inkscape:label="Position"
       style="display:inline">
      <path
         style="fill:none;stroke:#000000;stroke-width:0.96608788px;stroke-linecap:butt;stroke-linejoin:miter;stroke-opacity:1;display:inline"
         d="M 64.276948,69.349421 130.54011,69.355122 103.00127,138.72918 64.276948,69.349421 z"
         id="path2955"
         sodipodi:nodetypes="cccc"
         inkscape:connector-curvature="0" />
    </g>
  </g>
</svg>
