<?xml version="1.0" encoding="UTF-8" standalone="no"?>
<!-- Created with Inkscape (http://www.inkscape.org/) -->

<svg
   xmlns:dc="http://purl.org/dc/elements/1.1/"
   xmlns:cc="http://creativecommons.org/ns#"
   xmlns:rdf="http://www.w3.org/1999/02/22-rdf-syntax-ns#"
   xmlns:svg="http://www.w3.org/2000/svg"
   xmlns="http://www.w3.org/2000/svg"
   xmlns:sodipodi="http://sodipodi.sourceforge.net/DTD/sodipodi-0.dtd"
   xmlns:inkscape="http://www.inkscape.org/namespaces/inkscape"
   width="200"
   height="200"
   id="svg3604"
   version="1.1"
   inkscape:version="0.47 r22583"
   sodipodi:docname="con-sports-football.svg"
   inkscape:export-filename="c:\local\ml\pt\images\conscience\con-yinyang2.png"
   inkscape:export-xdpi="90"
   inkscape:export-ydpi="90"
   style="display:inline">
  <defs
     id="defs3606" />
  <sodipodi:namedview
     id="base"
     pagecolor="#ffffff"
     bordercolor="#666666"
     borderopacity="1.0"
     inkscape:pageopacity="0.0"
     inkscape:pageshadow="2"
     inkscape:zoom="23.601386"
     inkscape:cx="102.51313"
     inkscape:cy="109.13803"
     inkscape:document-units="px"
     inkscape:current-layer="layerSymbol"
     showgrid="false"
     inkscape:window-width="1024"
     inkscape:window-height="708"
     inkscape:window-x="-4"
     inkscape:window-y="-4"
     inkscape:window-maximized="1" />
  <metadata
     id="metadata3609">
    <rdf:RDF>
      <cc:Work
         rdf:about="">
        <dc:format>image/svg+xml</dc:format>
        <dc:type
           rdf:resource="http://purl.org/dc/dcmitype/StillImage" />
        <dc:title />
        <cc:license
           rdf:resource="" />
      </cc:Work>
    </rdf:RDF>
  </metadata>
  <g
     inkscape:groupmode="layer"
     id="layerTotal"
     inkscape:label="Total"
     style="display:inline">
    <g
       inkscape:groupmode="layer"
       id="layerSymbol"
       inkscape:label="Symbol"
       style="display:inline">
      <path
         style="fill:#ffffff;fill-opacity:1;fill-rule:evenodd;stroke:none;display:inline"
         d="M 100.22304,112.85837 C 93.475917,111.0885 89.882633,106.83384 89.131401,99.725194 88.953966,98.04606 89.342552,93.94536 89.880379,91.82143 90.759103,88.351231 93.478668,84.712944 96.413321,83.081507 101.37408,80.323738 108.19999,80.011929 112.46073,82.348463 114.71717,83.585885 118.55027,88.096512 120.21056,91.46816 121.96744,95.036 122.12892,98.98879 120.69874,103.41838 119.92269,105.82197 119.86356,105.9162 117.92533,107.83907 115.11817,110.62399 112.21113,112.22787 108.55584,113.00842 106.21138,113.50907 102.44506,113.44124 100.22304,112.85837 z"
         id="path4067" />
      <path
         style="fill:#000000;fill-opacity:1;display:inline"
         d="M 105.26724,92.22976 100.4566,96.47049 103.23955,102.07736 109.62897,101.39409 110.89849,95.34999 105.26724,92.22976 z"
         id="path4347-50" />
      <path
         style="fill:#000000;fill-opacity:1;stroke:none;display:inline"
         d="M 117.20115,88.66466 114.44611,94.45567 119.20997,98.51613 121.85834,96.16358 119.07112,89.31865 117.20115,88.66466 z"
         id="path4347-1-9"
         sodipodi:nodetypes="cccccc" />
      <path
         style="fill:#000000;fill-opacity:1;stroke:none;display:inline"
         d="M 94.03883,106.35997 92.835196,109.56212 99.367351,113.25241 102.953,111.21253 100.42883,105.57593 94.03883,106.35997 z"
         id="path4347-5-0"
         sodipodi:nodetypes="cccccc" />
      <path
         style="fill:#000000;fill-opacity:1;stroke:none;display:inline"
         d="M 92.551822,90.47657 89.488867,91.38993 88.447371,98.01969 91.495625,100.57082 95.730237,96.07517 92.551822,90.47657 z"
         id="path4347-2-6"
         sodipodi:nodetypes="cccccc" />
      <path
         style="fill:#000000;fill-opacity:1;stroke:none;display:inline"
         d="M 111.94728,104.17718 110.12302,110.32521 112.99415,111.72529 119.03113,107.16179 118.37587,103.83067 111.94728,104.17718 z"
         id="path4347-6-1"
         sodipodi:nodetypes="cccccc" />
      <path
         style="fill:#000000;fill-opacity:1;display:inline"
         id="seg-3-3-6-3"
         d="M 105.20834,89.96336 C 105.16133,89.45696 104.93175,88.386943 104.73658,87.902196 L 105.29996,88.0646 C 105.70998,88.998078 105.9561,91.18226 105.59112,91.6883 L 105.0207,91.64452 C 105.27564,91.23736 105.14685,90.41081 105.20834,89.96339 z"
         sodipodi:nodetypes="cccccc" />
      <path
         style="fill:#000000;fill-opacity:1;display:inline"
         id="seg-3-3-6-2-8"
         d="M 113.02433,95.0144 C 112.64914,95.09665 111.8576,95.39975 111.49988,95.62748 L 111.61489,95.05716 C 112.30341,94.58471 113.92129,94.18681 114.30018,94.51325 L 114.27317,95.08218 C 113.96868,94.85794 113.35678,95.04391 113.02431,95.01438 z"
         sodipodi:nodetypes="cccccc" />
      <path
         style="fill:#000000;fill-opacity:1;display:inline"
         id="seg-3-3-6-5-9"
         d="M 98.200371,96.31334 C 97.6918,96.31334 96.605135,96.44302 96.104427,96.59254 L 96.318219,96.04658 C 97.285597,95.72461 99.483181,95.68146 99.953321,96.09166 L 99.856991,96.65558 C 99.475141,96.3641 98.640231,96.41593 98.200411,96.31334 z"
         sodipodi:nodetypes="cccccc" />
      <path
         style="fill:#000000;fill-opacity:1;display:inline"
         id="seg-3-3-6-1-3"
         d="M 101.57542,103.64888 C 101.30075,104.00779 100.80278,104.84677 100.6349,105.28326 L 100.37594,104.82894 C 100.6776,103.96726 101.83491,102.39233 102.37015,102.28853 L 102.70487,102.66994 C 102.29873,102.77744 101.88335,103.39546 101.57545,103.64885 z"
         sodipodi:nodetypes="cccccc" />
      <path
         style="fill:#000000;fill-opacity:1;display:inline"
         id="seg-3-3-6-11-4"
         d="M 110.85201,103.06397 C 110.60979,102.75171 109.99812,102.13396 109.65114,101.88353 L 110.14908,101.80661 C 110.84345,102.27781 111.92147,103.61064 111.84779,104.0557 L 111.39275,104.21159 C 111.42238,103.86598 110.98708,103.37313 110.85203,103.06398 z"
         sodipodi:nodetypes="cccccc" />
      <path
         style="fill:#000000;fill-opacity:1;stroke:#000000;stroke-width:0.55200577;stroke-linejoin:miter;stroke-miterlimit:4;stroke-opacity:1;stroke-dasharray:none;display:inline"
         d="M 103.84954,80.252998 C 96.668325,80.943535 91.903903,84.92042 88.582499,91.08468 85.171627,99.759284 88.721104,111.1902 98.536861,113.6198 108.14465,115.99791 116.72331,111.19993 119.31276,106.86885 121.88526,102.56614 122.03254,97.64145 121.68213,94.73278 121.32881,91.79998 117.07907,79.811675 103.84954,80.252998 z M 112.32931,82.582373 C 114.18134,83.451051 117.6294,86.806792 119.90257,91.15868 122.67679,96.4698 121.0302,101.49112 120.09996,104.04161 118.4259,108.63145 107.97758,116.17379 96.694129,110.57837 89.163166,106.8438 88.472963,96.49436 91.468266,89.102389 96.428914,79.505278 108.87801,80.365107 112.32931,82.582373 z"
         id="path4329-6"
         sodipodi:nodetypes="ccszsccssscc" />
      <path
         style="fill:#000000;fill-opacity:1;display:inline"
         d="M 100.68352,81.501595 99.154341,84.155688 104.59137,87.257391 109.51365,83.126685 107.39357,81.246499 100.68352,81.501595 z"
         id="path4347-8-0"
         sodipodi:nodetypes="cccccc" />
    </g>
    <g
       inkscape:groupmode="layer"
       id="layerPosition"
       inkscape:label="Position">
      <path
         style="fill:none;stroke:#000000;stroke-width:0.96204025px;stroke-linecap:butt;stroke-linejoin:miter;stroke-opacity:1;display:inline"
         d="M 78.889877,67.870529 125.91163,67.87619 105.12826,129.28709 78.889877,67.870529 z"
         id="path2955"
         sodipodi:nodetypes="cccc" />
    </g>
  </g>
</svg>
