<?xml version="1.0" encoding="UTF-8" standalone="no"?>
<!-- Created with Inkscape (http://www.inkscape.org/) -->

<svg
   xmlns:dc="http://purl.org/dc/elements/1.1/"
   xmlns:cc="http://creativecommons.org/ns#"
   xmlns:rdf="http://www.w3.org/1999/02/22-rdf-syntax-ns#"
   xmlns:svg="http://www.w3.org/2000/svg"
   xmlns="http://www.w3.org/2000/svg"
   xmlns:sodipodi="http://sodipodi.sourceforge.net/DTD/sodipodi-0.dtd"
   xmlns:inkscape="http://www.inkscape.org/namespaces/inkscape"
   width="200"
   height="200"
   id="svg39622"
   version="1.1"
   inkscape:version="0.48.0 r9654"
   sodipodi:docname="con-khanda.svg"
   style="display:inline">
  <defs
     id="defs39624" />
  <sodipodi:namedview
     id="base"
     pagecolor="#ffffff"
     bordercolor="#666666"
     borderopacity="1.0"
     inkscape:pageopacity="0.0"
     inkscape:pageshadow="2"
     inkscape:zoom="2.8284271"
     inkscape:cx="111.82657"
     inkscape:cy="103.72441"
     inkscape:document-units="px"
     inkscape:current-layer="svg39622"
     showgrid="false"
     inkscape:window-width="1024"
     inkscape:window-height="708"
     inkscape:window-x="-4"
     inkscape:window-y="-4"
     inkscape:window-maximized="1" />
  <metadata
     id="metadata39627">
    <rdf:RDF>
      <cc:Work
         rdf:about="">
        <dc:format>image/svg+xml</dc:format>
        <dc:type
           rdf:resource="http://purl.org/dc/dcmitype/StillImage" />
        <dc:title />
      </cc:Work>
    </rdf:RDF>
  </metadata>
  <g
     inkscape:groupmode="layer"
     id="layerTotal"
     inkscape:label="Total">
    <g
       inkscape:groupmode="layer"
       id="layerSymbol"
       inkscape:label="Symbol">
      <path
         style="fill:#000000;fill-opacity:1;fill-rule:evenodd;stroke:#000000;stroke-width:0.09135892px;stroke-linecap:butt;stroke-linejoin:miter;stroke-opacity:1"
         d="M 95.910542,50.375822 C 95.910542,50.375822 94.708647,54.522024 90.310699,56.907983 C 94.529641,68.901021 95.140352,81.36253 93.878095,92.129704 C 96.430142,92.067734 98.654962,95.227344 98.654962,95.227344 L 100.42176,111.11028 L 102.31871,111.18448 L 104.19889,111.11028 L 102.44065,95.227344 C 102.44065,95.227344 103.38182,92.407914 106.57983,92.129704 C 103.09112,81.36253 101.125,68.901021 102.86398,56.907983 C 97.428402,54.261 95.910542,50.375822 95.910542,50.375822 z"
         id="path1922"
         sodipodi:nodetypes="ccccccccccc"
         inkscape:connector-curvature="0" />
      <path
         style="fill:#000000;fill-opacity:1;fill-rule:evenodd;stroke:#000000;stroke-width:0.0508547px;stroke-linecap:round;stroke-linejoin:round;stroke-opacity:1;display:inline"
         d="M 99.676572,113.88826 C 95.267832,113.87926 90.543851,113.51974 84.280291,111.93559 C 81.503127,111.23321 74.072649,107.8774 82.820274,101.14672 C 81.007271,104.73252 85.161191,109.33362 92.927819,109.90593 L 104.89817,110.78801 C 104.89817,110.78801 99.544362,111.80619 99.676572,113.88826 z"
         id="path1899"
         sodipodi:nodetypes="csczcc"
         inkscape:connector-curvature="0" />
      <path
         style="fill:none;stroke:#000000;stroke-width:2.40674925;stroke-linecap:round;stroke-linejoin:round;stroke-miterlimit:4;stroke-opacity:1;stroke-dasharray:none;display:inline"
         d="M 111.27617,89.771164 C 111.68127,94.438554 108.54581,98.892734 103.93293,100.21535 C 99.509462,101.61116 94.077847,99.985334 91.028517,96.314254 C 87.730219,92.578664 87.335645,86.963664 90.108931,83.228074 C 92.642317,79.55699 97.845442,77.93116 102.46507,79.32697 C 107.28134,80.66839 111.01134,85.081594 111.27617,89.771164 z"
         id="path3706"
         inkscape:connector-curvature="0" />
      <path
         sodipodi:nodetypes="csczcc"
         id="path2835"
         d="M 105.72813,113.76679 C 109.79867,113.75879 113.90669,113.42654 119.68974,111.96392 C 122.25386,111.31541 129.11432,108.21704 121.03776,102.00269 C 122.71168,105.31342 118.87642,109.56155 111.7056,110.08995 L 100.65354,110.90437 C 100.65354,110.90437 105.3675,111.8508 105.72813,113.76679 z"
         style="fill:#000000;fill-opacity:1;fill-rule:evenodd;stroke:#000000;stroke-width:0.04695345px;stroke-linecap:round;stroke-linejoin:round;stroke-opacity:1;display:inline"
         inkscape:connector-curvature="0" />
    </g>
    <g
       inkscape:groupmode="layer"
       id="layerPosition"
       inkscape:label="Position">
      <path
         style="fill:none;stroke:#000000;stroke-width:0.9914397px;stroke-linecap:butt;stroke-linejoin:miter;stroke-opacity:1;display:inline"
         d="M 66.318082,73.924109 L 127.78273,74.149441 L 103.75208,139.3997 z"
         id="path2955"
         sodipodi:nodetypes="cccc"
         inkscape:connector-curvature="0" />
    </g>
  </g>
</svg>
