<?xml version="1.0" encoding="UTF-8" standalone="no"?>
<!-- Created with Inkscape (http://www.inkscape.org/) -->

<svg
   xmlns:dc="http://purl.org/dc/elements/1.1/"
   xmlns:cc="http://creativecommons.org/ns#"
   xmlns:rdf="http://www.w3.org/1999/02/22-rdf-syntax-ns#"
   xmlns:svg="http://www.w3.org/2000/svg"
   xmlns="http://www.w3.org/2000/svg"
   xmlns:sodipodi="http://sodipodi.sourceforge.net/DTD/sodipodi-0.dtd"
   xmlns:inkscape="http://www.inkscape.org/namespaces/inkscape"
   width="200"
   height="200"
   id="svg4873"
   version="1.1"
   inkscape:version="0.47 r22583"
   sodipodi:docname="con-animal-cat.svg"
   inkscape:export-filename="/Users/aaxe/Documents/moralife/img/pos-menorah.png"
   inkscape:export-xdpi="90"
   inkscape:export-ydpi="90"
   style="display:inline">
  <defs
     id="defs4875">
    <inkscape:perspective
       sodipodi:type="inkscape:persp3d"
       inkscape:vp_x="0 : 45 : 1"
       inkscape:vp_y="0 : 1000 : 0"
       inkscape:vp_z="90 : 45 : 1"
       inkscape:persp3d-origin="45 : 30 : 1"
       id="perspective3361" />
    <inkscape:perspective
       id="perspective3140"
       inkscape:persp3d-origin="0.5 : 0.33333333 : 1"
       inkscape:vp_z="1 : 0.5 : 1"
       inkscape:vp_y="0 : 1000 : 0"
       inkscape:vp_x="0 : 0.5 : 1"
       sodipodi:type="inkscape:persp3d" />
    <inkscape:perspective
       id="perspective3389"
       inkscape:persp3d-origin="0.5 : 0.33333333 : 1"
       inkscape:vp_z="1 : 0.5 : 1"
       inkscape:vp_y="0 : 1000 : 0"
       inkscape:vp_x="0 : 0.5 : 1"
       sodipodi:type="inkscape:persp3d" />
  </defs>
  <sodipodi:namedview
     id="base"
     pagecolor="#ffffff"
     bordercolor="#666666"
     borderopacity="1.0"
     inkscape:pageopacity="0.0"
     inkscape:pageshadow="2"
     inkscape:zoom="1.4142136"
     inkscape:cx="92.998713"
     inkscape:cy="113.33256"
     inkscape:document-units="px"
     inkscape:current-layer="layerPosition"
     showgrid="false"
     inkscape:window-width="1024"
     inkscape:window-height="708"
     inkscape:window-x="-4"
     inkscape:window-y="-4"
     inkscape:window-maximized="1"
     showguides="true"
     inkscape:guide-bbox="true" />
  <metadata
     id="metadata4878">
    <rdf:RDF>
      <cc:Work
         rdf:about="">
        <dc:format>image/svg+xml</dc:format>
        <dc:type
           rdf:resource="http://purl.org/dc/dcmitype/StillImage" />
        <dc:title />
        <dc:creator>
          <cc:Agent>
            <dc:title>Adam Axe</dc:title>
          </cc:Agent>
        </dc:creator>
        <dc:publisher>
          <cc:Agent>
            <dc:title>TeamAxe.Org</dc:title>
          </cc:Agent>
        </dc:publisher>
        <dc:subject>
          <rdf:Bag>
            <rdf:li>Moralife</rdf:li>
            <rdf:li>St. Louis</rdf:li>
            <rdf:li>Arch</rdf:li>
          </rdf:Bag>
        </dc:subject>
        <dc:description>A surrounding for the software, Moralife.</dc:description>
      </cc:Work>
    </rdf:RDF>
  </metadata>
  <g
     inkscape:groupmode="layer"
     id="layerTotal"
     inkscape:label="Total">
    <g
       inkscape:groupmode="layer"
       id="layerSymbol"
       inkscape:label="Symbol"
       style="display:inline">
      <path
         style="fill:#000000;fill-opacity:1;display:inline"
         d="M 120.81026,116.57975 C 118.33954,120.31032 105.36536,121.91182 99.335917,116.94642 92.289316,116.59044 90.203891,115.76459 79.287493,112.58163 76.988353,111.91126 76.295745,110.76454 77.19089,109.21753 78.025151,107.77574 79.977786,108.37007 79.977786,108.37007 88.451686,111.68413 90.757302,113.25348 101.64844,112.9071 107.74371,115.81655 115.15102,116.35843 119.36107,112.1654 119.36107,112.1654 127.46867,111.58543 130.61485,105.7195 133.70388,99.9601 128.89998,94.47098 129.08497,88.898093 134.97768,82.384718 128.55781,72.8733 123.00352,68.860879 117.14129,64.625998 125.49445,58.361311 129.6703,54.803728 116.48332,53.455297 104.81616,62.007486 102.67693,60.818982 96.29153,57.271404 96.135611,58.872611 89.783989,56.385559 L 90.669655,52.986188 91.928302,52.156117 C 97.01412,53.068593 96.426203,53.094361 102.55058,55.226287 106.24294,56.511618 112.01924,51.839731 122.11885,50.836433 126.07723,50.443204 130.69972,50.613519 136.12116,51.92691 131.55651,60.807283 130.45499,62.247106 129.56719,67.564454 129.21859,69.65235 134.49881,70.954077 136.42626,76.072875 137.85929,79.878649 136.6747,86.84066 134.02371,89.505372 135.03577,90.380647 135.5903,92.15686 136.23695,95.10756 138.96444,93.29049 143.18773,92.77749 146.49657,95.94403 140.11931,94.51346 138.23723,96.57377 137.23266,97.20321 137.28144,97.69196 137.31728,98.25591 137.33859,98.86309 137.35279,99.26734 140.51167,97.04015 145.9502,100.94735 139.00309,100.06657 137.35317,101.19635 137.33277,101.73717 137.31601,102.18112 137.29173,102.62326 137.25948,103.0541 137.22837,103.46962 143.7021,102.25038 144.96477,107.77192 139.30156,103.2057 136.97419,105.45092 136.85745,105.93719 135.59461,111.19732 127.34946,115.62912 120.81026,116.57975 z"
         id="seg-3-9"
         sodipodi:nodetypes="ccssccczcscscccsscssccccscsscsc" />
    </g>
    <g
       inkscape:groupmode="layer"
       id="layerPosition"
       inkscape:label="Position">
      <path
         style="fill:none;stroke:#000000;stroke-width:0.94824028px;stroke-linecap:butt;stroke-linejoin:miter;stroke-opacity:1;display:inline"
         d="M 70.636078,87.896619 111.08398,87.26153 116.76679,136.68969 70.636078,87.896619 z"
         id="path2955"
         sodipodi:nodetypes="cccc" />
    </g>
  </g>
</svg>
