<?xml version="1.0" encoding="UTF-8" standalone="no"?>
<!-- Created with Inkscape (http://www.inkscape.org/) -->

<svg
   xmlns:dc="http://purl.org/dc/elements/1.1/"
   xmlns:cc="http://creativecommons.org/ns#"
   xmlns:rdf="http://www.w3.org/1999/02/22-rdf-syntax-ns#"
   xmlns:svg="http://www.w3.org/2000/svg"
   xmlns="http://www.w3.org/2000/svg"
   xmlns:sodipodi="http://sodipodi.sourceforge.net/DTD/sodipodi-0.dtd"
   xmlns:inkscape="http://www.inkscape.org/namespaces/inkscape"
   width="200"
   height="200"
   id="svg3604"
   version="1.1"
   inkscape:version="0.47 r22583"
   sodipodi:docname="con-sports-americanfootball.svg"
   inkscape:export-filename="C:\local\ml\pt\images\conscience\con-sportshockeypuck.png"
   inkscape:export-xdpi="90"
   inkscape:export-ydpi="90"
   style="display:inline">
  <defs
     id="defs3606">
    <inkscape:perspective
       sodipodi:type="inkscape:persp3d"
       inkscape:vp_x="0 : 45 : 1"
       inkscape:vp_y="0 : 1000 : 0"
       inkscape:vp_z="90 : 45 : 1"
       inkscape:persp3d-origin="45 : 30 : 1"
       id="perspective5195" />
    <inkscape:perspective
       id="perspective3144"
       inkscape:persp3d-origin="0.5 : 0.33333333 : 1"
       inkscape:vp_z="1 : 0.5 : 1"
       inkscape:vp_y="0 : 1000 : 0"
       inkscape:vp_x="0 : 0.5 : 1"
       sodipodi:type="inkscape:persp3d" />
  </defs>
  <sodipodi:namedview
     id="base"
     pagecolor="#ffffff"
     bordercolor="#666666"
     borderopacity="1.0"
     inkscape:pageopacity="0.0"
     inkscape:pageshadow="2"
     inkscape:zoom="2"
     inkscape:cx="64.107567"
     inkscape:cy="129.96454"
     inkscape:document-units="px"
     inkscape:current-layer="layerPosition"
     showgrid="false"
     inkscape:window-width="1024"
     inkscape:window-height="708"
     inkscape:window-x="-4"
     inkscape:window-y="-4"
     inkscape:window-maximized="1" />
  <metadata
     id="metadata3609">
    <rdf:RDF>
      <cc:Work
         rdf:about="">
        <dc:format>image/svg+xml</dc:format>
        <dc:type
           rdf:resource="http://purl.org/dc/dcmitype/StillImage" />
        <dc:title />
        <cc:license
           rdf:resource="" />
      </cc:Work>
    </rdf:RDF>
  </metadata>
  <g
     inkscape:groupmode="layer"
     id="layerTotal"
     inkscape:label="Total"
     style="display:inline">
    <g
       inkscape:groupmode="layer"
       id="layerSymbol"
       inkscape:label="Symbol"
       style="display:inline">
      <path
         style="fill:#000000;fill-opacity:1;fill-rule:evenodd;stroke:#000000;stroke-width:0.02653963;stroke-miterlimit:4;stroke-opacity:1;stroke-dasharray:none;display:inline"
         d="M 91.016434,105.51838 C 90.693057,103.96231 90.590015,102.78961 90.643815,101.27841 90.735258,98.711964 91.509955,95.908329 92.850205,93.293459 L 93.176676,92.656539 93.81299,92.686778 C 97.33659,92.854208 101.42199,94.523794 104.87823,97.208833 107.6333,99.349124 109.7632,101.98824 111.34559,105.22233 111.84251,106.23795 112.61025,108.67987 112.77213,109.75943 113.34266,113.56648 112.71458,117.78676 110.75624,121.74564 L 110.45228,122.36015 109.81929,122.34055 C 104.50618,122.17629 98.15776,117.82273 94.48178,112.82144 92.790685,110.52064 91.483538,107.76584 91.016505,105.51831 L 91.016478,105.51833 91.016434,105.51838 z"
         id="path3938-9-1"
         sodipodi:nodetypes="cscccssscccsccc" />
      <path
         style="fill:#ffffff;fill-opacity:1;display:inline"
         id="seg-1-7-3-8-7-8-7-9-1-4"
         d="M 106.69068,113.9414 C 107.13095,113.91435 107.56486,113.46727 108.41316,114.39994 L 108.2726,113.72717 C 107.07114,112.46322 105.59104,112.94743 105.21312,113.172 L 105.8551,114.02216 C 106.10911,113.88194 106.41152,113.96833 106.69068,113.94137 z"
         sodipodi:nodetypes="cccccc" />
      <path
         style="fill:#ffffff;fill-opacity:1;display:inline"
         id="seg-1-7-3-8-7-8-7-9-4-2-2"
         d="M 105.11602,110.87841 C 105.35842,110.71854 105.61196,110.89907 106.03024,110.86059 106.51307,110.86768 106.96023,110.42584 107.95757,111.49124 L 107.7571,110.76133 C 106.34848,109.31344 104.75216,109.70925 104.35144,109.91808 L 105.11602,110.87837 z"
         sodipodi:nodetypes="cccccc" />
      <path
         style="fill:#ffffff;fill-opacity:1;display:inline"
         id="seg-1-7-3-8-7-8-7-9-8-3-7"
         d="M 103.93927,107.92787 C 104.07998,107.54143 104.40306,107.66418 104.76584,107.35687 105.21075,107.08039 105.39581,106.14449 106.84663,107.16594 L 106.29392,106.17876 C 104.27348,104.82206 103.01483,106.37202 102.75431,106.92709 L 103.93927,107.92787 z"
         sodipodi:nodetypes="cccccc" />
      <path
         style="fill:#ffffff;fill-opacity:1;display:inline"
         id="seg-1-7-3-8-7-8-7-9-8-2-2-7"
         d="M 101.67372,104.7819 C 101.78382,104.3177 102.11402,104.26243 102.45071,103.75515 102.87132,103.23342 102.98328,102.19502 104.50227,102.41764 L 103.87772,101.73445 C 101.76741,101.49023 100.63645,103.73455 100.42033,104.43345 L 101.67372,104.7819 z"
         sodipodi:nodetypes="cccccc" />
      <path
         style="fill:#ffffff;fill-opacity:1;display:inline"
         id="seg-1-7-3-8-7-8-7-9-8-2-1-2-9"
         d="M 99.00237,102.96791 C 98.95068,102.32193 99.24212,102.11311 99.38873,101.31715 99.60928,100.46762 99.36771,99.078443 100.86751,98.734377 L 100.0533,98.110883 C 97.9913,98.67304 97.67927,102.04528 97.70977,103.03882 L 99.00237,102.96788 z"
         sodipodi:nodetypes="cccccc" />
      <path
         style="fill:#ffffff;fill-opacity:1;display:inline"
         id="seg-1-1-3"
         d="M 96.46364,101.10193 C 98.13513,100.5768 101.34193,102.83736 103.19139,105.34411 105.0321,107.83975 106.66953,111.22263 106.27473,115.93466 L 107.00963,115.39089 C 107.78151,105.50435 100.711,98.064913 96.90688,99.54503 L 96.46364,101.10193 z"
         sodipodi:nodetypes="cccccc" />
      <path
         style="fill:#ffffff;fill-opacity:1;display:inline"
         id="seg-1-4-68-1"
         d="M 107.48756,117.93702 C 108.2517,117.29582 109.27877,116.69781 110.68218,116.71054 L 110.31649,116.20689 C 107.37137,116.19802 105.23335,118.39273 105.63676,119.55997 L 106.30801,119.94732 C 106.30978,119.04219 106.90703,118.55466 107.48756,117.93702 z"
         sodipodi:nodetypes="cccccc" />
      <path
         style="fill:#ffffff;fill-opacity:1;display:inline"
         id="seg-1-4-7-9"
         d="M 94.57793,97.690857 C 95.48881,97.285561 96.48378,96.599984 97.12174,95.220087 L 97.83216,95.5908 C 96.47781,98.477011 93.4187,99.79841 92.59038,98.780516 L 92.284508,97.771597 C 93.08101,98.241504 93.75198,97.935108 94.57793,97.690813 z"
         sodipodi:nodetypes="cccccc" />
      <path
         style="fill:#000000;fill-opacity:1;display:inline"
         d="M 110.08726,121.23811 C 104.79699,121.60556 98.21436,117.74406 94.57894,112.64436 90.961213,107.56751 89.081606,101.00641 93.62699,92.73802 L 92.709127,91.99874 C 83.33834,109.36625 98.16784,124.4976 110.41263,123.15296 L 110.08726,121.23811 z"
         id="seg-17-8"
         sodipodi:nodetypes="cccccc" />
      <path
         style="fill:#000000;fill-opacity:1;display:inline"
         d="M 92.196195,93.257399 C 97.48831,92.847455 104.12259,96.650752 107.82047,101.71465 111.50035,106.75588 113.63269,113.46913 109.17663,121.76426 L 110.35752,123.11362 C 119.54046,105.69145 104.96965,90.432676 92.726259,91.875063 L 92.196195,93.257399 z"
         id="seg-5-6"
         sodipodi:nodetypes="cccccc" />
    </g>
    <g
       inkscape:groupmode="layer"
       id="layerPosition"
       inkscape:label="Position">
      <path
         style="fill:none;stroke:#000000;stroke-width:1.24862492px;stroke-linecap:butt;stroke-linejoin:miter;stroke-opacity:1;display:inline"
         d="M 73.245544,78.267731 127.25446,78.720362 105.99472,140.23227 73.245544,78.267731 z"
         id="path2955"
         sodipodi:nodetypes="cccc" />
    </g>
  </g>
</svg>
