<?xml version="1.0" encoding="UTF-8" standalone="no"?>
<!-- Created with Inkscape (http://www.inkscape.org/) -->

<svg
   xmlns:dc="http://purl.org/dc/elements/1.1/"
   xmlns:cc="http://creativecommons.org/ns#"
   xmlns:rdf="http://www.w3.org/1999/02/22-rdf-syntax-ns#"
   xmlns:svg="http://www.w3.org/2000/svg"
   xmlns="http://www.w3.org/2000/svg"
   xmlns:sodipodi="http://sodipodi.sourceforge.net/DTD/sodipodi-0.dtd"
   xmlns:inkscape="http://www.inkscape.org/namespaces/inkscape"
   width="200"
   height="200"
   id="svg3604"
   version="1.1"
   inkscape:version="0.47 r22583"
   sodipodi:docname="con-sports-bowlingball.svg"
   inkscape:export-filename="c:\local\ml\pt\images\conscience\con-yinyang2.png"
   inkscape:export-xdpi="90"
   inkscape:export-ydpi="90"
   style="display:inline">
  <defs
     id="defs3606" />
  <sodipodi:namedview
     id="base"
     pagecolor="#ffffff"
     bordercolor="#666666"
     borderopacity="1.0"
     inkscape:pageopacity="0.0"
     inkscape:pageshadow="2"
     inkscape:zoom="2.0860875"
     inkscape:cx="146.12703"
     inkscape:cy="61.189961"
     inkscape:document-units="px"
     inkscape:current-layer="layerSymbol"
     showgrid="false"
     inkscape:window-width="1024"
     inkscape:window-height="708"
     inkscape:window-x="-4"
     inkscape:window-y="-4"
     inkscape:window-maximized="1" />
  <metadata
     id="metadata3609">
    <rdf:RDF>
      <cc:Work
         rdf:about="">
        <dc:format>image/svg+xml</dc:format>
        <dc:type
           rdf:resource="http://purl.org/dc/dcmitype/StillImage" />
        <dc:title />
        <cc:license
           rdf:resource="" />
      </cc:Work>
    </rdf:RDF>
  </metadata>
  <g
     inkscape:groupmode="layer"
     id="layerTotal"
     inkscape:label="Total"
     style="display:inline">
    <g
       inkscape:groupmode="layer"
       id="layerSymbol"
       inkscape:label="Symbol"
       style="display:inline">
      <path
         style="fill:#000000;fill-opacity:1;stroke:#000000;stroke-width:0.4464772;stroke-linejoin:miter;stroke-miterlimit:4;stroke-opacity:1;stroke-dasharray:none;display:inline"
         d="M 102.98163,93.748244 100.99772,93.853449 C 95.799874,94.38879 91.421462,97.821291 89.605112,102.44066 86.846317,109.45692 89.717227,118.70255 97.656492,120.66768 105.42751,122.59115 112.36617,118.71043 114.46058,115.20733 116.54129,111.72718 116.66042,107.74397 116.37699,105.39135 116.09122,103.01921 111.89997,93.665456 102.98163,93.748244 z"
         id="path4329-9-2"
         sodipodi:nodetypes="ccsszsc" />
      <path
         sodipodi:nodetypes="czszczc"
         id="path3782-57-3"
         d="M 115.69026,105.88898 C 116.30472,107.29738 115.44419,111.73201 114.00019,114.12024 112.55619,116.50848 111.07198,117.47418 108.85345,118.55213 106.51655,119.68758 104.6099,120.00525 102.54075,120.14422 100.47161,120.2832 98.402043,119.20866 99.720037,119.06527 103.38461,118.4559 107.31313,118.00618 110.80831,115.22764 114.3035,112.4491 114.83612,109.99441 115.69026,105.88898 z"
         style="fill:#ffffff;fill-opacity:1;fill-rule:evenodd;stroke:none;display:inline;filter:url(#filter4063)" />
      <path
         style="fill:#ffffff;fill-opacity:1;fill-rule:evenodd;stroke:none;display:inline"
         d="M 103.12188,101.92766 C 103.1225,102.47321 102.78248,102.91262 102.41117,103.15973 101.76988,103.58305 100.9886,103.6413 100.29355,103.39795 99.83444,103.22908 99.368361,102.89523 99.177517,102.33072 99.021424,101.8778 99.168823,101.34662 99.456639,101.02596 99.910933,100.50224 100.55907,100.30672 101.16987,100.31544 101.75875,100.33105 102.37902,100.53923 102.80621,101.05841 102.99225,101.28875 103.12385,101.59851 103.12188,101.92766 z"
         id="path3827" />
      <path
         style="fill:#ffffff;fill-opacity:1;fill-rule:evenodd;stroke:none;display:inline"
         d="M 109.9151,100.31435 C 109.91572,100.8599 109.5757,101.29931 109.20439,101.54642 108.5631,101.96974 107.78182,102.02799 107.08677,101.78464 106.62766,101.61577 106.16158,101.28192 105.97073,100.7174 105.81464,100.26449 105.96204,99.733311 106.24986,99.412651 106.70415,98.888928 107.35228,98.693415 107.96309,98.702126 108.55197,98.717738 109.17224,98.925916 109.59943,99.445091 109.78547,99.675441 109.91707,99.985201 109.9151,100.31435 z"
         id="path3827-1" />
      <path
         style="fill:#ffffff;fill-opacity:1;fill-rule:evenodd;stroke:none;display:inline"
         d="M 108.35122,106.17891 C 108.35184,106.72446 108.01182,107.16387 107.64051,107.41098 106.99921,107.8343 106.21794,107.89254 105.52289,107.6492 105.06378,107.48033 104.5977,107.14647 104.40685,106.58196 104.25076,106.12905 104.39816,105.59787 104.68597,105.2772 105.14027,104.75348 105.7884,104.55797 106.39921,104.56668 106.98809,104.58229 107.60836,104.79047 108.03555,105.30965 108.22158,105.54 108.35319,105.84976 108.35122,106.17891 z"
         id="path3827-4" />
    </g>
    <g
       inkscape:groupmode="layer"
       id="layerPosition"
       inkscape:label="Position"
       style="display:inline">
      <path
         style="fill:none;stroke:#000000;stroke-width:0.93960744px;stroke-linecap:butt;stroke-linejoin:miter;stroke-opacity:1;display:inline"
         d="M 78.200735,81.58732 125.24491,81.592717 104.45163,140.14512 78.200735,81.58732 z"
         id="path2955"
         sodipodi:nodetypes="cccc" />
    </g>
  </g>
</svg>
