<?xml version="1.0" encoding="UTF-8" standalone="no"?>
<!-- Created with Inkscape (http://www.inkscape.org/) -->

<svg
   xmlns:dc="http://purl.org/dc/elements/1.1/"
   xmlns:cc="http://creativecommons.org/ns#"
   xmlns:rdf="http://www.w3.org/1999/02/22-rdf-syntax-ns#"
   xmlns:svg="http://www.w3.org/2000/svg"
   xmlns="http://www.w3.org/2000/svg"
   xmlns:sodipodi="http://sodipodi.sourceforge.net/DTD/sodipodi-0.dtd"
   xmlns:inkscape="http://www.inkscape.org/namespaces/inkscape"
   width="200"
   height="200"
   id="svg2928"
   version="1.1"
   inkscape:version="0.47 r22583"
   sodipodi:docname="con-shide.svg"
   inkscape:export-filename="C:\local\ml\Archive\img\acc-note.png"
   inkscape:export-xdpi="90"
   inkscape:export-ydpi="90"
   style="display:inline">
  <defs
     id="defs2930">
    <inkscape:perspective
       sodipodi:type="inkscape:persp3d"
       inkscape:vp_x="0 : 100 : 1"
       inkscape:vp_y="0 : 1000 : 0"
       inkscape:vp_z="200 : 100 : 1"
       inkscape:persp3d-origin="100 : 66.666667 : 1"
       id="perspective11" />
  </defs>
  <sodipodi:namedview
     id="base"
     pagecolor="#ffffff"
     bordercolor="#666666"
     borderopacity="1.0"
     inkscape:pageopacity="0.0"
     inkscape:pageshadow="2"
     inkscape:zoom="2.7492128"
     inkscape:cx="46.007291"
     inkscape:cy="87.425286"
     inkscape:document-units="px"
     inkscape:current-layer="layerPosition"
     showgrid="false"
     inkscape:window-width="1024"
     inkscape:window-height="708"
     inkscape:window-x="-4"
     inkscape:window-y="-4"
     inkscape:window-maximized="1" />
  <metadata
     id="metadata2933">
    <rdf:RDF>
      <cc:Work
         rdf:about="">
        <dc:format>image/svg+xml</dc:format>
        <dc:type
           rdf:resource="http://purl.org/dc/dcmitype/StillImage" />
        <dc:title>Note</dc:title>
        <dc:creator>
          <cc:Agent>
            <dc:title>Adam Axe</dc:title>
          </cc:Agent>
        </dc:creator>
        <dc:publisher>
          <cc:Agent>
            <dc:title>TeamAxe.Org</dc:title>
          </cc:Agent>
        </dc:publisher>
        <dc:coverage />
        <dc:subject>
          <rdf:Bag>
            <rdf:li>Note</rdf:li>
            <rdf:li>Accessory</rdf:li>
            <rdf:li>Moralife</rdf:li>
          </rdf:Bag>
        </dc:subject>
        <dc:description>A symbol of a note for the Moralife software.</dc:description>
        <dc:rights>
          <cc:Agent>
            <dc:title>TeamAxe.Org</dc:title>
          </cc:Agent>
        </dc:rights>
        <dc:date>2010-03-10</dc:date>
      </cc:Work>
    </rdf:RDF>
  </metadata>
  <g
     inkscape:groupmode="layer"
     id="layerTotal"
     inkscape:label="Total">
    <g
       inkscape:groupmode="layer"
       id="layerSymbol"
       inkscape:label="Symbol"
       style="display:inline">
      <path
         style="fill:#000000;fill-opacity:1;display:inline"
         d="M 102.36422,76.097533 C 101.54169,74.878819 101.59314,74.911638 100.65555,73.564319 100.50542,73.422821 100.07919,72.673892 99.708385,71.900025 L 99.034165,70.492997 C 96.678215,70.232152 94.833284,70.330857 93.742731,70.740457 93.158632,72.548818 93.444849,73.256081 94.899754,76.632572 96.058234,78.809553 96.013298,78.753227 96.682165,80.311712 L 95.402709,82.614802 94.860888,84.146872 98.964245,88.120612 C 99.717005,88.528022 99.142275,88.970972 98.985155,89.777402 98.140125,90.767862 97.959095,91.741502 97.501835,92.303629 97.044575,92.865769 97.116255,93.113649 96.820585,93.417109 L 95.976187,95.045269 C 95.976187,95.045269 95.37193,95.680239 95.456972,96.046419 95.561282,96.495569 96.569825,96.868059 96.569825,96.868059 L 100.00827,99.406689 C 100.00827,99.406689 100.89315,99.886699 100.97264,100.26603 101.0493,100.63188 100.43046,101.24764 100.43046,101.24764 L 97.357995,105.89434 96.792255,107.21361 C 96.481095,107.9392 96.374305,108.67217 96.554945,108.84242 L 97.916675,110.68805 101.35122,113.84678 C 103.90324,116.20297 104.19506,116.49658 107.036,117.27551 107.84213,117.15766 108.66048,116.22336 108.74925,115.92825 113.42542,109.82822 117.41013,108.29718 111.72942,105.25325 110.71755,104.38287 109.60395,104.38396 108.75071,103.15292 109.23338,102.62925 109.89541,101.59593 109.89541,101.59593 L 111.73607,98.750099 C 112.74843,97.184899 113.48986,95.600609 113.38369,95.229439 113.27753,94.858279 112.01856,93.928479 110.58599,93.163229 L 107.98132,91.771862 110.05163,88.042532 110.54238,87.276852 C 109.57043,86.812152 106.05849,83.747412 105.87986,83.229602 105.70123,82.711792 104.95819,80.954912 104.42205,79.674122 L 102.36422,76.097533 z M 102.80646,113.27752 C 101.28504,111.90627 99.459395,110.2057 98.749445,109.49848 L 97.458645,108.21263 100.22712,104.2132 C 101.74979,102.01352 102.93611,99.991379 102.86339,99.719559 102.79067,99.447729 101.436,98.487639 99.853005,97.586009 98.270015,96.684389 97.002855,95.680789 97.037105,95.355799 97.071365,95.030799 97.984835,93.584199 99.067065,92.141129 100.14928,90.698062 100.95942,89.235852 100.86737,88.891792 100.77532,88.547722 99.607445,87.321712 98.272075,86.167312 95.946155,84.156602 95.871053,84.035042 96.484865,83.274412 98.130745,81.234862 98.608675,80.224112 98.196025,79.655542 96.843075,77.79138 95.002885,73.94012 94.987384,72.940311 94.972242,71.96346 95.178322,71.746298 96.291147,71.56643 97.556845,71.361856 97.719485,71.515267 100.12637,75.183849 102.78163,79.231022 104.66793,83.200982 104.01823,83.374792 103.80699,83.431302 102.60838,82.999002 101.35464,82.414112 L 99.075105,81.350692 101.73457,83.041402 C 103.19728,83.971302 105.41935,85.270222 106.6725,85.927912 107.92565,86.585592 109.30133,87.208732 109.35588,87.412642 109.41043,87.616542 108.54094,88.583302 107.79737,89.461022 107.05379,90.338752 106.40668,91.356542 106.35934,91.722782 106.30509,92.142539 107.35867,92.964959 109.20969,93.947729 L 112.1461,95.506789 109.73951,99.233129 C 108.4159,101.28262 107.41472,103.26519 107.51468,103.63884 107.61465,104.01249 108.16415,104.55825 108.73581,104.85162 109.30747,105.145 110.48143,106.08273 111.34462,106.93545 L 112.91406,108.48586 112.04958,109.97635 C 110.45898,112.71875 107.6992,115.61622 106.60175,115.69594 105.91414,115.74589 104.65477,114.94341 102.80646,113.27752 z"
         id="path3624"
         sodipodi:nodetypes="ccccccccccccccsccsccccccccccccsccccsccccccsssssssssssscccsssscccsscccsc"
         inkscape:connector-curvature="0" />
    </g>
    <g
       inkscape:groupmode="layer"
       id="layerPosition"
       inkscape:label="Position"
       style="display:inline">
      <path
         style="fill:none;stroke:#000000;stroke-width:1.12163866px;stroke-linecap:butt;stroke-linejoin:miter;stroke-opacity:1;display:inline"
         d="M 70.572135,71.448123 125.84774,71.854201 104.17951,135.76941 70.572135,71.448123 z"
         id="path2955"
         sodipodi:nodetypes="cccc"
         inkscape:connector-curvature="0" />
    </g>
  </g>
</svg>
