<?xml version="1.0" encoding="UTF-8" standalone="no"?>
<!-- Created with Inkscape (http://www.inkscape.org/) -->

<svg
   xmlns:dc="http://purl.org/dc/elements/1.1/"
   xmlns:cc="http://creativecommons.org/ns#"
   xmlns:rdf="http://www.w3.org/1999/02/22-rdf-syntax-ns#"
   xmlns:svg="http://www.w3.org/2000/svg"
   xmlns="http://www.w3.org/2000/svg"
   xmlns:sodipodi="http://sodipodi.sourceforge.net/DTD/sodipodi-0.dtd"
   xmlns:inkscape="http://www.inkscape.org/namespaces/inkscape"
   width="200"
   height="200"
   id="svg3604"
   version="1.1"
   inkscape:version="0.47 r22583"
   sodipodi:docname="con-sports-basketball.svg"
   inkscape:export-filename="c:\local\ml\pt\images\conscience\con-yinyang2.png"
   inkscape:export-xdpi="90"
   inkscape:export-ydpi="90"
   style="display:inline">
  <defs
     id="defs3606" />
  <sodipodi:namedview
     id="base"
     pagecolor="#ffffff"
     bordercolor="#666666"
     borderopacity="1.0"
     inkscape:pageopacity="0.0"
     inkscape:pageshadow="2"
     inkscape:zoom="2.0860875"
     inkscape:cx="127.49875"
     inkscape:cy="66.041244"
     inkscape:document-units="px"
     inkscape:current-layer="layerSymbol"
     showgrid="false"
     inkscape:window-width="1024"
     inkscape:window-height="708"
     inkscape:window-x="-4"
     inkscape:window-y="-4"
     inkscape:window-maximized="1" />
  <metadata
     id="metadata3609">
    <rdf:RDF>
      <cc:Work
         rdf:about="">
        <dc:format>image/svg+xml</dc:format>
        <dc:type
           rdf:resource="http://purl.org/dc/dcmitype/StillImage" />
        <dc:title />
        <cc:license
           rdf:resource="" />
      </cc:Work>
    </rdf:RDF>
  </metadata>
  <g
     inkscape:groupmode="layer"
     id="layerTotal"
     inkscape:label="Total"
     style="display:inline">
    <g
       inkscape:groupmode="layer"
       id="layerSymbol"
       inkscape:label="Symbol"
       style="display:inline">
      <path
         style="fill:#000000;fill-opacity:1;display:inline"
         id="seg-1-4-68-2-5-1-2-6"
         d="M 103.57906,109.11812 C 102.60789,108.08487 102.19207,104.13895 102.40633,100.14751 102.61986,96.174287 103.2952,91.567207 105.43961,87.579232 L 104.67148,87.373032 C 100.19758,95.791637 100.18999,108.02262 102.51927,110.11125 L 103.57906,109.11812 z"
         sodipodi:nodetypes="cscccc" />
      <path
         style="fill:#000000;fill-opacity:1;display:inline"
         id="seg-1-4-68-2-5-1-3-0"
         d="M 96.729684,88.536491 C 97.318881,89.704353 100.26446,93.250967 102.65443,93.345917 105.0335,93.440147 107.20349,90.31923 109.64684,88.264412 L 109.84223,88.891605 C 107.34234,91.100224 105.16953,94.749737 102.46772,94.615687 99.855666,94.486107 96.79004,90.771002 96.200441,89.388263 L 96.729684,88.536491 z"
         sodipodi:nodetypes="ccccscc" />
      <path
         style="fill:#000000;fill-opacity:1;display:inline"
         id="seg-1-4-68-2-5-1-2-8-6"
         d="M 93.191476,100.69436 C 94.080807,99.589877 97.931569,98.633437 101.91438,98.294747 105.87905,97.957867 110.53526,97.990877 114.78103,99.564377 L 115.16321,98.914517 C 106.20769,95.645357 94.092713,97.325917 92.345552,99.921167 L 93.191476,100.69436 z"
         sodipodi:nodetypes="cscccc" />
      <path
         style="fill:#000000;fill-opacity:1;display:inline"
         id="seg-1-4-68-2-5-1-3-7-6"
         d="M 95.722648,108.25034 C 96.311845,107.08248 99.257425,103.53586 101.64739,103.44092 104.02646,103.34669 106.19645,106.46759 108.63979,108.52242 L 108.92753,107.89529 C 106.42764,105.68667 104.25481,102.03717 101.55301,102.17121 98.94096,102.3008 95.875334,106.0159 95.285735,107.39864 L 95.722648,108.25034 z"
         sodipodi:nodetypes="ccccscc" />
      <path
         style="fill:#000000;fill-opacity:1;stroke:#000000;stroke-width:0.44323525;stroke-linejoin:miter;stroke-miterlimit:4;stroke-opacity:1;stroke-dasharray:none;display:inline"
         d="M 103.45776,85.219237 101.48826,85.323674 C 96.328148,85.855126 91.981533,89.262702 90.178385,93.848537 87.43961,100.81385 90.289679,109.99235 98.171285,111.94321 105.88589,113.85272 112.77417,110.00016 114.85337,106.5225 116.91897,103.06762 117.03723,99.113327 116.75587,96.777797 116.47217,94.422897 112.31135,85.137041 103.45776,85.219237 z M 109.24599,87.021571 C 110.73308,87.719081 113.50171,90.413588 115.32696,93.907957 117.55454,98.172537 116.2324,102.20443 115.48546,104.25236 114.14126,107.93779 105.75174,113.99394 96.691653,109.50108 90.644633,106.50239 90.090432,98.192257 92.495522,92.256847 96.478694,84.550804 106.47475,85.241208 109.24599,87.021571 z"
         id="path4329-5"
         sodipodi:nodetypes="ccsszsccssscc" />
    </g>
    <g
       inkscape:groupmode="layer"
       id="layerPosition"
       inkscape:label="Position">
      <path
         style="fill:none;stroke:#000000;stroke-width:0.94288188px;stroke-linecap:butt;stroke-linejoin:miter;stroke-opacity:1;display:inline"
         d="M 78.681738,72.544143 125.72265,72.549579 104.93081,131.5149 78.681738,72.544143 z"
         id="path2955"
         sodipodi:nodetypes="cccc" />
    </g>
  </g>
</svg>
