<?xml version="1.0" encoding="UTF-8" standalone="no"?>
<!-- Created with Inkscape (http://www.inkscape.org/) -->

<svg
   xmlns:dc="http://purl.org/dc/elements/1.1/"
   xmlns:cc="http://creativecommons.org/ns#"
   xmlns:rdf="http://www.w3.org/1999/02/22-rdf-syntax-ns#"
   xmlns:svg="http://www.w3.org/2000/svg"
   xmlns="http://www.w3.org/2000/svg"
   xmlns:sodipodi="http://sodipodi.sourceforge.net/DTD/sodipodi-0.dtd"
   xmlns:inkscape="http://www.inkscape.org/namespaces/inkscape"
   width="200"
   height="200"
   id="svg4873"
   version="1.1"
   inkscape:version="0.47 r22583"
   sodipodi:docname="con-science-approximate.svg"
   style="display:inline">
  <defs
     id="defs4875">
    <inkscape:perspective
       sodipodi:type="inkscape:persp3d"
       inkscape:vp_x="0 : 100 : 1"
       inkscape:vp_y="0 : 1000 : 0"
       inkscape:vp_z="200 : 100 : 1"
       inkscape:persp3d-origin="100 : 66.666667 : 1"
       id="perspective12" />
  </defs>
  <sodipodi:namedview
     id="base"
     pagecolor="#ffffff"
     bordercolor="#666666"
     borderopacity="1.0"
     inkscape:pageopacity="0.0"
     inkscape:pageshadow="2"
     inkscape:zoom="1.979899"
     inkscape:cx="18.691664"
     inkscape:cy="104.82603"
     inkscape:document-units="px"
     inkscape:current-layer="layerSymbol"
     showgrid="false"
     inkscape:window-width="1024"
     inkscape:window-height="708"
     inkscape:window-x="-4"
     inkscape:window-y="-4"
     inkscape:window-maximized="1" />
  <metadata
     id="metadata4878">
    <rdf:RDF>
      <cc:Work
         rdf:about="">
        <dc:format>image/svg+xml</dc:format>
        <dc:type
           rdf:resource="http://purl.org/dc/dcmitype/StillImage" />
        <dc:title />
        <cc:license
           rdf:resource="" />
        <dc:creator>
          <cc:Agent>
            <dc:title>Adam Axe</dc:title>
          </cc:Agent>
        </dc:creator>
        <dc:subject>
          <rdf:Bag>
            <rdf:li>Ankh</rdf:li>
            <rdf:li>Moralife</rdf:li>
          </rdf:Bag>
        </dc:subject>
        <dc:description>A symbol of an Ankh for the Moralife software</dc:description>
        <dc:publisher>
          <cc:Agent>
            <dc:title>TeamAxe.Org</dc:title>
          </cc:Agent>
        </dc:publisher>
      </cc:Work>
    </rdf:RDF>
  </metadata>
  <g
     inkscape:groupmode="layer"
     id="layerTotal"
     inkscape:label="Total"
     style="fill:#000000;fill-opacity:1;display:inline">
    <g
       inkscape:groupmode="layer"
       id="layerSymbol"
       inkscape:label="Symbol"
       style="fill:#000000;fill-opacity:1;display:inline">
      <path
         d="M 69.79964,65.164321 C 70.955984,69.561648 73.596959,71.273888 79.82115,71.562608 87.482477,71.671318 93.632213,67.784704 100.29437,63.192118 106.95653,58.599532 130.94382,47.036007 132.85738,67.006211 133.13322,69.074693 131.94414,72.932238 129.28816,68.350233 129.58286,66.561395 128.73671,64.561385 127.96815,63.510755 125.52413,60.169767 121.88779,59.130749 118.02969,59.209665 103.66438,59.503503 91.638461,75.019108 79.369512,74.096608 67.100574,73.174098 65.22539,68.435261 64.880366,63.523912 67.694513,58.097938 69.526952,62.484352 69.79964,65.164321 z"
         id="seg-4-4"
         sodipodi:nodetypes="cczccsszcc"
         style="fill:#000000;fill-opacity:1"
         inkscape:connector-curvature="0" />
      <path
         d="M 71.527855,54.291711 C 72.684199,58.689037 75.325174,60.401277 81.549364,60.689997 89.210691,60.798707 95.360428,56.912093 102.02259,52.319508 108.68474,47.726922 132.67203,36.163397 134.58559,56.1336 134.86143,58.202082 133.67235,62.059627 131.01637,57.477622 131.31107,55.688784 130.46492,53.688775 129.69636,52.638145 127.25235,49.297157 123.616,48.258139 119.75791,48.337055 105.39259,48.630893 93.366676,64.146497 81.097727,63.223997 68.828789,62.301487 66.953605,57.56265 66.608581,52.651302 69.422728,47.225328 71.255167,51.611742 71.527855,54.291711 z"
         id="seg-4-4-1"
         sodipodi:nodetypes="cczccsszcc"
         style="fill:#000000;fill-opacity:1;display:inline"
         inkscape:connector-curvature="0" />
    </g>
    <g
       inkscape:groupmode="layer"
       id="layerPosition"
       inkscape:label="Position"
       style="display:inline">
      <path
         style="fill:none;stroke:#000000;stroke-width:0.8029865px;stroke-linecap:butt;stroke-linejoin:miter;stroke-opacity:1;display:inline"
         d="M 70.060665,94.143321 L 131.63374,94.389234 L 103.30739,127.80851 L 70.060665,94.143321 z"
         id="path2955"
         sodipodi:nodetypes="cccc"
         inkscape:connector-curvature="0" />
    </g>
  </g>
</svg>
