<?xml version="1.0" encoding="UTF-8" standalone="no"?>
<!-- Created with Inkscape (http://www.inkscape.org/) -->

<svg
   xmlns:dc="http://purl.org/dc/elements/1.1/"
   xmlns:cc="http://creativecommons.org/ns#"
   xmlns:rdf="http://www.w3.org/1999/02/22-rdf-syntax-ns#"
   xmlns:svg="http://www.w3.org/2000/svg"
   xmlns="http://www.w3.org/2000/svg"
   xmlns:sodipodi="http://sodipodi.sourceforge.net/DTD/sodipodi-0.dtd"
   xmlns:inkscape="http://www.inkscape.org/namespaces/inkscape"
   width="200"
   height="200"
   id="svg3604"
   version="1.1"
   inkscape:version="0.48.0 r9654"
   sodipodi:docname="con-peace.svg"
   inkscape:export-filename="c:\local\ml\pt\images\conscience\con-yinyang2.png"
   inkscape:export-xdpi="90"
   inkscape:export-ydpi="90"
   style="display:inline">
  <defs
     id="defs3606" />
  <sodipodi:namedview
     id="base"
     pagecolor="#ffffff"
     bordercolor="#666666"
     borderopacity="1.0"
     inkscape:pageopacity="0.0"
     inkscape:pageshadow="2"
     inkscape:zoom="2.0860875"
     inkscape:cx="45.598379"
     inkscape:cy="96.051207"
     inkscape:document-units="px"
     inkscape:current-layer="layerSymbol"
     showgrid="false"
     inkscape:window-width="1024"
     inkscape:window-height="708"
     inkscape:window-x="-4"
     inkscape:window-y="-4"
     inkscape:window-maximized="1" />
  <metadata
     id="metadata3609">
    <rdf:RDF>
      <cc:Work
         rdf:about="">
        <dc:format>image/svg+xml</dc:format>
        <dc:type
           rdf:resource="http://purl.org/dc/dcmitype/StillImage" />
        <dc:title />
      </cc:Work>
    </rdf:RDF>
  </metadata>
  <g
     inkscape:groupmode="layer"
     id="layerTotal"
     inkscape:label="Total">
    <g
       inkscape:groupmode="layer"
       id="layerSymbol"
       inkscape:label="Symbol"
       style="display:inline">
      <path
         style="fill:none;stroke:none;display:inline"
         d="M 103.38958,113.17279 C 99.472219,112.65137 95.347215,109.97009 93.650291,106.84218 92.912258,105.48177 92.443803,103.10665 92.573468,101.38255 L 92.675636,100.02412 93.340959,101.15888 C 94.07468,102.41032 96.194794,104.21542 98.092639,105.20454 101.3164,106.88471 102.96831,106.97731 105.95448,105.64528 107.00644,105.17603 108.36758,104.56909 108.97922,104.29651 109.88139,103.89447 110.25139,103.82928 110.93946,103.95117 111.87584,104.11705 113.48901,105.27571 113.60846,105.86818 113.74147,106.52792 112.59409,109.10778 111.65658,110.25689 110.36766,111.83675 109.04838,112.54643 106.5989,112.97761 105.27837,113.21006 104.17413,113.27722 103.38958,113.17279 z M 110.22537,108.98594 C 111.35122,108.36693 111.07001,106.58931 109.78006,106.1709 109.09447,105.94851 108.78068,105.99127 108.21209,106.38454 107.19924,107.08508 107.5949,108.86234 108.83022,109.16112 109.58917,109.34469 109.56807,109.34734 110.22537,108.98594 z"
         id="path4887" />
      <path
         style="fill:#000000;fill-opacity:1;stroke:#000000;stroke-width:0.63457465;stroke-linejoin:miter;stroke-miterlimit:4;stroke-opacity:1;stroke-dasharray:none;display:inline"
         d="M 103.65625 88.03125 C 98.439849 87.851284 94.394311 89.57418 92.0625 94.375 C 89.730687 99.17582 90.074591 103.54318 92.71875 107.84375 C 96.776183 113.36315 102.81499 113.68736 105.65625 113.71875 C 108.499 113.75015 112.97618 111.46114 114.90625 108.5 C 116.83632 105.53887 117.95532 98.95095 115.34375 94.4375 C 112.73219 89.92405 108.87266 88.211215 103.65625 88.03125 z M 103.0625 89.4375 C 103.64086 89.412689 104.26132 89.416328 104.875 89.4375 C 109.78445 89.606879 111.93935 90.88565 114.28125 94.4375 C 116.62314 97.98934 115.94228 105.08771 114.5625 107.65625 C 113.20272 110.18755 108.64422 112.77956 105.96875 112.75 C 103.29467 112.72047 98.381181 112.85087 94.5625 107.65625 C 92.07393 103.60874 91.742897 99.48708 93.9375 94.96875 C 95.857776 91.01522 99.014011 89.611174 103.0625 89.4375 z "
         id="path2837-7" />
      <path
         style="fill:#000000;fill-opacity:1;display:inline"
         d="M 105.47605,88.87348 102.51675,89.298937 C 105.33862,94.047972 105.56123,98.233462 105.08716,103.51618 101.65735,103.64477 98.542099,106.12252 94.887498,108.7513 L 97.149409,110.45745 C 100.71212,106.70141 102.44363,106.02564 104.77737,105.91536 104.72764,108.32716 103.66783,110.01778 102.29911,112.84718 L 106.09093,113.03146 C 108.03896,109.87763 107.57555,108.93159 108.2169,106.02039 110.3997,106.29981 112.24741,107.12678 113.34236,110.03797 L 114.66494,108.70476 C 113.706,105.76277 110.548,104.074 108.37445,103.5455 108.63318,98.991832 108.98856,94.118392 105.47605,88.87348 z"
         id="seg"
         sodipodi:nodetypes="ccccccccccccc" />
    </g>
    <g
       inkscape:groupmode="layer"
       id="layerPosition"
       inkscape:label="Position">
      <path
         style="fill:none;stroke:#000000;stroke-width:1.00592864px;stroke-linecap:butt;stroke-linejoin:miter;stroke-opacity:1;display:inline"
         d="M 76.873651,75.597447 L 127.81575,75.923196 L 105.28745,134.09414 z"
         id="path2955"
         sodipodi:nodetypes="cccc"
         inkscape:connector-curvature="0" />
    </g>
  </g>
</svg>
