<?xml version="1.0" encoding="UTF-8" standalone="no"?>
<!-- Created with Inkscape (http://www.inkscape.org/) -->

<svg
   xmlns:dc="http://purl.org/dc/elements/1.1/"
   xmlns:cc="http://creativecommons.org/ns#"
   xmlns:rdf="http://www.w3.org/1999/02/22-rdf-syntax-ns#"
   xmlns:svg="http://www.w3.org/2000/svg"
   xmlns="http://www.w3.org/2000/svg"
   xmlns:sodipodi="http://sodipodi.sourceforge.net/DTD/sodipodi-0.dtd"
   xmlns:inkscape="http://www.inkscape.org/namespaces/inkscape"
   width="200"
   height="200"
   id="svg23064"
   version="1.1"
   inkscape:version="0.47 r22583"
   sodipodi:docname="con-zodiac-scorpio.svg">
  <defs
     id="defs23066">
    <inkscape:perspective
       sodipodi:type="inkscape:persp3d"
       inkscape:vp_x="0 : 100 : 1"
       inkscape:vp_y="0 : 1000 : 0"
       inkscape:vp_z="200 : 100 : 1"
       inkscape:persp3d-origin="100 : 66.666667 : 1"
       id="perspective11" />
  </defs>
  <sodipodi:namedview
     id="base"
     pagecolor="#ffffff"
     bordercolor="#666666"
     borderopacity="1.0"
     inkscape:pageopacity="0.0"
     inkscape:pageshadow="2"
     inkscape:zoom="3.25625"
     inkscape:cx="73.733466"
     inkscape:cy="102.09023"
     inkscape:document-units="px"
     inkscape:current-layer="layerSymbol"
     showgrid="false"
     inkscape:window-width="1024"
     inkscape:window-height="708"
     inkscape:window-x="-4"
     inkscape:window-y="-4"
     inkscape:window-maximized="1" />
  <metadata
     id="metadata23069">
    <rdf:RDF>
      <cc:Work
         rdf:about="">
        <dc:format>image/svg+xml</dc:format>
        <dc:type
           rdf:resource="http://purl.org/dc/dcmitype/StillImage" />
        <dc:title />
      </cc:Work>
    </rdf:RDF>
  </metadata>
  <g
     inkscape:groupmode="layer"
     id="layerTotal"
     inkscape:label="Total">
    <g
       inkscape:groupmode="layer"
       id="layerSymbol"
       inkscape:label="Symbol"
       style="display:inline">
      <path
         inkscape:connector-curvature="0"
         id="path3038-1"
         style="fill:#000000;fill-opacity:1;stroke:none"
         d="M 106.15128,97.509294 C 105.19674,98.698404 105.03154,98.883304 104.33173,99.842364 103.92201,100.3172 103.8238,100.81614 103.82297,101.34867 103.95359,102.22931 104.78788,102.87571 105.91198,103.15912 108.346,103.7728 111.26071,103.40224 113.87098,103.37796 114.17535,102.69287 113.9025,103.14776 113.59188,102.46733 111.19864,102.47146 108.28115,102.99344 106.4225,101.89026 104.88371,100.97693 107.12433,99.061964 108.0183,97.788704 108.85896,96.591374 109.81854,95.475574 109.99591,94.165134 110.25387,92.259164 109.41622,91.184434 108.89915,90.510294 108.1915,89.707324 107.20539,89.352284 105.89598,89.238314 104.73344,89.263394 103.61961,89.520644 102.54225,89.799454 101.91774,90.018954 101.79122,90.050234 101.03596,90.422294 101.70989,91.316274 101.76331,91.794844 102.11036,92.468574 102.37372,91.897354 102.46513,91.672324 102.77836,91.279974 102.97914,91.074224 103.27805,90.890564 103.49789,90.788244 104.20618,90.477174 105.00019,90.419504 105.81561,90.418554 106.58336,90.557384 107.00456,90.943994 107.39712,91.382344 107.73338,92.030064 108.19657,92.386294 108.01171,94.301974 107.89908,95.469064 106.95131,96.493124 106.15128,97.509294 z"
         sodipodi:nodetypes="cccsccssscccccccccsc" />
      <path
         inkscape:connector-curvature="0"
         style="fill:#000000;fill-opacity:1;stroke:none"
         d="M 90.292115,89.766084 C 89.667614,89.985584 89.542262,90.017204 88.787,90.389264 89.460937,91.283244 89.514155,91.761194 89.861207,92.434924 90.07376,91.741464 90.505732,91.223974 91.247821,90.755044 91.956102,90.444024 92.750124,90.386174 93.56552,90.385094 94.333401,90.523954 94.75478,90.910694 95.147584,91.349054 95.483835,91.996764 96.044352,92.283224 95.761637,94.269034 95.478921,96.254854 93.338458,97.955144 91.824934,99.697384 L 93.953342,99.696344 C 95.563875,97.894244 97.435783,95.921294 97.74691,94.131484 98.058037,92.341674 97.442988,91.701194 97.029751,91.025994 97.184819,90.913914 97.351846,90.818594 97.488364,90.755044 97.856361,90.583764 98.072001,90.566824 98.447147,90.472634 98.986311,90.386284 99.350025,90.338024 99.806063,90.385094 100.11839,90.465964 100.33609,90.493824 100.74022,90.748794 101.09334,90.971574 101.14854,91.062364 101.38812,91.349054 101.72437,91.996764 102.14868,92.350734 102.00218,94.269034 101.55737,96.328124 99.576151,97.953494 98.065483,99.697384 L 100.19389,99.696344 C 101.77081,97.865264 103.62489,96.281454 103.98591,94.131484 104.13527,92.654104 103.69575,91.134704 102.31612,89.954714 101.65973,89.433474 100.68748,89.251194 99.886089,89.205434 98.541192,89.207524 97.26265,89.560304 96.05404,89.934914 95.397742,89.428184 94.434771,89.251664 93.647081,89.205434 92.487732,89.203314 91.366673,89.488414 90.292115,89.766084 z"
         id="path3859"
         inkscape:export-filename=""
         inkscape:export-xdpi=""
         inkscape:export-ydpi=""
         sodipodi:nodetypes="cccccczcczcsccscccccccccc" />
      <path
         inkscape:connector-curvature="0"
         style="fill:#000000;fill-opacity:1;display:inline"
         d="M 110.33937,100.04069 C 110.10202,100.04458 109.85426,100.05205 109.60436,100.07633 L 108.67592,100.96757 C 111.5345,100.62892 112.18742,101.93039 113.22141,102.57182 113.49851,102.77251 113.7417,102.9155 113.97577,103.03525 113.75682,103.13661 113.52368,103.25649 113.26009,103.40958 112.03927,104.04008 111.00277,104.66071 108.40512,104.40777 L 109.00474,105.33466 C 112.66958,105.60795 115.70537,103.84092 116.70306,102.99961 L 116.64503,102.96395 116.70306,102.92831 C 116.03711,102.1103 113.8996,99.982204 110.33937,100.04069 z"
         id="seg-1-7-3-8-4" />
    </g>
    <g
       inkscape:groupmode="layer"
       id="layerPosition"
       inkscape:label="Position">
      <path
         style="fill:none;stroke:#000000;stroke-width:1.12732708px;stroke-linecap:butt;stroke-linejoin:miter;stroke-opacity:1;display:inline"
         d="M 69.284087,78.414364 L 132.46821,78.159921 L 104.37719,131.94499 L 69.284087,78.414364 z"
         id="path2955"
         sodipodi:nodetypes="cccc"
         inkscape:connector-curvature="0" />
    </g>
  </g>
</svg>
