<?xml version="1.0" encoding="UTF-8" standalone="no"?>
<!-- Created with Inkscape (http://www.inkscape.org/) -->

<svg
   xmlns:dc="http://purl.org/dc/elements/1.1/"
   xmlns:cc="http://creativecommons.org/ns#"
   xmlns:rdf="http://www.w3.org/1999/02/22-rdf-syntax-ns#"
   xmlns:svg="http://www.w3.org/2000/svg"
   xmlns="http://www.w3.org/2000/svg"
   xmlns:sodipodi="http://sodipodi.sourceforge.net/DTD/sodipodi-0.dtd"
   xmlns:inkscape="http://www.inkscape.org/namespaces/inkscape"
   width="200"
   height="200"
   id="svg4873"
   version="1.1"
   inkscape:version="0.48.0 r9654"
   sodipodi:docname="con-animal-tiger.svg"
   inkscape:export-filename="/Users/aaxe/Documents/moralife/img/pos-menorah.png"
   inkscape:export-xdpi="90"
   inkscape:export-ydpi="90"
   style="display:inline">
  <defs
     id="defs4875" />
  <sodipodi:namedview
     id="base"
     pagecolor="#ffffff"
     bordercolor="#666666"
     borderopacity="1.0"
     inkscape:pageopacity="0.0"
     inkscape:pageshadow="2"
     inkscape:zoom="2.8284272"
     inkscape:cx="62.198434"
     inkscape:cy="87.047054"
     inkscape:document-units="px"
     inkscape:current-layer="layerSymbol"
     showgrid="false"
     inkscape:window-width="1024"
     inkscape:window-height="708"
     inkscape:window-x="-4"
     inkscape:window-y="-4"
     inkscape:window-maximized="1"
     showguides="true"
     inkscape:guide-bbox="true" />
  <metadata
     id="metadata4878">
    <rdf:RDF>
      <cc:Work
         rdf:about="">
        <dc:format>image/svg+xml</dc:format>
        <dc:type
           rdf:resource="http://purl.org/dc/dcmitype/StillImage" />
        <dc:title />
        <dc:creator>
          <cc:Agent>
            <dc:title>Adam Axe</dc:title>
          </cc:Agent>
        </dc:creator>
        <dc:publisher>
          <cc:Agent>
            <dc:title>TeamAxe.Org</dc:title>
          </cc:Agent>
        </dc:publisher>
        <dc:subject>
          <rdf:Bag>
            <rdf:li>Moralife</rdf:li>
            <rdf:li>St. Louis</rdf:li>
            <rdf:li>Arch</rdf:li>
          </rdf:Bag>
        </dc:subject>
        <dc:description>A surrounding for the software, Moralife.</dc:description>
      </cc:Work>
    </rdf:RDF>
  </metadata>
  <g
     inkscape:groupmode="layer"
     id="layerTotal"
     inkscape:label="Total">
    <g
       inkscape:groupmode="layer"
       id="layerSymbol"
       inkscape:label="Symbol"
       style="display:inline">
      <path
         style="fill:#000000;fill-opacity:1;display:inline"
         d="M 83.819857,52.191351 C 77.742603,53.826961 74.763033,55.948147 71.089346,56.613152 C 67.29217,56.654892 63.628417,55.310492 60.748036,54.687529 L 59.464287,55.507702 L 58.608454,58.931032 C 64.854773,61.376853 67.848495,60.841448 74.441353,63.245855 C 80.953047,64.319271 85.689167,59.277998 90.586107,55.72376 C 90.586107,55.72376 90.749717,64.805793 85.908397,66.217845 C 84.294617,66.217845 85.763197,67.357579 88.526937,68.987065 C 92.838177,70.501441 101.89461,84.708256 97.941102,91.488329 C 97.755822,97.070252 105.19323,103.30011 101.75669,112.0283 C 97.643602,118.65774 93.115542,118.33356 86.993577,120.97888 C 86.443407,121.25593 83.153077,116.37797 82.429137,113.24073 C 79.571303,115.94664 83.515347,122.55809 82.821387,123.01148 C 80.243713,124.69563 77.335823,124.32922 75.582463,124.22391 C 73.265636,124.08478 74.130925,116.86723 73.621184,113.73997 C 69.251304,119.3985 71.787049,124.71226 70.340492,124.79447 C 67.578932,124.95141 65.261436,123.8851 64.207026,122.94017 C 62.946131,121.8102 64.096398,116.24349 65.847371,112.84847 C 61.941837,112.75647 61.553327,122.04992 59.856543,121.19284 C 57.383705,119.94377 54.703703,117.87326 53.045543,116.985 C 53.045543,116.985 51.0997,116.39671 50.264087,117.84083 C 49.367491,119.39035 50.065143,120.52139 52.368008,121.19284 C 61.217652,127.22578 74.944273,135.39619 93.947222,125.22239 C 98.479792,123.2616 104.51436,121.52612 105.77924,116.25747 C 112.69801,111.84068 106.49599,98.318492 102.8978,92.094542 C 105.55308,89.425514 101.72091,80.647287 99.478672,76.835346 C 96.701012,72.113183 93.909902,70.222512 94.259062,68.131232 C 99.131792,63.859936 98.707832,57.009888 95.274662,51.041154 C 92.047122,48.418772 87.590657,51.433342 83.819857,52.191351 z"
         id="seg-3-9-7"
         sodipodi:nodetypes="cccccccccccccsscsscscsccccsccc"
         inkscape:connector-curvature="0" />
    </g>
    <g
       inkscape:groupmode="layer"
       id="layerPosition"
       inkscape:label="Position">
      <path
         style="fill:none;stroke:#000000;stroke-width:0.90835607px;stroke-linecap:butt;stroke-linejoin:miter;stroke-opacity:1;display:inline"
         d="M 71.17401,87.754136 L 124.87183,87.879019 L 107.0169,150.31842 z"
         id="path2955"
         sodipodi:nodetypes="cccc"
         inkscape:connector-curvature="0" />
    </g>
  </g>
</svg>
