<?xml version="1.0" encoding="UTF-8" standalone="no"?>
<!-- Created with Inkscape (http://www.inkscape.org/) -->

<svg
   xmlns:dc="http://purl.org/dc/elements/1.1/"
   xmlns:cc="http://creativecommons.org/ns#"
   xmlns:rdf="http://www.w3.org/1999/02/22-rdf-syntax-ns#"
   xmlns:svg="http://www.w3.org/2000/svg"
   xmlns="http://www.w3.org/2000/svg"
   xmlns:sodipodi="http://sodipodi.sourceforge.net/DTD/sodipodi-0.dtd"
   xmlns:inkscape="http://www.inkscape.org/namespaces/inkscape"
   width="200"
   height="200"
   id="svg3604"
   version="1.1"
   inkscape:version="0.48.0 r9654"
   sodipodi:docname="con-glasses-round.svg"
   inkscape:export-filename="C:\local\ml\Archive\img\sym-ball.png"
   inkscape:export-xdpi="90"
   inkscape:export-ydpi="90"
   style="display:inline">
  <defs
     id="defs3606" />
  <sodipodi:namedview
     id="base"
     pagecolor="#ffffff"
     bordercolor="#666666"
     borderopacity="1.0"
     inkscape:pageopacity="0.0"
     inkscape:pageshadow="2"
     inkscape:zoom="2.8284273"
     inkscape:cx="140.81117"
     inkscape:cy="82.064577"
     inkscape:document-units="px"
     inkscape:current-layer="layerPosition"
     showgrid="false"
     inkscape:window-width="1024"
     inkscape:window-height="708"
     inkscape:window-x="-4"
     inkscape:window-y="-4"
     inkscape:window-maximized="1" />
  <metadata
     id="metadata3609">
    <rdf:RDF>
      <cc:Work
         rdf:about="">
        <dc:format>image/svg+xml</dc:format>
        <dc:type
           rdf:resource="http://purl.org/dc/dcmitype/StillImage" />
        <dc:title />
      </cc:Work>
    </rdf:RDF>
  </metadata>
  <g
     inkscape:groupmode="layer"
     id="layerTotal"
     inkscape:label="Total"
     style="display:inline">
    <g
       inkscape:groupmode="layer"
       id="layerSymbol"
       inkscape:label="Symbol"
       style="display:inline">
      <path
         style="fill:#000000;fill-opacity:1;stroke:#000000;stroke-width:0.88310087;stroke-linejoin:miter;stroke-miterlimit:4;stroke-opacity:1;stroke-dasharray:none;display:inline"
         d="M 79.71875,58.22059 C 74.804696,58.193324 69.98148,59.457214 65.8125,61.97059 C 61.154386,64.778854 57.359742,68.974963 54.9375,73.78309 C 49.771748,68.608354 29.715784,65.641482 28.8125,65.81434 C 26.038167,66.345255 26.457834,67.905368 27.8125,68.97059 C 28.618615,69.604467 50.851105,72.208134 52.21875,82.47059 C 51.429371,88.508978 52.837167,94.762107 57.21875,100.09559 C 67.373209,112.45611 83.031181,114.79431 90.5,111.84559 C 97.919912,108.91617 102.77838,102.82951 105.09375,98.81434 C 106.32907,96.672152 108.15323,90.136819 107.4375,82.90809 C 114.23484,82.019955 112.02567,82.692331 117.5815,83.199143 C 117.00954,88.993356 118.48319,94.940112 122.67525,100.04289 C 132.82969,112.40342 148.48768,114.74161 155.9565,111.79289 C 163.37641,108.86347 165.84797,108.17331 171.2065,99.824143 C 176.56503,91.474976 174.63423,70.554362 163.73775,64.199143 C 152.84127,57.843924 139.42559,57.239589 131.269,61.917893 C 124.789,65.824527 119.97165,72.411805 118.2065,79.605393 C 115.18937,77.163588 108.12717,78.689789 106.78125,79.00184 C 105.56508,73.765301 102.80186,68.491178 97.40625,64.50184 L 94.09375,62.28309 C 89.625812,59.571826 84.632804,58.247856 79.71875,58.22059 z M 147.4565,62.386643 C 152.8579,62.363335 157.57298,64.277097 161.11275,66.792893 C 164.51092,69.208056 166.85632,72.169741 167.73775,74.480393 C 169.30469,77.381248 171.06657,82.707287 169.86275,90.417893 C 168.39361,99.828043 163.08619,104.32109 159.4565,106.63664 C 152.92453,110.80368 134.17067,111.82364 124.8315,95.167893 C 118.20781,83.355008 126.175,71.243803 137.0815,64.824143 C 140.72495,63.115332 144.21566,62.400628 147.4565,62.386643 z M 82,62.43934 C 87.401403,62.416032 92.116482,64.329794 95.65625,66.84559 C 99.054428,69.260753 101.39982,72.222438 102.28125,74.53309 C 103.84819,77.433945 105.61007,82.759984 104.40625,90.47059 C 102.93711,99.88074 97.629688,104.37379 94,106.68934 C 87.468031,110.85638 68.714169,111.87634 59.375,95.22059 C 52.751306,83.407705 60.7185,71.2965 71.625,64.87684 C 75.268451,63.168029 78.759158,62.453325 82,62.43934 z"
         id="path4329-2"
         inkscape:connector-curvature="0"
         sodipodi:nodetypes="sscsscsssccsssscccccssscssscssscssscs" />
    </g>
    <g
       inkscape:groupmode="layer"
       id="layerPosition"
       inkscape:label="Position">
      <path
         style="fill:none;stroke:#000000;stroke-width:1.10497582px;stroke-linecap:butt;stroke-linejoin:miter;stroke-opacity:1;display:inline"
         d="M 81.76521,86.611116 L 146.33118,86.382446 L 118.86896,134.71954 z"
         id="path2955"
         sodipodi:nodetypes="cccc"
         inkscape:connector-curvature="0" />
    </g>
  </g>
</svg>
