<?xml version="1.0" encoding="UTF-8" standalone="no"?>
<!-- Created with Inkscape (http://www.inkscape.org/) -->

<svg
   xmlns:dc="http://purl.org/dc/elements/1.1/"
   xmlns:cc="http://creativecommons.org/ns#"
   xmlns:rdf="http://www.w3.org/1999/02/22-rdf-syntax-ns#"
   xmlns:svg="http://www.w3.org/2000/svg"
   xmlns="http://www.w3.org/2000/svg"
   xmlns:sodipodi="http://sodipodi.sourceforge.net/DTD/sodipodi-0.dtd"
   xmlns:inkscape="http://www.inkscape.org/namespaces/inkscape"
   width="200"
   height="200"
   id="svg3604"
   version="1.1"
   inkscape:version="0.47 r22583"
   sodipodi:docname="con-sports-softball.svg"
   inkscape:export-filename="c:\local\ml\pt\images\conscience\con-yinyang2.png"
   inkscape:export-xdpi="90"
   inkscape:export-ydpi="90"
   style="display:inline">
  <defs
     id="defs3606">
    <inkscape:perspective
       sodipodi:type="inkscape:persp3d"
       inkscape:vp_x="0 : 45 : 1"
       inkscape:vp_y="0 : 1000 : 0"
       inkscape:vp_z="90 : 45 : 1"
       inkscape:persp3d-origin="45 : 30 : 1"
       id="perspective5109" />
    <inkscape:perspective
       id="perspective4877"
       inkscape:persp3d-origin="0.5 : 0.33333333 : 1"
       inkscape:vp_z="1 : 0.5 : 1"
       inkscape:vp_y="0 : 1000 : 0"
       inkscape:vp_x="0 : 0.5 : 1"
       sodipodi:type="inkscape:persp3d" />
    <inkscape:perspective
       id="perspective3988"
       inkscape:persp3d-origin="0.5 : 0.33333333 : 1"
       inkscape:vp_z="1 : 0.5 : 1"
       inkscape:vp_y="0 : 1000 : 0"
       inkscape:vp_x="0 : 0.5 : 1"
       sodipodi:type="inkscape:persp3d" />
    <inkscape:perspective
       id="perspective2828"
       inkscape:persp3d-origin="0.5 : 0.33333333 : 1"
       inkscape:vp_z="1 : 0.5 : 1"
       inkscape:vp_y="0 : 1000 : 0"
       inkscape:vp_x="0 : 0.5 : 1"
       sodipodi:type="inkscape:persp3d" />
    <inkscape:perspective
       id="perspective2833"
       inkscape:persp3d-origin="0.5 : 0.33333333 : 1"
       inkscape:vp_z="1 : 0.5 : 1"
       inkscape:vp_y="0 : 1000 : 0"
       inkscape:vp_x="0 : 0.5 : 1"
       sodipodi:type="inkscape:persp3d" />
  </defs>
  <sodipodi:namedview
     id="base"
     pagecolor="#ffffff"
     bordercolor="#666666"
     borderopacity="1.0"
     inkscape:pageopacity="0.0"
     inkscape:pageshadow="2"
     inkscape:zoom="5.9003465"
     inkscape:cx="95.799617"
     inkscape:cy="81.832693"
     inkscape:document-units="px"
     inkscape:current-layer="layerPosition"
     showgrid="false"
     inkscape:window-width="1024"
     inkscape:window-height="708"
     inkscape:window-x="-4"
     inkscape:window-y="-4"
     inkscape:window-maximized="1" />
  <metadata
     id="metadata3609">
    <rdf:RDF>
      <cc:Work
         rdf:about="">
        <dc:format>image/svg+xml</dc:format>
        <dc:type
           rdf:resource="http://purl.org/dc/dcmitype/StillImage" />
        <dc:title />
        <cc:license
           rdf:resource="" />
      </cc:Work>
    </rdf:RDF>
  </metadata>
  <g
     inkscape:groupmode="layer"
     id="layerTotal"
     inkscape:label="Total"
     style="display:inline">
    <g
       inkscape:groupmode="layer"
       id="layerSymbol"
       inkscape:label="Symbol"
       style="display:inline">
      <path
         style="fill:#ffffff;fill-opacity:1;fill-rule:evenodd;stroke:none;display:inline"
         d="M 94.749753,104.14513 C 92.86604,101.18807 92.26929,99.607368 92.278888,97.600148 92.287988,95.698118 92.53037,94.765928 93.46524,93.037518 94.981091,90.235038 98.586632,87.157571 101.24967,86.393218 103.547,85.733841 106.13493,85.957706 108.40232,87.011956 111.31684,88.367075 114.35567,91.464998 115.16569,93.941058 115.95583,96.356398 115.54965,101.0613 114.31211,103.82831 113.56733,105.49356 110.88648,107.56125 108.79217,108.66222 104.42093,110.39556 99.92096,108.59862 96.435316,105.7921 95.638043,105.09016 94.879607,104.34895 94.749768,104.14511 L 94.749738,104.14514 94.749753,104.14513 z"
         id="path3780"
         sodipodi:nodetypes="cssssssccccc" />
      <path
         style="fill:#000000;fill-opacity:1;stroke:none;display:inline"
         id="seg-1-7-3-8-7-8-7-9-45-1"
         d="M 99.958313,91.024261 C 100.42101,91.146032 100.89054,91.702348 101.75113,90.914339 L 102.0879,91.909058 C 100.86736,92.966248 99.298984,92.148628 98.895368,91.835078 L 99.079288,90.762922 C 99.350716,90.960766 99.664619,90.937039 99.958313,91.024261 z"
         sodipodi:nodetypes="cccccc" />
      <path
         style="fill:#000000;fill-opacity:1;stroke:none;display:inline"
         id="seg-1-7-3-8-7-8-7-9-4-1-8"
         d="M 99.920698,94.702728 C 100.6554,94.938988 101.59188,95.626218 102.51028,95.016598 L 102.61998,95.678138 C 101.29033,96.479978 98.621776,95.260688 97.88943,94.840218 L 98.511708,94.222828 C 98.962082,94.480948 99.450382,94.542558 99.920757,94.702788 z"
         sodipodi:nodetypes="cccccc" />
      <path
         style="fill:#000000;fill-opacity:1;stroke:none;display:inline"
         id="seg-1-7-3-8-7-8-7-9-8-7-4"
         d="M 99.394235,98.059828 C 100.03164,98.448438 100.40283,99.322168 102.23282,98.921468 L 101.61216,99.592298 C 99.055013,100.09337 97.152787,98.327738 96.728807,97.759078 L 98.202032,97.287308 C 98.503813,97.663128 98.996456,97.802088 99.394276,98.059868 z"
         sodipodi:nodetypes="cccccc" />
      <path
         style="fill:#000000;fill-opacity:1;stroke:none;display:inline"
         id="seg-1-7-3-8-7-8-7-9-8-7-1-9"
         d="M 97.482003,100.61727 C 97.949872,101.13649 98.086056,101.9671 99.748044,102.22103 L 99.072402,102.57196 C 96.762579,102.16912 95.493784,100.12519 95.247809,99.526818 L 96.617042,99.609538 C 96.798906,100.01313 97.193406,100.28101 97.482067,100.6172 z"
         sodipodi:nodetypes="cccccc" />
      <path
         style="fill:#000000;fill-opacity:1;stroke:none;display:inline"
         id="seg-1-7-7-6"
         d="M 108.79057,100.34936 C 109.14517,98.004808 110.08986,95.290658 112.85176,92.957158 L 112.25625,92.492988 C 106.49193,97.419578 106.2902,105.26492 109.14698,106.52232 L 110.13311,106.28136 C 108.79309,104.51823 108.65624,102.49201 108.79058,100.34935 z"
         sodipodi:nodetypes="cccccc" />
      <path
         style="fill:#000000;fill-opacity:1;stroke:none;display:inline"
         id="seg-1-4-6-4-3"
         d="M 99.256435,97.678188 C 100.16147,95.486478 100.75185,92.673948 99.588829,89.250399 L 100.3314,89.386172 C 102.72966,96.579698 99.246297,102.91455 96.150244,102.51869 L 95.437053,101.57732 C 97.494435,101.12353 98.377508,99.468078 99.256484,97.678238 z"
         sodipodi:nodetypes="cccccc" />
      <path
         style="fill:#000000;fill-opacity:1;stroke:none;display:inline"
         id="seg-1-7-3-8-7-8-7-9-45-0-7"
         d="M 111.58264,94.246988 C 111.17246,94.041068 110.60151,94.133608 110.20114,93.043808 L 109.57871,93.525198 C 110.16811,95.028788 111.7033,95.444668 112.13519,95.479928 L 112.37262,94.617338 C 112.08682,94.584648 111.84652,94.370828 111.58259,94.247038 z"
         sodipodi:nodetypes="cccccc" />
      <path
         style="fill:#000000;fill-opacity:1;stroke:none;display:inline"
         id="seg-1-7-3-8-7-8-7-9-4-1-4-8"
         d="M 109.84098,97.183688 C 109.1998,96.893188 108.19818,96.891048 107.82857,95.665138 L 107.43395,96.218878 C 108.00758,97.916738 110.50897,98.627478 111.2364,98.740678 L 111.08356,97.715208 C 110.63642,97.645138 110.25581,97.361128 109.84101,97.183708 z"
         sodipodi:nodetypes="cccccc" />
      <path
         style="fill:#000000;fill-opacity:1;stroke:none;display:inline"
         id="seg-1-7-3-8-7-8-7-9-8-7-8-8"
         d="M 107.97156,100.39383 C 108.77279,100.62453 109.54926,101.45828 111.12366,100.48249 L 110.84569,101.39129 C 108.6175,102.69119 105.93643,101.34821 105.25503,100.8597 L 106.45105,99.912948 C 106.92216,100.22948 107.46422,100.23339 107.97156,100.39383 z"
         sodipodi:nodetypes="cccccc" />
      <path
         style="fill:#000000;fill-opacity:1;stroke:none;display:inline"
         id="seg-1-7-3-8-7-8-7-9-8-7-1-8-2"
         d="M 107.93508,104.16471 C 108.71315,104.25676 109.43747,104.87759 111.03609,103.81405 L 110.71898,104.64347 C 108.46062,106.07791 105.88471,105.27237 105.23724,104.93951 L 106.46158,103.95273 C 106.91191,104.16484 107.44344,104.09391 107.93508,104.16464 z"
         sodipodi:nodetypes="cccccc" />
      <path
         style="fill:#000000;fill-opacity:1;stroke:#000000;stroke-width:0.38751018;stroke-linejoin:miter;stroke-miterlimit:4;stroke-opacity:1;stroke-dasharray:none;display:inline"
         d="M 112.60738,89.365289 111.30456,88.23577 C 107.73465,85.438591 102.93121,84.945134 99.013349,86.73677 93.062623,89.458049 89.285915,96.963968 93.061976,102.97493 96.75806,108.85854 103.43107,110.61446 106.85011,109.68777 110.24676,108.76713 112.721,106.35038 113.96135,104.70983 115.21199,103.05567 118.22898,94.686738 112.60736,89.365314 z M 115.1562,94.012368 C 115.66875,95.353828 115.77584,98.729798 114.80381,102.0366 113.61751,106.07227 110.33856,107.80723 108.62564,108.64271 105.54304,110.14625 96.587938,108.86598 93.612928,100.54006 91.627295,94.983058 96.321852,89.416994 101.43757,87.141336 108.62098,84.709125 114.49269,91.210108 115.1562,94.012368 z"
         id="path4329-1-0"
         sodipodi:nodetypes="ccsszsccssscc" />
    </g>
    <g
       inkscape:groupmode="layer"
       id="layerPosition"
       inkscape:label="Position">
      <path
         style="fill:none;stroke:#000000;stroke-width:0.94493473px;stroke-linecap:butt;stroke-linejoin:miter;stroke-opacity:1;display:inline"
         d="M 78.711843,72.099015 125.75069,72.104474 104.95976,131.32942 78.711843,72.099015 z"
         id="path2955"
         sodipodi:nodetypes="cccc" />
    </g>
  </g>
</svg>
