<?xml version="1.0" encoding="UTF-8" standalone="no"?>
<!-- Created with Inkscape (http://www.inkscape.org/) -->

<svg
   xmlns:dc="http://purl.org/dc/elements/1.1/"
   xmlns:cc="http://creativecommons.org/ns#"
   xmlns:rdf="http://www.w3.org/1999/02/22-rdf-syntax-ns#"
   xmlns:svg="http://www.w3.org/2000/svg"
   xmlns="http://www.w3.org/2000/svg"
   xmlns:sodipodi="http://sodipodi.sourceforge.net/DTD/sodipodi-0.dtd"
   xmlns:inkscape="http://www.inkscape.org/namespaces/inkscape"
   width="200"
   height="200"
   id="svg4873"
   version="1.1"
   inkscape:version="0.47 r22583"
   sodipodi:docname="con-animal-bear.svg"
   inkscape:export-filename="/Users/aaxe/Documents/moralife/img/pos-menorah.png"
   inkscape:export-xdpi="90"
   inkscape:export-ydpi="90"
   style="display:inline">
  <defs
     id="defs4875">
    <inkscape:perspective
       sodipodi:type="inkscape:persp3d"
       inkscape:vp_x="0 : 45 : 1"
       inkscape:vp_y="0 : 1000 : 0"
       inkscape:vp_z="90 : 45 : 1"
       inkscape:persp3d-origin="45 : 30 : 1"
       id="perspective9" />
    <inkscape:perspective
       id="perspective3140"
       inkscape:persp3d-origin="0.5 : 0.33333333 : 1"
       inkscape:vp_z="1 : 0.5 : 1"
       inkscape:vp_y="0 : 1000 : 0"
       inkscape:vp_x="0 : 0.5 : 1"
       sodipodi:type="inkscape:persp3d" />
  </defs>
  <sodipodi:namedview
     id="base"
     pagecolor="#ffffff"
     bordercolor="#666666"
     borderopacity="1.0"
     inkscape:pageopacity="0.0"
     inkscape:pageshadow="2"
     inkscape:zoom="1.4142136"
     inkscape:cx="-48.868712"
     inkscape:cy="132.70578"
     inkscape:document-units="px"
     inkscape:current-layer="layerPosition"
     showgrid="false"
     inkscape:window-width="1024"
     inkscape:window-height="708"
     inkscape:window-x="-4"
     inkscape:window-y="-4"
     inkscape:window-maximized="1"
     showguides="true"
     inkscape:guide-bbox="true" />
  <metadata
     id="metadata4878">
    <rdf:RDF>
      <cc:Work
         rdf:about="">
        <dc:format>image/svg+xml</dc:format>
        <dc:type
           rdf:resource="http://purl.org/dc/dcmitype/StillImage" />
        <dc:title />
        <dc:creator>
          <cc:Agent>
            <dc:title>Adam Axe</dc:title>
          </cc:Agent>
        </dc:creator>
        <dc:publisher>
          <cc:Agent>
            <dc:title>TeamAxe.Org</dc:title>
          </cc:Agent>
        </dc:publisher>
        <dc:subject>
          <rdf:Bag>
            <rdf:li>Moralife</rdf:li>
            <rdf:li>St. Louis</rdf:li>
            <rdf:li>Arch</rdf:li>
          </rdf:Bag>
        </dc:subject>
        <dc:description>A surrounding for the software, Moralife.</dc:description>
      </cc:Work>
    </rdf:RDF>
  </metadata>
  <g
     inkscape:groupmode="layer"
     id="layerTotal"
     inkscape:label="Total">
    <g
       inkscape:groupmode="layer"
       id="layerPosition"
       inkscape:label="Position">
      <path
         style="fill:none;stroke:#000000;stroke-width:1px;stroke-linecap:butt;stroke-linejoin:miter;stroke-opacity:1;display:inline"
         d="M 78.44012,79.453935 133.69189,79.453935 110.37695,138.02272 78.44012,79.453935 z"
         id="path2955"
         sodipodi:nodetypes="cccc" />
    </g>
    <g
       inkscape:groupmode="layer"
       id="layerSymbol"
       inkscape:label="Symbol"
       style="display:inline">
      <path
         style="fill:#000000;fill-opacity:1;display:inline"
         d="M 87.117697,43.973044 C 85.703397,43.962029 84.416647,44.114768 83.364537,44.39793 77.330317,46.021958 74.938357,48.411382 74.973037,50.204708 74.03532,52.228956 65.015618,48.344757 62.155633,47.726205 58.544101,48.434349 60.031202,51.373145 60.031202,51.373145 65.389496,53.282326 70.975632,54.307529 76.389317,56.046893 81.650087,57.705294 79.504987,41.629905 93.668029,49.6736 99.799799,54.444191 90.899237,59.4897 85.418147,59.091911 86.297537,60.362933 87.773367,61.388545 90.021087,61.641228 94.911219,67.288609 105.09674,77.651684 99.368579,83.983162 99.184609,89.525559 109.6852,95.144792 106.27298,103.81119 102.18902,110.39367 94.577189,110.6383 88.498577,113.2649 80.928157,116.83909 69.629059,116.97589 61.553711,113.47735 59.098383,112.23712 56.437358,110.18127 54.790939,109.2993 54.790939,109.2993 52.858875,108.71517 52.029178,110.14907 51.138932,111.68761 51.831644,112.81064 54.118203,113.47735 62.905181,119.46756 76.534607,127.58012 95.402979,117.47836 102.18965,114.83338 107.84963,110.42341 111.08836,105.19207 117.95813,100.80655 107.8629,90.764963 104.29018,84.585084 106.92666,81.934953 104.72397,75.021524 103.29878,71.236575 101.38188,66.145788 96.968269,62.867927 97.314969,60.791456 99.980809,59.712042 101.32386,57.875132 102.23656,55.126306 102.58836,51.489411 98.314389,47.017138 94.517799,45.424738 92.144929,44.429489 89.474847,43.991401 87.117697,43.973044 z"
         id="seg-3-9-7"
         sodipodi:nodetypes="csccccccccccccsccccsccsc" />
    </g>
  </g>
</svg>
