<?xml version="1.0" encoding="UTF-8" standalone="no"?>
<!-- Created with Inkscape (http://www.inkscape.org/) -->

<svg
   xmlns:dc="http://purl.org/dc/elements/1.1/"
   xmlns:cc="http://creativecommons.org/ns#"
   xmlns:rdf="http://www.w3.org/1999/02/22-rdf-syntax-ns#"
   xmlns:svg="http://www.w3.org/2000/svg"
   xmlns="http://www.w3.org/2000/svg"
   xmlns:sodipodi="http://sodipodi.sourceforge.net/DTD/sodipodi-0.dtd"
   xmlns:inkscape="http://www.inkscape.org/namespaces/inkscape"
   width="200"
   height="200"
   id="svg4873"
   version="1.1"
   inkscape:version="0.47 r22583"
   sodipodi:docname="con-music-bass-clef-eye.svg"
   style="display:inline">
  <defs
     id="defs4875">
    <inkscape:perspective
       sodipodi:type="inkscape:persp3d"
       inkscape:vp_x="0 : 45 : 1"
       inkscape:vp_y="0 : 1000 : 0"
       inkscape:vp_z="90 : 45 : 1"
       inkscape:persp3d-origin="45 : 30 : 1"
       id="perspective23" />
    <inkscape:perspective
       id="perspective2864"
       inkscape:persp3d-origin="0.5 : 0.33333333 : 1"
       inkscape:vp_z="1 : 0.5 : 1"
       inkscape:vp_y="0 : 1000 : 0"
       inkscape:vp_x="0 : 0.5 : 1"
       sodipodi:type="inkscape:persp3d" />
  </defs>
  <sodipodi:namedview
     id="base"
     pagecolor="#ffffff"
     bordercolor="#666666"
     borderopacity="1.0"
     inkscape:pageopacity="0.0"
     inkscape:pageshadow="2"
     inkscape:zoom="1.979899"
     inkscape:cx="-7.7072243"
     inkscape:cy="119.47399"
     inkscape:document-units="px"
     inkscape:current-layer="layerPosition"
     showgrid="false"
     inkscape:window-width="1024"
     inkscape:window-height="708"
     inkscape:window-x="-4"
     inkscape:window-y="-4"
     inkscape:window-maximized="1" />
  <metadata
     id="metadata4878">
    <rdf:RDF>
      <cc:Work
         rdf:about="">
        <dc:format>image/svg+xml</dc:format>
        <dc:type
           rdf:resource="http://purl.org/dc/dcmitype/StillImage" />
        <dc:title>Moralife - Symbol - Ankh</dc:title>
        <cc:license
           rdf:resource="" />
        <dc:creator>
          <cc:Agent>
            <dc:title>Adam Axe</dc:title>
          </cc:Agent>
        </dc:creator>
        <dc:subject>
          <rdf:Bag>
            <rdf:li>Ankh</rdf:li>
            <rdf:li>Moralife</rdf:li>
          </rdf:Bag>
        </dc:subject>
        <dc:description>A symbol of an Ankh for the Moralife software</dc:description>
        <dc:publisher>
          <cc:Agent>
            <dc:title>TeamAxe.Org</dc:title>
          </cc:Agent>
        </dc:publisher>
      </cc:Work>
    </rdf:RDF>
  </metadata>
  <g
     inkscape:groupmode="layer"
     id="layerTotal"
     inkscape:label="Total"
     style="display:inline">
    <g
       inkscape:groupmode="layer"
       id="layerSymbol"
       inkscape:label="Symbol"
       style="display:inline">
      <path
         d="M 79.793513,52.611687 C 64.57346,52.556903 52.06443,60.650135 50.965634,71.29629 49.920114,81.426254 54.355412,86.413284 55.959238,87.496763 57.635532,88.629201 58.984347,89.306436 61.910686,88.278972 64.837024,87.251508 64.469531,83.82025 62.723287,82.273324 60.977043,80.726398 58.921948,80.627843 57.335495,82.158812 53.986253,76.761347 57.718881,68.963183 59.166398,66.594595 63.093878,60.168017 67.920039,57.941933 75.244469,56.933197 82.008113,56.001693 87.537541,56.655749 94.606053,59.655812 101.00746,62.372735 107.04125,72.475365 107.45736,83.268802 107.86569,93.859302 100.72327,115.61487 84.211655,126.55825 L 84.692118,128.4477 C 104.54593,118.27203 115.60126,97.526002 113.68886,80.790646 112.13837,67.222171 102.85119,55.794366 89.836778,53.556429 87.015444,52.8385 82.694349,52.805031 79.793513,52.611687 z"
         id="seg-4"
         sodipodi:nodetypes="cszszcssszccscc"
         style="fill:#000000;fill-opacity:1;display:inline" />
      <path
         style="fill:#000000;fill-opacity:1;stroke:none;display:inline"
         d="M 123.10303,71.74583 C 123.11183,73.448252 122.35228,75.628619 120.85511,76.530608 119.73448,77.232128 118.21578,77.150819 117.15935,76.365141 115.67031,75.295315 115.01954,73.348026 115.19212,71.567215 115.3334,69.957844 116.18943,68.316974 117.67953,67.582648 118.8586,66.978141 120.35698,67.213519 121.34748,68.073098 122.51942,69.049433 123.10072,70.245346 123.10303,71.74583 z"
         id="path30288"
         sodipodi:nodetypes="csssssc" />
      <path
         style="fill:#000000;fill-opacity:1;stroke:none;display:inline"
         d="M 123.14538,88.470226 C 123.1518,89.713254 122.59722,91.331151 121.50406,91.989739 120.68582,92.501957 119.57694,92.442589 118.80558,91.868923 117.71836,91.087785 117.2432,89.665968 117.36921,88.365702 117.47236,87.190615 118.0974,85.992529 119.1854,85.456359 120.0463,85.014976 121.14035,85.186838 121.86356,85.814464 122.71926,86.527337 123.1437,87.374644 123.14538,88.470226 z"
         id="path30288-3"
         sodipodi:nodetypes="csssssc" />
    </g>
    <g
       inkscape:groupmode="layer"
       id="layerPosition"
       inkscape:label="Position">
      <path
         style="fill:none;stroke:#000000;stroke-width:1.11617959px;stroke-linecap:butt;stroke-linejoin:miter;stroke-opacity:1;display:inline"
         d="M 86.590764,77.572516 139.6834,78.047676 108.34763,152.72186 86.590764,77.572516 z"
         id="path2955"
         sodipodi:nodetypes="cccc" />
    </g>
  </g>
</svg>
