<?xml version="1.0" encoding="UTF-8" standalone="no"?>
<!-- Created with Inkscape (http://www.inkscape.org/) -->

<svg
   xmlns:dc="http://purl.org/dc/elements/1.1/"
   xmlns:cc="http://creativecommons.org/ns#"
   xmlns:rdf="http://www.w3.org/1999/02/22-rdf-syntax-ns#"
   xmlns:svg="http://www.w3.org/2000/svg"
   xmlns="http://www.w3.org/2000/svg"
   xmlns:sodipodi="http://sodipodi.sourceforge.net/DTD/sodipodi-0.dtd"
   xmlns:inkscape="http://www.inkscape.org/namespaces/inkscape"
   width="200"
   height="200"
   id="svg4873"
   version="1.1"
   inkscape:version="0.47 r22583"
   sodipodi:docname="con-animal-dragon.svg"
   inkscape:export-filename="/Users/aaxe/Documents/moralife/img/pos-menorah.png"
   inkscape:export-xdpi="90"
   inkscape:export-ydpi="90"
   style="display:inline">
  <defs
     id="defs4875">
    <inkscape:perspective
       sodipodi:type="inkscape:persp3d"
       inkscape:vp_x="0 : 100 : 1"
       inkscape:vp_y="0 : 1000 : 0"
       inkscape:vp_z="200 : 100 : 1"
       inkscape:persp3d-origin="100 : 66.666667 : 1"
       id="perspective11" />
  </defs>
  <sodipodi:namedview
     id="base"
     pagecolor="#ffffff"
     bordercolor="#666666"
     borderopacity="1.0"
     inkscape:pageopacity="0.0"
     inkscape:pageshadow="2"
     inkscape:zoom="1.4142136"
     inkscape:cx="192.96379"
     inkscape:cy="69.88891"
     inkscape:document-units="px"
     inkscape:current-layer="layerPosition"
     showgrid="false"
     inkscape:window-width="1024"
     inkscape:window-height="708"
     inkscape:window-x="-4"
     inkscape:window-y="-4"
     inkscape:window-maximized="1"
     showguides="true"
     inkscape:guide-bbox="true" />
  <metadata
     id="metadata4878">
    <rdf:RDF>
      <cc:Work
         rdf:about="">
        <dc:format>image/svg+xml</dc:format>
        <dc:type
           rdf:resource="http://purl.org/dc/dcmitype/StillImage" />
        <dc:title />
        <dc:creator>
          <cc:Agent>
            <dc:title>Adam Axe</dc:title>
          </cc:Agent>
        </dc:creator>
        <dc:publisher>
          <cc:Agent>
            <dc:title>TeamAxe.Org</dc:title>
          </cc:Agent>
        </dc:publisher>
        <dc:subject>
          <rdf:Bag>
            <rdf:li>Moralife</rdf:li>
            <rdf:li>St. Louis</rdf:li>
            <rdf:li>Arch</rdf:li>
          </rdf:Bag>
        </dc:subject>
        <dc:description>A surrounding for the software, Moralife.</dc:description>
      </cc:Work>
    </rdf:RDF>
  </metadata>
  <g
     inkscape:groupmode="layer"
     id="layerTotal"
     inkscape:label="Total">
    <g
       inkscape:groupmode="layer"
       id="layerSymbol"
       inkscape:label="Symbol"
       style="display:inline">
      <path
         style="fill:#000000;fill-opacity:1;display:inline"
         d="M 102.14689,132.23793 C 95.548509,129.39782 99.066949,126.72674 97.040829,124.34938 94.510639,121.38058 85.683844,121.35372 81.849397,119.38999 79.509237,119.74845 77.294132,121.94204 75.274542,121.16579 73.728743,120.57165 73.047485,117.79559 71.762361,116.50352 70.924523,115.66115 67.61325,116.78866 66.852775,115.8959 66.073033,114.98052 66.800256,111.381 66.444394,110.20088 65.553146,107.24529 62.708866,108.0342 62.496959,105.69448 62.290414,103.41397 64.088506,101.35494 65.178795,100.25002 66.194928,99.220236 67.955107,100.05927 67.955107,100.05927 67.951459,100.75734 65.978558,104.21759 66.039482,104.93135 66.094919,105.58083 69.005933,105.55717 69.292131,107.63197 69.518836,109.27548 68.652959,111.52989 69.267908,112.51461 69.822851,113.40325 71.792567,113.07227 73.164728,113.60944 74.73901,114.22574 74.588274,117.49373 76.448898,118.01455 78.319461,118.53814 81.514277,116.19803 84.073714,115.88046 87.132914,117.87895 100.50036,119.35647 100.73469,122.80653 100.91675,125.48691 100.75063,128.29734 104.97684,129.40646 109.20304,130.51558 122.61475,123.84685 122.98296,120.04442 123.35117,116.242 120.49844,117.96348 120.66423,115.78149 121.38279,106.32416 105.66462,92.354374 105.66462,88.465287 105.66462,88.465287 109.70128,81.648119 107.43308,76.744096 105.16489,71.840073 101.75543,71.576317 100.55885,70.060378 98.850479,67.896046 96.746739,61.455441 105.02916,61.75012 113.31159,62.044799 105.16908,54.051744 90.063998,50.435903 99.070279,55.198705 98.100349,57.470158 98.275219,59.259364 98.620419,62.791208 91.448218,62.871244 92.219018,65.842956 86.712791,64.036022 76.226631,57.058347 65.283989,57.057724 L 66.653778,54.434591 C 77.20432,53.885788 88.150257,60.274409 90.720158,61.741517 96.326199,59.167914 91.364318,54.546828 84.043395,48.38095 100.00313,47.168466 112.32728,58.269099 113.29639,61.075693 114.54534,64.692702 102.95925,64.151043 103.80401,67.012577 104.30579,68.712311 111.17461,68.557484 113.60939,76.030344 116.04416,83.503204 113.97443,86.209458 111.15959,88.107607 120.52141,107.49853 121.47327,98.957206 124.48853,113.19843 128.57762,114.30434 127.85035,120.53623 125.73697,123.76613 123.70389,126.87331 108.74528,135.07804 102.14689,132.23793 z"
         id="seg-3-9"
         sodipodi:nodetypes="cscsssssscssssscszzsczszcscccccsszcczz"
         inkscape:connector-curvature="0" />
    </g>
    <g
       inkscape:groupmode="layer"
       id="layerPosition"
       inkscape:label="Position">
      <path
         style="fill:none;stroke:#000000;stroke-width:1.10310638px;stroke-linecap:butt;stroke-linejoin:miter;stroke-opacity:1;display:inline"
         d="M 77.610983,84.301697 144.42054,84.853687 112.70776,151.09755 z"
         id="path2955"
         sodipodi:nodetypes="cccc"
         inkscape:connector-curvature="0" />
    </g>
  </g>
</svg>
