<?xml version="1.0" encoding="UTF-8" standalone="no"?>
<!-- Created with Inkscape (http://www.inkscape.org/) -->

<svg
   xmlns:dc="http://purl.org/dc/elements/1.1/"
   xmlns:cc="http://creativecommons.org/ns#"
   xmlns:rdf="http://www.w3.org/1999/02/22-rdf-syntax-ns#"
   xmlns:svg="http://www.w3.org/2000/svg"
   xmlns="http://www.w3.org/2000/svg"
   xmlns:sodipodi="http://sodipodi.sourceforge.net/DTD/sodipodi-0.dtd"
   xmlns:inkscape="http://www.inkscape.org/namespaces/inkscape"
   width="200"
   height="200"
   id="svg2822"
   version="1.1"
   inkscape:version="0.48.0 r9654"
   sodipodi:docname="con-aum.svg"
   inkscape:export-filename="C:\temp\test\code\moralife\Resources\images\conscience\icons\con-aum-sm.png"
   inkscape:export-xdpi="90"
   inkscape:export-ydpi="90">
  <defs
     id="defs2824" />
  <sodipodi:namedview
     id="base"
     pagecolor="#ffffff"
     bordercolor="#666666"
     borderopacity="1.0"
     inkscape:pageopacity="0.0"
     inkscape:pageshadow="2"
     inkscape:zoom="2.8"
     inkscape:cx="37.985402"
     inkscape:cy="79.435467"
     inkscape:document-units="px"
     inkscape:current-layer="layerPosition"
     showgrid="false"
     inkscape:window-width="1024"
     inkscape:window-height="708"
     inkscape:window-x="-4"
     inkscape:window-y="-4"
     inkscape:window-maximized="1" />
  <metadata
     id="metadata2827">
    <rdf:RDF>
      <cc:Work
         rdf:about="">
        <dc:format>image/svg+xml</dc:format>
        <dc:type
           rdf:resource="http://purl.org/dc/dcmitype/StillImage" />
        <dc:title />
      </cc:Work>
    </rdf:RDF>
  </metadata>
  <g
     inkscape:groupmode="layer"
     id="layerTotal"
     inkscape:label="Total">
    <g
       inkscape:groupmode="layer"
       id="layerSymbol"
       inkscape:label="Symbol"
       style="display:inline">
      <path
         style="fill:#000000;fill-opacity:1;fill-rule:evenodd;display:inline"
         clip-rule="evenodd"
         d="M 61.397717,109.34057 C 66.667514,112.72465 74.01342,116.70075 80.483888,117.31497 C 86.954355,117.92919 91.09362,115.20104 93.895264,111.76961 C 96.636681,108.41192 97.292152,98.153791 87.750935,92.947421 C 88.174193,93.374991 83.414477,92.459641 87.988347,89.781921 C 92.408401,88.442101 95.46729,89.730521 98.777717,95.829541 C 102.91333,103.44893 102.73893,117.93991 94.314419,121.77245 C 88.914048,124.22927 83.244511,123.77149 77.917264,122.04202 C 71.203632,119.86249 64.178968,114.34476 61.397717,109.34057 z"
         id="path8-9"
         sodipodi:nodetypes="czzccsssc"
         inkscape:connector-curvature="0" />
      <path
         style="fill:#000000;fill-opacity:1;fill-rule:evenodd;display:inline"
         clip-rule="evenodd"
         d="M 100.27476,71.293813 C 100.75298,71.360343 101.64835,72.366743 102.07678,72.841013 C 103.87075,75.176243 106.0434,77.137973 109.29477,77.296183 C 111.60825,77.033263 112.45366,74.395823 112.32503,71.164993 C 115.94157,73.937953 115.38294,79.130003 111.01552,80.132703 C 106.64809,81.135393 104.23432,77.646493 101.9459,74.069023 C 101.34765,73.133773 100.79247,72.184553 100.27476,71.293813 z"
         id="path6"
         sodipodi:nodetypes="cccczsc"
         inkscape:connector-curvature="0" />
      <path
         style="fill:#000000;fill-opacity:1;fill-rule:evenodd;display:inline"
         clip-rule="evenodd"
         d="M 67.840437,68.308241 C 72.273887,66.954463 78.321102,65.690839 83.129969,67.007108 C 87.938834,68.323362 90.455708,71.790718 91.875146,75.470741 C 93.264075,79.071671 91.901336,87.886091 84.039392,89.562681 C 83.510109,89.351761 80.802875,88.744591 83.644385,92.292661 C 86.614015,94.671751 89.066279,94.454521 92.563509,90.261981 C 96.9325,85.024351 99.403323,72.785706 93.972524,67.175466 C 90.49121,63.579124 86.292009,62.358161 82.113433,62.303823 C 76.8474,62.235363 70.757143,64.886746 67.840437,68.308241 z"
         id="path8-9-1"
         sodipodi:nodetypes="czzccsssc"
         inkscape:connector-curvature="0" />
      <path
         style="fill:#000000;fill-opacity:1;fill-rule:evenodd"
         d="M 104.90008,70.944143 C 106.12,70.054303 107.00804,69.330413 107.68864,68.150173 C 108.32776,69.288933 109.29876,70.261743 110.4772,70.944143 C 109.46471,71.668033 108.36924,72.391923 107.68864,73.738113 C 107.04953,72.557873 106.16149,71.709523 104.90008,70.944143 z"
         id="rect10"
         sodipodi:nodetypes="ccccc"
         inkscape:connector-curvature="0" />
      <path
         inkscape:connector-curvature="0"
         style="fill:#000000;fill-opacity:1;fill-rule:evenodd;display:inline"
         clip-rule="evenodd"
         d="M 96.062845,96.169049 C 100.4418,93.879185 104.93332,90.123203 112.36942,89.790588 C 116.93537,89.586357 120.12731,90.812779 122.72125,93.13403 C 125.08094,95.245469 126.91886,100.07703 126.78769,102.99266 C 126.64907,106.08028 123.54379,105.50116 120.93904,106.93373 C 117.92908,108.32837 115.98159,111.00348 112.96679,108.46441 C 112.13506,107.72018 107.28921,104.59482 107.08885,103.65561 C 106.72247,101.93886 111.55607,103.83602 114.46177,103.56961 C 118.39308,103.12989 120.85699,101.58801 121.503,99.123808 C 122.37104,95.100168 114.25884,94.992704 111.6765,94.92372 C 105.58027,95.482427 101.43678,96.678668 97.9448,99.380198 C 96.429293,98.696638 96.726292,96.948104 96.062845,96.169006 z"
         id="path8"
         sodipodi:nodetypes="cscccccccccc" />
    </g>
    <g
       inkscape:groupmode="layer"
       id="layerPosition"
       inkscape:label="Position"
       style="display:inline">
      <path
         style="fill:none;stroke:#000000;stroke-width:0.8617807px;stroke-linecap:butt;stroke-linejoin:miter;stroke-opacity:1;display:inline"
         d="M 63.55204,86.933985 L 139.63671,86.332038 L 109.29034,139.85173 z"
         id="path2955"
         sodipodi:nodetypes="cccc"
         inkscape:connector-curvature="0" />
    </g>
  </g>
</svg>
