<?xml version="1.0" encoding="UTF-8" standalone="no"?>
<!-- Created with Inkscape (http://www.inkscape.org/) -->

<svg
   xmlns:dc="http://purl.org/dc/elements/1.1/"
   xmlns:cc="http://creativecommons.org/ns#"
   xmlns:rdf="http://www.w3.org/1999/02/22-rdf-syntax-ns#"
   xmlns:svg="http://www.w3.org/2000/svg"
   xmlns="http://www.w3.org/2000/svg"
   xmlns:sodipodi="http://sodipodi.sourceforge.net/DTD/sodipodi-0.dtd"
   xmlns:inkscape="http://www.inkscape.org/namespaces/inkscape"
   width="200"
   height="200"
   id="svg3604"
   version="1.1"
   inkscape:version="0.47 r22583"
   sodipodi:docname="con-sports-baseball.svg"
   inkscape:export-filename="c:\local\ml\pt\images\conscience\con-yinyang2.png"
   inkscape:export-xdpi="90"
   inkscape:export-ydpi="90"
   style="display:inline">
  <defs
     id="defs3606" />
  <sodipodi:namedview
     id="base"
     pagecolor="#ffffff"
     bordercolor="#666666"
     borderopacity="1.0"
     inkscape:pageopacity="0.0"
     inkscape:pageshadow="2"
     inkscape:zoom="2.9501732"
     inkscape:cx="114.20729"
     inkscape:cy="64.38546"
     inkscape:document-units="px"
     inkscape:current-layer="layerSymbol"
     showgrid="false"
     inkscape:window-width="1024"
     inkscape:window-height="708"
     inkscape:window-x="-4"
     inkscape:window-y="-4"
     inkscape:window-maximized="1" />
  <metadata
     id="metadata3609">
    <rdf:RDF>
      <cc:Work
         rdf:about="">
        <dc:format>image/svg+xml</dc:format>
        <dc:type
           rdf:resource="http://purl.org/dc/dcmitype/StillImage" />
        <dc:title />
        <cc:license
           rdf:resource="" />
      </cc:Work>
    </rdf:RDF>
  </metadata>
  <g
     inkscape:groupmode="layer"
     id="layerTotal"
     inkscape:label="Total"
     style="display:inline">
    <g
       inkscape:groupmode="layer"
       id="layerSymbol"
       inkscape:label="Symbol"
       style="display:inline">
      <path
         style="fill:#ffffff;fill-opacity:1;fill-rule:evenodd;stroke:none;display:inline"
         d="M 102.12254,117.91622 C 99.12921,117.1953 97.78841,116.55988 96.570895,115.28522 95.417185,114.07736 95.002145,113.34035 94.539475,111.6779 93.789305,108.98234 94.192445,104.8391 95.409865,102.73257 96.460105,100.91533 98.23245,99.479259 100.30838,98.763489 102.97678,97.843419 106.78615,97.949239 108.80757,99.020629 110.77941,100.06575 113.39072,103.28742 114.29519,105.7909 114.83952,107.29755 114.40535,110.23881 113.75263,112.21143 112.04611,115.97178 108.10618,117.57904 104.192,117.9298 103.26013,117.9721 102.32887,117.9659 102.12254,117.9162 L 102.12254,117.91624 102.12254,117.91622 z"
         id="path3780"
         sodipodi:nodetypes="cssssssccccc" />
      <path
         style="fill:#000000;fill-opacity:1;stroke:none;display:inline"
         id="seg-1-7-3-8-7-8-7-9-45-1"
         d="M 97.41661,106.44715 C 97.78332,106.24207 98.41925,106.3075 98.48288,105.28478 L 99.30214,105.70827 C 99.17506,107.12057 97.68524,107.55981 97.23897,107.60765 L 96.701655,106.8178 C 96.993835,106.7774 97.17779,106.57105 97.41661,106.44715 z"
         sodipodi:nodetypes="cccccc" />
      <path
         style="fill:#000000;fill-opacity:1;stroke:none;display:inline"
         id="seg-1-7-3-8-7-8-7-9-4-1-8"
         d="M 99.6352,108.79532 C 100.24364,108.49679 101.25454,108.36034 101.46346,107.41513 L 101.93607,107.76643 C 101.58437,109.08383 99.15425,109.93983 98.435,110.12047 L 98.452,109.35087 C 98.89404,109.23949 99.24026,108.98077 99.63527,108.79532 z"
         sodipodi:nodetypes="cccccc" />
      <path
         style="fill:#000000;fill-opacity:1;stroke:none;display:inline"
         id="seg-1-7-3-8-7-8-7-9-8-7-4"
         d="M 101.34887,111.23834 C 101.98868,111.09543 102.75594,111.42146 103.66845,110.05262 L 103.68505,110.85501 C 102.37407,112.73057 100.09532,112.77406 99.48066,112.67305 L 100.12433,111.47677 C 100.54419,111.53037 100.94031,111.3179 101.34892,111.23834 z"
         sodipodi:nodetypes="cccccc" />
      <path
         style="fill:#000000;fill-opacity:1;stroke:none;display:inline"
         id="seg-1-7-3-8-7-8-7-9-8-7-1-9"
         d="M 101.6991,114.02063 C 102.31136,114.06363 102.90378,114.50566 104.10915,113.65304 L 103.89599,114.28674 C 102.19033,115.44014 100.14234,114.92158 99.62209,114.69328 L 100.53804,113.9109 C 100.89902,114.05515 101.31169,113.984 101.6991,114.02055 z"
         sodipodi:nodetypes="cccccc" />
      <path
         style="fill:#000000;fill-opacity:1;stroke:none;display:inline"
         id="seg-1-7-7-6"
         d="M 108.68417,106.95767 C 107.4791,105.25947 106.42174,102.96792 106.74511,99.809239 L 106.08572,99.878838 C 105.44518,106.50693 110.10012,111.5891 112.67245,110.64246 L 113.14891,109.88901 C 111.22707,109.59136 109.9054,108.39397 108.68417,106.95766 z"
         sodipodi:nodetypes="cccccc" />
      <path
         style="fill:#000000;fill-opacity:1;stroke:none;display:inline"
         id="seg-1-4-6-4-3"
         d="M 101.02912,111.0811 C 100.26516,109.14397 98.92386,107.00622 96.101725,105.55109 L 96.653885,105.18425 C 102.55499,108.26947 104.21475,114.39729 102.01636,116.03439 L 100.99168,115.87408 C 102.01557,114.33307 101.56463,112.74831 101.02918,111.0811 z"
         sodipodi:nodetypes="cccccc" />
      <path
         style="fill:#000000;fill-opacity:1;stroke:none;display:inline"
         id="seg-1-7-3-8-7-8-7-9-45-0-7"
         d="M 106.72914,101.39821 C 106.34433,101.51809 106.03983,101.92463 105.12242,101.47981 L 105.02242,102.16353 C 106.31157,102.75469 107.53551,102.08173 107.83001,101.84075 L 107.45427,101.15075 C 107.25368,101.30431 106.97144,101.31563 106.72914,101.39827 z"
         sodipodi:nodetypes="cccccc" />
      <path
         style="fill:#000000;fill-opacity:1;stroke:none;display:inline"
         id="seg-1-7-3-8-7-8-7-9-4-1-4-8"
         d="M 107.41839,104.31626 C 106.836,104.52349 106.20155,105.13272 105.22061,104.5831 L 105.30871,105.17369 C 106.70632,105.89726 108.72076,104.82171 109.24959,104.44983 L 108.52786,103.89478 C 108.2025,104.12306 107.78878,104.17555 107.41842,104.31626 z"
         sodipodi:nodetypes="cccccc" />
      <path
         style="fill:#000000;fill-opacity:1;stroke:none;display:inline"
         id="seg-1-7-3-8-7-8-7-9-8-7-8-8"
         d="M 108.19357,107.48504 C 108.84067,107.14245 109.83974,107.19615 110.24012,105.61959 L 110.61841,106.36351 C 110.00233,108.54349 107.4889,109.32892 106.76038,109.4355 L 106.93928,108.10796 C 107.43003,108.02086 107.77506,107.69289 108.19357,107.48504 z"
         sodipodi:nodetypes="cccccc" />
      <path
         style="fill:#000000;fill-opacity:1;stroke:none;display:inline"
         id="seg-1-7-3-8-7-8-7-9-8-7-1-8-2"
         d="M 110.4692,109.89093 C 111.01715,109.47481 111.85346,109.42571 112.21566,107.77892 L 112.52081,108.49652 C 111.96768,110.77994 109.84834,111.841 109.23615,112.02528 L 109.40855,110.65517 C 109.82251,110.51473 110.11527,110.14588 110.46916,109.89089 z"
         sodipodi:nodetypes="cccccc" />
      <path
         style="fill:#000000;fill-opacity:1;stroke:#000000;stroke-width:0.34029901;stroke-linejoin:miter;stroke-miterlimit:4;stroke-opacity:1;stroke-dasharray:none;display:inline"
         d="M 104.40106,97.687709 102.88897,97.767909 C 98.92722,98.175939 95.590065,100.79215 94.205665,104.31298 92.102955,109.66067 94.291165,116.70757 100.34232,118.20537 106.26529,119.67142 111.55384,116.71356 113.15018,114.04356 114.73606,111.39104 114.82685,108.35508 114.61084,106.56195 114.39303,104.75394 111.1985,97.624629 104.40106,97.687739 z M 108.84504,99.071489 C 109.98678,99.607009 112.11243,101.67575 113.51379,104.35859 115.22402,107.63278 114.20894,110.7283 113.63547,112.30061 112.60344,115.13016 106.16229,119.77983 99.20631,116.33038 94.563655,114.02811 94.138155,107.64792 95.984685,103.09093 99.04281,97.174529 106.71739,97.704589 108.84504,99.071489 z"
         id="path4329-1-0"
         sodipodi:nodetypes="ccsszsccssscc" />
    </g>
    <g
       inkscape:groupmode="layer"
       id="layerPosition"
       inkscape:label="Position"
       style="display:inline">
      <path
         style="fill:none;stroke:#000000;stroke-width:0.90835607px;stroke-linecap:butt;stroke-linejoin:miter;stroke-opacity:1;display:inline"
         d="M 78.185109,85.46977 125.26054,85.474811 104.45344,140.16075 78.185109,85.46977 z"
         id="path2955"
         sodipodi:nodetypes="cccc" />
    </g>
  </g>
</svg>
