<?xml version="1.0" encoding="UTF-8" standalone="no"?>
<!-- Created with Inkscape (http://www.inkscape.org/) -->

<svg
   xmlns:dc="http://purl.org/dc/elements/1.1/"
   xmlns:cc="http://creativecommons.org/ns#"
   xmlns:rdf="http://www.w3.org/1999/02/22-rdf-syntax-ns#"
   xmlns:svg="http://www.w3.org/2000/svg"
   xmlns="http://www.w3.org/2000/svg"
   xmlns:sodipodi="http://sodipodi.sourceforge.net/DTD/sodipodi-0.dtd"
   xmlns:inkscape="http://www.inkscape.org/namespaces/inkscape"
   width="200"
   height="200"
   id="svg4873"
   version="1.1"
   inkscape:version="0.47 r22583"
   sodipodi:docname="con-freemason.svg"
   style="display:inline"
   inkscape:export-filename="C:\local\ml\pt\ava-cross.png"
   inkscape:export-xdpi="90"
   inkscape:export-ydpi="90">
  <defs
     id="defs4875">
    <inkscape:perspective
       sodipodi:type="inkscape:persp3d"
       inkscape:vp_x="0 : 45 : 1"
       inkscape:vp_y="0 : 1000 : 0"
       inkscape:vp_z="90 : 45 : 1"
       inkscape:persp3d-origin="45 : 30 : 1"
       id="perspective6553" />
    <inkscape:perspective
       id="perspective6455"
       inkscape:persp3d-origin="0.5 : 0.33333333 : 1"
       inkscape:vp_z="1 : 0.5 : 1"
       inkscape:vp_y="0 : 1000 : 0"
       inkscape:vp_x="0 : 0.5 : 1"
       sodipodi:type="inkscape:persp3d" />
  </defs>
  <sodipodi:namedview
     id="base"
     pagecolor="#ffffff"
     bordercolor="#666666"
     borderopacity="1.0"
     inkscape:pageopacity="0.0"
     inkscape:pageshadow="2"
     inkscape:zoom="1.4711982"
     inkscape:cx="-20.00806"
     inkscape:cy="17.61981"
     inkscape:document-units="px"
     inkscape:current-layer="layerPosition"
     showgrid="false"
     inkscape:window-width="1024"
     inkscape:window-height="708"
     inkscape:window-x="-4"
     inkscape:window-y="-4"
     inkscape:window-maximized="1" />
  <metadata
     id="metadata4878">
    <rdf:RDF>
      <cc:Work
         rdf:about="">
        <dc:format>image/svg+xml</dc:format>
        <dc:type
           rdf:resource="http://purl.org/dc/dcmitype/StillImage" />
        <dc:title />
      </cc:Work>
    </rdf:RDF>
  </metadata>
  <g
     inkscape:groupmode="layer"
     id="layerTotal"
     inkscape:label="Total"
     style="display:inline">
    <g
       inkscape:label="Symbol"
       inkscape:groupmode="layer"
       id="layerSymbol"
       style="display:inline">
      <path
         id="seg"
         d="M 103.68318,97.076023 C 107.92251,96.075865 114.92896,101.91417 120.24585,109.68171 122.19502,112.52997 124.09689,115.71578 125.71834,119.27477 127.61956,120.38657 127.74402,121.99251 129.16825,122.76184 123.70725,105.0983 112.0476,93.649352 104.89329,95.958571 L 103.68318,97.076023 z"
         sodipodi:nodetypes="cccccc"
         style="fill:#000000;fill-opacity:1" />
      <path
         style="fill:#000000;fill-opacity:1;display:inline"
         id="seg-3"
         d="M 108.0196,95.792542 C 99.392571,98.831745 90.493967,109.44511 86.128694,119.98945 84.888281,122.987 83.846099,126.11059 83.216831,129.27558 82.141592,130.0727 81.818227,128.69971 79.877292,132.02479 79.938552,115.10987 92.86339,98.300393 106.73865,93.985949 L 108.0196,95.792542 z"
         sodipodi:nodetypes="cccccc" />
      <path
         style="fill:#000000;fill-opacity:1;fill-rule:evenodd;stroke:none"
         d="M 111.53046,89.496765 C 111.5669,92.255699 109.78147,94.876663 107.27127,95.974965 104.51751,97.253634 101.01381,96.658042 98.876346,94.488542 96.971386,92.65246 96.263183,89.697224 97.165669,87.204941 98.104473,84.434689 100.86798,82.463829 103.77471,82.360394 106.66877,82.177225 109.60087,83.840478 110.84146,86.477182 111.2949,87.414896 111.53194,88.455211 111.53046,89.496765 z"
         id="path2819" />
      <path
         style="fill:#ffffff;fill-opacity:1;fill-rule:evenodd;stroke:none;display:inline"
         d="M 110.28533,89.516739 C 110.31085,91.449186 109.06028,93.284998 107.30205,94.054285 105.37322,94.949907 102.91912,94.532734 101.42197,93.013144 100.08767,91.727092 99.591622,89.657147 100.22375,87.911469 100.88132,85.971093 102.81697,84.590637 104.85294,84.518187 106.88004,84.38989 108.93378,85.554888 109.80273,87.401722 110.12034,88.058529 110.28637,88.7872 110.28533,89.516739 z"
         id="path2819-1" />
      <path
         style="fill:#000000;fill-opacity:1;fill-rule:evenodd;stroke:none"
         d="M 65.271904,107.82266 C 80.801222,111.94165 96.330539,116.06064 111.85986,120.17963 111.38344,121.97579 110.90703,123.77195 110.43062,125.56811 94.901299,121.44912 79.371982,117.33013 63.842664,113.21115 64.319077,111.41498 64.795491,109.61882 65.271904,107.82266 z"
         id="rect3616" />
      <path
         style="fill:#000000;fill-opacity:1;fill-rule:evenodd;stroke:none;display:inline"
         d="M 107.41373,121.11669 C 116.98886,114.63834 126.564,108.15999 136.13913,101.68165 137.02448,103.1462 137.90982,104.61075 138.79516,106.07529 129.22003,112.55364 119.64489,119.03199 110.06976,125.51034 109.18441,124.04579 108.29907,122.58124 107.41373,121.11669 z"
         id="rect3616-7" />
      <path
         style="fill:#ffffff;fill-opacity:1;fill-rule:evenodd;stroke:none;display:inline"
         d="M 66.523235,109.07781 C 82.052554,113.19679 94.625382,116.65879 110.1547,120.77778 109.67829,122.57394 110.68012,121.57786 110.2037,123.37402 94.674386,119.25503 81.60881,115.79304 66.079492,111.67405 66.555906,109.87789 66.046822,110.87397 66.523235,109.07781 z"
         id="rect3616-4"
         sodipodi:nodetypes="ccccc" />
      <path
         style="fill:#ffffff;fill-opacity:1;fill-rule:evenodd;stroke:none;display:inline"
         d="M 135.90817,102.90645 C 122.39448,111.59588 121.84033,112.67481 108.32665,121.36424 109.33169,122.92727 109.42373,122.19608 110.42877,123.75911 123.94246,115.06968 123.97226,114.50516 137.48594,105.81573 136.4809,104.2527 136.91321,104.46948 135.90817,102.90645 z"
         id="rect3616-4-0"
         sodipodi:nodetypes="ccccc" />
    </g>
    <g
       inkscape:groupmode="layer"
       id="layerPosition"
       inkscape:label="Position">
      <path
         style="fill:none;stroke:#000000;stroke-width:1.55651581px;stroke-linecap:butt;stroke-linejoin:miter;stroke-opacity:1;display:inline"
         d="M 64.673424,80.439643 137.20284,80.910312 109.30247,144.87281 64.673424,80.439643 z"
         id="path2955"
         sodipodi:nodetypes="cccc" />
    </g>
  </g>
</svg>
