<?xml version="1.0" encoding="UTF-8" standalone="no"?>
<!-- Created with Inkscape (http://www.inkscape.org/) -->

<svg
   xmlns:dc="http://purl.org/dc/elements/1.1/"
   xmlns:cc="http://creativecommons.org/ns#"
   xmlns:rdf="http://www.w3.org/1999/02/22-rdf-syntax-ns#"
   xmlns:svg="http://www.w3.org/2000/svg"
   xmlns="http://www.w3.org/2000/svg"
   xmlns:sodipodi="http://sodipodi.sourceforge.net/DTD/sodipodi-0.dtd"
   xmlns:inkscape="http://www.inkscape.org/namespaces/inkscape"
   width="200"
   height="200"
   id="svg3604"
   version="1.1"
   inkscape:version="0.47 r22583"
   sodipodi:docname="con-gender-male-eye.svg"
   inkscape:export-filename="C:\local\ml\Archive\img\sym-ball.png"
   inkscape:export-xdpi="90"
   inkscape:export-ydpi="90"
   style="display:inline">
  <defs
     id="defs3606">
    <inkscape:perspective
       sodipodi:type="inkscape:persp3d"
       inkscape:vp_x="0 : 45 : 1"
       inkscape:vp_y="0 : 1000 : 0"
       inkscape:vp_z="90 : 45 : 1"
       inkscape:persp3d-origin="45 : 30 : 1"
       id="perspective47" />
    <inkscape:perspective
       id="perspective2893"
       inkscape:persp3d-origin="0.5 : 0.33333333 : 1"
       inkscape:vp_z="1 : 0.5 : 1"
       inkscape:vp_y="0 : 1000 : 0"
       inkscape:vp_x="0 : 0.5 : 1"
       sodipodi:type="inkscape:persp3d" />
    <inkscape:perspective
       id="perspective4229"
       inkscape:persp3d-origin="0.5 : 0.33333333 : 1"
       inkscape:vp_z="1 : 0.5 : 1"
       inkscape:vp_y="0 : 1000 : 0"
       inkscape:vp_x="0 : 0.5 : 1"
       sodipodi:type="inkscape:persp3d" />
  </defs>
  <sodipodi:namedview
     id="base"
     pagecolor="#ffffff"
     bordercolor="#666666"
     borderopacity="1.0"
     inkscape:pageopacity="0.0"
     inkscape:pageshadow="2"
     inkscape:zoom="1.4142136"
     inkscape:cx="66.059308"
     inkscape:cy="44.700371"
     inkscape:document-units="px"
     inkscape:current-layer="layerPosition"
     showgrid="false"
     inkscape:window-width="1024"
     inkscape:window-height="708"
     inkscape:window-x="-4"
     inkscape:window-y="-4"
     inkscape:window-maximized="1" />
  <metadata
     id="metadata3609">
    <rdf:RDF>
      <cc:Work
         rdf:about="">
        <dc:format>image/svg+xml</dc:format>
        <dc:type
           rdf:resource="http://purl.org/dc/dcmitype/StillImage" />
        <dc:title />
      </cc:Work>
    </rdf:RDF>
  </metadata>
  <g
     inkscape:groupmode="layer"
     id="layerTotal"
     inkscape:label="Total"
     style="display:inline">
    <g
       inkscape:groupmode="layer"
       id="layerSymbol"
       inkscape:label="Symbol"
       style="display:inline">
      <path
         style="fill:#000000;fill-opacity:1;stroke:#000000;stroke-width:0.88310087;stroke-linejoin:miter;stroke-miterlimit:4;stroke-opacity:1;stroke-dasharray:none;display:inline"
         d="M 109.11879,53.075902 C 106.72412,53.184403 104.2537,53.837788 102.40004,55.607152 L 104.58754,59.200902 C 106.57808,57.158344 109.40507,57.262809 110.99379,57.419652 107.72497,59.367224 103.06702,61.759099 98.400045,67.450902 94.277469,64.000572 88.891262,61.452522 82.181295,61.513402 L 78.212545,61.732152 C 67.81264,62.778888 59.065446,69.481085 55.431295,78.513402 49.911465,92.232393 55.64009,110.29595 71.525045,114.1384 87.073357,117.89943 100.95951,110.3318 105.15004,103.48215 109.31313,96.677353 109.56087,88.894766 108.99379,84.294652 108.69125,81.840379 106.19681,75.543464 101.27504,70.200902 106.27013,65.302182 108.61365,63.954817 113.55629,60.888402 113.3764,62.667406 113.52338,64.30543 110.27504,65.888402 L 115.55629,67.857152 C 118.09995,63.27896 117.20545,59.570813 116.86879,57.419652 L 116.83754,57.419652 116.58754,54.169652 C 115.16485,53.712881 112.19766,52.9364 109.11879,53.075902 z M 82.212545,64.450902 C 86.379936,64.334817 90.024316,65.292165 92.118795,66.607152 95.115937,67.98098 99.721352,71.162073 103.40004,78.044652 107.88959,86.444254 106.37421,93.229784 104.86879,97.263402 102.15965,104.52229 87.788285,116.63297 70.306295,108.9509 57.907408,103.50249 56.990242,89.016386 61.837545,77.325902 66.854965,67.839685 75.266893,64.644377 82.212545,64.450902 z"
         id="path4329-2"
         sodipodi:nodetypes="cccccccssssccccccccccssscc" />
    </g>
    <g
       inkscape:groupmode="layer"
       id="layerPosition"
       inkscape:label="Position">
      <path
         style="fill:none;stroke:#000000;stroke-width:0.90835607px;stroke-linecap:butt;stroke-linejoin:miter;stroke-opacity:1;display:inline"
         d="M 81.76521,87.671776 126.83129,87.443106 110.90099,135.7802 81.76521,87.671776 z"
         id="path2955"
         sodipodi:nodetypes="cccc" />
    </g>
  </g>
</svg>
