<?xml version="1.0" encoding="UTF-8" standalone="no"?>
<!-- Created with Inkscape (http://www.inkscape.org/) -->

<svg
   xmlns:dc="http://purl.org/dc/elements/1.1/"
   xmlns:cc="http://creativecommons.org/ns#"
   xmlns:rdf="http://www.w3.org/1999/02/22-rdf-syntax-ns#"
   xmlns:svg="http://www.w3.org/2000/svg"
   xmlns="http://www.w3.org/2000/svg"
   xmlns:sodipodi="http://sodipodi.sourceforge.net/DTD/sodipodi-0.dtd"
   xmlns:inkscape="http://www.inkscape.org/namespaces/inkscape"
   width="200"
   height="200"
   id="svg3604"
   version="1.1"
   inkscape:version="0.48.0 r9654"
   sodipodi:docname="con-sports-volleyball.svg"
   inkscape:export-filename="c:\local\ml\pt\images\conscience\con-yinyang2.png"
   inkscape:export-xdpi="90"
   inkscape:export-ydpi="90"
   style="display:inline">
  <defs
     id="defs3606">
    <inkscape:perspective
       sodipodi:type="inkscape:persp3d"
       inkscape:vp_x="0 : 45 : 1"
       inkscape:vp_y="0 : 1000 : 0"
       inkscape:vp_z="90 : 45 : 1"
       inkscape:persp3d-origin="45 : 30 : 1"
       id="perspective5109" />
    <inkscape:perspective
       id="perspective4877"
       inkscape:persp3d-origin="0.5 : 0.33333333 : 1"
       inkscape:vp_z="1 : 0.5 : 1"
       inkscape:vp_y="0 : 1000 : 0"
       inkscape:vp_x="0 : 0.5 : 1"
       sodipodi:type="inkscape:persp3d" />
    <inkscape:perspective
       id="perspective3988"
       inkscape:persp3d-origin="0.5 : 0.33333333 : 1"
       inkscape:vp_z="1 : 0.5 : 1"
       inkscape:vp_y="0 : 1000 : 0"
       inkscape:vp_x="0 : 0.5 : 1"
       sodipodi:type="inkscape:persp3d" />
    <inkscape:perspective
       id="perspective2828"
       inkscape:persp3d-origin="0.5 : 0.33333333 : 1"
       inkscape:vp_z="1 : 0.5 : 1"
       inkscape:vp_y="0 : 1000 : 0"
       inkscape:vp_x="0 : 0.5 : 1"
       sodipodi:type="inkscape:persp3d" />
  </defs>
  <sodipodi:namedview
     id="base"
     pagecolor="#ffffff"
     bordercolor="#666666"
     borderopacity="1.0"
     inkscape:pageopacity="0.0"
     inkscape:pageshadow="2"
     inkscape:zoom="8.3443499"
     inkscape:cx="99.800979"
     inkscape:cy="96.948418"
     inkscape:document-units="px"
     inkscape:current-layer="layerSymbol"
     showgrid="false"
     inkscape:window-width="1024"
     inkscape:window-height="708"
     inkscape:window-x="-4"
     inkscape:window-y="-4"
     inkscape:window-maximized="1" />
  <metadata
     id="metadata3609">
    <rdf:RDF>
      <cc:Work
         rdf:about="">
        <dc:format>image/svg+xml</dc:format>
        <dc:type
           rdf:resource="http://purl.org/dc/dcmitype/StillImage" />
        <dc:title />
        <cc:license
           rdf:resource="" />
      </cc:Work>
    </rdf:RDF>
  </metadata>
  <g
     inkscape:groupmode="layer"
     id="layerTotal"
     inkscape:label="Total"
     style="display:inline">
    <g
       inkscape:groupmode="layer"
       id="layerSymbol"
       inkscape:label="Symbol"
       style="display:inline">
      <path
         sodipodi:nodetypes="cssscc"
         id="path3763"
         d="M 108.19291,87.118169 C 109.68083,87.816067 112.451,90.512076 114.27727,94.008391 C 116.50608,98.275357 115.18321,102.30949 114.43587,104.35857 C 113.0909,108.04605 104.69672,114.10557 95.631578,109.61021 C 89.581193,106.60985 89.026682,98.295088 91.433108,92.35636 C 95.418501,84.646025 105.42012,85.336813 108.19291,87.118169 z"
         style="fill:#ffffff;fill-opacity:1;stroke:none;display:inline"
         inkscape:connector-curvature="0" />
      <path
         style="fill:#000000;fill-opacity:1;stroke:#000000;stroke-width:0.44323525;stroke-linejoin:miter;stroke-miterlimit:4;stroke-opacity:1;stroke-dasharray:none;display:inline"
         d="M 102.63942,85.20427 100.66992,85.308707 C 95.509819,85.840159 91.163204,89.247735 89.360056,93.833568 86.621281,100.79888 89.47135,109.97738 97.352956,111.92824 105.06755,113.83775 111.95583,109.98519 114.03504,106.50753 116.10063,103.05265 116.21889,99.098358 115.93753,96.762828 115.65383,94.407928 111.49301,85.122074 102.63942,85.20427 z M 108.42765,87.006604 C 109.91474,87.704114 112.68337,90.398621 114.50863,93.892988 116.7362,98.157578 115.41406,102.18946 114.66713,104.23739 113.32292,107.92282 104.93341,113.97897 95.873324,109.48611 89.826304,106.48742 89.272103,98.177298 91.677193,92.241878 95.660365,84.535837 105.65641,85.226241 108.42765,87.006604 z"
         id="path4329-5"
         sodipodi:nodetypes="ccsszsccssscc" />
      <path
         style="fill:#ffffff;fill-opacity:1;fill-rule:evenodd;stroke:#000000;stroke-width:1.01460242;stroke-miterlimit:4;stroke-opacity:1;stroke-dasharray:none;display:inline"
         d="M 97.185522,86.948887 C 101.77887,91.999878 106.67717,94.800672 114.54829,95.03041 C 112.8358,100.73527 110.49509,106.50297 106.52543,110.76235 C 102.03285,105.75866 96.976621,103.32135 90.0039,102.36445 C 89.054349,96.173368 91.335505,90.744092 97.185522,86.948887 z"
         id="rect6983"
         sodipodi:nodetypes="ccccc"
         inkscape:connector-curvature="0" />
      <path
         style="fill:#000000;fill-opacity:1;display:inline"
         d="M 91.993823,92.005838 C 91.454984,92.127878 90.319441,93.339488 90.03187,93.644038 90.296008,94.289298 89.364145,96.134098 89.887883,96.454198 97.183953,100.91351 104.11775,103.94075 110.75123,104.76122 L 111.7663,103.58671 C 112.23262,103.20573 112.15769,101.95563 112.41929,101.62093 106.35824,94.722478 95.691601,91.168384 91.993823,92.005838 z M 91.495054,92.762358 C 93.176013,92.636988 98.273917,94.166178 100.88877,95.189018 104.12652,96.455838 108.88178,98.926948 111.96901,102.16392 111.66751,102.14587 111.41772,103.62662 111.12802,103.60329 106.94307,103.26632 102.76573,101.66351 99.832944,100.48987 97.665639,99.622568 91.627309,96.672478 90.46598,95.140498 90.243134,94.846528 91.635436,92.978848 91.495054,92.762358 z"
         id="seg-1-4-68-2-5-1-2-8-6"
         sodipodi:nodetypes="ccscccccscsssc" />
      <path
         style="fill:#000000;fill-opacity:1;display:inline"
         d="M 99.609854,111.32872 C 99.000251,112.11419 98.673765,111.89761 98.456268,111.28406 98.919117,109.407 99.271801,107.40032 99.338584,105.40532 99.348314,105.11485 97.954674,105.12911 97.958573,104.8271 96.590787,106.25989 95.369293,107.97427 94.336035,109.72588 93.691546,110.11681 93.378605,109.65919 93.421778,108.99728 94.534065,107.26625 95.827949,105.62733 97.297884,104.20837 97.644478,104.454 98.889692,104.32057 99.292101,104.76852 L 100.5129,105.72744 C 100.37274,107.56373 100.21944,109.47415 99.609854,111.32872 z"
         id="seg-1-4-68-2-5-1-2-8-6-2"
         sodipodi:nodetypes="ccsccccccc" />
      <path
         style="fill:#000000;fill-opacity:1;display:inline"
         d="M 111.2681,90.060185 C 111.625,89.120051 111.22674,88.965421 110.52737,89.119331 109.07184,90.534294 107.42962,91.928038 105.62487,93.076158 105.36211,93.243318 104.53034,92.069328 104.25336,92.237938 104.74931,90.308945 105.59441,88.348213 106.58808,86.524613 106.5589,85.771284 105.9459,85.759955 105.35985,86.158467 104.43314,88.036926 103.70173,90.016923 103.28051,92.023808 103.71783,92.179368 104.34939,93.294398 105.0077,93.385888 L 106.6348,93.882458 C 108.24827,92.759838 109.92234,91.585638 111.2681,90.060185 z"
         id="seg-1-4-68-2-5-1-2-8-6-2-1"
         sodipodi:nodetypes="ccsccccccc" />
    </g>
    <g
       inkscape:groupmode="layer"
       id="layerPosition"
       inkscape:label="Position"
       style="display:inline">
      <path
         style="fill:none;stroke:#000000;stroke-width:0.9568103px;stroke-linecap:butt;stroke-linejoin:miter;stroke-opacity:1;display:inline"
         d="M 77.53141,70.579619 L 124.55838,70.585217 L 103.7727,131.32348 L 77.53141,70.579619 z"
         id="path2955"
         sodipodi:nodetypes="cccc"
         inkscape:connector-curvature="0" />
    </g>
  </g>
</svg>
