<?xml version="1.0" encoding="UTF-8" standalone="no"?>
<!-- Created with Inkscape (http://www.inkscape.org/) -->

<svg
   xmlns:dc="http://purl.org/dc/elements/1.1/"
   xmlns:cc="http://creativecommons.org/ns#"
   xmlns:rdf="http://www.w3.org/1999/02/22-rdf-syntax-ns#"
   xmlns:svg="http://www.w3.org/2000/svg"
   xmlns="http://www.w3.org/2000/svg"
   xmlns:sodipodi="http://sodipodi.sourceforge.net/DTD/sodipodi-0.dtd"
   xmlns:inkscape="http://www.inkscape.org/namespaces/inkscape"
   width="200"
   height="200"
   id="svg4873"
   version="1.1"
   inkscape:version="0.47 r22583"
   sodipodi:docname="con-animal-sheep.svg"
   inkscape:export-filename="/Users/aaxe/Documents/moralife/img/pos-menorah.png"
   inkscape:export-xdpi="90"
   inkscape:export-ydpi="90"
   style="display:inline">
  <defs
     id="defs4875">
    <inkscape:perspective
       sodipodi:type="inkscape:persp3d"
       inkscape:vp_x="0 : 100 : 1"
       inkscape:vp_y="0 : 1000 : 0"
       inkscape:vp_z="200 : 100 : 1"
       inkscape:persp3d-origin="100 : 66.666667 : 1"
       id="perspective11" />
  </defs>
  <sodipodi:namedview
     id="base"
     pagecolor="#ffffff"
     bordercolor="#666666"
     borderopacity="1.0"
     inkscape:pageopacity="0.0"
     inkscape:pageshadow="2"
     inkscape:zoom="2"
     inkscape:cx="110.67088"
     inkscape:cy="79.732072"
     inkscape:document-units="px"
     inkscape:current-layer="layerPosition"
     showgrid="false"
     inkscape:window-width="1024"
     inkscape:window-height="708"
     inkscape:window-x="-4"
     inkscape:window-y="-4"
     inkscape:window-maximized="1"
     showguides="true"
     inkscape:guide-bbox="true" />
  <metadata
     id="metadata4878">
    <rdf:RDF>
      <cc:Work
         rdf:about="">
        <dc:format>image/svg+xml</dc:format>
        <dc:type
           rdf:resource="http://purl.org/dc/dcmitype/StillImage" />
        <dc:title />
        <dc:creator>
          <cc:Agent>
            <dc:title>Adam Axe</dc:title>
          </cc:Agent>
        </dc:creator>
        <dc:publisher>
          <cc:Agent>
            <dc:title>TeamAxe.Org</dc:title>
          </cc:Agent>
        </dc:publisher>
        <dc:subject>
          <rdf:Bag>
            <rdf:li>Moralife</rdf:li>
            <rdf:li>St. Louis</rdf:li>
            <rdf:li>Arch</rdf:li>
          </rdf:Bag>
        </dc:subject>
        <dc:description>A surrounding for the software, Moralife.</dc:description>
      </cc:Work>
    </rdf:RDF>
  </metadata>
  <g
     inkscape:groupmode="layer"
     id="layerTotal"
     inkscape:label="Total">
    <g
       inkscape:groupmode="layer"
       id="layerSymbol"
       inkscape:label="Symbol"
       style="display:inline">
      <path
         style="fill:#000000;fill-opacity:1;display:inline"
         d="M 95.20474,123.45099 C 88.24821,123.89287 91.75065,119.30439 84.98795,117.18776 82.667028,118.06378 80.59459,121.227 78.139453,117.68808 73.524327,118.86338 70.449174,116.17411 70.987171,113.97887 66.842356,112.84868 64.332869,110.26446 65.059085,106.90794 62.179984,106.55931 63.169476,101.82414 65.034061,100.44846 66.224025,99.57051 67.72581,99.69484 67.72581,99.69484 68.129415,102.02498 68.079632,108.31315 70.830979,107.15612 72.432486,112.12636 75.219384,115.0463 79.19324,113.15656 81.308283,115.37136 83.740724,114.77352 86.5172,113.06527 92.40437,115.65251 91.43172,119.43558 96.77458,119.07888 102.11744,118.7222 107.61007,115.69116 106.97347,108.28436 106.33686,100.87755 95.57815,86.943029 95.75682,81.987322 98.07335,76.462054 95.74765,73.739476 91.13299,72.438934 94.33289,66.805728 79.389253,67.833871 82.219153,63.708882 83.955673,61.177653 83.692599,61.038654 84.69716,58.204602 77.460397,61.807295 77.691559,62.87658 75.625363,61.819699 72.829113,60.389387 72.894703,60.300415 70.203627,60.920605 68.46627,58.80868 66.900908,59.086156 63.547594,59.211099 L 62.778022,56.1882 63.993698,55.450059 C 66.719067,54.180471 69.31927,54.258096 70.316677,56.546919 72.340815,55.108737 74.506572,56.953003 76.003322,58.980512 81.181552,57.514974 83.762454,55.998415 89.0047,51.880922 88.29043,56.843387 91.89808,61.081064 86.22258,63.683252 84.59428,64.42982 99.23583,64.42997 95.59747,70.048937 101.23158,71.299101 99.58743,77.223318 99.27695,81.460282 101.29412,83.066438 111.01174,102.00173 110.96929,109.54198 110.92683,117.08224 102.16126,123.00911 95.20474,123.45099 z"
         id="seg-3-9"
         sodipodi:nodetypes="cccccscccczzccscscccccccscczz"
         inkscape:connector-curvature="0" />
    </g>
    <g
       inkscape:groupmode="layer"
       id="layerPosition"
       inkscape:label="Position">
      <path
         style="fill:none;stroke:#000000;stroke-width:0.90835607px;stroke-linecap:butt;stroke-linejoin:miter;stroke-opacity:1;display:inline"
         d="M 71.21696,83.56012 125.28304,83.33145 104.85274,144.66855 z"
         id="path2955"
         sodipodi:nodetypes="cccc"
         inkscape:connector-curvature="0" />
    </g>
  </g>
</svg>
