<?xml version="1.0" encoding="UTF-8" standalone="no"?>
<!-- Created with Inkscape (http://www.inkscape.org/) -->

<svg
   xmlns:dc="http://purl.org/dc/elements/1.1/"
   xmlns:cc="http://creativecommons.org/ns#"
   xmlns:rdf="http://www.w3.org/1999/02/22-rdf-syntax-ns#"
   xmlns:svg="http://www.w3.org/2000/svg"
   xmlns="http://www.w3.org/2000/svg"
   xmlns:sodipodi="http://sodipodi.sourceforge.net/DTD/sodipodi-0.dtd"
   xmlns:inkscape="http://www.inkscape.org/namespaces/inkscape"
   width="200"
   height="200"
   id="svg23064"
   version="1.1"
   inkscape:version="0.48.0 r9654"
   sodipodi:docname="con-zodiac-virgo.svg">
  <defs
     id="defs23066">
    <inkscape:perspective
       sodipodi:type="inkscape:persp3d"
       inkscape:vp_x="0 : 100 : 1"
       inkscape:vp_y="0 : 1000 : 0"
       inkscape:vp_z="200 : 100 : 1"
       inkscape:persp3d-origin="100 : 66.666667 : 1"
       id="perspective11" />
  </defs>
  <sodipodi:namedview
     id="base"
     pagecolor="#ffffff"
     bordercolor="#666666"
     borderopacity="1.0"
     inkscape:pageopacity="0.0"
     inkscape:pageshadow="2"
     inkscape:zoom="1.628125"
     inkscape:cx="11.688001"
     inkscape:cy="119.54024"
     inkscape:document-units="px"
     inkscape:current-layer="layerPosition"
     showgrid="false"
     inkscape:window-width="1024"
     inkscape:window-height="708"
     inkscape:window-x="-4"
     inkscape:window-y="-4"
     inkscape:window-maximized="1" />
  <metadata
     id="metadata23069">
    <rdf:RDF>
      <cc:Work
         rdf:about="">
        <dc:format>image/svg+xml</dc:format>
        <dc:type
           rdf:resource="http://purl.org/dc/dcmitype/StillImage" />
        <dc:title />
      </cc:Work>
    </rdf:RDF>
  </metadata>
  <g
     inkscape:groupmode="layer"
     id="layerTotal"
     inkscape:label="Total">
    <g
       inkscape:groupmode="layer"
       id="layerSymbol"
       inkscape:label="Symbol">
      <path
         style="fill:#000000;fill-opacity:1;stroke:none;display:inline"
         d="M 109.4204,92.661281 C 108.77741,92.668681 108.1538,92.800594 107.57809,92.914007 106.91014,93.042753 106.64327,93.124422 105.97222,93.316179 105.34901,93.55554 105.18312,93.60737 104.50592,93.967427 104.42622,93.896427 104.35685,93.839482 104.27604,93.762089 104.07828,93.572713 103.62578,93.311772 103.25308,93.166725 102.79289,92.952926 102.15486,92.8956 101.68333,92.888488 100.99487,92.878108 100.32704,93.019023 99.712943,93.140002 99.045003,93.268748 98.776483,93.350411 98.105433,93.542167 97.894063,93.623357 97.737583,93.682295 97.594773,93.739002 97.386143,93.551919 96.953073,93.306153 96.594799,93.166725 96.134609,92.952926 95.498219,92.8956 95.026699,92.888488 94.983699,92.887839 94.939899,92.886788 94.896979,92.887288 94.253969,92.894688 93.630379,93.026594 93.054659,93.140014 92.386719,93.26876 92.118199,93.350422 91.447149,93.542179 90.780835,93.7981 90.647097,93.834971 89.841279,94.268764 90.560327,95.31107 90.617109,95.86833 90.987389,96.653843 91.268379,95.987859 91.365829,95.726175 91.700009,95.268725 91.914239,95.028823 92.232269,94.814534 92.466829,94.695236 92.859449,94.495531 93.089529,94.47579 93.489789,94.365969 94.065039,94.265287 94.453099,94.209021 94.939669,94.263903 95.272899,94.358183 95.505169,94.390673 95.936359,94.687944 96.313109,94.947687 96.372019,95.053534 96.627639,95.387792 96.986393,96.14299 97.375743,96.552851 97.282803,98.792283 97.133543,100.0183 96.132409,101.38637 95.299269,102.5309 94.649469,103.22476 94.167619,103.77745 93.714739,104.33156 93.498629,104.59598 93.288899,104.86067 93.082569,105.12132 L 95.353449,105.12012 C 95.950209,104.2044 96.656499,103.4994 97.291003,102.72775 L 98.005273,101.8991 C 98.609583,100.87488 99.116733,100.75122 99.400963,98.631914 99.481163,96.923955 99.076693,95.798379 98.635803,95.011156 98.801243,94.880462 98.979443,94.769336 99.125103,94.695248 99.517733,94.495543 99.747813,94.475801 100.14806,94.365981 100.72332,94.265299 101.11138,94.209033 101.59795,94.263914 101.93118,94.358194 102.16344,94.390684 102.59464,94.687955 102.9714,94.947699 103.03029,95.053546 103.28592,95.387803 103.64467,96.143001 104.03402,96.552862 103.94107,98.792295 103.79182,100.01831 102.78906,101.38639 101.9559,102.53091 101.30611,103.22478 100.82426,103.77746 100.37138,104.33157 100.15526,104.59599 99.947183,104.86069 99.740853,105.12133 L 102.01173,105.12013 C 102.60848,104.20441 103.31313,103.49941 103.94764,102.72776 L 104.66355,101.89911 C 105.26785,100.87489 105.77338,100.75123 106.0576,98.631925 106.1104,97.507517 105.95326,96.63626 105.71442,95.946727 105.8652,95.599623 105.98423,95.370194 106.22344,95.042753 106.43767,94.802851 106.75734,94.588569 106.99189,94.469264 107.38452,94.269566 107.61296,94.249818 108.01321,94.13999 108.58847,94.039315 108.97817,93.983049 109.46474,94.037938 109.79797,94.132218 110.03023,94.164701 110.46142,94.461972 110.66596,94.602987 110.77583,94.699262 110.87521,94.810684 107.04655,96.817378 106.76893,101.72103 108.46312,105.43482 107.64632,105.91457 106.76832,106.22208 105.8622,106.29505 L 106.61752,106.79807 C 107.39107,106.76358 108.16659,106.59638 108.91467,106.31814 109.37017,107.1094 109.92332,107.82506 110.55666,108.41891 L 111.89324,108.55499 C 111.18033,107.84161 110.55837,106.8673 110.08377,105.7811 113.84251,103.70376 116.31308,98.78976 112.73066,94.08653 L 112.71096,94.09383 C 112.43128,93.76364 112.31335,93.699425 112.14283,93.536137 111.94508,93.346768 111.49094,93.087032 111.11823,92.941992 110.65804,92.728193 110.02165,92.669648 109.55013,92.662536 109.50703,92.661887 109.46333,92.660836 109.42041,92.661336 z M 111.49752,95.684251 C 113.172,98.230374 112.88211,100.29945 111.62559,102.27817 111.06939,103.15371 110.39508,103.94639 109.63878,104.59278 109.26555,103.41225 109.07054,102.16778 109.11664,101.02062 109.20164,98.913762 109.63052,96.825774 111.49752,95.684251 z"
         id="path3038"
         inkscape:connector-curvature="0" />
    </g>
    <g
       inkscape:groupmode="layer"
       id="layerPosition"
       inkscape:label="Position">
      <path
         style="fill:none;stroke:#000000;stroke-width:1.12732708px;stroke-linecap:butt;stroke-linejoin:miter;stroke-opacity:1;display:inline"
         d="M 69.284087,78.414364 L 132.46821,78.159921 L 104.37719,131.94499 L 69.284087,78.414364 z"
         id="path2955"
         sodipodi:nodetypes="cccc"
         inkscape:connector-curvature="0" />
    </g>
  </g>
</svg>
